<svg xmlns="http://www.w3.org/2000/svg" width="192.075" height="74.687" viewBox="0 0 192.075 74.687">
  <g id="Button_s_Frame" data-name="Button&apos;s Frame" transform="translate(-1004.65 -635.657)">
    <path id="Handwritten_Underline" data-name="Handwritten Underline" d="M7189.483,3636.674c-1.22.021-2.468.034-3.651.067a10.93,10.93,0,0,1-2.708-.144c-.238-.055-.178-.122-.186-.184,0-.022.133-.05.3-.065.374-.034.771-.07,1.233-.089,1.2-.048,2.442-.087,3.669-.128.431-.015.871-.027,1.3-.042,1.467-.053,2.928-.1,4.514-.123.967-.011,1.9-.049,2.853-.07q2.962-.066,5.939-.126c.376-.008.785,0,1.176,0a15.314,15.314,0,0,0,1.6-.053c.165-.021.572-.027.883-.033,1.409-.028,2.825-.054,4.237-.081.834-.016,1.646-.027,2.522-.011a19.892,19.892,0,0,0,2.178-.058,9.907,9.907,0,0,1,1.265-.029c.92.034,1.811.013,2.713,0q1.459-.021,2.911-.045,9.085-.156,18.266-.249c1.157-.013,2.372.009,3.5-.012,2.65-.051,5.342-.046,8.007-.073,1.747-.018,3.52-.021,5.277-.018,1.258,0,2.468-.018,3.7-.033,1.163-.014,2.338-.021,3.507-.031.587-.005,1.171-.014,1.759-.018.849,0,1.7-.012,2.549-.008,2.2.012,4.391.032,6.6.026.327,0,.662-.009.979,0,1.183.017,2.282-.073,3.463-.027,1.081.043,2.205,0,3.295.025.379.007.8.01,1.174,0,1.5-.035,2.97-.02,4.471,0,1.225.017,2.469.01,3.718,0,1.148-.013,2.344-.027,3.491.013.122,0,.268.011.378.008,1.372-.035,2.728.015,4.092.006.725-.005,1.424-.007,2.116.024.251.011.615,0,.927,0,.78,0,1.563-.005,2.339,0,1.958.013,3.913.044,5.87.044,1.778,0,3.5.024,5.236.051.32,0,.65.009.974.008,3.161-.011,6.275.027,9.391.071.9.013,1.828.007,2.743.005a9.492,9.492,0,0,1,1.457.078c.71.118,1.187.239,0,.37-1.013.017-2.111,0-3.2-.011-2.209-.024-4.411-.056-6.626-.073q-4.006-.032-8.028-.045-4.126-.013-8.258-.009-5.115,0-10.228,0c-2.1,0-4.186.024-6.279.034-1.048,0-2.1,0-3.146.006l-9.62.042c-.1,0-.187.014-.46.034,1.205,0,2.238,0,3.27,0q1.957.006,3.913.018c.131,0,.264,0,.392,0,2.944-.035,5.871.029,8.811.013,2.1-.01,4.165.021,6.247.032,1.1.006,2.21.007,3.315.009.589,0,1.19,0,1.766,0,1.951.029,3.915.024,5.876.032,1.374.005,2.74.027,4.113.035,2.284.013,4.573.019,6.856.032,2.091.012,4.225.01,6.255.051,2.376.048,4.788.041,7.165.08,1.571.026,3.23,0,4.851,0,.455,0,.981-.008,1.354.01,1.234.06,2.533.049,3.841.054,1.1,0,2.193.036,3.3.047,1.362.014,2.736.016,4.1.027,1.162.01,2.306.018,3.427.064,1.053.044,2.235.062,3.378.083a17.258,17.258,0,0,1,1.8.1,3.756,3.756,0,0,1-.986.073c-.716.006-1.439,0-2.158,0-.911,0-1.072.02-1.067.116s-.194.209-1.124.3l-6.725-.087c-1.688-.021-3.376-.044-5.069-.058-3.982-.033-7.98-.052-11.952-.094-3.073-.032-6.151-.015-9.221-.033-.392,0-.791,0-1.177,0-3.847-.049-7.719-.019-11.577-.034q-3.53-.014-7.065-.018-4.223-.006-8.446,0c-2.094,0-4.185.024-6.276.027-2.362,0-4.716,0-7.057.038-.646.009-1.281.018-1.942,0-.345-.011-.768,0-1.149,0q-1.458.015-2.91.035c-2.593.035-5.213.026-7.818.04-2.146.012-4.3.026-6.451.031-1.313,0-2.6.017-3.894.042-1.464.028-2.973.039-4.468.046s-3,.015-4.455.056c-.125,0-.258.009-.384.008-2.911-.012-5.627.109-8.515.113-.3,0-.606.011-1.106.021.3.023.441.043.555.041,1.486-.019,3.007-.012,4.463-.054.307-.009.649-.012.97-.01,1.91.01,3.763-.033,5.641-.052s3.773-.039,5.662-.056c.453,0,.914,0,1.37,0,2.359,0,4.714-.01,7.043-.051.32-.006.654-.006.98,0,2.812.008,5.608-.035,8.422-.021.517,0,1.047,0,1.561-.013,2.072-.033,4.164-.025,6.252-.03,2.218-.005,4.433-.023,6.65-.031.976,0,1.968,0,2.932.008.859.011,1.69.007,2.535,0,.39,0,.792-.009,1.177,0,2.559.03,5.105,0,7.658-.01.26,0,.525-.005.78,0,3.317.042,6.645.032,9.974.022.455,0,.937,0,1.364.009.969.027,1.92.032,2.906.011.3-.006.644,0,.967.005q4.3.033,8.62.027.687,0,1.374,0l4.315.024c.394,0,.791.01,1.176.006.795-.009,1.227.089,2.188.053.6-.023,1.392,0,2.1,0q1.175,0,2.349.009c.777,0,1.566.025,2.327.017,1.531-.016,2.943.038,4.418.051,3.052.027,6.105.047,9.119.108.824.017,1.794-.012,2.664.011,1.145.031,2.307.042,3.483.05,2.739.018,5.417.074,8.152.11.506.067.991.131.951.219s-.421.188-2.068.2c-.835.007-1.713,0-2.54-.017-3.858-.074-7.757-.12-11.657-.167l-7.2-.089c-.066,0-.132,0-.2,0-2.583.025-5.063-.052-7.605-.067-1.5-.009-3.01-.011-4.514-.019l-6.267-.03c-1.5-.007-3.007-.01-4.509-.018q-1.761-.009-3.52-.026c-1.038-.009-2.064-.017-3.118-.015-1.425,0-2.873.028-4.3-.015-.41-.012-.916,0-1.365,0-2.352.036-4.705.02-7.061.005-.456,0-.915,0-1.373,0-.711,0-1.428,0-2.131-.007-1.1-.012-2.18-.035-3.3,0-.418.013-.909.006-1.365,0-2.281-.01-4.566,0-6.85-.01-1.234,0-2.477.016-3.718.021-1.309.005-2.621,0-3.931.008q-3.044.011-6.085.026-1.373.006-2.745.014l-7.639.055c-.849.006-1.7.016-2.545.018-1.769,0-3.522.01-5.277.041-1.269.023-2.6.014-3.905.019-.391,0-.786,0-1.176,0l-10.751.106q-3.8.038-7.562.106c-1.093.02-2.208.027-3.308.044q-4.175.062-8.344.129-5.427.087-10.847.179c-3.283.058-6.549.124-9.826.184-.832.015-1.687.019-2.522.032-1.482.024-2.971.046-4.438.077-2.825.059-5.667.1-8.569.093-1.234,0-2.3-.034-3.291-.1-1.238-.087-1.567-.163-1.217-.3a1.576,1.576,0,0,1,.228-.071c.042-.011.152-.019.262-.031,3.087-.013,6.244,0,9.345-.118-.433-.153-.52-.3.3-.46,1.906.011,3.82-.027,5.732-.064,3.073-.06,6.154-.118,9.206-.187,1.208-.027,2.395-.049,3.635-.059,1.223-.01,2.428-.046,3.628-.075,1.076-.026,2.137-.059,3.2-.089.314-.009.631-.027.938-.025,2.775.013,5.376-.088,8.1-.111.708-.006,1.393-.033,2.093-.049.6-.013,1.21-.024,1.857-.036-.166-.017-.246-.033-.329-.033-1.569,0-3.156-.02-4.7,0-2.467.026-4.909.074-7.359.113q-2.228.036-4.449.075-3.851.07-7.7.143c-2.441.045-4.9.084-7.321.138q-5.361.117-10.776.207c-2.118.036-4.18.1-6.271.153-.377.009-.766.017-1.153.02-1.155.01-2.042-.063-1.9-.2a2.3,2.3,0,0,1,.267-.176c2.666-.01,5.167-.1,7.71-.174.561-.016,1.166-.019,1.724-.036a19.057,19.057,0,0,0,2.009-.1c.586.037,1.14.008,1.692-.007.5-.013.983-.033,1.485-.046a11.818,11.818,0,0,0,1.386-.076C7192.427,3636.581,7190.876,3636.6,7189.483,3636.674Zm57.737-.383c.541.021,1.087.031,1.677.014a.757.757,0,0,0-.1-.02l-1.562.007c-.959.024-2.006,0-3.293.047.553.006.742.01.93.01.516,0,1.042,0,1.541-.011C7246.7,3636.332,7246.939,3636.307,7247.221,3636.292Zm-10.109.149c-.582-.006-1.165-.014-1.748-.016-.21,0-.568,0-.344.047l2.086-.03c.506,0,1.015-.006,1.519-.012a12.84,12.84,0,0,0,1.36-.04c-1.139-.026-1.92-.025-2.579.008A2.178,2.178,0,0,0,7237.111,3636.441Zm-40.666.074a6.563,6.563,0,0,0-1.171.027l1.145-.03,7.32-.14,2.508-.047c2.242-.044,4.479-.09,6.727-.131,1.217-.022,2.462-.031,3.674-.055,1.535-.031,3.033-.08,4.576-.105,1.922-.032,3.8-.1,5.81-.073.3,0,.656-.006.945-.019,1.468-.062,3-.083,4.6-.077.581,0,1.254.005,1.732-.019.994-.05,1.987-.054,3.042-.04.185,0,.407,0,.565-.006.405-.02.774-.046,1.178-.066.362-.018.913.005,1.225-.048-1.2-.025-2.3-.01-3.387,0-1.613.021-3.217.049-4.829.07-1.553.02-3.12.032-4.668.054q-7.088.1-14.09.25c-.955.021-1.936.03-2.887.052q-3.535.08-7.052.167c-1.834.046-3.652.1-5.465.152A14.464,14.464,0,0,0,7196.445,3636.515Zm45.365-.857a13.287,13.287,0,0,0,1.759.055,27.046,27.046,0,0,0,2.762-.114C7244.762,3635.628,7243.272,3635.6,7241.811,3635.658Zm28.622.493c-.88-.037-1.512-.063-2.228-.033-.28.012-.618.021-.5.069C7268.539,3636.191,7269.4,3636.219,7270.433,3636.151Zm-36.885.319c-.813.02-1.771-.04-2.619.048C7232,3636.551,7232.761,3636.5,7233.548,3636.469Zm26.045-.242a16,16,0,0,0-2.329.024Zm-12.385-.632a6.1,6.1,0,0,0,1.281.015A7.108,7.108,0,0,0,7247.208,3635.6Zm5.168-.049.028.027,1.588-.027-.158-.009Zm10.448.65h1.245A4.528,4.528,0,0,0,7262.824,3636.2Zm17.067-.092.029.024.873-.005-.008-.018Zm-23.68-.588c-.048,0-.119,0-.138.007s.019.009.031.014l.221-.012Zm-25.46,1.561-.2.02.118.01c.075-.006.14-.014.207-.021Zm34.785-.908-.272.015c.108,0,.217.012.324.012.092,0,.182-.01.272-.015Zm-23.717.193-.138.005c.036,0,.072.008.112.008s.091,0,.137-.005Zm-7.32.688-.146,0,.037.013Zm39.518-.92c.036,0,.072.009.108.009s.092,0,.138-.007l-.178-.016Zm-.444-.447-.146.01c.082,0,.158.011.249.015.032,0,.1-.006.145-.009Zm-.924.454-.012.01.124,0Zm9.531-.027-.105-.007-.021.01Z" transform="translate(-6173.074 -2991.241)" fill="#1d1d1d"/>
    <path id="Handwritten_Underline-2" data-name="Handwritten Underline" d="M7181.123,3637.423c-.353.031-.713.048-1.056.1a.769.769,0,0,1-.782-.208.373.373,0,0,1-.054-.266c0-.032.038-.072.088-.095a1.638,1.638,0,0,1,.356-.128c.348-.069.706-.125,1.061-.186.125-.022.252-.04.375-.062a10.433,10.433,0,0,1,1.305-.178c.279-.016.548-.07.824-.1q.856-.1,1.717-.183c.108-.011.227,0,.34,0a.933.933,0,0,0,.463-.077.788.788,0,0,1,.255-.048c.407-.041.817-.079,1.225-.118a3.847,3.847,0,0,1,.729-.017,1.2,1.2,0,0,0,.629-.084.6.6,0,0,1,.365-.042,3.011,3.011,0,0,0,.784,0c.281-.021.563-.041.842-.065,1.751-.151,3.514-.262,5.28-.36.334-.019.686.013,1.012-.018.766-.073,1.544-.066,2.314-.1.5-.025,1.018-.031,1.525-.026.363,0,.713-.027,1.069-.048.336-.02.676-.029,1.014-.044.169-.008.338-.021.508-.025.245-.007.492-.018.737-.011.635.017,1.269.046,1.907.038.095,0,.191-.012.283-.006a7.711,7.711,0,0,1,1-.039,9.237,9.237,0,0,0,.952.037,1.643,1.643,0,0,0,.339,0,6.969,6.969,0,0,1,1.292,0,8.673,8.673,0,0,0,1.074-.006,4.45,4.45,0,0,1,1.01.02.408.408,0,0,0,.109.012c.4-.051.789.022,1.183.009a2.383,2.383,0,0,1,.611.035,1.462,1.462,0,0,0,.268,0c.226,0,.452-.007.676,0,.565.02,1.131.063,1.7.063.515,0,1.013.035,1.514.074.093.007.188.013.282.011.914-.016,1.814.04,2.714.1.26.018.528.01.793.007a.63.63,0,0,1,.421.113c.206.171.343.345,0,.535a6.959,6.959,0,0,1-.926-.016c-.639-.035-1.275-.081-1.916-.106q-1.158-.047-2.32-.065c-.8-.013-1.592-.011-2.387-.013-.986,0-1.971-.01-2.957,0-.605,0-1.21.035-1.815.05-.3.007-.607,0-.91.009q-1.39.029-2.781.062a.678.678,0,0,0-.133.05c.349,0,.647,0,.945,0,.377.006.754.017,1.131.026.038,0,.076,0,.113,0,.852-.05,1.7.042,2.547.02.606-.015,1.2.03,1.806.046.319.008.639.009.959.013.17,0,.344-.007.51.006.564.042,1.132.035,1.7.046.4.008.792.039,1.189.05.66.019,1.322.027,1.982.046.6.018,1.221.015,1.808.074.687.069,1.384.06,2.071.116.454.038.934,0,1.4.006a1.873,1.873,0,0,1,.391.014,5.155,5.155,0,0,0,1.11.078c.319.006.634.052.954.067.394.02.791.023,1.185.04a6.163,6.163,0,0,1,.991.093,9.052,9.052,0,0,0,.976.12,1.131,1.131,0,0,1,.522.145c-.02.083-.159.1-.285.1-.207.009-.416,0-.624.006-.264.005-.31.029-.309.167,0,.157-.057.3-.325.432-.637-.042-1.29-.085-1.943-.126-.488-.03-.977-.063-1.466-.084-1.151-.047-2.307-.075-3.455-.136-.888-.046-1.778-.021-2.665-.048-.113,0-.229.007-.34,0-1.112-.071-2.231-.027-3.347-.049q-1.021-.02-2.042-.026c-.814-.005-1.628-.01-2.442,0-.6,0-1.209.035-1.814.039-.683,0-1.363.007-2.04.055a2.376,2.376,0,0,1-.562,0,1.678,1.678,0,0,0-.333,0q-.421.022-.841.051c-.749.05-1.507.037-2.26.058-.621.017-1.242.038-1.865.044-.379,0-.751.025-1.125.061-.423.04-.859.057-1.292.066a10.531,10.531,0,0,0-1.288.082.657.657,0,0,1-.111.011c-.841-.018-1.626.157-2.461.163-.088,0-.176.016-.32.03a.658.658,0,0,0,.161.06c.43-.027.869-.018,1.29-.079a1.614,1.614,0,0,1,.28-.015c.552.014,1.087-.047,1.63-.075s1.091-.056,1.637-.081c.131-.006.265-.006.4-.006.682,0,1.362-.015,2.036-.074.092-.008.189-.008.284-.007.813.011,1.621-.051,2.434-.03a4.345,4.345,0,0,0,.451-.018c.6-.048,1.2-.037,1.807-.044.641-.008,1.281-.033,1.922-.044.282-.006.569-.007.847.011a6.225,6.225,0,0,0,.733,0,3.3,3.3,0,0,1,.34-.007c.74.043,1.476,0,2.214-.014.075,0,.152-.008.226,0,.959.062,1.92.047,2.883.033a2.7,2.7,0,0,1,.395.013,3.4,3.4,0,0,0,.84.016,2.077,2.077,0,0,1,.279.008c.83.031,1.66.047,2.492.039.132,0,.265,0,.4,0l1.248.036c.113,0,.229.015.34.009.229-.013.354.129.633.076a3.392,3.392,0,0,1,.606,0c.227,0,.453.007.679.014s.453.036.673.024a12.714,12.714,0,0,1,1.276.074c.883.04,1.765.068,2.636.157.238.024.519-.018.77.016a9.927,9.927,0,0,0,1.007.072c.792.025,1.566.107,2.356.159.146.1.287.189.275.316-.014.149-.122.273-.6.293a5.338,5.338,0,0,1-.734-.024c-1.115-.106-2.242-.173-3.37-.241q-1.041-.062-2.081-.128a.444.444,0,0,0-.056,0c-.747.036-1.464-.076-2.2-.1-.434-.013-.87-.017-1.3-.027-.6-.014-1.208-.03-1.812-.043-.434-.01-.869-.015-1.3-.027-.339-.009-.679-.022-1.018-.037-.3-.013-.6-.024-.9-.021a7.713,7.713,0,0,1-1.243-.022,1.846,1.846,0,0,0-.395,0,19.1,19.1,0,0,1-2.041.008c-.132,0-.264,0-.4,0-.205,0-.413,0-.616-.01a4.465,4.465,0,0,0-.952,0,2.513,2.513,0,0,1-.395.006c-.66-.015-1.32,0-1.98-.015-.356-.006-.716.024-1.074.031-.379.007-.758,0-1.137.012-.586.011-1.172.025-1.759.038-.265.006-.529.011-.793.021q-1.1.038-2.208.08c-.246.008-.49.023-.736.026-.511.006-1.018.014-1.525.06-.367.034-.752.021-1.129.027-.113,0-.227,0-.34.005l-3.107.154q-1.1.055-2.186.154c-.316.028-.638.04-.956.063q-1.206.09-2.412.186c-1.046.084-2.093.168-3.136.259-.949.083-1.893.18-2.84.267-.241.022-.488.027-.729.046-.429.034-.858.067-1.283.112a22.21,22.21,0,0,1-2.477.134,2.9,2.9,0,0,1-.952-.149c-.358-.125-.453-.236-.352-.44a.516.516,0,0,1,.066-.1.349.349,0,0,1,.075-.046,16.374,16.374,0,0,0,2.7-.171.484.484,0,0,1,.088-.665,13.193,13.193,0,0,0,1.657-.093c.889-.087,1.779-.17,2.661-.271.35-.039.692-.071,1.051-.085s.7-.066,1.049-.108c.311-.038.618-.085.926-.128a1.819,1.819,0,0,1,.271-.037c.8.019,1.554-.127,2.34-.16.2-.008.4-.048.6-.071.174-.019.35-.034.537-.052-.048-.024-.071-.047-.1-.047-.453,0-.912-.028-1.359,0-.713.038-1.419.107-2.127.164-.429.035-.858.07-1.286.109-.742.067-1.483.137-2.225.207-.706.065-1.416.122-2.116.2-1.033.113-2.072.209-3.115.3-.612.053-1.208.147-1.812.222-.109.014-.221.024-.333.029-.334.014-.59-.091-.549-.288.017-.08.048-.159.077-.254a17.634,17.634,0,0,0,2.229-.251c.162-.023.337-.027.5-.051a1.235,1.235,0,0,0,.581-.149,1.08,1.08,0,0,0,.489-.011c.145-.02.284-.048.429-.067a.775.775,0,0,0,.4-.11A10.823,10.823,0,0,0,7181.123,3637.423Zm16.69-.554a1.431,1.431,0,0,0,.485.02c-.015-.014-.023-.029-.03-.029-.15,0-.3.007-.452.011-.277.035-.58,0-.952.067.16.009.214.015.269.014.149,0,.3,0,.445-.016A1.42,1.42,0,0,0,7197.813,3636.87Zm-2.922.216c-.168-.009-.337-.021-.505-.024-.061,0-.165.006-.1.067l.6-.043c.146-.005.293-.009.439-.018a.776.776,0,0,0,.393-.057,2.106,2.106,0,0,0-.746.011C7194.936,3637.032,7194.92,3637.064,7194.891,3637.085Zm-11.755.107a.4.4,0,0,0-.339.04l.331-.044,2.116-.2c.241-.023.483-.044.725-.067.648-.063,1.295-.13,1.944-.189.352-.032.712-.045,1.063-.08.443-.044.876-.115,1.322-.152a11.261,11.261,0,0,1,1.68-.106,1.047,1.047,0,0,0,.273-.027,5.834,5.834,0,0,1,1.329-.111,2.1,2.1,0,0,0,.5-.027,2.762,2.762,0,0,1,.879-.058.577.577,0,0,0,.164-.009c.117-.028.224-.066.34-.095s.264.007.354-.07a5.679,5.679,0,0,0-.979.006c-.466.031-.93.07-1.4.1-.449.029-.9.046-1.35.079-1.366.1-2.725.217-4.073.362-.276.03-.56.044-.834.075-.681.077-1.362.155-2.039.241-.53.067-1.056.143-1.58.22A.942.942,0,0,0,7183.136,3637.192Zm13.113-1.239a.82.82,0,0,0,.508.08,1.689,1.689,0,0,0,.8-.165C7197.1,3635.91,7196.672,3635.875,7196.249,3635.953Zm8.273.713a1.482,1.482,0,0,0-.644-.047c-.081.017-.179.03-.146.1A2.075,2.075,0,0,0,7204.522,3636.666Zm-10.662.46c-.235.028-.512-.057-.757.07A1.85,1.85,0,0,0,7193.86,3637.126Zm7.529-.35a.954.954,0,0,0-.673.034Zm-3.58-.914a.377.377,0,0,0,.37.021C7198.075,3635.8,7197.948,3635.835,7197.81,3635.862Zm1.493-.07.009.039.459-.039-.046-.013Zm3.021.94h.36C7202.518,3636.649,7202.518,3636.649,7202.323,3636.732Zm4.934-.133.009.034.252-.008,0-.026Zm-6.845-.851a.144.144,0,0,0-.04.01c0,.005.005.014.009.021l.064-.017Zm-7.359,2.258-.058.029c.012,0,.033.015.034.014.021-.009.04-.02.06-.03Zm10.055-1.313-.079.022a.456.456,0,0,0,.093.018.3.3,0,0,0,.079-.022Zm-6.855.279-.04.008a.118.118,0,0,0,.032.012.207.207,0,0,0,.04-.008Zm-2.116,1-.042,0,.011.019Zm11.423-1.33a.1.1,0,0,0,.031.013.148.148,0,0,0,.04-.011l-.051-.022Zm-.128-.647-.042.015a.616.616,0,0,0,.072.021.154.154,0,0,0,.042-.014Zm-.268.657,0,.015.036-.006Zm2.755-.04-.031-.01-.006.015Z" transform="translate(-2617.975 7877) rotate(-90)" fill="#1d1d1d"/>
    <path id="Handwritten_Underline-3" data-name="Handwritten Underline" d="M7182.288,3637.423c-.474.031-.957.048-1.417.1a1.275,1.275,0,0,1-1.051-.208c-.094-.079-.069-.177-.072-.266,0-.032.051-.072.118-.095a2.721,2.721,0,0,1,.479-.128c.467-.069.948-.125,1.424-.186.168-.022.339-.04.5-.062.569-.077,1.136-.152,1.753-.178.375-.016.735-.07,1.106-.1q1.15-.1,2.306-.183c.146-.011.3,0,.456,0a1.642,1.642,0,0,0,.622-.077,1.386,1.386,0,0,1,.343-.048c.547-.041,1.1-.079,1.646-.118a6.922,6.922,0,0,1,.979-.017,2.13,2.13,0,0,0,.846-.084,1.051,1.051,0,0,1,.49-.042,5.427,5.427,0,0,0,1.054,0c.377-.021.755-.041,1.13-.065,2.352-.151,4.719-.262,7.092-.36.448-.019.92.013,1.358-.018,1.028-.073,2.073-.066,3.108-.1.678-.025,1.366-.031,2.048-.026.488,0,.958-.027,1.436-.048.452-.02.908-.029,1.361-.044.228-.008.455-.021.683-.025.329-.007.661-.018.99-.011.853.017,1.7.046,2.561.038.127,0,.257-.012.38-.006.459.024.886-.106,1.345-.039.419.063.855.007,1.278.037a2.964,2.964,0,0,0,.456,0,12.55,12.55,0,0,1,1.735,0c.475.024.958.014,1.442-.006a8.017,8.017,0,0,1,1.356.02.728.728,0,0,0,.146.012c.533-.051,1.059.022,1.589.009a4.274,4.274,0,0,1,.82.035,2.64,2.64,0,0,0,.36,0c.3,0,.606-.007.908,0,.76.02,1.519.063,2.278.063.69,0,1.359.035,2.032.074.125.007.253.013.379.011,1.227-.016,2.436.04,3.645.1.35.018.71.01,1.065.007a1.067,1.067,0,0,1,.565.113c.275.171.461.345,0,.535-.393.024-.82,0-1.243-.016-.858-.035-1.713-.081-2.573-.106q-1.554-.047-3.115-.065c-1.068-.013-2.138-.011-3.206-.013-1.324,0-2.647-.01-3.971,0-.813,0-1.625.035-2.437.05-.407.007-.815,0-1.222.009q-1.866.029-3.734.062a1.144,1.144,0,0,0-.179.05c.468,0,.869,0,1.27,0,.506.006,1.013.017,1.52.026.05,0,.1,0,.151,0,1.144-.05,2.279.042,3.42.02.814-.015,1.617.03,2.425.046.429.008.858.009,1.288.013.229,0,.462-.007.685.006.758.042,1.52.035,2.281.046.533.008,1.064.039,1.6.05.887.019,1.775.027,2.662.046.812.018,1.64.015,2.428.074.923.069,1.858.06,2.782.116.609.038,1.253,0,1.883.006a3.368,3.368,0,0,1,.524.014,9.256,9.256,0,0,0,1.491.078c.429.006.852.052,1.281.067.528.02,1.062.023,1.591.04a11.062,11.062,0,0,1,1.331.093c.408.063.867.089,1.311.12a1.926,1.926,0,0,1,.7.145c-.027.083-.213.1-.383.1-.277.009-.559,0-.838.006-.354.005-.416.029-.414.167,0,.157-.076.3-.437.432-.856-.042-1.732-.085-2.61-.126-.655-.03-1.312-.063-1.969-.084-1.546-.047-3.1-.075-4.64-.136-1.193-.046-2.388-.021-3.579-.048-.152,0-.307.007-.456,0-1.494-.071-3-.027-4.5-.049q-1.371-.02-2.742-.026c-1.094-.005-2.187-.01-3.28,0-.812,0-1.623.035-2.436.039-.917,0-1.83.007-2.739.055a4.276,4.276,0,0,1-.754,0,3.019,3.019,0,0,0-.446,0q-.565.022-1.13.051c-1.006.05-2.023.037-3.035.058-.833.017-1.668.038-2.5.044-.51,0-1.009.025-1.512.061-.567.04-1.154.057-1.734.066s-1.166.021-1.729.082a1.157,1.157,0,0,1-.149.011c-1.13-.018-2.185.157-3.3.163-.118,0-.236.016-.431.03a1.1,1.1,0,0,0,.216.06c.577-.027,1.168-.018,1.732-.079a2.914,2.914,0,0,1,.377-.015c.741.014,1.46-.047,2.189-.075s1.465-.056,2.2-.081c.176-.006.355-.006.532-.006.915,0,1.829-.015,2.733-.074.124-.008.254-.008.381-.007,1.092.011,2.178-.051,3.27-.03.2,0,.406-.006.605-.018.8-.048,1.616-.037,2.427-.044.861-.008,1.721-.033,2.582-.044.378-.006.764-.007,1.138.011.334.016.657.01.985,0,.15-.005.307-.013.456-.007.993.043,1.981,0,2.973-.014.1,0,.2-.008.3,0,1.287.062,2.578.047,3.871.033a4.867,4.867,0,0,1,.53.013,6.111,6.111,0,0,0,1.127.016c.118-.009.25,0,.376.008,1.113.031,2.229.047,3.347.039.178,0,.355,0,.533,0l1.675.036c.152,0,.308.015.457.009.308-.013.476.129.85.076a6.107,6.107,0,0,1,.813,0c.3,0,.608.007.912.014s.608.036.9.024c.594-.023,1.142.055,1.714.074,1.186.04,2.37.068,3.54.157.32.024.7-.018,1.034.016.444.044.9.062,1.353.072,1.063.025,2.1.107,3.164.159.2.1.386.189.37.316-.019.149-.164.273-.8.293a9.619,9.619,0,0,1-.986-.024c-1.5-.106-3.011-.173-4.525-.241-.933-.042-1.862-.085-2.795-.128-.025,0-.051,0-.075,0-1,.036-1.966-.076-2.953-.1-.582-.013-1.167-.017-1.752-.027-.811-.014-1.621-.03-2.433-.043-.583-.01-1.167-.015-1.75-.027-.456-.009-.911-.022-1.366-.037-.4-.013-.8-.024-1.211-.021a13.9,13.9,0,0,1-1.669-.022,3.318,3.318,0,0,0-.529,0c-.914.052-1.827.028-2.741.008-.178,0-.354,0-.533,0-.275,0-.555,0-.828-.01a8.037,8.037,0,0,0-1.278,0,4.518,4.518,0,0,1-.529.006c-.887-.015-1.773,0-2.66-.015-.479-.006-.961.024-1.442.031-.509.007-1.018,0-1.526.012-.788.011-1.575.025-2.362.038-.355.006-.711.011-1.065.021q-1.482.038-2.966.08c-.329.008-.658.023-.988.026-.686.006-1.367.014-2.048.06-.493.034-1.01.021-1.517.027-.151,0-.3,0-.456.005l-4.173.154q-1.477.055-2.937.154c-.424.028-.856.04-1.283.063q-1.62.09-3.239.186c-1.4.084-2.811.168-4.211.259-1.274.083-2.542.18-3.813.267-.324.022-.655.027-.98.046-.575.034-1.152.067-1.723.112-1.1.085-2.2.14-3.326.134a5.139,5.139,0,0,1-1.278-.149c-.48-.125-.608-.236-.472-.44a.5.5,0,0,1,.089-.1.506.506,0,0,1,.1-.046,29.447,29.447,0,0,0,3.628-.171.405.405,0,0,1,.118-.665c.74.016,1.482-.039,2.225-.093,1.194-.087,2.39-.17,3.574-.271.47-.039.93-.071,1.411-.085s.943-.066,1.408-.108c.418-.038.83-.085,1.243-.128a3.258,3.258,0,0,1,.365-.037c1.077.019,2.086-.127,3.143-.16.275-.008.541-.048.813-.071.233-.019.47-.034.722-.052a.511.511,0,0,0-.129-.047c-.608,0-1.225-.028-1.825,0-.958.038-1.906.107-2.857.164-.576.035-1.152.07-1.727.109q-1.494.1-2.988.207c-.947.065-1.9.122-2.842.2-1.388.113-2.782.209-4.184.3-.822.053-1.622.147-2.434.222-.146.014-.3.024-.448.029-.448.014-.792-.091-.737-.288a2.593,2.593,0,0,1,.1-.254c1.035-.015,2.006-.145,2.993-.251.218-.023.452-.027.669-.051a2.12,2.12,0,0,0,.78-.149,1.937,1.937,0,0,0,.657-.011c.193-.02.381-.048.575-.067a1.316,1.316,0,0,0,.538-.11C7183.432,3637.288,7182.829,3637.319,7182.288,3637.423Zm22.414-.554a2.571,2.571,0,0,0,.651.02c-.02-.014-.031-.029-.041-.029-.2,0-.405.007-.607.011-.371.035-.778,0-1.277.067.214.009.287.015.361.014.2,0,.4,0,.6-.016A2.433,2.433,0,0,0,7204.7,3636.87Zm-3.925.216c-.226-.009-.452-.021-.679-.024-.081,0-.221.006-.133.067l.81-.043c.2-.005.394-.009.59-.018a1.364,1.364,0,0,0,.527-.057,3.781,3.781,0,0,0-1,.011C7200.838,3637.032,7200.817,3637.064,7200.777,3637.085Zm-15.786.107a.707.707,0,0,0-.455.04l.444-.044,2.843-.2.973-.067c.871-.063,1.739-.13,2.611-.189.473-.032.956-.045,1.427-.08.6-.044,1.177-.115,1.775-.152a20.245,20.245,0,0,1,2.256-.106,1.87,1.87,0,0,0,.367-.027,10.461,10.461,0,0,1,1.785-.111,3.768,3.768,0,0,0,.673-.027,4.956,4.956,0,0,1,1.181-.058,1.041,1.041,0,0,0,.22-.009c.157-.028.3-.066.457-.095.14-.026.354.007.475-.07a10.229,10.229,0,0,0-1.314.006c-.626.031-1.248.07-1.874.1-.6.029-1.212.046-1.812.079-1.835.1-3.659.217-5.47.362-.37.03-.751.044-1.12.075q-1.373.115-2.738.241c-.711.067-1.417.143-2.121.22A1.612,1.612,0,0,0,7184.991,3637.192Zm17.61-1.239a1.438,1.438,0,0,0,.683.08,2.937,2.937,0,0,0,1.072-.165C7203.747,3635.91,7203.17,3635.875,7202.6,3635.953Zm11.111.713a2.649,2.649,0,0,0-.864-.047c-.109.017-.24.03-.2.1A3.72,3.72,0,0,0,7213.713,3636.666Zm-14.319.46a3.562,3.562,0,0,0-1.016.07A3.293,3.293,0,0,0,7199.394,3637.126Zm10.111-.35a1.694,1.694,0,0,0-.9.034Zm-4.808-.914a.659.659,0,0,0,.5.021A.759.759,0,0,0,7204.7,3635.862Zm2.006-.07.012.039.616-.039-.062-.013Zm4.056.94h.483A.5.5,0,0,0,7210.759,3636.732Zm6.626-.133.012.034.339-.008,0-.026Zm-9.192-.851a.267.267,0,0,0-.054.01c-.006.005.008.014.012.021l.086-.017Zm-9.883,2.258-.077.029c.016,0,.044.015.046.014.028-.009.054-.02.08-.03Zm13.5-1.313-.105.022a.8.8,0,0,0,.125.018.5.5,0,0,0,.106-.022Zm-9.207.279-.054.008a.2.2,0,0,0,.044.012.375.375,0,0,0,.054-.008Zm-2.842,1-.057,0,.015.019Zm15.341-1.33a.153.153,0,0,0,.042.013.262.262,0,0,0,.054-.011l-.069-.022Zm-.172-.647-.058.015c.032.007.062.017.1.021a.261.261,0,0,0,.057-.014Zm-.359.657,0,.015.048-.006Zm3.7-.04-.041-.01-.008.015Z" transform="translate(5057.246 -6410.666) rotate(92)" fill="#1d1d1d"/>
    <path id="Handwritten_Underline-4" data-name="Handwritten Underline" d="M7188.517,3636.674c-1.12.021-2.265.034-3.351.067a9.222,9.222,0,0,1-2.485-.144c-.219-.055-.163-.122-.17-.184,0-.022.122-.05.28-.065.343-.034.707-.07,1.132-.089,1.1-.048,2.242-.087,3.367-.128.4-.015.8-.027,1.192-.042,1.346-.053,2.687-.1,4.143-.123.887-.011,1.74-.049,2.618-.07q2.719-.066,5.451-.126c.345-.008.721,0,1.079,0a12.912,12.912,0,0,0,1.47-.053c.151-.021.525-.027.81-.033,1.293-.028,2.593-.054,3.889-.081.766-.016,1.511-.027,2.315-.011a16.76,16.76,0,0,0,2-.058,8.346,8.346,0,0,1,1.161-.029c.844.034,1.662.013,2.49,0q1.34-.021,2.672-.045,8.338-.156,16.764-.249c1.062-.013,2.177.009,3.213-.012,2.433-.051,4.9-.046,7.349-.073,1.6-.018,3.23-.021,4.843-.018,1.154,0,2.265-.018,3.394-.033,1.067-.014,2.146-.021,3.218-.031.539-.005,1.075-.014,1.614-.018.779,0,1.563-.012,2.339-.008,2.017.012,4.03.032,6.053.026.3,0,.608-.009.9,0,1.085.017,2.095-.073,3.178-.027.992.043,2.024,0,3.024.025.348.007.738.01,1.077,0,1.374-.035,2.726-.02,4.1,0,1.124.017,2.266.01,3.412,0,1.054-.013,2.151-.027,3.2.013.112,0,.246.011.347.008,1.259-.035,2.5.015,3.755.006.665-.005,1.307-.007,1.942.024.23.011.565,0,.851,0,.716,0,1.435-.005,2.146,0,1.8.013,3.592.044,5.388.044,1.632,0,3.214.024,4.806.051.294,0,.6.009.894.008,2.9-.011,5.76.027,8.619.071.824.013,1.678.007,2.518.005a8.007,8.007,0,0,1,1.337.078c.652.118,1.089.239,0,.37-.929.017-1.937,0-2.939-.011-2.027-.024-4.049-.056-6.082-.073q-3.677-.032-7.368-.045c-2.525-.009-5.052-.007-7.579-.009q-4.695,0-9.387,0c-1.923,0-3.841.024-5.763.034-.961,0-1.926,0-2.888.006l-8.829.042c-.089,0-.172.014-.422.034,1.106,0,2.054,0,3,0q1.8.006,3.591.018c.12,0,.242,0,.359,0,2.7-.035,5.388.029,8.086.013,1.925-.01,3.823.021,5.733.032,1.013.006,2.028.007,3.043.009.541,0,1.093,0,1.621,0,1.791.029,3.593.024,5.393.032,1.261.005,2.515.027,3.775.035,2.1.013,4.2.019,6.292.032,1.919.012,3.877.01,5.741.051,2.181.048,4.395.041,6.576.08,1.442.026,2.965,0,4.452,0,.417,0,.9-.008,1.242.01,1.133.06,2.325.049,3.525.054,1.014,0,2.013.036,3.027.047,1.25.014,2.511.016,3.764.027,1.066.01,2.116.018,3.145.064.966.044,2.051.062,3.1.083a14.55,14.55,0,0,1,1.656.1,3.172,3.172,0,0,1-.905.073c-.657.006-1.321,0-1.981,0-.836,0-.984.02-.979.116s-.178.209-1.032.3l-6.171-.087c-1.55-.021-3.1-.044-4.653-.058-3.655-.033-7.324-.052-10.969-.094-2.821-.032-5.646-.015-8.463-.033-.359,0-.726,0-1.08,0-3.531-.049-7.084-.019-10.625-.034q-3.24-.014-6.484-.018-3.876-.006-7.752,0c-1.922,0-3.841.024-5.76.027-2.168,0-4.328,0-6.477.038-.593.009-1.176.018-1.783,0-.316-.011-.7,0-1.055,0q-1.337.015-2.671.035c-2.379.035-4.784.026-7.175.04-1.97.012-3.945.026-5.921.031-1.206,0-2.384.017-3.573.042-1.344.028-2.729.039-4.1.046s-2.756.015-4.089.056c-.115,0-.237.009-.352.008-2.672-.012-5.165.109-7.815.113-.278,0-.557.011-1.015.021.273.023.4.043.509.041,1.364-.019,2.76-.012,4.1-.054.281-.009.6-.012.89-.01,1.753.01,3.453-.033,5.177-.052s3.463-.039,5.2-.056c.416,0,.839,0,1.258,0,2.165,0,4.326-.01,6.464-.051.294-.006.6-.006.9,0,2.58.008,5.147-.035,7.729-.021.474,0,.96,0,1.432-.013,1.9-.033,3.822-.025,5.738-.03,2.036-.005,4.068-.023,6.1-.031.9,0,1.806,0,2.691.008.789.011,1.551.007,2.327,0,.357,0,.727-.009,1.08,0,2.348.03,4.686,0,7.028-.01.239,0,.482-.005.716,0,3.044.042,6.1.032,9.154.022.417,0,.859,0,1.252.009.889.027,1.762.032,2.667.011.279-.006.591,0,.888.005q3.95.033,7.911.027.631,0,1.261,0l3.96.024c.361,0,.726.01,1.079.006.729-.009,1.126.089,2.009.053.553-.023,1.277,0,1.925,0q1.078,0,2.155.009c.713,0,1.438.025,2.136.017,1.405-.016,2.7.038,4.055.051,2.8.027,5.6.047,8.37.108.756.017,1.646-.012,2.445.011,1.051.031,2.117.042,3.2.05,2.514.018,4.972.074,7.482.11.464.067.91.131.873.219s-.386.188-1.9.2c-.766.007-1.572,0-2.331-.017-3.541-.074-7.119-.12-10.7-.167l-6.606-.089c-.061,0-.121,0-.179,0-2.371.025-4.647-.052-6.98-.067-1.379-.009-2.762-.011-4.143-.019l-5.751-.03c-1.378-.007-2.759-.01-4.138-.018q-1.616-.009-3.23-.026c-.953-.009-1.895-.017-2.862-.015-1.308,0-2.637.028-3.946-.015-.376-.012-.84,0-1.253,0-2.158.036-4.318.02-6.48.005-.418,0-.84,0-1.26,0-.652,0-1.31,0-1.956-.007-1.01-.012-2-.035-3.025,0-.384.013-.834.006-1.253,0-2.094-.01-4.191,0-6.287-.01-1.133,0-2.273.016-3.412.021-1.2.005-2.405,0-3.607.008q-2.793.011-5.584.026-1.26.006-2.52.014l-7.011.055c-.779.006-1.557.016-2.335.018-1.624,0-3.233.01-4.844.041-1.164.023-2.388.014-3.584.019-.359,0-.722,0-1.079,0l-9.867.106q-3.489.038-6.94.106c-1,.02-2.026.027-3.036.044q-3.831.062-7.658.129-4.981.087-9.955.179c-3.013.058-6.01.124-9.018.184-.764.015-1.548.019-2.315.032-1.361.024-2.727.046-4.074.077-2.593.059-5.2.1-7.865.093-1.133,0-2.114-.034-3.021-.1-1.137-.087-1.438-.163-1.117-.3a1.348,1.348,0,0,1,.209-.071c.038-.011.14-.019.24-.031,2.833-.013,5.731,0,8.577-.118-.4-.153-.477-.3.28-.46,1.75.011,3.506-.027,5.261-.064,2.821-.06,5.648-.118,8.449-.187,1.109-.027,2.2-.049,3.336-.059,1.122-.01,2.229-.046,3.33-.075.988-.026,1.961-.059,2.94-.089.289-.009.579-.027.861-.025,2.547.013,4.934-.088,7.431-.111.65-.006,1.278-.033,1.92-.049.552-.013,1.111-.024,1.705-.036-.152-.017-.226-.033-.3-.033-1.44,0-2.9-.02-4.317,0-2.264.026-4.505.074-6.754.113q-2.045.036-4.083.075-3.534.07-7.063.143c-2.241.045-4.495.084-6.719.138q-4.92.117-9.89.207c-1.944.036-3.836.1-5.755.153-.346.009-.7.017-1.058.02-1.061.01-1.875-.063-1.744-.2a2.144,2.144,0,0,1,.245-.176c2.447-.01,4.742-.1,7.076-.174.515-.016,1.07-.019,1.582-.036a16.068,16.068,0,0,0,1.844-.1,15.5,15.5,0,0,0,1.553-.007c.46-.013.9-.033,1.363-.046a9.973,9.973,0,0,0,1.272-.076C7191.218,3636.581,7189.795,3636.6,7188.517,3636.674Zm52.99-.383c.5.021,1,.031,1.539.014a.659.659,0,0,0-.1-.02l-1.434.007c-.88.024-1.841,0-3.022.047.507.006.681.01.854.01.473,0,.956,0,1.414-.011C7241.026,3636.332,7241.249,3636.307,7241.507,3636.292Zm-9.278.149c-.534-.006-1.069-.014-1.6-.016-.193,0-.522,0-.315.047l1.914-.03c.464,0,.932-.006,1.394-.012a10.823,10.823,0,0,0,1.249-.04c-1.045-.026-1.762-.025-2.367.008A1.858,1.858,0,0,0,7232.229,3636.441Zm-37.322.074a5.531,5.531,0,0,0-1.075.027l1.05-.03,6.719-.14,2.3-.047c2.058-.044,4.11-.09,6.174-.131,1.117-.022,2.259-.031,3.372-.055,1.409-.031,2.784-.08,4.2-.105,1.764-.032,3.487-.1,5.332-.073.278,0,.6-.006.868-.019,1.347-.062,2.754-.083,4.221-.077.533,0,1.151.005,1.59-.019.913-.05,1.824-.054,2.792-.04.169,0,.374,0,.519-.006.372-.02.71-.046,1.081-.066a11.211,11.211,0,0,0,1.124-.048c-1.1-.025-2.108-.01-3.108,0-1.481.021-2.953.049-4.432.07-1.425.02-2.864.032-4.284.054q-6.506.1-12.932.25c-.876.021-1.776.03-2.649.052-2.163.053-4.324.107-6.472.167-1.684.046-3.352.1-5.016.152A12.188,12.188,0,0,0,7194.906,3636.515Zm41.635-.857a11.2,11.2,0,0,0,1.614.055,22.8,22.8,0,0,0,2.535-.114C7239.25,3635.628,7237.883,3635.6,7236.542,3635.658Zm26.269.493c-.808-.037-1.388-.063-2.044-.033-.257.012-.567.021-.462.069C7261.073,3636.191,7261.866,3636.219,7262.811,3636.151Zm-33.853.319c-.747.02-1.625-.04-2.4.048C7227.535,3636.551,7228.236,3636.5,7228.958,3636.469Zm23.9-.242a13.479,13.479,0,0,0-2.138.024Zm-11.367-.632a5.141,5.141,0,0,0,1.176.015A5.994,5.994,0,0,0,7241.5,3635.6Zm4.743-.049.026.027,1.458-.027-.145-.009Zm9.589.65h1.143A3.817,3.817,0,0,0,7255.828,3636.2Zm15.664-.092.027.024.8-.005-.007-.018Zm-21.733-.588c-.044,0-.109,0-.126.007s.017.009.028.014l.2-.012Zm-23.367,1.561-.183.02.108.01c.069-.006.128-.014.19-.021Zm31.925-.908-.25.015c.1,0,.2.012.3.012s.167-.01.25-.015Zm-21.767.193-.126.005c.033,0,.066.008.1.008s.083,0,.125-.005Zm-6.719.688-.133,0,.034.013Zm36.269-.92c.033,0,.066.009.1.009s.084,0,.126-.007l-.163-.016Zm-.408-.447-.134.01c.075,0,.145.011.229.015.029,0,.088-.006.132-.009Zm-.848.454-.011.01.114,0Zm8.748-.027-.1-.007-.02.01Z" transform="translate(-6173.074 -2939.574)" fill="#1d1d1d"/>
  </g>
</svg>
