<svg xmlns="http://www.w3.org/2000/svg" width="320" height="95" viewBox="0 0 320 95">
  <g id="Button_s_Frame" data-name="Button&apos;s Frame" transform="translate(-1004.65 -635.677)">
    <path id="Handwritten_Underline" data-name="Handwritten Underline" d="M19.591,1.679c-2.032.021-4.112.034-6.084.067A30.148,30.148,0,0,1,9,1.6c-.4-.055-.3-.122-.309-.184a1.628,1.628,0,0,1,.508-.065c.623-.034,1.283-.07,2.055-.089,2-.048,4.069-.087,6.113-.128.717-.015,1.451-.027,2.163-.042,2.444-.053,4.878-.1,7.52-.123C28.656.958,30.2.921,31.8.9q4.935-.066,9.9-.126c.627-.008,1.308,0,1.96,0,.968,0,1.945,0,2.667-.053C46.6.7,47.274.69,47.791.684,50.139.656,52.5.63,54.85.6c1.39-.016,2.743-.027,4.2-.011C60.319.6,61.677.6,62.681.533,63.262.5,64.062.488,64.788.5c1.533.034,3.017.013,4.52,0q2.431-.021,4.85-.045Q89.294.3,104.589.21C106.516.2,108.54.22,110.422.2c4.415-.051,8.9-.046,13.339-.073,2.911-.018,5.864-.021,8.792-.018,2.095,0,4.11-.018,6.16-.033,1.938-.014,3.9-.021,5.843-.031.978-.005,1.95-.014,2.93-.018,1.414,0,2.837-.012,4.247-.008,3.661.012,7.315.032,10.988.026.546,0,1.1-.009,1.633,0,1.97.017,3.8-.073,5.769-.027,1.8.043,3.673,0,5.489.025.632.007,1.34.01,1.955,0,2.494-.035,4.949-.02,7.449,0,2.04.017,4.113.01,6.194,0,1.913-.013,3.9-.027,5.816.013.2,0,.446.011.629.008,2.287-.035,4.545.015,6.818.006,1.206-.005,2.372-.007,3.525.024.419.011,1.026,0,1.545,0,1.3,0,2.6-.005,3.9,0,3.262.013,6.519.044,9.78.044,2.962,0,5.834.024,8.723.051.535,0,1.084.009,1.623.008,5.267-.011,10.454.027,15.645.071,1.494.013,3.046.007,4.569.005,1.112,0,1.911.026,2.427.078,1.183.118,1.978.239.007.37-1.686.017-3.517,0-5.336-.011C247.2.678,243.527.646,239.837.628Q233.162.6,226.462.583,219.586.57,212.7.574q-8.523,0-17.039,0c-3.492,0-6.973.024-10.462.034-1.746,0-3.5,0-5.242.006L163.934.655c-.161,0-.312.014-.767.034,2.008,0,3.729,0,5.448,0q3.26.006,6.519.018c.218,0,.44,0,.653,0,4.905-.035,9.781.029,14.679.013,3.494-.01,6.939.021,10.407.032q2.757.008,5.523.009c.981,0,1.983,0,2.942,0,3.25.029,6.522.024,9.789.032,2.289.005,4.566.027,6.853.035q5.709.02,11.423.032c3.483.012,7.038.01,10.421.051,3.959.048,7.977.041,11.938.08,2.617.026,5.382,0,8.08,0,.759,0,1.635-.008,2.256.01,2.056.06,4.22.049,6.4.054,1.84,0,3.654.036,5.494.047,2.27.014,4.559.016,6.832.027,1.936.01,3.841.018,5.709.064,1.755.044,3.724.062,5.628.083,1.243.014,2.269.041,3.007.1a10.333,10.333,0,0,1-1.644.073c-1.192.006-2.4,0-3.595,0-1.518,0-1.787.02-1.778.116s-.325.209-1.873.3l-11.2-.087q-4.219-.031-8.445-.058c-6.635-.033-13.3-.052-19.912-.094-5.121-.032-10.249-.015-15.363-.033-.652,0-1.317,0-1.96,0-6.409-.049-12.859-.019-19.288-.034q-5.881-.014-11.771-.018-7.036-.006-14.071,0c-3.488,0-6.972.024-10.456.027-3.935,0-7.857,0-11.757.038-1.075.009-2.134.018-3.235,0-.575-.011-1.279,0-1.915,0q-2.429.015-4.848.035c-4.32.035-8.685.026-13.026.04q-5.364.018-10.748.031c-2.189,0-4.328.017-6.487.042-2.439.028-4.953.039-7.443.046-2.516.006-5,.015-7.423.056-.208,0-.43.009-.64.008-4.849-.012-9.374.109-14.185.113-.506,0-1.01.011-1.844.021.5.023.735.043.925.041,2.475-.019,5.009-.012,7.434-.054.511-.009,1.083-.012,1.616-.01,3.182.01,6.269-.033,9.4-.052s6.287-.039,9.433-.056c.756,0,1.523,0,2.282,0,3.931,0,7.854-.01,11.734-.051.533-.006,1.09-.006,1.633,0,4.684.008,9.344-.035,14.031-.021.86,0,1.744,0,2.6-.013,3.452-.033,6.938-.025,10.415-.03,3.7-.005,7.385-.023,11.08-.031,1.625,0,3.278,0,4.884.008,1.432.011,2.816.007,4.223,0,.65,0,1.319-.009,1.961,0,4.262.03,8.506,0,12.759-.01.432,0,.875-.005,1.3,0,5.527.042,11.07.032,16.616.022.759,0,1.56,0,2.273.009,1.614.027,3.2.032,4.842.011.507-.006,1.073,0,1.611.005q7.17.033,14.362.027,1.145,0,2.289,0l7.19.024c.655,0,1.318.01,1.959.006,1.325-.009,2.044.089,3.646.053,1-.023,2.318,0,3.494,0q1.957,0,3.913.009c1.3,0,2.609.025,3.877.017,2.551-.016,4.9.038,7.361.051,5.084.027,10.172.047,15.193.108,1.373.017,2.988-.012,4.438.011,1.907.031,3.844.042,5.8.05,4.564.018,9.025.074,13.583.11A4.855,4.855,0,0,1,320,2.444c-.076.1-.7.188-3.445.2-1.392.007-2.854,0-4.232-.017-6.427-.074-12.923-.12-19.421-.167L280.9,2.375c-.111,0-.22,0-.326,0-4.3.025-8.435-.052-12.671-.067-2.5-.009-5.015-.011-7.52-.019l-10.44-.03q-3.753-.01-7.512-.018-2.933-.009-5.863-.026c-1.73-.009-3.44-.017-5.2-.015-2.374,0-4.787.028-7.164-.015-.683-.012-1.526,0-2.273,0-3.919.036-7.839.02-11.763.005-.76,0-1.525,0-2.288,0-1.184,0-2.378,0-3.55-.007-1.833-.012-3.631-.035-5.491,0-.7.013-1.515.006-2.273,0-3.8-.01-7.608,0-11.412-.01-2.057,0-4.126.016-6.194.021-2.18.005-4.367,0-6.548.008q-5.073.011-10.138.026-2.287.006-4.573.014L144.983,2.3c-1.414.006-2.826.016-4.24.018-2.946,0-5.868.01-8.792.041-2.113.023-4.334.014-6.506.019-.651,0-1.31,0-1.96,0l-17.911.106q-6.333.038-12.6.106c-1.821.02-3.679.027-5.511.044q-6.956.062-13.9.129-9.042.087-18.07.179c-5.47.058-10.911.124-16.371.184-1.386.015-2.81.019-4.2.032-2.47.024-4.949.046-7.394.077-4.708.059-9.442.1-14.277.093-2.057,0-3.838-.034-5.483-.1-2.063-.087-2.612-.163-2.027-.3.1-.024.221-.048.378-.071.07-.011.254-.019.436-.031,5.143-.013,10.4,0,15.568-.118-.72-.153-.865-.3.508-.46,3.176.011,6.365-.027,9.55-.064,5.121-.06,10.253-.118,15.338-.187,2.012-.027,3.989-.049,6.055-.059,2.038-.01,4.045-.046,6.045-.075,1.792-.026,3.56-.059,5.336-.089.525-.009,1.051-.027,1.564-.025,4.624.013,8.956-.088,13.49-.111,1.18-.006,2.319-.033,3.487-.049,1-.013,2.016-.024,3.094-.036-.276-.017-.41-.033-.548-.033-2.615,0-5.258-.02-7.837,0-4.109.026-8.179.074-12.261.113q-3.712.036-7.412.075-6.417.07-12.823.143c-4.067.045-8.16.084-12.2.138q-8.931.117-17.953.207c-3.529.036-6.963.1-10.446.153-.628.009-1.276.017-1.922.02-1.925.01-3.4-.063-3.164-.2a4.5,4.5,0,0,1,.444-.176c4.441-.01,8.608-.1,12.845-.174.933-.016,1.942-.019,2.872-.036,1.218-.022,2.634-.027,3.346-.1.977.037,1.9.008,2.82-.007.834-.013,1.637-.033,2.474-.046s1.725-.017,2.308-.076C24.494,1.585,21.91,1.607,19.591,1.679ZM115.782,1.3c.9.021,1.81.031,2.794.014-.085-.01-.132-.02-.174-.02l-2.6.007c-1.6.024-3.343,0-5.487.047.921.006,1.237.01,1.549.01.858,0,1.735,0,2.567-.011C114.908,1.337,115.313,1.311,115.782,1.3Zm-16.843.149c-.97-.006-1.941-.014-2.912-.016-.35,0-.948,0-.573.047l3.474-.03c.844,0,1.691-.006,2.53-.012.759-.005,1.658.011,2.267-.04-1.9-.026-3.2-.025-4.3.008C99.2,1.408,99.107,1.43,98.939,1.445Zm-67.75.074a18.19,18.19,0,0,0-1.951.027l1.907-.03,12.2-.14,4.179-.047c3.735-.044,7.461-.09,11.206-.131,2.027-.022,4.1-.031,6.121-.055,2.557-.031,5.054-.08,7.624-.105,3.2-.032,6.33-.1,9.679-.073.5,0,1.094-.006,1.575-.019,2.445-.062,5-.083,7.662-.077.968,0,2.089.005,2.886-.019C95.928.8,97.582.8,99.34.81c.307,0,.679,0,.942-.006.675-.02,1.29-.046,1.962-.066.6-.018,1.521.005,2.04-.048-1.994-.025-3.827-.01-5.643,0-2.687.021-5.358.049-8.045.07C88.01.784,85.4.8,82.82.818q-11.809.1-23.474.25c-1.592.021-3.224.03-4.809.052q-5.89.08-11.749.167-4.582.07-9.1.152C32.775,1.456,31.729,1.463,31.189,1.519ZM106.769.662c1.2.061,1.2.061,2.93.055,2.067-.006,3.339-.035,4.6-.114C111.685.633,109.2.608,106.769.662Zm47.685.493c-1.467-.037-2.519-.063-3.712-.033-.466.012-1.029.021-.839.069C151.3,1.2,152.738,1.223,154.454,1.155ZM93,1.474c-1.355.02-2.952-.04-4.364.048C90.419,1.555,91.692,1.508,93,1.474Zm43.391-.242c-1.81-.045-1.81-.045-3.879.024ZM115.761.6A16.9,16.9,0,0,0,117.9.614,19.71,19.71,0,0,0,115.761.6Zm8.611-.049.047.027,2.645-.027L126.8.542Zm17.406.65h2.075A12.536,12.536,0,0,0,141.778,1.2Zm28.434-.092.049.024,1.454-.005-.012-.018ZM130.762.52c-.08,0-.2,0-.23.007s.031.009.052.014l.367-.012ZM88.344,2.081l-.331.02.2.01c.126-.006.233-.014.345-.021ZM146.3,1.173l-.454.015c.181,0,.362.012.54.012.153,0,.3-.01.454-.015Zm-39.512.193-.23.005c.06,0,.121.008.188.008s.151,0,.228-.005Zm-12.2.688-.242,0,.061.013Zm65.837-.92c.06,0,.121.009.181.009.078,0,.153,0,.229-.007l-.3-.016Zm-.74-.447-.244.01c.136,0,.263.011.415.015.054,0,.16-.006.241-.009Zm-1.539.454-.02.01.206,0Zm15.878-.027-.175-.007-.036.01Z" transform="translate(1004.65 643.754)" fill="#1d1d1d"/>
    <path id="Handwritten_Underline-2" data-name="Handwritten Underline" d="M4.647,2.428c-.482.031-.975.048-1.443.1a1.315,1.315,0,0,1-1.069-.208c-.095-.079-.071-.177-.073-.266,0-.032.052-.072.12-.095a2.814,2.814,0,0,1,.487-.128c.475-.069.965-.125,1.45-.186.171-.022.344-.04.513-.062.58-.077,1.157-.152,1.784-.178.382-.016.749-.07,1.127-.1q1.171-.1,2.347-.183c.148-.011.31,0,.465,0a1.7,1.7,0,0,0,.633-.077,1.431,1.431,0,0,1,.349-.048c.557-.041,1.117-.079,1.675-.118a7.179,7.179,0,0,1,1-.017,2.2,2.2,0,0,0,.86-.084,1.089,1.089,0,0,1,.5-.042,5.617,5.617,0,0,0,1.072,0c.385-.021.769-.041,1.151-.065C19.984.513,22.394.4,24.809.3c.457-.019.937.013,1.383-.018C27.24.213,28.3.22,29.356.181c.69-.025,1.391-.031,2.085-.026.5,0,.975-.027,1.461-.048.46-.02.924-.029,1.386-.044.232-.008.463-.021.695-.025.335-.007.673-.018,1.007-.011.868.017,1.735.046,2.607.038.129,0,.262-.012.387-.006.467.024.9-.106,1.368-.039.427.062.871.007,1.3.037a3.067,3.067,0,0,0,.464,0,13.012,13.012,0,0,1,1.767,0c.483.024.975.014,1.469-.006a8.3,8.3,0,0,1,1.38.02.755.755,0,0,0,.149.012c.543-.051,1.078.022,1.617.009a4.435,4.435,0,0,1,.836.035,2.73,2.73,0,0,0,.366,0c.308,0,.617-.007.925,0,.773.02,1.546.063,2.319.063.7,0,1.384.035,2.069.074.127.007.258.013.385.011,1.249-.016,2.48.04,3.711.1.355.018.722.01,1.084.007A1.1,1.1,0,0,1,60.772.5c.281.171.469.345,0,.535-.4.024-.834,0-1.266-.016C58.635.98,57.765.934,56.89.909Q55.307.862,53.717.844C52.63.831,51.541.833,50.454.831c-1.348,0-2.695-.01-4.042,0-.828,0-1.654.035-2.481.05-.415.007-.83,0-1.244.009q-1.9.029-3.8.062A1.166,1.166,0,0,0,38.7,1c.477,0,.885,0,1.292,0,.515.006,1.031.017,1.547.026.051,0,.1,0,.154,0,1.164-.05,2.32.042,3.482.02.829-.015,1.646.03,2.469.046.437.008.874.009,1.311.013.232,0,.47-.007.7.006.772.042,1.547.035,2.322.046.543.008,1.083.039,1.625.05.9.019,1.808.027,2.71.046.826.018,1.669.015,2.471.074.939.069,1.892.06,2.832.116.621.038,1.276,0,1.917.006a3.492,3.492,0,0,1,.534.014,9.589,9.589,0,0,0,1.518.078c.437.006.867.052,1.3.067.539.02,1.081.023,1.62.04a11.439,11.439,0,0,1,1.354.093c.416.063.883.089,1.334.12a1.99,1.99,0,0,1,.714.145c-.027.083-.217.1-.39.1-.282.009-.569,0-.852.006-.36.005-.424.029-.422.167,0,.157-.077.3-.445.432-.871-.042-1.764-.085-2.657-.126-.668-.03-1.335-.063-2-.084-1.574-.047-3.153-.075-4.724-.136-1.214-.046-2.431-.021-3.643-.048-.155,0-.312.007-.465,0-1.521-.071-3.051-.027-4.575-.049q-1.4-.02-2.792-.026c-1.113-.005-2.226-.01-3.338,0-.827,0-1.653.035-2.48.039-.934,0-1.863.007-2.788.055a4.433,4.433,0,0,1-.768,0,3.132,3.132,0,0,0-.455,0q-.576.022-1.15.051c-1.024.05-2.06.037-3.089.058-.848.017-1.7.038-2.549.044-.519,0-1.027.025-1.539.061-.578.04-1.175.057-1.766.066s-1.187.021-1.76.082a1.218,1.218,0,0,1-.152.011c-1.15-.018-2.224.157-3.364.163-.12,0-.24.016-.438.03a1.131,1.131,0,0,0,.22.06c.587-.027,1.188-.018,1.764-.079a3.008,3.008,0,0,1,.383-.015c.755.014,1.487-.047,2.229-.075s1.491-.056,2.238-.081c.179-.006.362-.006.542-.006.932,0,1.862-.015,2.783-.074.126-.008.258-.008.388-.007,1.111.011,2.216-.051,3.328-.03.2,0,.414-.006.617-.018.819-.048,1.645-.037,2.471-.044.876-.008,1.752-.033,2.628-.044.385-.006.778-.007,1.158.011.34.016.669.01,1,0,.154-.005.312-.013.465-.007,1.011.043,2.017,0,3.027-.014.1,0,.208-.008.308,0,1.311.062,2.625.047,3.941.033a5.031,5.031,0,0,1,.539.013,6.343,6.343,0,0,0,1.148.016c.12-.009.254,0,.382.008,1.134.031,2.27.047,3.407.039.181,0,.362,0,.543,0l1.706.036c.155,0,.312.015.465.009.314-.013.485.129.865.076a6.333,6.333,0,0,1,.828,0c.31,0,.619.007.929.014s.619.036.92.024c.6-.023,1.163.055,1.745.074,1.207.04,2.413.068,3.6.157.326.024.709-.018,1.053.016.453.044.912.062,1.376.072,1.083.025,2.141.107,3.222.159.2.1.393.189.376.316-.019.149-.167.273-.817.293a9.964,9.964,0,0,1-1-.024c-1.525-.106-3.065-.173-4.607-.241q-1.423-.062-2.844-.128c-.026,0-.052,0-.077,0-1.021.036-2-.076-3.006-.1-.593-.013-1.189-.017-1.784-.027-.826-.014-1.651-.03-2.477-.043-.593-.01-1.188-.015-1.782-.027-.464-.009-.928-.022-1.391-.037-.41-.013-.816-.024-1.232-.021a14.4,14.4,0,0,1-1.7-.022,3.445,3.445,0,0,0-.539,0c-.93.052-1.859.028-2.79.008-.18,0-.361,0-.543,0-.28,0-.564,0-.842-.01a8.334,8.334,0,0,0-1.3,0,4.692,4.692,0,0,1-.539.006c-.9-.015-1.805,0-2.708-.015-.487-.006-.979.024-1.469.031-.518.007-1.036,0-1.554.012-.8.011-1.6.025-2.4.038-.362.006-.724.011-1.085.021q-1.509.038-3.019.08c-.336.008-.67.023-1.006.026-.7.006-1.392.014-2.085.06-.5.034-1.028.021-1.543.027-.154,0-.31,0-.465.005L25.043,3.6q-1.5.055-2.989.154c-.432.028-.872.04-1.307.063q-1.649.09-3.3.186c-1.43.084-2.861.168-4.287.259-1.3.083-2.587.18-3.882.267-.33.022-.667.027-1,.046-.586.034-1.174.067-1.754.112-1.116.085-2.239.14-3.386.134a5.315,5.315,0,0,1-1.3-.149c-.489-.125-.619-.236-.481-.44a.529.529,0,0,1,.09-.1.53.53,0,0,1,.1-.046,30.493,30.493,0,0,0,3.693-.171c-.171-.222-.2-.44.121-.665.754.016,1.509-.039,2.265-.093,1.215-.087,2.433-.17,3.638-.271.478-.039.947-.071,1.437-.085s.96-.066,1.434-.108c.425-.038.844-.085,1.266-.128a3.355,3.355,0,0,1,.371-.037c1.1.019,2.124-.127,3.2-.16.28-.008.551-.048.827-.071.238-.019.478-.034.734-.052a.524.524,0,0,0-.131-.047c-.619,0-1.247-.028-1.858,0-.975.038-1.94.107-2.908.164-.587.035-1.174.07-1.758.109q-1.521.1-3.041.207c-.965.065-1.935.122-2.893.2-1.413.113-2.832.209-4.259.3-.837.053-1.651.147-2.478.222-.149.014-.3.024-.456.029C.3,3.431-.05,3.326.006,3.129a2.464,2.464,0,0,1,.105-.254c1.053-.015,2.041-.145,3.047-.251.222-.023.461-.027.681-.051a2.189,2.189,0,0,0,.794-.149A2.006,2.006,0,0,0,5.3,2.412c.2-.02.389-.048.586-.067a1.366,1.366,0,0,0,.548-.11C5.81,2.293,5.2,2.324,4.647,2.428Zm22.817-.554a2.662,2.662,0,0,0,.663.02c-.02-.014-.032-.029-.041-.029-.206,0-.413.007-.618.011-.378.035-.792,0-1.3.067.218.009.293.015.368.014.2,0,.411,0,.609-.016A2.515,2.515,0,0,0,27.464,1.874Zm-4,.216c-.23-.009-.461-.021-.691-.024-.083,0-.225.006-.136.067l.824-.043c.2-.005.4-.009.6-.018a1.417,1.417,0,0,0,.537-.057,3.92,3.92,0,0,0-1.019.011C23.53,2.036,23.509,2.069,23.469,2.09ZM7.4,2.2a.732.732,0,0,0-.463.04l.453-.044,2.893-.2c.33-.023.661-.044.991-.067.886-.063,1.77-.13,2.658-.189.481-.032.973-.045,1.453-.08.606-.044,1.2-.115,1.808-.152a20.975,20.975,0,0,1,2.3-.106,1.939,1.939,0,0,0,.374-.027,10.833,10.833,0,0,1,1.817-.111,3.9,3.9,0,0,0,.685-.027,5.132,5.132,0,0,1,1.2-.058,1.074,1.074,0,0,0,.224-.009c.16-.028.306-.066.465-.095.143-.026.361.007.484-.07A10.6,10.6,0,0,0,23.4,1c-.638.031-1.271.07-1.908.1-.614.029-1.234.046-1.845.079-1.868.1-3.726.217-5.568.362-.377.03-.765.044-1.141.075q-1.4.115-2.787.241c-.724.067-1.443.143-2.159.22A1.665,1.665,0,0,0,7.4,2.2ZM25.326.958a1.486,1.486,0,0,0,.695.08A3.038,3.038,0,0,0,27.112.873C26.492.915,25.9.879,25.326.958Zm11.311.713a2.745,2.745,0,0,0-.88-.047c-.111.017-.244.03-.2.1A3.852,3.852,0,0,0,36.636,1.671Zm-14.576.46a3.7,3.7,0,0,0-1.035.07A3.418,3.418,0,0,0,22.06,2.131Zm10.293-.35a1.754,1.754,0,0,0-.921.034ZM27.459.867a.682.682,0,0,0,.506.021A.787.787,0,0,0,27.459.867ZM29.5.8l.012.039L30.14.8,30.077.784Zm4.129.94h.492A.518.518,0,0,0,33.63,1.737ZM40.375,1.6l.012.034.344-.008,0-.026ZM31.017.753a.258.258,0,0,0-.055.01c-.007.005.007.014.012.021l.087-.017ZM20.956,3.01l-.079.029c.016,0,.045.015.047.014.029-.009.055-.02.081-.03ZM34.7,1.7l-.107.022a.829.829,0,0,0,.127.018.523.523,0,0,0,.108-.022Zm-9.372.279-.055.008A.2.2,0,0,0,25.319,2a.376.376,0,0,0,.055-.008Zm-2.893,1-.057,0,.015.019Zm15.616-1.33a.173.173,0,0,0,.043.013.263.263,0,0,0,.055-.011l-.07-.022ZM37.878.994l-.058.015c.033.007.062.017.1.021a.268.268,0,0,0,.057-.014Zm-.366.657,0,.015.049-.006Zm3.767-.04-.042-.01-.008.015Z" transform="translate(1017.02 719.659) rotate(-90)" fill="#1d1d1d"/>
    <path id="Handwritten_Underline-3" data-name="Handwritten Underline" d="M5.815,2.783c-.6.035-1.218.057-1.8.11a1.958,1.958,0,0,1-1.335-.2c-.119-.078-.087-.176-.089-.265,0-.032.065-.073.151-.1a4.276,4.276,0,0,1,.61-.133c.595-.074,1.208-.135,1.814-.2.214-.024.432-.043.643-.066.725-.083,1.447-.163,2.232-.194.477-.02.936-.077,1.409-.112q1.464-.106,2.936-.2c.185-.013.388,0,.58-.007a2.637,2.637,0,0,0,.792-.083,2.227,2.227,0,0,1,.437-.052c.7-.046,1.4-.089,2.095-.133a11.207,11.207,0,0,1,1.245-.026,3.429,3.429,0,0,0,1.077-.092,1.69,1.69,0,0,1,.624-.047,8.778,8.778,0,0,0,1.341-.01c.48-.024.961-.048,1.438-.076C25,.724,28.018.591,31.039.47c.571-.023,1.17,0,1.729-.031C34.077.356,35.406.353,36.724.3,37.586.272,38.463.261,39.33.259c.621,0,1.219-.036,1.827-.062C41.733.173,42.313.159,42.89.14c.29-.01.579-.025.869-.032.419-.01.841-.024,1.26-.021C46.1.1,47.187.117,48.277.1c.162,0,.327-.015.483-.009.584.02,1.128-.115,1.711-.051C51,.1,51.56.039,52.1.064a4.8,4.8,0,0,0,.58,0A20.309,20.309,0,0,1,54.886.045c.6.02,1.219.005,1.835-.02a12.962,12.962,0,0,1,1.726.007,1.169,1.169,0,0,0,.186.01c.679-.056,1.347.012,2.022-.006A6.894,6.894,0,0,1,61.7.063a4.273,4.273,0,0,0,.459-.007c.385,0,.772-.013,1.156-.008.967.012,1.932.049,2.9.042C67.09.083,67.941.112,68.8.145c.159.006.322.01.482.008,1.561-.028,3.1.016,4.637.068.445.015.9,0,1.356,0a1.659,1.659,0,0,1,.718.107c.349.168.583.341,0,.535-.5.028-1.044.009-1.582,0C73.313.83,72.227.792,71.132.775Q69.155.743,67.169.739c-1.359,0-2.72.01-4.079.017C61.4.766,59.72.772,58.037.791,57,.8,55.968.841,54.934.864c-.518.011-1.038.011-1.555.02Q51,.932,48.627.982a1.8,1.8,0,0,0-.228.052c.6,0,1.106-.012,1.615-.012.644,0,1.288.007,1.933.012.063,0,.129,0,.193,0,1.456-.061,2.9.02,4.352-.013,1.037-.023,2.058.014,3.085.023.545,0,1.092,0,1.639,0,.291,0,.588-.011.871,0,.964.035,1.933.02,2.9.025.678,0,1.354.028,2.031.035,1.128.011,2.259.01,3.387.021,1.032.01,2.086,0,3.089.051,1.174.061,2.364.042,3.539.089.775.032,1.594-.007,2.4-.012a5.44,5.44,0,0,1,.667.009,14.921,14.921,0,0,0,1.9.063c.545,0,1.083.044,1.63.055.672.015,1.351.013,2.024.024.574.01,1.139.018,1.693.081.519.06,1.1.081,1.666.108a3.005,3.005,0,0,1,.891.138c-.036.083-.272.1-.488.108-.353.012-.711.007-1.066.014-.45.009-.53.033-.528.171,0,.157-.1.3-.56.436-1.089-.033-2.2-.069-3.32-.1-.834-.024-1.668-.051-2.5-.065-1.967-.033-3.941-.046-5.9-.092-1.518-.035-3.038,0-4.554-.014-.194,0-.39.01-.58,0-1.9-.057-3.813,0-5.719-.007q-1.744-.007-3.489,0c-1.392.005-2.782.011-4.174.028-1.033.012-2.066.051-3.1.062-1.167.012-2.329.024-3.486.081a6.916,6.916,0,0,1-.959,0,4.885,4.885,0,0,0-.568,0q-.72.027-1.438.062c-1.28.06-2.575.056-3.863.087-1.06.025-2.123.053-3.187.068-.649.009-1.284.035-1.924.075-.722.045-1.469.068-2.208.083s-1.484.032-2.2.1a1.871,1.871,0,0,1-.19.013c-1.438-.007-2.781.178-4.207.195-.15,0-.3.018-.548.034a1.692,1.692,0,0,0,.274.058c.735-.032,1.486-.029,2.205-.1a4.719,4.719,0,0,1,.48-.019c.943.007,1.858-.061,2.787-.1s1.865-.07,2.8-.1c.224-.008.452-.009.677-.011,1.164-.013,2.328-.032,3.479-.1.158-.009.323-.01.485-.01,1.389,0,2.772-.072,4.161-.061.255,0,.517-.01.771-.024,1.024-.056,2.057-.052,3.088-.067,1.1-.016,2.19-.05,3.286-.069.481-.009.972-.015,1.448,0,.425.013.836,0,1.254-.012.191-.007.39-.016.58-.011,1.263.034,2.521-.023,3.783-.042.129,0,.26-.01.386-.006,1.637.049,3.28.022,4.926,0,.225,0,.462-.007.675.008a9.877,9.877,0,0,0,1.434.005c.15-.01.318,0,.478,0,1.416.021,2.837.026,4.258.007.226,0,.452,0,.678,0l2.131.02c.194,0,.391.012.581,0a8.484,8.484,0,0,0,1.08.068,9.883,9.883,0,0,1,1.035-.007c.388,0,.774,0,1.161,0s.774.03,1.15.016c.756-.029,1.452.044,2.18.057,1.508.028,3.015.045,4.5.123.407.021.886-.024,1.316.006.565.04,1.139.053,1.72.059,1.353.015,2.676.087,4.025.129.25.1.489.185.468.313-.025.15-.211.275-1.024.3-.413.013-.846.005-1.255-.015-1.905-.092-3.829-.145-5.756-.2-1.186-.033-2.369-.068-3.555-.1-.032,0-.065,0-.1,0-1.277.045-2.5-.057-3.757-.07-.741-.007-1.485-.006-2.229-.01-1.031-.006-2.062-.015-3.1-.02-.742,0-1.485,0-2.227-.01q-.87-.007-1.738-.024c-.513-.009-1.02-.016-1.541-.009-.7.009-1.418.052-2.123-.006a5.369,5.369,0,0,0-.674.01c-1.164.061-2.325.046-3.488.034-.226,0-.451,0-.678,0-.35,0-.706.007-1.054,0a13,13,0,0,0-1.627.011c-.206.02-.449.012-.674.011-1.128-.006-2.257.013-3.385.01-.609,0-1.223.033-1.836.044-.647.012-1.295.015-1.942.026q-1.5.027-3.006.06c-.452.009-.9.018-1.356.031q-1.887.052-3.775.108c-.419.011-.838.03-1.258.035-.872.012-1.74.027-2.606.079-.628.038-1.285.03-1.93.042-.193,0-.388,0-.58.01L31.3,3.765q-1.879.069-3.738.182c-.54.032-1.09.048-1.633.076q-2.062.106-4.124.217c-1.788.1-3.578.195-5.361.3-1.622.1-3.236.2-4.855.3-.413.025-.834.034-1.248.056-.732.04-1.467.078-2.193.128-1.4.1-2.8.161-4.234.165a8.2,8.2,0,0,1-1.625-.137c-.61-.121-.772-.23-.6-.436a.572.572,0,0,1,.114-.1.749.749,0,0,1,.128-.047c1.525-.03,3.084-.026,4.618-.205-.212-.22-.253-.438.157-.666.942.009,1.887-.053,2.832-.114,1.521-.1,3.042-.193,4.551-.3.6-.044,1.184-.08,1.8-.1s1.2-.075,1.793-.122c.532-.042,1.057-.093,1.583-.14.155-.013.314-.041.465-.04,1.37.008,2.656-.147,4-.19.351-.011.689-.053,1.035-.079.3-.021.6-.039.919-.059A.763.763,0,0,0,25.52,2.4c-.774,0-1.558-.016-2.322.012-1.219.047-2.427.125-3.638.191q-1.1.06-2.2.125-1.9.115-3.8.235c-1.206.074-2.419.14-3.618.226-1.767.126-3.542.236-5.326.339-1.047.061-2.065.163-3.1.245-.187.015-.379.027-.571.033-.571.018-1.007-.084-.935-.281a2.362,2.362,0,0,1,.134-.255c1.317-.025,2.554-.164,3.811-.28.277-.025.576-.031.852-.058A3.374,3.374,0,0,0,5.8,2.778a3.129,3.129,0,0,0,.836-.017c.246-.021.485-.052.733-.073a2.087,2.087,0,0,0,.686-.115C7.271,2.636,6.5,2.673,5.815,2.783Zm28.527-.767a4.149,4.149,0,0,0,.829.013c-.025-.014-.04-.029-.052-.028-.257,0-.516.011-.773.017-.473.039-.99.009-1.626.08.272.007.365.012.46.011.254,0,.513,0,.761-.022A3.874,3.874,0,0,0,34.342,2.015Zm-5,.253c-.287-.007-.575-.017-.863-.017-.1,0-.281.008-.17.069l1.031-.051c.25-.007.5-.013.751-.023a2.194,2.194,0,0,0,.672-.062,6.114,6.114,0,0,0-1.274.021A.485.485,0,0,0,29.345,2.269ZM9.257,2.526a1.133,1.133,0,0,0-.579.044l.566-.048,3.619-.23L14.1,2.215c1.109-.071,2.214-.146,3.325-.214.6-.037,1.217-.054,1.816-.093.758-.05,1.5-.126,2.261-.169.95-.053,1.879-.157,2.872-.127a3.024,3.024,0,0,0,.467-.03,16.928,16.928,0,0,1,2.273-.128,6.1,6.1,0,0,0,.856-.034,8.017,8.017,0,0,1,1.5-.069,1.684,1.684,0,0,0,.28-.011c.2-.029.383-.069.582-.1a2.313,2.313,0,0,0,.6-.074,16.556,16.556,0,0,0-1.673.018c-.8.037-1.589.082-2.386.118-.768.035-1.543.058-2.307.1q-3.5.176-6.964.414c-.471.034-.956.051-1.426.086q-1.748.128-3.487.267c-.905.074-1.8.157-2.7.24A2.563,2.563,0,0,0,9.257,2.526ZM31.677,1.119a2.282,2.282,0,0,0,.868.074,4.7,4.7,0,0,0,1.366-.175C33.135,1.065,32.4,1.035,31.677,1.119Zm14.132.607a4.263,4.263,0,0,0-1.1-.039c-.139.018-.306.033-.251.1A6.014,6.014,0,0,0,45.81,1.726Zm-18.225.6a5.756,5.756,0,0,0-1.293.08A5.319,5.319,0,0,0,27.584,2.323Zm12.87-.446a2.726,2.726,0,0,0-1.151.043Zm-6.109-.869a1.049,1.049,0,0,0,.632.017A1.212,1.212,0,0,0,34.345,1.008ZM36.9.918l.015.038L37.7.912,37.619.9Zm5.152.9.615,0A.792.792,0,0,0,42.05,1.82Zm8.433-.2.015.034.431-.011,0-.026ZM38.794.86a.427.427,0,0,0-.068.01c-.007.005.01.014.015.021l.11-.018ZM26.2,3.213l-.1.03c.02,0,.056.014.058.014.036-.01.069-.02.1-.031ZM43.391,1.77l-.134.023a1.278,1.278,0,0,0,.159.017.8.8,0,0,0,.136-.023Zm-11.718.367-.068.008a.3.3,0,0,0,.056.012.6.6,0,0,0,.068-.008ZM28.047,3.16l-.072,0,.018.018ZM47.581,1.683a.233.233,0,0,0,.053.012.417.417,0,0,0,.068-.011l-.088-.022Zm-.213-.646-.073.015c.041.007.078.016.123.021a.412.412,0,0,0,.072-.014ZM46.9,1.7l-.005.015.061-.007Zm4.709-.075-.052-.009-.01.015Z" transform="translate(1302.289 635.858) rotate(92)" fill="#1d1d1d"/>
    <path id="Handwritten_Underline-4" data-name="Handwritten Underline" d="M18.624,1.679c-1.932.021-3.907.034-5.783.067A27.253,27.253,0,0,1,8.553,1.6c-.378-.055-.281-.122-.295-.184a1.494,1.494,0,0,1,.483-.065c.593-.034,1.22-.07,1.953-.089,1.9-.048,3.868-.087,5.811-.128.683-.015,1.38-.027,2.058-.042,2.323-.053,4.636-.1,7.148-.123,1.531-.011,3-.049,4.518-.07Q34.921.833,39.636.773c.6-.008,1.244,0,1.862,0,.92,0,1.851,0,2.537-.053C44.3.7,44.941.69,45.433.684,47.665.656,49.907.63,52.144.6c1.321-.016,2.608-.027,4-.011,1.2.013,2.5,0,3.45-.058C60.139.5,60.9.488,61.591.5c1.457.034,2.867.013,4.3,0Q68.2.483,70.5.459,84.887.3,99.427.21C101.26.2,103.184.22,104.972.2c4.2-.051,8.461-.046,12.682-.073C120.42.108,123.228.1,126.012.107c1.991,0,3.908-.018,5.856-.033,1.842-.014,3.7-.021,5.553-.031.93-.005,1.854-.014,2.786-.018,1.344,0,2.7-.012,4.037-.008,3.48.012,6.954.032,10.446.026.518,0,1.049-.009,1.552,0,1.872.017,3.614-.073,5.484-.027,1.712.043,3.494,0,5.22.025.6.007,1.274.01,1.859,0,2.371-.035,4.7-.02,7.08,0,1.94.017,3.91.01,5.889,0,1.819-.013,3.713-.027,5.529.013.195,0,.424.011.6.008,2.173-.035,4.32.015,6.481.006,1.147-.005,2.254-.007,3.351.024.4.011.975,0,1.468,0,1.236,0,2.476-.005,3.7,0,3.1.013,6.2.044,9.3.044,2.817,0,5.546.024,8.293.051.507,0,1.03.009,1.542.008,5.007-.011,9.94.027,14.874.071,1.421.013,2.9.007,4.345.005,1.056,0,1.815.026,2.307.078,1.126.118,1.879.239.006.37-1.6.017-3.343,0-5.072-.011C235,.678,231.509.646,228,.628Q221.657.6,215.286.583,208.75.57,202.208.574q-8.1,0-16.2,0c-3.319,0-6.63.024-9.945.034-1.66,0-3.324,0-4.983.006L155.845.655c-.154,0-.3.014-.73.034,1.909,0,3.545,0,5.179,0q3.1.006,6.2.018c.207,0,.417,0,.62,0,4.664-.035,9.3.029,13.954.013,3.323-.01,6.6.021,9.895.032q2.621.008,5.251.009c.932,0,1.886,0,2.8,0,3.09.029,6.2.024,9.306.032,2.177.005,4.34.027,6.515.035,3.617.013,7.243.019,10.86.032,3.311.012,6.691.01,9.906.051,3.763.048,7.584.041,11.349.08,2.488.026,5.116,0,7.682,0,.721,0,1.555-.008,2.143.01,1.955.06,4.013.049,6.083.054,1.75,0,3.474.036,5.224.047,2.158.014,4.333.016,6.495.027,1.841.01,3.651.018,5.428.064,1.666.044,3.54.062,5.35.083,1.181.014,2.158.041,2.858.1a9.346,9.346,0,0,1-1.563.073c-1.133.006-2.28,0-3.418,0-1.443,0-1.7.02-1.69.116s-.308.209-1.781.3L269.1,1.791q-4.012-.031-8.029-.058c-6.307-.033-12.64-.052-18.929-.094-4.868-.032-9.742-.015-14.6-.033-.621,0-1.253,0-1.863,0-6.093-.049-12.226-.019-18.337-.034q-5.591-.014-11.19-.018-6.687-.006-13.377,0c-3.316,0-6.627.024-9.94.027-3.742,0-7.469,0-11.177.038-1.023.009-2.03.018-3.076,0-.546-.011-1.215,0-1.822,0q-2.307.015-4.609.035c-4.105.035-8.255.026-12.382.04q-5.1.018-10.218.031c-2.08,0-4.114.017-6.166.042-2.319.028-4.708.039-7.076.046-2.392.006-4.756.015-7.057.056-.2,0-.408.009-.607.008-4.611-.012-8.912.109-13.486.113-.48,0-.96.011-1.752.021.472.023.7.043.878.041,2.355-.019,4.763-.012,7.069-.054.485-.009,1.028-.012,1.536-.01,3.025.01,5.958-.033,8.933-.052s5.975-.039,8.967-.056c.717,0,1.447,0,2.17,0,3.736,0,7.466-.01,11.155-.051.507-.006,1.036-.006,1.553,0,4.452.008,8.882-.035,13.338-.021.819,0,1.657,0,2.471-.013,3.282-.033,6.6-.025,9.9-.03,3.514-.005,7.021-.023,10.534-.031,1.545,0,3.117,0,4.644.008,1.361.011,2.676.007,4.014,0,.617,0,1.255-.009,1.864,0,4.052.03,8.086,0,12.129-.01.412,0,.832-.005,1.236,0,5.253.042,10.523.032,15.8.022.72,0,1.483,0,2.16.009,1.535.027,3.042.032,4.6.011.481-.006,1.02,0,1.533.005q6.816.033,13.651.027,1.088,0,2.177,0l6.834.024c.624,0,1.253.01,1.862.006,1.259-.009,1.943.089,3.467.053.955-.023,2.2,0,3.323,0q1.86,0,3.72.009c1.231,0,2.48.025,3.686.017,2.424-.016,4.662.038,7,.051,4.834.027,9.669.047,14.443.108,1.305.017,2.841-.012,4.219.011,1.814.031,3.653.042,5.517.05,4.338.018,8.579.074,12.912.11.8.067,1.57.131,1.507.219s-.667.188-3.277.2c-1.322.007-2.712,0-4.023-.017-6.11-.074-12.285-.12-18.462-.167l-11.4-.089c-.1,0-.208,0-.309,0-4.091.025-8.019-.052-12.046-.067q-3.571-.013-7.149-.019l-9.925-.03q-3.567-.01-7.14-.018-2.79-.009-5.575-.026C223.254,2.2,221.63,2.2,219.96,2.2c-2.257,0-4.55.028-6.809-.015-.65-.012-1.45,0-2.162,0-3.725.036-7.453.02-11.182.005-.723,0-1.449,0-2.176,0-1.126,0-2.26,0-3.374-.007-1.743-.012-3.452-.035-5.22,0-.662.013-1.44.006-2.162,0-3.614-.01-7.232,0-10.849-.01-1.954,0-3.922.016-5.887.021-2.072.005-4.151,0-6.226.008q-4.82.011-9.636.026-2.174.006-4.348.014l-12.1.055c-1.344.006-2.686.016-4.03.018-2.8,0-5.579.01-8.359.041-2.009.023-4.121.014-6.185.019-.618,0-1.245,0-1.862,0l-17.027.106q-6.021.038-11.976.106c-1.732.02-3.5.027-5.239.044q-6.612.062-13.215.129-8.595.087-17.179.179c-5.2.058-10.373.124-15.563.184-1.318.015-2.67.019-4,.032-2.348.024-4.7.046-7.03.077-4.474.059-8.975.1-13.572.093-1.955,0-3.649-.034-5.213-.1-1.961-.087-2.482-.163-1.927-.3a3.616,3.616,0,0,1,.361-.071c.066-.011.241-.019.414-.031,4.89-.013,9.89,0,14.8-.118-.685-.153-.823-.3.482-.46,3.019.011,6.05-.027,9.078-.064,4.868-.06,9.748-.118,14.581-.187,1.914-.027,3.793-.049,5.756-.059,1.937-.01,3.847-.046,5.747-.075,1.7-.026,3.384-.059,5.073-.089.5-.009,1-.027,1.485-.025,4.4.013,8.515-.088,12.824-.111,1.122-.006,2.206-.033,3.315-.049.952-.013,1.917-.024,2.943-.036-.263-.017-.39-.033-.522-.033-2.486,0-5-.02-7.45,0-3.907.026-7.775.074-11.657.113q-3.528.036-7.047.075-6.1.07-12.189.143c-3.867.045-7.756.084-11.6.138q-8.49.117-17.066.207c-3.355.036-6.621.1-9.932.153-.6.009-1.213.017-1.826.02C1.2,2.372-.2,2.3.024,2.164a4.324,4.324,0,0,1,.423-.176c4.222-.01,8.183-.1,12.21-.174.888-.016,1.847-.019,2.73-.036,1.159-.022,2.5-.027,3.182-.1.928.037,1.8.008,2.681-.007.794-.013,1.556-.033,2.352-.046S25.242,1.6,25.8,1.545C23.286,1.585,20.83,1.607,18.624,1.679ZM110.069,1.3c.857.021,1.721.031,2.656.014-.081-.01-.126-.02-.165-.02l-2.475.007c-1.519.024-3.178,0-5.216.047.876.006,1.175.01,1.473.01.816,0,1.65,0,2.44-.011C109.238,1.337,109.624,1.311,110.069,1.3Zm-16.012.149c-.922-.006-1.845-.014-2.768-.016-.333,0-.9,0-.544.047l3.3-.03c.8,0,1.608-.006,2.406-.012.721-.005,1.575.011,2.154-.04-1.8-.026-3.04-.025-4.085.008C94.3,1.408,94.217,1.43,94.057,1.445Zm-64.406.074a16.452,16.452,0,0,0-1.855.027l1.813-.03L41.2,1.376l3.971-.047c3.551-.044,7.093-.09,10.654-.131,1.927-.022,3.9-.031,5.818-.055,2.432-.031,4.8-.08,7.249-.105,3.043-.032,6.018-.1,9.2-.073.48,0,1.04-.006,1.5-.019C81.917.884,84.346.863,86.876.869c.921,0,1.987.005,2.744-.019C91.195.8,92.768.8,94.437.81c.292,0,.645,0,.9-.006C95.976.785,96.559.758,97.2.738c.575-.018,1.447.005,1.941-.048-1.9-.025-3.639-.01-5.363,0-2.556.021-5.1.049-7.648.07-2.46.02-4.943.032-7.394.054q-11.226.1-22.315.25c-1.512.021-3.066.03-4.572.052-3.732.053-7.462.107-11.169.167-2.905.046-5.784.1-8.655.152C31.158,1.456,30.164,1.463,29.651,1.519ZM101.5.662c1.137.061,1.137.061,2.786.055C106.249.711,107.459.683,108.66.6,106.174.633,103.815.608,101.5.662Zm45.332.493c-1.393-.037-2.4-.063-3.527-.033-.444.012-.979.021-.8.069C143.833,1.2,145.2,1.223,146.831,1.155Zm-58.419.319c-1.287.02-2.8-.04-4.148.048C85.958,1.555,87.167,1.508,88.413,1.474Zm41.251-.242c-1.721-.045-1.721-.045-3.689.024ZM110.049.6a15.268,15.268,0,0,0,2.03.015A17.813,17.813,0,0,0,110.049.6Zm8.185-.049.045.027,2.515-.027-.251-.009Zm16.548.65h1.972A11.328,11.328,0,0,0,134.781,1.2Zm27.032-.092.046.024,1.382-.005-.011-.018ZM124.308.52c-.075,0-.189,0-.217.007s.028.009.048.014l.35-.012ZM83.985,2.081l-.315.02.187.01c.119-.006.221-.014.328-.021Zm55.093-.908-.431.015c.172,0,.343.012.513.012.146,0,.288-.01.433-.015Zm-37.562.193-.218.005c.057,0,.115.008.178.008s.144,0,.217-.005Zm-11.594.688-.23,0,.058.013Zm62.588-.92c.057,0,.114.009.171.009.074,0,.146,0,.219-.007l-.282-.016Zm-.7-.447-.232.01c.129,0,.25.011.394.015.051,0,.152-.006.229-.009Zm-1.463.454-.019.01.2,0Zm15.1-.027-.168-.007-.034.01Z" transform="translate(1004.65 715.805)" fill="#1d1d1d"/>
  </g>
</svg>
