<svg id="Hamburger_Menu" data-name="Hamburger Menu" xmlns="http://www.w3.org/2000/svg" width="77.456" height="27.934" viewBox="0 0 77.456 27.934">
  <path id="Handwritten_Underline" data-name="Handwritten Underline" d="M7181.715,3638.193c-.414.041-.837.064-1.239.126a.842.842,0,0,1-.919-.274.55.55,0,0,1-.063-.35c0-.042.045-.1.1-.125a1.794,1.794,0,0,1,.419-.169c.407-.091.828-.165,1.245-.245.146-.028.3-.051.44-.081a11.1,11.1,0,0,1,1.532-.233c.328-.021.643-.093.968-.133q1-.126,2.015-.241c.128-.015.267,0,.4,0a1,1,0,0,0,.543-.1.849.849,0,0,1,.3-.064c.478-.054.958-.1,1.438-.155a4.118,4.118,0,0,1,.855-.022,1.269,1.269,0,0,0,.739-.111.633.633,0,0,1,.429-.055,3.16,3.16,0,0,0,.92,0c.33-.027.66-.054.988-.086,2.055-.2,4.125-.344,6.2-.474.393-.025.805.018,1.188-.023.9-.1,1.813-.087,2.717-.138.593-.033,1.194-.041,1.791-.034.427,0,.837-.035,1.255-.063.395-.027.793-.039,1.19-.059.2-.01.4-.027.6-.034.288-.009.578-.023.865-.014.746.022,1.49.061,2.238.05.111,0,.225-.016.333-.008a8.092,8.092,0,0,1,1.175-.05,9.71,9.71,0,0,0,1.118.048,1.784,1.784,0,0,0,.4,0,7.26,7.26,0,0,1,1.517,0,9.229,9.229,0,0,0,1.262-.008,4.627,4.627,0,0,1,1.185.026.409.409,0,0,0,.128.015,13.16,13.16,0,0,1,1.388.012,2.519,2.519,0,0,1,.718.046,1.521,1.521,0,0,0,.314,0c.265,0,.53-.01.793,0,.665.025,1.328.084,1.992.084.6,0,1.188.045,1.777.1a3.093,3.093,0,0,0,.33.015c1.073-.021,2.129.052,3.187.135.3.024.621.012.931.009a.685.685,0,0,1,.494.148c.241.226.4.455,0,.7a7.215,7.215,0,0,1-1.087-.021c-.75-.046-1.5-.106-2.249-.14q-1.359-.062-2.724-.085c-.934-.017-1.868-.014-2.8-.017-1.157,0-2.314-.014-3.471,0-.711.006-1.42.045-2.131.064-.355.01-.712,0-1.067.013q-1.633.037-3.265.081a.7.7,0,0,0-.156.065c.409,0,.759,0,1.109,0,.443.007.885.022,1.328.035.044,0,.09.006.133,0,1-.066,1.993.054,2.99.026.712-.02,1.414.039,2.12.06.375.011.75.013,1.125.018.2,0,.4-.009.6.008.662.056,1.329.046,1.994.061.466.011.93.051,1.4.066.775.025,1.552.036,2.327.061.709.023,1.433.019,2.123.1.806.092,1.625.079,2.431.153.534.049,1.1.006,1.646.007a2,2,0,0,1,.459.019,5.342,5.342,0,0,0,1.3.1c.375.009.744.069,1.119.089.462.026.928.03,1.391.052a6.355,6.355,0,0,1,1.163.123,9.746,9.746,0,0,0,1.146.158,1.226,1.226,0,0,1,.613.19c-.024.109-.187.131-.335.138-.243.012-.488,0-.732.008-.309.007-.364.038-.362.221a.591.591,0,0,1-.382.568c-.748-.054-1.515-.112-2.282-.166-.573-.04-1.146-.084-1.72-.111-1.352-.062-2.708-.1-4.056-.178-1.043-.062-2.087-.029-3.129-.064-.133,0-.269.009-.4,0-1.305-.094-2.619-.036-3.929-.064q-1.2-.026-2.4-.035c-.955-.007-1.911-.013-2.866,0-.71.006-1.42.047-2.13.051-.8,0-1.6.009-2.395.072a2.5,2.5,0,0,1-.659-.006,1.764,1.764,0,0,0-.39,0q-.5.029-.987.067c-.88.066-1.769.049-2.653.077-.728.022-1.458.049-2.189.058-.446.005-.881.032-1.321.08-.5.054-1.009.075-1.516.087a11.179,11.179,0,0,0-1.512.107.736.736,0,0,1-.13.015c-.988-.024-1.91.207-2.89.215-.1,0-.206.021-.375.039.1.043.149.081.188.078.5-.035,1.02-.023,1.514-.1a1.79,1.79,0,0,1,.329-.021c.648.02,1.277-.062,1.914-.1s1.281-.073,1.921-.107c.154-.008.31-.007.465-.008.8,0,1.6-.019,2.39-.1a3.133,3.133,0,0,1,.333-.009c.954.015,1.9-.066,2.858-.04a4.557,4.557,0,0,0,.529-.024c.7-.063,1.413-.048,2.122-.058.753-.01,1.5-.044,2.257-.059.331-.007.667-.009.994.015a6.566,6.566,0,0,0,.86,0,3.315,3.315,0,0,1,.4-.009c.868.056,1.732-.006,2.6-.019.088,0,.179-.01.265,0,1.126.081,2.255.062,3.385.043a2.779,2.779,0,0,1,.462.018,3.548,3.548,0,0,0,.986.021,2.261,2.261,0,0,1,.328.01c.974.042,1.948.063,2.925.052.155,0,.311,0,.466.006l1.464.046c.133,0,.269.02.4.012.27-.017.416.17.743.1a3.54,3.54,0,0,1,.712,0c.266,0,.531.008.8.018s.531.047.79.032a13.364,13.364,0,0,1,1.5.1c1.036.052,2.072.089,3.094.206.28.032.609-.022.9.022a10.392,10.392,0,0,0,1.182.095c.929.033,1.838.142,2.766.21.172.127.336.249.323.417-.016.2-.143.358-.7.386a5.578,5.578,0,0,1-.862-.031c-1.309-.141-2.632-.229-3.956-.317-.815-.055-1.629-.113-2.443-.169a.517.517,0,0,0-.066,0c-.876.047-1.718-.1-2.581-.128-.51-.017-1.021-.022-1.532-.035-.709-.018-1.417-.04-2.126-.058-.51-.013-1.021-.02-1.53-.035-.4-.011-.8-.029-1.194-.049-.352-.017-.7-.032-1.058-.028a8.1,8.1,0,0,1-1.459-.029,1.941,1.941,0,0,0-.463.006,20.013,20.013,0,0,1-2.4.01c-.155-.005-.311,0-.466,0-.241,0-.484,0-.723-.013a4.732,4.732,0,0,0-1.118,0,2.556,2.556,0,0,1-.463.008c-.774-.019-1.55,0-2.324-.02-.419-.008-.841.032-1.262.041-.444.01-.89.006-1.334.016-.688.013-1.376.032-2.065.049-.311.007-.621.015-.931.027q-1.3.05-2.592.1c-.288.012-.575.031-.864.034-.6.008-1.195.018-1.791.079-.43.044-.883.027-1.325.036-.133,0-.267,0-.4.007l-3.648.2q-1.291.073-2.566.2c-.371.038-.75.052-1.123.083q-1.417.119-2.831.245c-1.228.111-2.457.221-3.681.341-1.114.11-2.222.236-3.334.35-.282.029-.572.036-.856.062-.5.045-1.008.088-1.506.147a23.3,23.3,0,0,1-2.908.177,3.06,3.06,0,0,1-1.117-.2c-.42-.165-.532-.31-.413-.58a.727.727,0,0,1,.077-.136.4.4,0,0,1,.089-.06,17.18,17.18,0,0,0,3.171-.226.692.692,0,0,1,.1-.875,13.859,13.859,0,0,0,1.945-.123c1.043-.115,2.088-.224,3.124-.356.41-.052.813-.093,1.233-.112s.823-.087,1.231-.143c.365-.05.725-.112,1.087-.168a1.829,1.829,0,0,1,.318-.049c.942.024,1.824-.167,2.748-.211.24-.011.473-.063.71-.093.2-.025.411-.045.63-.068-.056-.033-.083-.062-.111-.062-.533-.006-1.071-.038-1.6-.006-.837.049-1.666.14-2.5.215-.5.046-1.008.092-1.51.144-.872.088-1.741.181-2.611.272-.829.086-1.663.161-2.485.262-1.212.149-2.432.276-3.656.395-.719.069-1.419.194-2.128.292-.128.018-.26.032-.392.038-.392.018-.693-.12-.645-.38.02-.1.056-.209.091-.334a18.58,18.58,0,0,0,2.616-.331c.19-.031.4-.036.585-.068.249-.042.537-.051.682-.2a1.13,1.13,0,0,0,.574-.014c.17-.025.333-.063.5-.088a.838.838,0,0,0,.47-.145A11.417,11.417,0,0,0,7181.715,3638.193Zm19.592-.729a1.514,1.514,0,0,0,.569.026c-.017-.019-.027-.038-.035-.038-.177,0-.354.008-.531.013-.325.047-.68,0-1.117.089.188.012.251.021.315.019.175,0,.354,0,.523-.021A1.575,1.575,0,0,0,7201.307,3637.464Zm-3.431.284c-.2-.011-.4-.028-.593-.031-.071,0-.192.007-.117.089l.708-.057c.172-.007.344-.012.515-.023.154-.01.338.021.462-.076a2.208,2.208,0,0,0-.875.016C7197.93,3637.678,7197.911,3637.719,7197.876,3637.748Zm-13.8.141a.429.429,0,0,0-.4.052l.389-.057,2.484-.268c.283-.03.568-.058.851-.089.761-.083,1.52-.171,2.282-.249.413-.042.836-.059,1.247-.1.521-.059,1.03-.152,1.553-.2a11.725,11.725,0,0,1,1.971-.14,1.122,1.122,0,0,0,.321-.035,6.117,6.117,0,0,1,1.561-.147,2.237,2.237,0,0,0,.588-.036,2.909,2.909,0,0,1,1.032-.077.635.635,0,0,0,.192-.011c.137-.037.263-.087.4-.125s.31.009.415-.092a5.963,5.963,0,0,0-1.149.008c-.547.04-1.091.092-1.638.132-.527.039-1.059.061-1.584.1-1.6.131-3.2.286-4.781.478-.324.039-.657.058-.979.1-.8.1-1.6.2-2.393.317-.622.088-1.239.188-1.854.29A1.01,1.01,0,0,0,7184.077,3637.889Zm15.394-1.631a.879.879,0,0,0,.6.105,1.806,1.806,0,0,0,.937-.218C7200.473,3636.2,7199.967,3636.154,7199.471,3636.257Zm9.712.938a1.559,1.559,0,0,0-.756-.062c-.1.022-.21.04-.171.13A2.173,2.173,0,0,0,7209.184,3637.2Zm-12.517.606c-.276.038-.6-.075-.889.092A1.951,1.951,0,0,0,7196.667,3637.8Zm8.838-.461a1.006,1.006,0,0,0-.79.045Zm-4.2-1.2a.4.4,0,0,0,.435.028C7201.614,3636.057,7201.466,3636.1,7201.3,3636.138Zm1.754-.093.009.051.539-.051-.054-.017Zm3.545,1.238h.423C7206.83,3637.173,7206.83,3637.173,7206.6,3637.283Zm5.792-.175.01.045.3-.01,0-.035Zm-8.035-1.121c-.016,0-.041.006-.046.013s.006.018.01.027l.075-.022Zm-8.639,2.973-.068.038a.4.4,0,0,0,.04.019c.025-.012.047-.025.07-.039Zm11.8-1.729-.093.029a.5.5,0,0,0,.11.023.334.334,0,0,0,.092-.028Zm-8.048.367-.047.01a.123.123,0,0,0,.038.016.174.174,0,0,0,.046-.009Zm-2.484,1.311-.049,0,.013.024Zm13.41-1.752c.012.006.025.017.037.017a.152.152,0,0,0,.047-.014l-.06-.03Zm-.15-.851-.05.019a.577.577,0,0,0,.085.028c.011,0,.032-.011.049-.017Zm-.314.864,0,.02.042-.008Zm3.234-.051-.036-.013-.007.02Z" transform="translate(-7169.71 -3634.996)" fill="#1d1d1d"/>
  <path id="Handwritten_Underline-2" data-name="Handwritten Underline" d="M7182.206,3639.684c-.465.06-.94.094-1.392.186a.831.831,0,0,1-1.032-.4,1.026,1.026,0,0,1-.071-.514.248.248,0,0,1,.116-.182,1.773,1.773,0,0,1,.471-.248c.457-.134.93-.242,1.4-.359.164-.041.332-.075.495-.118a9.757,9.757,0,0,1,1.721-.343c.368-.031.722-.136,1.087-.2q1.129-.185,2.263-.354c.144-.021.3,0,.449-.005a.9.9,0,0,0,.61-.149.768.768,0,0,1,.336-.094c.537-.079,1.077-.151,1.615-.227a3.522,3.522,0,0,1,.961-.032,1.133,1.133,0,0,0,.83-.162.565.565,0,0,1,.482-.081,2.726,2.726,0,0,0,1.034,0c.371-.04.741-.079,1.11-.126,2.308-.291,4.631-.5,6.959-.7.441-.036.9.026,1.334-.034,1.01-.141,2.036-.127,3.051-.2.666-.049,1.341-.06,2.011-.051a13.67,13.67,0,0,0,1.409-.093c.443-.039.891-.057,1.336-.086.223-.015.446-.04.67-.05.323-.013.648-.034.971-.021.838.033,1.673.089,2.513.073a3.151,3.151,0,0,1,.374-.011c.451.048.87-.206,1.319-.074a8.34,8.34,0,0,0,1.256.07,1.51,1.51,0,0,0,.447,0,6.269,6.269,0,0,1,1.7,0,7.9,7.9,0,0,0,1.417-.011,3.992,3.992,0,0,1,1.33.038.367.367,0,0,0,.144.022,11.261,11.261,0,0,1,1.559.017,2.191,2.191,0,0,1,.807.067,1.309,1.309,0,0,0,.353-.006c.3,0,.6-.014.891,0,.746.037,1.491.123,2.236.123a17.191,17.191,0,0,1,2,.143,2.6,2.6,0,0,0,.371.022,27.74,27.74,0,0,1,3.579.2,9.088,9.088,0,0,0,1.045.014.66.66,0,0,1,.555.217c.271.331.452.667,0,1.034a6.26,6.26,0,0,1-1.221-.03c-.842-.067-1.681-.156-2.525-.206q-1.526-.09-3.059-.125c-1.048-.024-2.1-.02-3.147-.025-1.3-.006-2.6-.02-3.9-.006-.8.009-1.594.066-2.393.095-.4.014-.8.007-1.2.019q-1.833.054-3.666.118c-.037,0-.071.038-.175.1.459,0,.853-.007,1.246,0,.5.01.994.033,1.491.051a1.342,1.342,0,0,0,.149.006c1.122-.1,2.237.079,3.357.038.8-.03,1.587.057,2.38.088.421.016.843.019,1.264.026.224,0,.453-.013.673.011.743.082,1.492.067,2.239.09.523.016,1.044.075,1.567.1.87.037,1.743.052,2.613.09a22.99,22.99,0,0,1,2.384.143c.905.134,1.824.115,2.73.224a16.016,16.016,0,0,0,1.848.01,1.711,1.711,0,0,1,.516.028,4.662,4.662,0,0,0,1.464.15c.421.013.836.1,1.257.131.52.038,1.042.044,1.563.076a5.586,5.586,0,0,1,1.306.18,8.529,8.529,0,0,0,1.287.232,1.165,1.165,0,0,1,.688.279c-.027.16-.21.192-.376.2-.272.017-.548,0-.822.012-.347.011-.409.056-.407.323a.914.914,0,0,1-.429.834c-.84-.08-1.7-.165-2.562-.243-.644-.059-1.287-.123-1.932-.162-1.518-.092-3.041-.146-4.554-.262-1.171-.09-2.344-.042-3.514-.094-.149-.006-.3.013-.448,0-1.466-.138-2.941-.053-4.412-.095q-1.345-.038-2.692-.051c-1.072-.01-2.146-.019-3.218-.007-.8.009-1.595.069-2.392.075-.9.006-1.8.013-2.689.106a2.165,2.165,0,0,1-.74-.009,1.528,1.528,0,0,0-.438,0c-.371.028-.74.061-1.109.1-.988.1-1.986.072-2.979.113-.817.033-1.638.072-2.458.085a11.956,11.956,0,0,0-1.484.117,15.93,15.93,0,0,1-1.7.128,9.685,9.685,0,0,0-1.7.158.642.642,0,0,1-.146.022c-1.11-.035-2.145.3-3.245.315a3.892,3.892,0,0,0-.421.057c.113.063.167.119.211.115a14.521,14.521,0,0,0,1.7-.152,1.517,1.517,0,0,1,.37-.03,18.952,18.952,0,0,0,2.149-.144c.72-.053,1.438-.108,2.158-.157.173-.012.348-.01.522-.011a22.49,22.49,0,0,0,2.684-.142,2.534,2.534,0,0,1,.374-.013c1.071.021,2.137-.1,3.209-.059a3.9,3.9,0,0,0,.594-.035c.79-.093,1.587-.071,2.382-.084.846-.015,1.689-.064,2.535-.087a9.193,9.193,0,0,1,1.116.022,5.624,5.624,0,0,0,.966,0,2.817,2.817,0,0,1,.448-.014,27.9,27.9,0,0,0,2.918-.028,2.69,2.69,0,0,1,.3-.005,33.182,33.182,0,0,0,3.8.063,2.386,2.386,0,0,1,.519.026,3.072,3.072,0,0,0,1.108.03,1.9,1.9,0,0,1,.368.015c1.094.061,2.188.093,3.285.075.174,0,.349,0,.523.009.548.021,1.1.045,1.645.069a3.8,3.8,0,0,0,.448.017c.3-.024.467.25.834.147a3.052,3.052,0,0,1,.8,0c.3.007.6.013.9.026a7.456,7.456,0,0,0,.887.047,11.566,11.566,0,0,1,1.683.142c1.163.076,2.327.13,3.475.3.315.047.684-.033,1.016.032a9.031,9.031,0,0,0,1.328.139c1.043.049,2.064.208,3.106.308.193.187.378.365.363.61-.018.287-.161.526-.789.566a4.824,4.824,0,0,1-.968-.046c-1.47-.206-2.956-.335-4.442-.466-.915-.081-1.829-.166-2.743-.248a.44.44,0,0,0-.075-.006,25.261,25.261,0,0,1-2.9-.188c-.572-.025-1.147-.032-1.72-.052-.8-.027-1.592-.059-2.388-.085-.573-.019-1.146-.029-1.718-.051-.448-.017-.894-.043-1.341-.072-.4-.025-.787-.046-1.188-.041a6.977,6.977,0,0,1-1.639-.042,1.673,1.673,0,0,0-.52.009,17.184,17.184,0,0,1-2.69.015c-.174-.008-.349,0-.523,0-.271,0-.544,0-.812-.019a4.076,4.076,0,0,0-1.255,0,2.167,2.167,0,0,1-.521.012c-.87-.028-1.74-.007-2.61-.029-.471-.012-.944.046-1.417.06-.5.015-1,.01-1.5.023-.773.02-1.546.047-2.319.072-.349.011-.7.022-1.046.04q-1.455.074-2.911.153c-.324.017-.646.045-.97.05a17.349,17.349,0,0,0-2.011.116,14.5,14.5,0,0,1-1.488.053c-.149,0-.3,0-.448.01q-2.049.146-4.1.3-1.449.106-2.881.3c-.417.055-.842.077-1.261.123q-1.591.175-3.179.359c-1.379.162-2.758.323-4.134.5-1.25.161-2.495.346-3.744.513-.317.043-.643.053-.962.09-.565.066-1.132.129-1.691.215a20.153,20.153,0,0,1-3.266.26,2.738,2.738,0,0,1-1.254-.289c-.472-.242-.6-.454-.464-.85a1.211,1.211,0,0,1,.087-.2c.016-.03.058-.052.1-.088a14.812,14.812,0,0,0,3.561-.331,1.252,1.252,0,0,1,.116-1.283,11.958,11.958,0,0,0,2.184-.179c1.171-.168,2.345-.329,3.508-.522a13.309,13.309,0,0,1,1.385-.165,12.069,12.069,0,0,0,1.382-.21c.41-.073.814-.164,1.221-.247a1.6,1.6,0,0,1,.357-.072c1.058.036,2.048-.245,3.085-.309.27-.017.531-.094.8-.137.229-.037.461-.066.707-.1-.063-.048-.094-.091-.125-.092-.6-.009-1.2-.055-1.792-.009-.94.073-1.871.205-2.8.315-.566.067-1.132.135-1.7.21-.979.13-1.955.265-2.933.4-.93.127-1.867.236-2.79.384-1.362.219-2.731.4-4.106.578-.808.1-1.594.284-2.39.428a3.734,3.734,0,0,1-.44.055c-.44.027-.778-.176-.724-.557.022-.154.063-.306.1-.49a16.252,16.252,0,0,0,2.938-.485c.214-.045.444-.052.657-.1.279-.062.6-.075.766-.288a.99.99,0,0,0,.645-.021c.191-.038.375-.093.566-.129a.8.8,0,0,0,.528-.212A10.137,10.137,0,0,0,7182.206,3639.684Zm22-1.069a1.308,1.308,0,0,0,.639.038c-.019-.027-.03-.055-.04-.055-.2,0-.4.012-.6.02a11.973,11.973,0,0,0-1.254.13c.21.017.282.03.354.028a4.8,4.8,0,0,0,.587-.031A1.5,1.5,0,0,0,7204.208,3638.615Zm-3.853.417c-.222-.017-.444-.041-.667-.046-.08,0-.216.011-.131.13l.795-.083c.193-.011.387-.019.579-.034.173-.014.379.031.519-.111a1.912,1.912,0,0,0-.983.022C7200.415,3638.928,7200.393,3638.989,7200.355,3639.031Zm-15.5.207a.388.388,0,0,0-.447.076l.437-.084,2.79-.393c.318-.044.638-.085.956-.131.854-.122,1.707-.25,2.563-.365.464-.062.939-.086,1.4-.154.585-.086,1.156-.222,1.744-.293a10.2,10.2,0,0,1,2.214-.2.977.977,0,0,0,.36-.052,5.327,5.327,0,0,1,1.752-.215,1.932,1.932,0,0,0,.66-.053,2.534,2.534,0,0,1,1.159-.113.54.54,0,0,0,.216-.016c.154-.054.295-.128.449-.184.138-.05.348.014.466-.135a5.115,5.115,0,0,0-1.291.012c-.614.059-1.225.135-1.839.194-.592.057-1.189.089-1.779.152-1.8.192-3.593.419-5.369.7-.364.058-.738.084-1.1.144-.9.148-1.795.3-2.687.465-.7.129-1.392.276-2.083.425C7185.222,3639.06,7184.982,3639.082,7184.859,3639.238Zm17.287-2.392a.8.8,0,0,0,.67.155,1.663,1.663,0,0,0,1.052-.32A13.528,13.528,0,0,0,7202.146,3636.845Zm10.907,1.376a1.368,1.368,0,0,0-.849-.092c-.107.033-.236.059-.192.192A1.9,1.9,0,0,0,7213.052,3638.221Zm-14.056.89c-.31.055-.674-.11-1,.135A1.714,1.714,0,0,0,7199,3639.111Zm9.925-.676c-.414-.127-.414-.127-.887.066Zm-4.719-1.765c.241.145.241.145.488.041C7204.552,3636.552,7204.386,3636.618,7204.2,3636.67Zm1.969-.137.011.074.6-.075-.06-.024Zm3.981,1.815h.475C7210.409,3638.189,7210.409,3638.189,7210.153,3638.349Zm6.5-.257.011.066.333-.015,0-.051Zm-9.023-1.643c-.018.006-.045.009-.052.019s.007.026.012.04l.084-.032Zm-9.7,4.36-.076.056a.514.514,0,0,0,.045.027.908.908,0,0,0,.079-.057Zm13.255-2.536-.1.043a.442.442,0,0,0,.124.034.315.315,0,0,0,.1-.042Zm-9.038.538-.053.015c.014.008.028.022.043.023a.155.155,0,0,0,.052-.014Zm-2.79,1.922-.056-.006.014.036Zm15.059-2.568c.014.009.028.025.041.025a.156.156,0,0,0,.053-.021l-.067-.043Zm-.169-1.248-.057.027a.538.538,0,0,0,.1.041c.012,0,.036-.016.055-.025Zm-.353,1.267,0,.029.047-.012Zm3.632-.076-.04-.019-.008.028Z" transform="translate(-7177.725 -3625.685)" fill="#1d1d1d"/>
  <path id="Handwritten_Underline-3" data-name="Handwritten Underline" d="M7181.976,3639.684c-.441.06-.893.094-1.32.186a.772.772,0,0,1-.979-.4,1.07,1.07,0,0,1-.067-.514.248.248,0,0,1,.11-.182,1.656,1.656,0,0,1,.446-.248c.434-.134.882-.242,1.326-.359.155-.041.314-.075.469-.118a8.841,8.841,0,0,1,1.632-.343c.349-.031.685-.136,1.031-.2q1.071-.185,2.147-.354a4.033,4.033,0,0,1,.425-.005.82.82,0,0,0,.579-.149.7.7,0,0,1,.319-.094c.509-.079,1.021-.151,1.532-.227a3.169,3.169,0,0,1,.911-.032,1.029,1.029,0,0,0,.788-.162.514.514,0,0,1,.458-.081,2.455,2.455,0,0,0,.98,0c.352-.04.7-.079,1.053-.126,2.189-.291,4.394-.5,6.6-.7.419-.036.858.026,1.266-.034.958-.141,1.932-.127,2.9-.2.632-.049,1.272-.06,1.908-.051a12.313,12.313,0,0,0,1.337-.093c.42-.039.845-.057,1.268-.086.211-.015.423-.04.636-.05.307-.013.615-.034.921-.021.795.033,1.588.089,2.385.073a2.837,2.837,0,0,1,.354-.011c.428.048.825-.206,1.251-.074a7.513,7.513,0,0,0,1.191.07,1.36,1.36,0,0,0,.424,0,5.649,5.649,0,0,1,1.617,0,7.113,7.113,0,0,0,1.344-.011,3.6,3.6,0,0,1,1.262.038.335.335,0,0,0,.137.022,10.136,10.136,0,0,1,1.479.017,1.977,1.977,0,0,1,.765.067,1.179,1.179,0,0,0,.335-.006c.282,0,.565-.014.845,0,.708.037,1.415.123,2.122.123a15.493,15.493,0,0,1,1.894.143,2.353,2.353,0,0,0,.352.022,24.974,24.974,0,0,1,3.4.2,8.187,8.187,0,0,0,.992.014.61.61,0,0,1,.526.217c.257.331.429.667,0,1.034a5.632,5.632,0,0,1-1.158-.03c-.8-.067-1.6-.156-2.4-.206q-1.449-.09-2.9-.125c-.995-.024-1.991-.02-2.986-.025-1.233-.006-2.465-.02-3.7-.006-.757.009-1.513.066-2.27.095-.379.014-.759.007-1.137.019q-1.74.054-3.479.118c-.035,0-.067.038-.166.1.435,0,.809-.007,1.182,0,.472.01.943.033,1.415.051a1.206,1.206,0,0,0,.142.006c1.064-.1,2.123.079,3.185.038.759-.03,1.506.057,2.258.088.4.016.8.019,1.2.026.213,0,.43-.013.638.011.706.082,1.416.067,2.125.09.5.016.99.075,1.486.1.826.037,1.653.052,2.479.09a20.714,20.714,0,0,1,2.262.143c.859.134,1.73.115,2.59.224a14.426,14.426,0,0,0,1.754.01,1.539,1.539,0,0,1,.489.028,4.206,4.206,0,0,0,1.389.15c.4.013.793.1,1.192.131.493.038.989.044,1.482.076a5.051,5.051,0,0,1,1.239.18,7.723,7.723,0,0,0,1.221.232,1.079,1.079,0,0,1,.653.279c-.026.16-.2.192-.357.2-.259.017-.521,0-.78.012-.33.011-.388.056-.386.323a.932.932,0,0,1-.407.834c-.8-.08-1.614-.165-2.431-.243-.61-.059-1.22-.123-1.833-.162-1.44-.092-2.885-.146-4.321-.262-1.111-.09-2.224-.042-3.334-.094-.141-.006-.286.013-.425,0-1.391-.138-2.791-.053-4.186-.095q-1.276-.038-2.555-.051c-1.018-.01-2.036-.019-3.054-.007-.756.009-1.513.069-2.269.075a25.115,25.115,0,0,0-2.551.106,1.95,1.95,0,0,1-.7-.009,1.376,1.376,0,0,0-.416,0c-.352.028-.7.061-1.052.1-.937.1-1.885.072-2.827.113-.776.033-1.554.072-2.332.085a10.768,10.768,0,0,0-1.408.117,14.366,14.366,0,0,1-1.615.128,8.737,8.737,0,0,0-1.611.158.582.582,0,0,1-.138.022c-1.053-.035-2.035.3-3.079.315a3.542,3.542,0,0,0-.4.057c.107.063.159.119.2.115a13.091,13.091,0,0,0,1.613-.152,1.366,1.366,0,0,1,.351-.03,17.083,17.083,0,0,0,2.04-.144c.683-.053,1.364-.108,2.047-.157.164-.012.331-.01.5-.011a20.257,20.257,0,0,0,2.546-.142,2.276,2.276,0,0,1,.354-.013c1.017.021,2.028-.1,3.045-.059a3.514,3.514,0,0,0,.564-.035,21.6,21.6,0,0,1,2.26-.084c.8-.015,1.6-.064,2.405-.087a8.279,8.279,0,0,1,1.059.022,5.06,5.06,0,0,0,.917,0,2.541,2.541,0,0,1,.426-.014,25.114,25.114,0,0,0,2.769-.028,2.423,2.423,0,0,1,.282-.005,29.871,29.871,0,0,0,3.606.063,2.154,2.154,0,0,1,.493.026,2.766,2.766,0,0,0,1.051.03,1.715,1.715,0,0,1,.35.015c1.037.061,2.076.093,3.117.075.165,0,.331,0,.5.009.52.021,1.041.045,1.56.069a3.417,3.417,0,0,0,.425.017c.288-.024.443.25.791.147a2.752,2.752,0,0,1,.759,0c.283.007.566.013.849.026a6.724,6.724,0,0,0,.841.047,10.422,10.422,0,0,1,1.6.142c1.1.076,2.208.13,3.3.3.3.047.648-.033.963.032a8.146,8.146,0,0,0,1.259.139c.99.049,1.958.208,2.947.308.183.187.358.365.344.61-.017.287-.152.526-.748.566a4.349,4.349,0,0,1-.918-.046c-1.395-.206-2.8-.335-4.214-.466-.869-.081-1.736-.166-2.6-.248a.393.393,0,0,0-.071-.006,22.752,22.752,0,0,1-2.749-.188c-.543-.025-1.088-.032-1.632-.052-.755-.027-1.51-.059-2.265-.085-.543-.019-1.087-.029-1.63-.051-.425-.017-.849-.043-1.272-.072-.375-.025-.747-.046-1.127-.041a6.287,6.287,0,0,1-1.555-.042,1.506,1.506,0,0,0-.493.009,15.473,15.473,0,0,1-2.553.015c-.165-.008-.331,0-.5,0-.257,0-.516,0-.771-.019a3.674,3.674,0,0,0-1.191,0,1.95,1.95,0,0,1-.494.012c-.825-.028-1.651-.007-2.476-.029-.446-.012-.9.046-1.344.06-.474.015-.948.01-1.421.023-.733.02-1.466.047-2.2.072-.331.011-.662.022-.992.04q-1.381.074-2.762.153c-.307.017-.613.045-.92.05a15.618,15.618,0,0,0-1.908.116,13.066,13.066,0,0,1-1.412.053c-.142,0-.285,0-.425.01q-1.944.146-3.887.3-1.375.106-2.734.3c-.4.055-.8.077-1.2.123q-1.51.175-3.016.359c-1.309.162-2.618.323-3.922.5-1.187.161-2.367.346-3.552.513-.3.043-.61.053-.913.09-.536.066-1.074.129-1.6.215a18.151,18.151,0,0,1-3.1.26,2.489,2.489,0,0,1-1.19-.289c-.448-.242-.567-.454-.44-.85a1.229,1.229,0,0,1,.082-.2c.016-.03.055-.052.095-.088a13.357,13.357,0,0,0,3.378-.331,1.308,1.308,0,0,1,.11-1.283,10.783,10.783,0,0,0,2.072-.179c1.111-.168,2.225-.329,3.329-.522a12.014,12.014,0,0,1,1.314-.165,10.894,10.894,0,0,0,1.312-.21c.389-.073.772-.164,1.158-.247a1.449,1.449,0,0,1,.339-.072,28.568,28.568,0,0,0,2.927-.309,7.387,7.387,0,0,0,.757-.137c.218-.037.438-.066.671-.1-.06-.048-.089-.091-.119-.092-.567-.009-1.142-.055-1.7-.009-.892.073-1.775.205-2.661.315-.537.067-1.074.135-1.608.21-.929.13-1.855.265-2.782.4-.883.127-1.771.236-2.647.384-1.292.219-2.591.4-3.9.578-.767.1-1.512.284-2.267.428a3.39,3.39,0,0,1-.417.055c-.417.027-.738-.176-.687-.557.021-.154.06-.306.1-.49a14.687,14.687,0,0,0,2.787-.485c.2-.045.422-.052.624-.1.265-.062.572-.075.726-.288a.9.9,0,0,0,.612-.021c.182-.038.355-.093.538-.129a.732.732,0,0,0,.5-.212A9.193,9.193,0,0,0,7181.976,3639.684Zm20.874-1.069a1.182,1.182,0,0,0,.606.038c-.019-.027-.029-.055-.038-.055-.189,0-.377.012-.565.02a10.792,10.792,0,0,0-1.19.13c.2.017.268.03.336.028a4.337,4.337,0,0,0,.558-.031A1.372,1.372,0,0,0,7202.85,3638.615Zm-3.655.417c-.211-.017-.421-.041-.632-.046-.076,0-.2.011-.124.13l.754-.083c.183-.011.367-.019.549-.034.164-.014.36.031.492-.111a1.727,1.727,0,0,0-.933.022C7199.251,3638.928,7199.231,3638.989,7199.195,3639.031Zm-14.7.207a.353.353,0,0,0-.423.076l.414-.084,2.646-.393c.3-.044.6-.085.907-.131.811-.122,1.619-.25,2.432-.365.44-.062.891-.086,1.328-.154.555-.086,1.1-.222,1.655-.293a9.189,9.189,0,0,1,2.1-.2.886.886,0,0,0,.342-.052,4.807,4.807,0,0,1,1.663-.215,1.744,1.744,0,0,0,.626-.053,2.287,2.287,0,0,1,1.1-.113.487.487,0,0,0,.2-.016c.146-.054.28-.128.426-.184.131-.05.33.014.442-.135a4.6,4.6,0,0,0-1.225.012c-.583.059-1.163.135-1.746.194-.561.057-1.128.089-1.687.152-1.709.192-3.409.419-5.094.7-.345.058-.7.084-1.043.144-.852.148-1.7.3-2.549.465-.663.129-1.32.276-1.976.425C7184.837,3639.06,7184.61,3639.082,7184.493,3639.238Zm16.4-2.392c.259.169.259.169.635.155a1.522,1.522,0,0,0,1-.32A12.186,12.186,0,0,0,7200.894,3636.845Zm10.348,1.376a1.238,1.238,0,0,0-.806-.092c-.1.033-.224.059-.182.192A1.712,1.712,0,0,0,7211.242,3638.221Zm-13.335.89c-.294.055-.64-.11-.947.135A1.552,1.552,0,0,0,7197.906,3639.111Zm9.416-.676c-.393-.127-.393-.127-.842.066Zm-4.477-1.765c.229.145.229.145.463.041C7203.177,3636.552,7203.019,3636.618,7202.845,3636.67Zm1.869-.137.01.074.574-.075-.057-.024Zm3.777,1.815h.45C7208.733,3638.189,7208.733,3638.189,7208.491,3638.349Zm6.17-.257.011.066.315-.015,0-.051Zm-8.561-1.643c-.017.006-.043.009-.049.019s.006.026.011.04l.08-.032Zm-9.2,4.36-.072.056a.451.451,0,0,0,.042.027.914.914,0,0,0,.075-.057Zm12.576-2.536-.1.043a.406.406,0,0,0,.118.034.287.287,0,0,0,.1-.042Zm-8.574.538-.05.015c.013.008.026.022.041.023a.139.139,0,0,0,.049-.014Zm-2.647,1.922-.052-.006.013.036Zm14.287-2.568c.013.009.026.025.039.025a.142.142,0,0,0,.05-.021l-.064-.043Zm-.16-1.248-.054.027a.5.5,0,0,0,.09.041c.012,0,.034-.016.052-.025Zm-.335,1.267,0,.029.045-.012Zm3.446-.076-.038-.019-.008.028Z" transform="translate(-7169.71 -3616.373)" fill="#1d1d1d"/>
</svg>
