<svg xmlns="http://www.w3.org/2000/svg" width="324.128" height="20.613" viewBox="0 0 324.128 20.613">
  <path id="Handwritten_Underline" data-name="Handwritten Underline" d="M7197.56,3639.684c-2.057.06-4.162.094-6.159.186a11.316,11.316,0,0,1-4.568-.4c-.4-.153-.3-.341-.313-.514-.006-.062.226-.139.515-.182.632-.094,1.3-.2,2.082-.248,2.024-.134,4.118-.242,6.188-.359.727-.041,1.47-.075,2.19-.118,2.475-.148,4.938-.293,7.615-.343,1.63-.031,3.2-.136,4.812-.2q5-.185,10.019-.354c.635-.021,1.324,0,1.984-.005a15.672,15.672,0,0,0,2.7-.149,13.313,13.313,0,0,1,1.489-.094c2.377-.079,4.765-.151,7.146-.227,1.407-.045,2.777-.075,4.255-.032a20.283,20.283,0,0,0,3.675-.162,10.1,10.1,0,0,1,2.132-.081c1.552.1,3.056.037,4.577,0q2.459-.059,4.911-.126c10.217-.291,20.5-.5,30.811-.7,1.952-.036,4,.026,5.906-.034,4.47-.141,9.011-.127,13.506-.2,2.947-.049,5.937-.06,8.9-.051,2.122.007,4.163-.052,6.237-.093,1.963-.039,3.944-.057,5.916-.086.989-.015,1.975-.04,2.967-.05,1.431-.013,2.872-.034,4.3-.021,3.707.033,7.406.089,11.126.073.552,0,1.116-.023,1.652-.011,2,.048,3.85-.206,5.841-.074,1.824.121,3.721.013,5.559.07.639.02,1.357.029,1.979,0,2.526-.1,5.01-.057,7.542,0,2.066.046,4.164.027,6.271-.011,1.937-.036,3.954-.075,5.89.038.2.012.451.03.638.022,2.313-.1,4.6.043,6.9.017,1.223-.014,2.4-.019,3.571.067.423.031,1.036-.005,1.563-.006,1.314,0,2.636-.014,3.944,0,3.3.037,6.6.123,9.9.123,3,0,5.907.067,8.834.143.54.014,1.1.025,1.642.022,5.333-.031,10.586.076,15.841.2,1.515.035,3.084.018,4.628.014a9.806,9.806,0,0,1,2.458.217c1.2.331,2,.667.006,1.034-1.709.047-3.561,0-5.4-.03-3.726-.067-7.441-.156-11.177-.206q-6.757-.09-13.543-.125c-4.64-.024-9.286-.02-13.93-.025-5.752-.006-11.5-.02-17.252-.006-3.534.009-7.061.066-10.593.095-1.768.014-3.54.007-5.308.019q-8.114.054-16.227.118c-.164,0-.317.038-.776.1,2.033,0,3.775-.007,5.516,0,2.2.01,4.4.033,6.6.051.221,0,.446.01.661.006,4.967-.1,9.9.079,14.861.038,3.539-.03,7.027.057,10.538.088,1.861.016,3.729.019,5.593.026.994,0,2.008-.013,2.979.011,3.29.082,6.6.067,9.911.09,2.317.016,4.622.075,6.938.1,3.853.037,7.714.052,11.566.09,3.526.034,7.125.027,10.551.143,4.008.134,8.076.115,12.086.224,2.651.072,5.449.009,8.182.01.768,0,1.656-.023,2.283.028,2.082.168,4.272.135,6.479.15,1.862.013,3.7.1,5.563.131,2.3.038,4.614.044,6.916.076,1.96.027,3.889.05,5.78.18,1.776.122,3.771.172,5.7.232a17.766,17.766,0,0,1,3.045.279,3.946,3.946,0,0,1-1.664.2c-1.207.017-2.429,0-3.642.012-1.536.011-1.809.056-1.8.323.01.3-.327.583-1.9.834-3.72-.08-7.529-.165-11.344-.243-2.847-.059-5.693-.123-8.55-.162-6.719-.092-13.463-.146-20.162-.262-5.185-.09-10.376-.042-15.554-.094-.66-.006-1.334.013-1.984,0-6.489-.138-13.021-.053-19.529-.095q-5.955-.038-11.918-.051-7.124-.015-14.248-.007c-3.531.009-7.059.069-10.588.075-3.983.006-7.954.013-11.9.106-1.088.025-2.16.05-3.276-.009-.581-.031-1.295-.013-1.938,0q-2.459.042-4.909.1c-4.374.1-8.793.072-13.187.113-3.621.033-7.251.072-10.883.085-2.215.008-4.382.048-6.567.117-2.469.078-5.015.11-7.537.128-2.546.018-5.064.041-7.516.158-.21.01-.434.023-.646.022-4.911-.035-9.491.3-14.363.315-.513,0-1.022.031-1.865.057.5.063.743.119.936.115,2.507-.052,5.071-.034,7.527-.152.518-.025,1.095-.034,1.637-.03,3.221.028,6.347-.091,9.515-.144s6.365-.108,9.551-.157c.765-.012,1.541-.01,2.312-.011,3.979-.007,7.95-.028,11.88-.142.54-.016,1.1-.016,1.654-.013,4.742.021,9.461-.1,14.206-.059.872.007,1.766-.012,2.632-.035,3.5-.093,7.024-.071,10.546-.084,3.742-.015,7.479-.064,11.22-.087,1.646-.01,3.318-.013,4.943.022,1.45.031,2.853.02,4.277,0,.658-.011,1.337-.027,1.985-.014,4.315.083,8.611-.009,12.917-.028.439,0,.888-.014,1.317-.005,5.595.118,11.208.09,16.823.063.768,0,1.58-.008,2.3.026,1.635.076,3.239.088,4.9.03.513-.018,1.086.008,1.631.015q7.26.092,14.541.075c.772,0,1.545,0,2.317.009q3.64.032,7.279.069c.663.006,1.335.029,1.984.017,1.341-.024,2.068.25,3.69.147,1.016-.064,2.349,0,3.539,0,1.321.007,2.643.013,3.961.026s2.643.07,3.926.047c2.583-.044,4.966.106,7.452.142,5.148.076,10.3.13,15.383.3,1.392.047,3.026-.033,4.494.032,1.931.086,3.891.118,5.877.139,4.619.049,9.136.208,13.75.308.854.187,1.673.365,1.605.61-.078.287-.71.526-3.488.566-1.41.021-2.891,0-4.285-.046-6.508-.206-13.085-.335-19.664-.466q-6.076-.121-12.143-.248c-.111,0-.223-.008-.33-.006-4.355.069-8.541-.146-12.829-.188-2.534-.025-5.076-.032-7.613-.052q-5.287-.04-10.57-.085c-2.534-.019-5.072-.029-7.605-.051q-2.972-.025-5.937-.072c-1.751-.025-3.483-.046-5.26-.041-2.4.008-4.846.079-7.254-.042-.691-.035-1.545-.01-2.3.009-3.968.1-7.937.055-11.91.015-.77-.008-1.544,0-2.316,0-1.2,0-2.408,0-3.594-.019-1.856-.035-3.677-.1-5.56,0-.705.036-1.534.018-2.3.012-3.849-.028-7.7-.007-11.554-.029-2.083-.012-4.179.046-6.271.06-2.208.015-4.422.01-6.632.023q-5.133.03-10.264.072c-1.544.011-3.089.022-4.631.04q-6.444.074-12.886.153c-1.431.017-2.859.045-4.292.05-2.982.011-5.941.027-8.9.116-2.14.064-4.389.039-6.588.053-.66,0-1.327,0-1.983.01q-9.07.146-18.135.3-6.415.106-12.756.3c-1.843.055-3.725.077-5.58.123q-7.042.175-14.073.359-9.157.244-18.3.5c-5.538.161-11.046.346-16.575.513-1.4.043-2.845.053-4.255.09-2.5.066-5.011.129-7.486.215-4.766.166-9.559.27-14.455.26a49.08,49.08,0,0,1-5.552-.289c-2.089-.242-2.645-.454-2.053-.85a2.1,2.1,0,0,1,.384-.2,4.057,4.057,0,0,1,.442-.088c5.207-.036,10.533,0,15.763-.331-.73-.427-.876-.849.514-1.283,3.216.03,6.444-.075,9.67-.179,5.185-.168,10.382-.329,15.529-.522,2.037-.076,4.039-.136,6.132-.165,2.063-.028,4.094-.128,6.118-.21,1.816-.073,3.6-.164,5.4-.247.53-.024,1.063-.076,1.582-.072,4.683.036,9.069-.245,13.658-.309,1.194-.017,2.35-.094,3.531-.137,1.015-.037,2.041-.066,3.133-.1a4.24,4.24,0,0,0-.555-.092c-2.647-.009-5.325-.055-7.936-.009-4.162.073-8.281.205-12.415.315q-3.757.1-7.5.21-6.5.194-12.981.4c-4.119.127-8.263.236-12.351.384q-9.042.328-18.178.578c-3.573.1-7.051.284-10.577.428-.636.026-1.292.047-1.946.055-1.948.027-3.444-.176-3.2-.557a4.467,4.467,0,0,1,.449-.49c4.5-.029,8.715-.279,13-.485.945-.045,1.967-.052,2.908-.1a19.611,19.611,0,0,0,3.388-.288,18.889,18.889,0,0,0,2.854-.021c.846-.038,1.659-.093,2.506-.129a12.16,12.16,0,0,0,2.338-.212C7202.524,3639.424,7199.909,3639.483,7197.56,3639.684Zm97.395-1.069a25.131,25.131,0,0,0,2.827.038.79.79,0,0,0-.175-.055q-1.318.007-2.637.02c-1.617.069-3.383,0-5.554.13.932.017,1.251.03,1.567.028.87-.005,1.759,0,2.6-.031C7294.069,3638.728,7294.479,3638.657,7294.954,3638.615Zm-17.053.417c-.982-.017-1.965-.041-2.949-.046-.354,0-.958.011-.58.13l3.52-.083c.854-.011,1.71-.019,2.561-.034a13.087,13.087,0,0,0,2.295-.111,36.809,36.809,0,0,0-4.351.022A2.305,2.305,0,0,0,7277.9,3639.031Zm-68.6.207a6.716,6.716,0,0,0-1.975.076l1.931-.084,12.348-.393c1.408-.044,2.822-.085,4.229-.131,3.782-.122,7.556-.25,11.348-.365,2.053-.062,4.153-.086,6.2-.154,2.59-.086,5.118-.222,7.721-.293,3.241-.089,6.409-.276,9.8-.2.511.011,1.107-.017,1.595-.052,2.476-.175,5.063-.232,7.758-.215.979.006,2.114.014,2.922-.053a48.369,48.369,0,0,1,5.132-.113c.311.007.686.006.953-.016.684-.054,1.307-.128,1.987-.184a13.626,13.626,0,0,0,2.064-.135c-2.02-.069-3.873-.028-5.713.012-2.721.059-5.426.135-8.146.194-2.619.057-5.263.089-7.874.152q-11.958.288-23.768.7c-1.61.058-3.264.084-4.868.144q-5.963.222-11.9.465c-3.094.129-6.16.276-9.218.425A14.858,14.858,0,0,0,7209.3,3639.238Zm76.524-2.392a13.65,13.65,0,0,0,2.966.155,27.7,27.7,0,0,0,4.658-.32C7290.806,3636.762,7288.294,3636.693,7285.828,3636.845Zm48.28,1.376a25.806,25.806,0,0,0-3.758-.092c-.472.033-1.042.059-.85.192A36.04,36.04,0,0,0,7334.108,3638.221Zm-62.219.89a34.614,34.614,0,0,0-4.418.135A31.977,31.977,0,0,0,7271.89,3639.111Zm43.934-.676a16.287,16.287,0,0,0-3.928.066Zm-20.892-1.765a6.277,6.277,0,0,0,2.161.041A7.26,7.26,0,0,0,7294.932,3636.67Zm8.719-.137.048.074,2.677-.075-.266-.024Zm17.624,1.815h2.1A4.643,4.643,0,0,0,7321.274,3638.349Zm28.79-.257.05.066,1.473-.015-.014-.051Zm-39.943-1.643a2.226,2.226,0,0,0-.232.019c-.03.01.031.026.053.04l.371-.032Zm-42.947,4.36-.337.056c.069.009.192.028.2.027.126-.017.235-.038.349-.057Zm58.677-2.536-.46.043c.183.012.366.035.548.034.153,0,.306-.027.459-.042Zm-40.006.538-.233.015a1.647,1.647,0,0,0,.189.023c.072,0,.153-.009.23-.014Zm-12.349,1.922-.245-.006.062.036Zm66.66-2.568a1.254,1.254,0,0,0,.182.025c.079,0,.156-.013.233-.021l-.3-.043Zm-.749-1.248-.248.027c.138.014.268.032.421.041a2.109,2.109,0,0,0,.243-.025Zm-1.559,1.267-.021.029.21-.012Zm16.077-.076-.178-.019-.037.028Z" transform="matrix(0.999, -0.035, 0.035, 0.999, -7300.211, -3370.975)" fill="#a545f5"/>
</svg>
