<svg xmlns="http://www.w3.org/2000/svg" width="82.278" height="46.128" viewBox="0 0 82.278 46.128">
  <g id="Lines_in_Black" data-name="Lines in Black" transform="translate(-7172.982 -3634.996)" opacity="0.698">
    <path id="Path_23" data-name="Path 23" d="M7244.073,3714.623c-.116-.067-.231-.137-.35-.2s-.229-.118-.339-.175c-.245.389.312.283.259.563-.159.146-.37.09-.562.057a3.1,3.1,0,0,1-.857-.221.771.771,0,0,0-.595-.015,6.807,6.807,0,0,1-1.624.107l.075-.583-.216-.177a3.182,3.182,0,0,1-.162.4,1.907,1.907,0,0,1-.218.263c-.344-.092-.724-.017-1.037-.245a.261.261,0,0,0-.2-.006,2.882,2.882,0,0,1-1.5-.054,4.518,4.518,0,0,1-1.128-.255.267.267,0,0,0-.18,0,1.958,1.958,0,0,1-1.013.049,5.6,5.6,0,0,0-1.236-.1c-.447.009-.894-.01-1.1-.465-.266-.023-.287.2-.42.272-.729-.046-1.459-.088-2.187-.145a.67.67,0,0,1-.378-.134.783.783,0,0,0-.641-.186c-.412.037-.824.074-1.235.124-.391.048-.774.109-1.073-.251a.333.333,0,0,0-.254-.069,5.049,5.049,0,0,0-.952.133.465.465,0,0,1-.6-.181l-.207.288c-.479-.085-1.029.112-1.449-.323l-.39.157-.2-.273a6.713,6.713,0,0,1-.94.228c-.472.048-.948.038-1.435.052l-.029-.3c-.239-.052-.313.123-.358.312a3.2,3.2,0,0,0-.513-.056c-.3.018-.552-.038-.663-.367a2.036,2.036,0,0,0-.212.155.714.714,0,0,1-.828.159c-.129-.048-.267-.074-.4-.109l-.073.011.079,0c-.077.047-.154.135-.233.136a7.523,7.523,0,0,1-1.926.041.745.745,0,0,0-.271-.006,24.075,24.075,0,0,1-2.687.1,3.771,3.771,0,0,1-.673-.112,4.535,4.535,0,0,1-1.727.215,5.974,5.974,0,0,0-1.3.024,9.642,9.642,0,0,1-1.238.058c-.915.038-1.826.129-2.745.14-.64.007-1.286-.025-1.924.035-.875.083-1.749.091-2.627.1-.781.013-1.562.111-2.344.174a11.355,11.355,0,0,1-1.238.059,10.946,10.946,0,0,0-1.5.15,1.909,1.909,0,0,1-.547.052,5.855,5.855,0,0,0-1.508.066,7.306,7.306,0,0,0-1.508.129,1.465,1.465,0,0,1-.414.026,18.764,18.764,0,0,0-2.554.145c-.527.057-1.059.082-1.587.132-1.446.139-2.892.273-4.336.429-.548.059-1.089.237-1.635.247-.949.017-1.855.334-2.812.314a12.669,12.669,0,0,0-1.782.2c-.113.014-.225.053-.339.069a.8.8,0,0,1-.947-1c.011-.062.023-.125.033-.179a.683.683,0,0,0-.542-.1.755.755,0,0,1-.748-.4.4.4,0,0,1,.169-.633,6.546,6.546,0,0,1,1.35-.521c.813-.165,1.595-.438,2.391-.655.493-.134,1-.178,1.488-.3.69-.168,1.414-.168,2.1-.387a16.873,16.873,0,0,0,2.633-.457c.183-.023.367-.025.55-.046a1.56,1.56,0,0,0,.543-.086,3.592,3.592,0,0,1,1.339-.266c.869-.1,1.729-.28,2.6-.409.545-.082,1.094-.134,1.643-.2,1.258-.146,2.516-.294,3.774-.435.686-.077,1.372-.138,2.058-.212a2.187,2.187,0,0,0,.4-.089,1.127,1.127,0,0,1,.675-.048,1.972,1.972,0,0,0,.477,0,4.475,4.475,0,0,0,1.093,0,4.032,4.032,0,0,1,1.077-.157,11.121,11.121,0,0,0,1.235-.108c.159-.014.319-.021.479-.029.508-.025,1.017-.025,1.52-.079a19.727,19.727,0,0,1,2.122-.018.408.408,0,0,0,.136,0,6.626,6.626,0,0,1,1.838-.209,1.839,1.839,0,0,1,.414-.009,9.883,9.883,0,0,0,2.063-.059c.435-.033.872-.035,1.308-.052a1.274,1.274,0,0,0,.207-.024,1.906,1.906,0,0,1,1.407.036c.105.058.271,0,.408,0l.756-.014c.023,0,.048.015.068.009a1.5,1.5,0,0,1,1.194.042c.108.056.306-.054.46-.1a3.134,3.134,0,0,1,2.043.06c.231-.164.717-.125.565-.673a1,1,0,0,0-.793.008.97.97,0,0,1-.861.009c-.036-.021-.117.031-.176.052a7.634,7.634,0,0,1-1.061.185.343.343,0,0,1-.126-.049.761.761,0,0,0-1.009.116l-.795-.426c-.365.337-.823.192-1.247.222a1.688,1.688,0,0,0-.734.105.673.673,0,0,1-.531-.007c-.439-.127-.891-.217-1.34-.309a.331.331,0,0,0-.248.054.845.845,0,0,1-.592.154c-.484-.006-.964.034-1.446.072-.456.035-.918-.025-1.378-.018a7.052,7.052,0,0,0-1.853.15.68.68,0,0,1-.275.017,6.488,6.488,0,0,0-1.786.106,7.244,7.244,0,0,1-1.3.061,17.688,17.688,0,0,0-3.3.213,1.955,1.955,0,0,1-.276.024,10.928,10.928,0,0,0-1.581.123c-.8.108-1.6.167-2.406.233-.479.041-.961.049-1.441.085a10.189,10.189,0,0,0-1.1.125,12.543,12.543,0,0,1-1.3.146c-.618.052-1.226.212-1.843.292-.8.1-1.6.168-2.4.255-.848.092-1.693.2-2.541.283-.688.066-1.382.08-2.069.154-.961.1-1.932.025-2.892.2a10.292,10.292,0,0,1-1.381.066c-.207.008-.415.015-.622.027-.63.039-.954-.294-.879-.92a2.212,2.212,0,0,1,.12-.4c.44-.165.942-.09,1.318-.4-.186-.746-.186-.746.071-1.3a4.552,4.552,0,0,1,.631-.155,16.37,16.37,0,0,0,2.445-.449c.845-.224,1.687-.463,2.537-.666.468-.112.95-.163,1.426-.24a.753.753,0,0,0,.269-.042,4.461,4.461,0,0,1,1.731-.414c.248-.044.5-.079.744-.144a5.414,5.414,0,0,1,1.77-.223,4.293,4.293,0,0,0,1.087-.167c.652-.133,1.3-.289,1.954-.419a2.162,2.162,0,0,1,.548-.014,5.978,5.978,0,0,0,1.515-.3c0-.206-.115-.192-.2-.183-.32.034-.641.077-.96.12-.137.018-.272.056-.41.063-.962.049-1.919.155-2.881.214a9,9,0,0,0-1.567.239,4.7,4.7,0,0,1-1.16.162,10.889,10.889,0,0,0-2.267.249c-1.2.239-2.418.352-3.634.484-1.373.15-2.752.235-4.133.281a4.468,4.468,0,0,1-.69-.033.676.676,0,0,1-.62-.974c.027-.087.067-.17.117-.292a4.588,4.588,0,0,1,1.279-.119,17.922,17.922,0,0,0,2.26-.28c1.366-.216,2.724-.486,4.088-.719.612-.1,1.229-.178,1.845-.264.046-.006.1.014.137-.005a3.2,3.2,0,0,1,1.467-.307,11.562,11.562,0,0,0,1.432-.213c.544-.092,1.086-.2,1.631-.291.522-.085,1.047-.158,1.571-.229.937-.126,1.874-.245,2.812-.372.593-.081,1.183-.219,1.777-.241.757-.028,1.506-.091,2.259-.18.913-.107,1.835-.133,2.754-.192.161-.01.322-.013.483-.014a17.2,17.2,0,0,0,2.608-.2.742.742,0,0,1,.207-.013c.852.109,1.7-.117,2.535-.082.63.026,1.229-.1,1.843-.132a8.5,8.5,0,0,1,.959.019,8.3,8.3,0,0,0,1.237-.1c.251-.021.5-.036.755-.056.113-.009.252.014.334-.042.3-.209.587-.028.862.038.127.031.218.212.358.362.062-.247.1-.482.42-.388a1.069,1.069,0,0,0,.331-.032c.25-.016.5-.028.752-.04.089,0,.213.035.262-.011.23-.214.456-.1.708-.057a2.791,2.791,0,0,0,.819.009,1.231,1.231,0,0,1,.681.042,1.4,1.4,0,0,0,.944.069,8.422,8.422,0,0,1,2.191-.149,1.972,1.972,0,0,0,.478-.052.847.847,0,0,1,.54.026.557.557,0,0,0,.328.019,1.077,1.077,0,0,1,.681.032.746.746,0,0,0,.661-.027.755.755,0,0,1,.73.017c.007.039.013.076.018.113l-.016-.12a2.41,2.41,0,0,0,.547-.032,1.653,1.653,0,0,1,1.076.04,1.378,1.378,0,0,0,.467.008c.062,0,.137-.036.182-.012.1.052.176.194.261.193a7.057,7.057,0,0,0,1.225-.085,15.781,15.781,0,0,1,1.839-.088.176.176,0,0,1,.068.013,2.881,2.881,0,0,0,.674.245,3.814,3.814,0,0,0,.673-.105,3.6,3.6,0,0,1,1.354.139,1.243,1.243,0,0,0,.336.006c.008.042.017.084.025.125l-.04-.114c.04-.021.08-.061.121-.062.5-.025,1-.059,1.5-.059a5.351,5.351,0,0,1,.746.1c.091.013.2,0,.269.05.521.379,1.1.149,1.649.151a4.527,4.527,0,0,1,1.086.095,16.44,16.44,0,0,0,1.636.242c.547.075,1.093.158,1.642.218.27.029.545.008.815.023.251.014.5.046.753.067a1.626,1.626,0,0,1,.405.031c.288.1.533.373.884.2a2.065,2.065,0,0,0,.89.051.663.663,0,0,1,.335.047,3.656,3.656,0,0,0,1,.2,16.644,16.644,0,0,1,1.944.431.808.808,0,0,1,.486.551.981.981,0,0,1-.956,1.266,2.053,2.053,0,0,1-.467-.121,6.938,6.938,0,0,0-1.74-.409.983.983,0,0,1-.335-.072,2.7,2.7,0,0,0-1.279-.218,3.568,3.568,0,0,1-.881-.125,2.852,2.852,0,0,0-1.494-.107,1.14,1.14,0,0,1-.342-.02,3.959,3.959,0,0,0-.684-.017,6.335,6.335,0,0,1-1.984-.067c-.295-.053-.385-.125-.609-.42a3.559,3.559,0,0,1-1.37.315,1.134,1.134,0,0,0-.615-.374c-.26.11-.485.329-.779.2a1.953,1.953,0,0,0-1.4-.009l.071-.149-.155.037.114.092c.021.087.014.214.068.253a1,1,0,0,0,.828.224c.261-.064.52-.134.769-.2.061.113.085.226.149.258a.556.556,0,0,0,.329.045,1.177,1.177,0,0,0,.628-.394l-.023.461c.284.1.388-.286.645-.169.14.064.295.1.438.154.028.011.033.08.049.125a2.52,2.52,0,0,1,.7-.166,5.344,5.344,0,0,1,.928.205,1.05,1.05,0,0,0,.04.114c.007.014.033.018.052.026,0-.031.018-.081,0-.088a.38.38,0,0,0-.114-.034.315.315,0,0,1,.436-.042c.07.05.178.122.237.1a3.024,3.024,0,0,1,1.7.113l-.124.183a.942.942,0,0,0,1.093-.109c.286.048.566.246.859.052.332.146.727.042,1.04.3a.552.552,0,0,0,.759.021.528.528,0,0,1,.391-.058c.381.078.75.22,1.132.274.363.052.736.01,1.1.036.3.021.593.082.889.125a1.469,1.469,0,0,1,.341.052,5.511,5.511,0,0,0,1.676.3c.365.027.722.144,1.087.189.388.048.779.061,1.17.084.114.007.229,0,.294,0,.58.293.364.765.367,1.186a.978.978,0,0,1-1.122.3c-.4-.117-.814-.116-1.212-.22-.307-.081-.618-.144-1.057-.245a2.208,2.208,0,0,1-1.154.04,4.066,4.066,0,0,0-1.1-.053,2.131,2.131,0,0,1-1.17-.325c-.116-.062-.165-.251-.253-.394a.31.31,0,0,0-.408.129c-.119.246-.3.254-.518.225-.366-.049-.729-.1-1.095-.155-.114-.016-.229-.026-.344-.034-1.166-.075-2.332-.148-3.5-.225a3.234,3.234,0,0,1-.342-.055c-.473-.082-.473-.082-.743-.547a.932.932,0,0,0-.223.118,1.144,1.144,0,0,0-.155.223,3.682,3.682,0,0,0-1.281-.028,1.492,1.492,0,0,1-.412-.021c-.114-.012-.228-.04-.341-.06a8.879,8.879,0,0,1-1.409-.235,2.664,2.664,0,0,0-1.43-.1,1.214,1.214,0,0,1-.464-.1c-.07-.231.315-.183.249-.412-.486-.137-.5-.136-.713.08l.479.338c-.489-.013-.978-.018-1.467-.043a6.489,6.489,0,0,1-.67-.107c.014-.158.022-.268.033-.376a.27.27,0,0,0,.063,0,.2.2,0,0,0,.045-.026l-.094.043a.673.673,0,0,0-.473-.2v.514c-.334-.106-.624.163-.95.013-.039-.018-.133.033-.173.077a.261.261,0,0,1-.421,0,.65.65,0,0,0-.5-.158,4.592,4.592,0,0,1-.817-.106.682.682,0,0,0-.468.06c-.041.021-.087.073-.118.064-.529-.14-1.028.21-1.543.1a2.654,2.654,0,0,0-.915,0,4.639,4.639,0,0,1-.894-.065.586.586,0,0,0-.2.031.987.987,0,0,1-1.143-.372c-.354.276-.354.276-.617.2a1.094,1.094,0,0,0,.153-.222.19.19,0,0,0-.035-.172.2.2,0,0,0-.184-.01.438.438,0,0,0-.177.193.6.6,0,0,1-.544.36c-.146.022-.275,0-.316-.181a.2.2,0,0,0-.079-.1c-.11-.083-.233.013-.269.194-.575.043-1.146.1-1.717.122a1.083,1.083,0,0,1-.842-.224.3.3,0,0,0-.437-.04,1.058,1.058,0,0,1-.773.215c-.365.028-.73.047-1.1.071a.836.836,0,0,1-.274.013,3.317,3.317,0,0,0-1.523.04,1.277,1.277,0,0,0,.042-.246.135.135,0,0,0-.084-.093.138.138,0,0,0-.125.029,1.047,1.047,0,0,1-1.108.337,1.072,1.072,0,0,0-.409-.018,7.216,7.216,0,0,1-1.645.125c-1.078.081-2.158.136-3.237.212-1.009.072-2.02.149-3.027.241q-1.856.169-3.71.369c-.707.074-1.411.171-2.117.259-.959.119-1.916.241-2.875.354-.387.046-.775.068-1.162.114-.047.005-.083.092-.125.141.049.038.1.112.146.108.342-.031.683-.075,1.022-.12a8.665,8.665,0,0,1,1.294-.163c.742.019,1.468-.109,2.2-.15.778-.043,1.557-.079,2.335-.129.457-.029.9-.115,1.371-.1.66.019,1.324-.081,1.987-.119.32-.018.642-.018.962-.014.551.006,1.1.021,1.651.03.137,0,.273,0,.41,0,.479-.016.96-.036,1.44-.052a2.463,2.463,0,0,0,.481-.014.526.526,0,0,1,.511.093c.2.16.339.03.451-.14l0,0a1.825,1.825,0,0,0,.541.051,3.672,3.672,0,0,1,1.3.037,1.2,1.2,0,0,0,.605,0,1.552,1.552,0,0,1,1.188.122,1.8,1.8,0,0,1,.165.072,2.082,2.082,0,0,1,1.806-.265c.206.031.4.035.606.045a24.059,24.059,0,0,1,2.73.073,3.69,3.69,0,0,0,1.025-.047,1.832,1.832,0,0,1,1.285.19,3.347,3.347,0,0,1,.426-.184.461.461,0,0,1,.511.094.618.618,0,0,0,.744.123,2.981,2.981,0,0,1,1.019-.119c.644,0,1.288.055,1.932.074.322.01.6.251.935.181.081-.017.193.064.26.033a.745.745,0,0,1,.776.113c.213.137.336-.019.464-.217a1.162,1.162,0,0,0,1.086.149.3.3,0,0,1,.261.039.965.965,0,0,0,.844.079,4.025,4.025,0,0,1,.811-.139c.259,0,.516.1.779.13.042,0,.088.059.124.051a2.1,2.1,0,0,1,1.05.228,1.213,1.213,0,0,0,.657.021c.682-.059,1.366-.067,2.047-.123a2.811,2.811,0,0,1,1.17.354,2.539,2.539,0,0,1,.36.189c.1-.209.341-.084.47-.195.233-.2.464-.076.712-.061s.486-.119.713.09a.3.3,0,0,0,.245.019,1.249,1.249,0,0,1,.881.029.468.468,0,0,0,.515-.012.114.114,0,0,1,.065-.015c.046,0,.1-.016.136.006.324.232.741.008,1.061.21a.861.861,0,0,0,.726.1.979.979,0,0,1,.8.074.772.772,0,0,0,.47.019,7.95,7.95,0,0,1,1.647.114.118.118,0,0,1,.065.018c.506.384,1.045.186,1.58.1a.892.892,0,0,1,.407.013c.3.1.591.233.885.352.041.017.1.056.123.042.406-.239.792.1,1.211.04a4.31,4.31,0,0,1,1.212.192c.383.066.766.147,1.151.184a11.339,11.339,0,0,0,1.242.044.687.687,0,0,1,.606.386.313.313,0,0,1,.064.194c-.064.363.086.816-.413,1.006-.039.016-.051.107-.073.165-.085.206-.177.279-.33.251a.651.651,0,0,1-.2-.06,1.258,1.258,0,0,0-1.008-.058,1.773,1.773,0,0,1-.887-.025c-.38-.077-.747-.218-1.124-.315a2.419,2.419,0,0,0-.473-.05,3.944,3.944,0,0,1-.96-.05,8.436,8.436,0,0,0-1.563-.25c-.29-.034-.577-.1-.858-.147l-.158-.335a5.169,5.169,0,0,0-.875-.038c-.236.028-.518-.052-.709.177l-.878-.054.253-.215c-.043-.12-.085-.249-.138-.372-.016-.035-.067-.055-.1-.083l-.661.375.176.136c-.387-.05-.7-.091-1.022-.13a12.284,12.284,0,0,0-1.431-.309.853.853,0,0,0-.379.082.685.685,0,0,1-.583-.008l-.611-.441.034,0c-.082.081-.161.164-.246.242-.206.19-.285.225-.47.078a.439.439,0,0,0-.642-.017,1.965,1.965,0,0,1-.84.146c-.076.009-.144-.125-.234-.432-.21,0-.436-.02-.66-.01-.18.007-.354.089-.535-.026-.052-.034-.178.009-.248.052a1.039,1.039,0,0,1-.912.162,1.627,1.627,0,0,0-.587.048c.02-.464.02-.464-.3-.655l-.34.385a4.236,4.236,0,0,1-1.916-.066c-.129.179-.292.369-.2.643.346.039.682.083,1.018.111a.743.743,0,0,0,.262-.057c.065-.02.146-.095.187-.075.6.288,1.221-.135,1.83.092a2.509,2.509,0,0,0,.813.016c-.039.071-.076.141-.112.21l.067.026.037-.231c.217-.037.325.147.481.233.076.042.2.1.249.07.309-.215.581-.046.859.055a.746.746,0,0,0,.6-.018.911.911,0,0,1,.4-.062c.438.017.874.071,1.311.073a1.071,1.071,0,0,1,.927.416c.236-.242.458-.333.73-.073a.459.459,0,0,0,.521.062,1.078,1.078,0,0,1,.605-.066,10.494,10.494,0,0,1,2.112.274c.457.117.938.168,1.406.267a7.751,7.751,0,0,0,1.363.045.964.964,0,0,1,.339.047,2.346,2.346,0,0,0,1.007.2.605.605,0,0,1,.386.133.857.857,0,0,0,.718.156,4.667,4.667,0,0,1,.958.059l.686.058a.994.994,0,0,1,.339.033,5.128,5.128,0,0,0,1.407.32c.156.028.3.1.458.145a.893.893,0,0,0,.665.012,1.237,1.237,0,0,1,.6-.052,7.08,7.08,0,0,1,.813.159.667.667,0,0,1,.55.816,2.251,2.251,0,0,1-.275.627.648.648,0,0,1-.711.314c-.453-.076-.907-.149-1.362-.213a1.748,1.748,0,0,0-.75-.043.943.943,0,0,1-.469-.071c-.243-.072-.479-.167-.757-.266a1.709,1.709,0,0,1-1.368.05,2.333,2.333,0,0,0-.61-.088,2.42,2.42,0,0,1-1.077-.19c-.569.026-1.1-.247-1.685-.19a3.574,3.574,0,0,1-1.156-.113c-.857-.207-1.735-.2-2.6-.325-.18-.026-.358-.06-.54-.08-.226-.025-.454-.042-.682-.059-.045,0-.1.025-.136.011-.144-.052-.315-.2-.417-.158a.694.694,0,0,1-.462-.024,8.514,8.514,0,0,0-.882-.158,1.913,1.913,0,0,0-.62.014.768.768,0,0,1-.7-.1c-.16-.116-.439-.07-.666-.09a18.233,18.233,0,0,0-2.194-.159,1.484,1.484,0,0,1-.865-.1,1,1,0,0,0-.537-.005,1.835,1.835,0,0,1-1.083-.087,1.249,1.249,0,0,0-.81-.038,2.756,2.756,0,0,1-1.225-.037,2.489,2.489,0,0,0-1.337-.094,2.9,2.9,0,0,1-1.225-.05,3.433,3.433,0,0,0-.877-.144c-.534.075-1.057-.069-1.569-.028s-1.008-.07-1.512-.04c-.158.01-.318-.013-.475,0-.732.073-1.468.081-2.2.108-.137,0-.276-.05-.411-.037-.431.042-.818-.23-1.287-.087-.372.114-.82-.042-1.215.031s-.81.162-1.222.2a.925.925,0,0,1-.716-.164.5.5,0,0,0-.379-.107c-.579.173-1.187.063-1.767.2-.2.046-.4.087-.637.138-.176-.064-.347-.244-.609-.177a11.4,11.4,0,0,1-1.212.129.443.443,0,0,1-.2.016,2.159,2.159,0,0,0-1.086.021,1.553,1.553,0,0,1-.479.042c-.395-.089-.689.129-1.169.256.386.112.622.193.864.245a.469.469,0,0,0,.329-.034c.161-.113.27-.074.433.005.316.154.628-.01.937-.089a2.289,2.289,0,0,1,.526-.125c.483,0,.969.018,1.452.043a1.161,1.161,0,0,1,.535.1,1.4,1.4,0,0,0,1.067.067,3.1,3.1,0,0,0,.393-.134.582.582,0,0,1,.644.1c.2.194.453.088.656.039a.851.851,0,0,1,.724,0,.356.356,0,0,0,.263-.013,2.63,2.63,0,0,1,1.874-.051.394.394,0,0,0,.189,0c.179-.033.354-.086.533-.107a1.208,1.208,0,0,1,1.035.262.8.8,0,0,0,.226.093c.074-.059.156-.131.246-.19.074-.047.161-.116.237-.11a8.313,8.313,0,0,1,1.028.13,2.544,2.544,0,0,1,.544.276c.113-.022.292-.059.473-.089s.356-.053.563-.083l.144.512a.618.618,0,0,1,.8-.489,1.992,1.992,0,0,0,.879,0,.873.873,0,0,1,.539.037,1.26,1.26,0,0,0,.8.045,1.45,1.45,0,0,1,1.045.195.646.646,0,0,0,.656.078.245.245,0,0,1,.2-.016c.4.238.808.055,1.211.046.068,0,.155-.025.2.007a1.861,1.861,0,0,0,1.01.168,2.227,2.227,0,0,1,1.2.183.157.157,0,0,0,.135,0c.34-.181.712-.025,1.072-.112a1.877,1.877,0,0,1,1,.091,3.044,3.044,0,0,0,1.018.108,1.492,1.492,0,0,1,.607.07c.29.138.588.014.88.1a1.373,1.373,0,0,0,.814.088.461.461,0,0,1,.138-.01c.279,0,.462.321.774.226.253-.076.5.048.737.056.426.014.817.362,1.262.123a.165.165,0,0,1,.132,0,4.644,4.644,0,0,0,1.823.138c.207.018.417,0,.621.021.176.021.283.14.311.369a2.44,2.44,0,0,0,.392,0c.332-.054.667-.164.959.112a8.607,8.607,0,0,0,.938.046.977.977,0,0,1,.583.068.3.3,0,0,0,.131.044,12.15,12.15,0,0,1,1.4.254c.087.013.213.03.264-.017.256-.239.522-.1.787-.051a9.491,9.491,0,0,0,1.228.168,8.506,8.506,0,0,1,1.144.221c.178.032.361.025.541.045a3.982,3.982,0,0,1,.613.088.83.83,0,0,1,.479,1.18c-.04.093-.161.161-.256.221-.15.095-.312.174-.481.267l-1.4-.225a.429.429,0,0,0-.136-.022,5.719,5.719,0,0,1-2.094-.317c-.045-.007-.1,0-.135-.028a2.241,2.241,0,0,0-1.387-.283c-.478-.033-.953-.115-1.432-.178a1.625,1.625,0,0,1,.177-.424c.063-.082.126-.137.054-.221a.265.265,0,0,0-.177-.054c-.106,0-.213.02-.319.017-.271-.008-.541-.029-.812-.033-.041,0-.083.065-.187.153a2.542,2.542,0,0,0,.522.095.738.738,0,0,1,.753.477c-.049-.053-.1-.106-.15-.157-.077,0-.152,0-.227,0l.009.066.229-.074a.7.7,0,0,1-.7.126,1.049,1.049,0,0,0-.664-.042c-.446.168-.795-.068-1.174-.186-.182-.056-.206-.224-.213-.389.089,0,.179,0,.266-.011.165-.022.295-.094.315-.281a.071.071,0,0,0-.032-.054c-.149-.09-.253.026-.346.1A1.135,1.135,0,0,0,7244.073,3714.623Zm6.621.648.123-.035-.111.05a2.173,2.173,0,0,0-.32.016c-.021,0-.022.1-.033.158a1.41,1.41,0,0,0,.3.028C7250.677,3715.486,7250.682,3715.345,7250.694,3715.271Zm-8.612-1.31c.022.342.095.467.327.494a3.95,3.95,0,0,0,.536-.018c-.3-.273-.522-.486-.876-.458-.312-.007-.625-.015-.938-.016-.025,0-.052.054-.132.142A1.018,1.018,0,0,0,7242.082,3713.961Zm-12.565-1.115c-.111-.007-.222-.021-.333-.017-.02,0-.057.069-.053.1a.127.127,0,0,0,.08.087.252.252,0,0,0,.3-.2,1.8,1.8,0,0,0,.9.428,2.593,2.593,0,0,0,.155-.25c.017-.034,0-.084-.008-.154A1.626,1.626,0,0,0,7229.517,3712.846Zm4.936-2.427-.024-.242c-.4-.026-.756-.051-1.114-.073-.1-.006-.174.031-.177.15l.569.357c.1-.124.143-.305.349-.272.135.021.269.044.408.06.112-.022.277.1.329-.159A.458.458,0,0,0,7234.452,3710.418Zm-4.55-2.52a.241.241,0,0,0-.076-.329l-.419.2v.583c.344-.009.449-.213.5-.477a1.309,1.309,0,0,0,.128.036.2.2,0,0,0,.064-.008c-.021-.015-.045-.042-.065-.042A.681.681,0,0,0,7229.9,3707.9Zm.225,2.494c.038-.123.112-.209.248-.176.288.07.572.162.86.228.115.027.232,0,.216-.188a2.414,2.414,0,0,0-1.451-.221.261.261,0,0,0-.179.174c-.019.151.114.167.233.173.022,0,.046,0,.067,0Zm-1.226-6.849c-.134-.461-.163-.484-.58-.509a4.113,4.113,0,0,1-.751-.072,2.586,2.586,0,0,0-.848.042l.026.4a1.655,1.655,0,0,1,1.291-.038,2.566,2.566,0,0,0,.34.051c.176.03.374-.031.521.122.106-.041.211-.083.318-.122a1.255,1.255,0,0,1,1.4.148c.061.055.2.024.333.035l-.025-.492c-.214-.066-.422-.207-.546-.153a3.111,3.111,0,0,1-.864.1A.821.821,0,0,0,7228.9,3703.544Zm-.2,4.7c-.033.142-.094.253-.26.274-.148.019-.326-.041-.437.172.2.123.4.248.61.367a.2.2,0,0,0,.132.016,1.01,1.01,0,0,1,.831.209c.158.108.372-.065.36-.268-.01-.17-.061-.316-.25-.363a3,3,0,0,1-1.007-.388c.037-.082.079-.162.111-.245s.084-.17.064-.238a.934.934,0,0,0-.171-.255l-.77.648C7228.167,3708.438,7228.441,3708.224,7228.7,3708.241Zm-23.227,3.078a1.908,1.908,0,0,0-.449-.111,5.748,5.748,0,0,0-.824.083,4.563,4.563,0,0,1-1.573.046,1.131,1.131,0,0,0-.96.3,1.491,1.491,0,0,0,1.17.028,1.559,1.559,0,0,1,.816-.041.993.993,0,0,0,.27.042c.39-.014.778-.057,1.167-.047C7205.274,3711.621,7205.318,3711.506,7205.472,3711.318Zm15.216-2.879c.225.23.417.465.729.284a.332.332,0,0,1,.261-.016c.354.146.728,0,1.087.093a.59.59,0,0,0,.38-.112.245.245,0,0,0-.057-.424.454.454,0,0,0-.461,0,1.029,1.029,0,0,1-.661.131c-.344,0-.687-.017-1.03-.016A1.033,1.033,0,0,0,7220.688,3708.439Zm6.465-.333a2.419,2.419,0,0,1-1.486.489c.163.04.324.034.479.064a3.749,3.749,0,0,1,.527.157c.145.051.282.118.416.176l.56-.361Zm-2.714-5.185.464.479c.332-.116.676-.235,1.018-.358.012,0,.013-.04.029-.1l-.607-.283Zm-4.148,5.516-.883-.317a5.067,5.067,0,0,0-.811.385A2.129,2.129,0,0,0,7220.29,3708.438Zm-21.482,3.287c.081.038.122.074.161.072.61-.035,1.221-.075,1.831-.115a.077.077,0,0,0,.05-.044c.007-.015-.006-.04-.014-.079a1.3,1.3,0,0,0-.254-.047,11.234,11.234,0,0,1-1.6.028C7198.935,3711.535,7198.871,3711.654,7198.808,3711.725Zm40.644,1.816a3.49,3.49,0,0,0-1.251.221c.118.1.2.21.269.206a5.237,5.237,0,0,0,.806-.118C7239.323,3713.84,7239.35,3713.725,7239.451,3713.542Zm-54.615-5.736c.743.174.919.146,1.265-.168C7185.646,3707.511,7185.259,3707.779,7184.836,3707.805Zm35.058,4.641a1.277,1.277,0,0,0,1.213-.059C7220.643,3712.234,7220.631,3712.234,7219.894,3712.446Zm-11.79-1.165a1.3,1.3,0,0,0-.871-.118c-.154.023-.251.119-.1.308A2.125,2.125,0,0,0,7208.1,3711.281Zm25.895,1.925c.282.1.525.208.778.276.089.023.286-.039.288-.07.011-.188-.118-.12-.229-.1a.211.211,0,0,1-.175-.062.775.775,0,0,0-.646-.272.223.223,0,0,0-.027.065C7233.987,3713.084,7233.993,3713.129,7234,3713.206Zm-.507-8.291c.871.07.871.07,1.048-.184C7234.039,3704.558,7234.024,3704.56,7233.491,3704.915Zm6.822,6.1a5.45,5.45,0,0,0-.573.138c-.042.015-.076.113-.073.17a.237.237,0,0,0,.1.16.273.273,0,0,0,.392-.108A3.761,3.761,0,0,0,7240.313,3711.018Zm-33.642.333c-.469-.154-.474-.16-.694,0-.054.039-.067.135-.123.261.192-.074.311-.126.434-.165S7206.544,3711.382,7206.672,3711.351Zm18.07-2.3.367-.473a5.174,5.174,0,0,0-.5-.152c-.044-.009-.1.06-.167.1ZM7191.685,3707c-.911,0-.911,0-1.275.23.44-.06.845-.114,1.25-.171C7191.67,3707.062,7191.677,3707.024,7191.685,3707Zm6.949-3.167c-.354.069-.708.137-1.062.209-.011,0-.014.041-.021.063A1.621,1.621,0,0,0,7198.634,3703.837Zm-5.52.747a3.291,3.291,0,0,0,1.072-.167c.019-.006.018-.071.03-.134-.362.065-.717.128-1.07.194C7193.138,3704.479,7193.135,3704.514,7193.114,3704.584Zm24.522-.395c.287.195.287.195.668-.125A.56.56,0,0,0,7217.637,3704.19Zm7.509,8.21c-.166-.015-.277-.031-.388-.033s-.232-.03-.293.106c-.041.091.114.217.28.225A.36.36,0,0,0,7225.146,3712.4Zm-1.638-9.555c-.065.08-.135.133-.154.2a.173.173,0,0,0,.087.146.836.836,0,0,0,.315,0c.024,0,.062-.14.04-.161A1.785,1.785,0,0,0,7223.508,3702.845Zm-1.049.23c.247-.057.431.084.7-.021l-.52-.347Zm-3.724,9.414a3.5,3.5,0,0,0,.454.11c.1.009.2-.134.184-.232a.2.2,0,0,0-.252-.147A3.656,3.656,0,0,0,7218.735,3712.489Zm-25.511-.466a.548.548,0,0,0,.527.147c.1-.026.236-.017.24-.231A2.233,2.233,0,0,0,7193.225,3712.022Zm38.567-3.9-.036.362a1.736,1.736,0,0,0,.3.048,1.347,1.347,0,0,0,.271-.06Zm-8.991,4.375c-.316-.082-.316-.082-.473.069C7222.472,3712.695,7222.607,3712.68,7222.8,3712.5Zm14.09,1.647c.254-.325.254-.325,0-.744Zm12.044.818-.043-.135-.395-.028.08.4Zm-21.19-10.82c-.351.022-.351.022-.408.353Zm-3.646,4.306c-.078.012-.153.027-.229.034s-.2,0-.143.131c.017.039.12.071.174.06C7224,3708.657,7224.127,3708.639,7224.1,3708.454Zm7.306,4.676a1.79,1.79,0,0,0-.274-.254c-.03-.018-.126.026-.156.068a.166.166,0,0,0,.124.246A1.14,1.14,0,0,0,7231.4,3713.13Zm6.078-2.569-.074.107a2.894,2.894,0,0,0,.253.2c.02.012.09-.023.11-.054s.021-.113,0-.123A2.7,2.7,0,0,0,7237.482,3710.562Zm-22.919,1.876a1.164,1.164,0,0,0-.236-.089c-.107-.008-.184.051-.166.162a.3.3,0,0,0,.108.144A3.082,3.082,0,0,0,7214.563,3712.438Zm20.731-4.286v.059h.508v-.059Zm-21.753-5.088.066-.1c-.038-.017-.08-.053-.112-.045s-.045.062-.067.095Zm-4.062,9.346c-.048-.052-.074-.1-.1-.1-.115,0-.136.084-.122.176.006.034.045.063.068.094Zm16.585-8.168c-.2-.024-.333-.115-.514.069A.472.472,0,0,0,7226.065,3704.242Zm-2.761,8.376a2.671,2.671,0,0,0,.425.053c.039,0,.07-.082.106-.125-.054-.023-.111-.071-.162-.065A2.1,2.1,0,0,0,7223.3,3712.618Zm22.648-.613a1.192,1.192,0,0,0,.317-.007c.034-.013.042-.1.063-.152a.58.58,0,0,0-.18-.009C7246.107,3711.85,7246.071,3711.9,7245.953,3712Zm.662-2.7c-.1-.02-.236-.1-.277.116Zm-20.978-1.951a.722.722,0,0,0-.115.175c-.007.029.05.1.065.1.054-.013.137-.043.144-.079S7225.686,3707.451,7225.638,3707.358Zm11.723.927.021.1.27-.065-.016-.077Zm-29.89-3.815a.877.877,0,0,0-.1.165c0,.011.07.074.091.066a.891.891,0,0,0,.164-.108Zm-9.174,7.213c-.034-.02-.072-.061-.1-.055s-.059.053-.089.083l.132.08C7198.257,3711.754,7198.276,3711.719,7198.3,3711.683Zm30.045,1.029c.018.035.027.086.055.1s.072-.013.11-.022l-.073-.145Zm.238-8.336a1.368,1.368,0,0,0-.143.112.27.27,0,0,0,.062.088,1.318,1.318,0,0,0,.168-.1Zm-17.461,7.917-.105.061a.674.674,0,0,0,.148.073c.014,0,.044-.058.066-.09Zm4.865-2.485-.1.044c.028.013.059.04.085.036s.045-.04.066-.062Zm-.8,2.575-.148.031a.63.63,0,0,0,.076.153c.012.014.074-.016.113-.026Zm18.156.816c-.023.03-.048.06-.069.092,0,0,.033.038.044.035a.547.547,0,0,0,.1-.046Zm2.154-8.465-.054-.014a.67.67,0,0,0-.011.1s.032.008.051.012C7235.485,3704.8,7235.489,3704.767,7235.494,3704.734Zm-9.2,7.885-.052.112c.038.015.083.048.113.038s.035-.066.052-.1Zm1.347-5.185a.414.414,0,0,0-.051.012.43.43,0,0,0,.021.1.278.278,0,0,0,.049-.007C7227.658,3707.5,7227.651,3707.468,7227.646,3707.434Zm-6.543-3.422-.1.148c.037.02.089.064.108.053a.507.507,0,0,0,.112-.122Zm9.3,2.752c-.041.012-.093.013-.118.039s.012.07.021.108a.362.362,0,0,0,.115-.049C7230.436,3706.849,7230.412,3706.8,7230.405,3706.764Zm-12.868.86a.769.769,0,0,0-.026.18c0,.017.069.027.106.041a.619.619,0,0,0,.052-.159C7217.67,3707.671,7217.6,3707.651,7217.537,3707.624Zm-1.025,4.734-.061.081c.032.021.064.054.1.058.018,0,.041-.048.063-.074Zm23.176-6.86a.888.888,0,0,0,.055-.093c0-.005-.034-.038-.04-.035a.7.7,0,0,0-.086.061Zm.069,2.961.071-.08c-.017-.011-.043-.035-.047-.031a.994.994,0,0,0-.073.077Zm1.728.432c.034.017.08.056.1.046s.048-.065.069-.1c-.035-.017-.08-.056-.105-.046S7241.5,3708.854,7241.484,3708.89Zm-16.1,4.014c0-.016,0-.041-.013-.045a.156.156,0,0,0-.059,0l.018.067Zm16.141-1.73-.027-.054a.973.973,0,0,0-.089.072s.019.031.029.047Zm-16.192-3.653a.154.154,0,0,0,0-.063c0-.008-.034,0-.053-.007a.173.173,0,0,0,0,.063C7225.287,3707.522,7225.318,3707.52,7225.336,3707.521Zm15.308,1.092.06.018.009-.081a.143.143,0,0,0-.062.011C7240.641,3708.568,7240.645,3708.6,7240.644,3708.613Zm-14.231-6.563-.053.026c.015.012.028.033.044.034s.034-.015.051-.024Zm-2.709,6.028-.038-.007.008.036Zm21.537,3.907c.006-.017.022-.037.018-.049s-.031-.016-.048-.024c-.007.017-.022.038-.018.047S7245.224,3711.977,7245.24,3711.985Zm-21.113-7.672a.867.867,0,0,0,.063-.084s-.032-.036-.041-.033a.683.683,0,0,0-.092.055Zm-28.646,7.739.027-.051-.079.029Zm41.107-7.98h-.051l.03.078c.014-.01.036-.019.038-.031S7236.6,3704.087,7236.589,3704.072Zm-37.747,8.853a.253.253,0,0,0-.054,0,.482.482,0,0,0-.015.106.438.438,0,0,0,.057.01C7198.835,3713,7198.839,3712.963,7198.842,3712.925Zm29.034.077-.035-.045-.02.044Zm10.222-7.8.008-.051-.046.022Zm-11.576,5.289a.49.49,0,0,0,.081.059c.01,0,.048-.025.047-.028a.884.884,0,0,0-.052-.094Zm2.653-1.121-.055-.007.015.05Zm-22.109.58c-.012.034-.044.08-.032.1s.066.044.1.064c.013-.038.045-.083.033-.111S7207.1,3709.967,7207.065,3709.95Zm9.718-.18.058,0-.035-.085c-.016.011-.042.021-.045.035S7216.774,3709.752,7216.783,3709.771Zm2.979-6.768.059-.007-.025-.09c-.016.012-.041.021-.046.037S7219.758,3702.982,7219.763,3703Zm11.157,4.881a.557.557,0,0,0,.093.048c.01,0,.039-.023.04-.037s-.023-.045-.033-.044A.508.508,0,0,0,7230.92,3707.884Zm2-.053c.008-.015.022-.031.022-.046s-.014-.031-.022-.046a.151.151,0,0,0-.022.048C7232.9,3707.8,7232.914,3707.816,7232.923,3707.831Zm-10.974.088a.214.214,0,0,0,.063,0c.006,0,0-.031.006-.048a.224.224,0,0,0-.062,0C7221.95,3707.873,7221.952,3707.9,7221.949,3707.919Zm11.058-4.895.034-.027-.036-.016Zm-2.879,6.152c.014.015.027.039.041.04s.036-.017.055-.027l-.072-.066Zm-8.049-1.563c.014.01.026.028.041.029s.031-.012.048-.02c-.014-.011-.026-.028-.041-.029S7222.1,3707.606,7222.079,3707.613Zm-29.508-.687c-.017-.034-.025-.083-.054-.1s-.064.021-.1.032c.014.034.021.089.043.1S7192.535,3706.938,7192.571,3706.926Zm30.5-2.191.022-.026h-.045Zm-14.59-.2-.007.051.058-.018Zm-1.448,2.639,0,.04.043-.018Zm-.39-2.757,0,.046.048-.019Zm7.5,2.886a.134.134,0,0,0-.048.015s.007.027.01.041a.135.135,0,0,0,.048-.016S7214.152,3707.318,7214.148,3707.3Zm2.439-4.169c-.016.011-.039.021-.043.035s.012.036.019.054l.073-.061Zm-3.376,4.121.049.006-.018-.055Zm-.065,4.2c-.017.011-.041.02-.046.034s.015.034.023.051l.073-.06Zm-.2-7.226.02.04.02-.04Zm-7.248,3.092-.049.025c.015.012.027.031.043.033s.031-.015.048-.023Zm-3.885,2.07,0,.043.047-.017Zm37.789-.362.053.02.008-.079a.156.156,0,0,0-.056.014C7239.6,3708.988,7239.6,3709.011,7239.6,3709.027Zm-4.578-6.283,0,.051.057-.024Zm1.127,8.5.041-.019-.04-.021Zm11.592.819-.014-.052c-.019.006-.043.007-.056.019s.007.033.012.05Zm-21.408-2.929.035.026.007-.039Zm-2.282-1.641.051.022-.032-.071Zm2.832,5.111.039.027.008-.041Zm-.114-8.325a.144.144,0,0,0-.046-.014s-.009.024-.014.037a.13.13,0,0,0,.045.013C7226.76,3704.317,7226.764,3704.294,7226.769,3704.281Zm-7.373,5.241-.046.035.04.042.059-.059Zm-1.471-1.033.027.054.027-.053Zm5.772,1.311-.056.014.068.034Zm8.261,3.283-.023.073.042-.012Zm-.86-4.692.04,0-.017-.045Zm2.465,5.5,0-.051-.055.021Zm-4.306-1.243,0-.045-.047.018Zm-.236-7.971.037,0-.017-.041Zm-.71,2.8-.04.019.038.021Z" transform="translate(0 -46.741)" fill="#1d1d1d"/>
    <path id="Path_24" data-name="Path 24" d="M7181.863,3641.227a12.81,12.81,0,0,0-1.285.247c-.477.14-.741-.021-.953-.535a1.9,1.9,0,0,1-.066-.683.366.366,0,0,1,.107-.242,1.572,1.572,0,0,1,.435-.33c.422-.177.859-.321,1.291-.477.152-.055.307-.1.457-.158a6.67,6.67,0,0,1,1.589-.456,9.42,9.42,0,0,0,1-.26q1.043-.245,2.09-.469a2.847,2.847,0,0,1,.414-.007c.2-.012.411,0,.564-.2.058-.077.2-.1.311-.124.5-.105.994-.2,1.491-.3a2.272,2.272,0,0,1,.888-.043.8.8,0,0,0,.767-.216.4.4,0,0,1,.444-.108,1.765,1.765,0,0,0,.956,0c.342-.052.684-.105,1.024-.167,2.132-.386,4.278-.671,6.429-.924.407-.048.835.035,1.232-.045.933-.187,1.88-.17,2.818-.269a14.729,14.729,0,0,1,1.857-.067,8.828,8.828,0,0,0,1.3-.124c.41-.052.823-.076,1.234-.115.207-.019.412-.053.619-.065a7.7,7.7,0,0,1,.9-.029c.773.043,1.545.119,2.321.1a2.034,2.034,0,0,1,.345-.014c.416.063.8-.274,1.219-.1.381.16.776.017,1.16.094a.979.979,0,0,0,.413.006,4.048,4.048,0,0,1,1.574,0,5.073,5.073,0,0,0,1.308-.015,2.584,2.584,0,0,1,1.229.05.249.249,0,0,0,.134.029,7.239,7.239,0,0,1,1.44.022,1.429,1.429,0,0,1,.745.089c.089.041.217-.007.326-.008.274,0,.55-.019.824,0,.689.05,1.377.164,2.066.163a11.139,11.139,0,0,1,1.843.19,1.76,1.76,0,0,0,.343.029,17.9,17.9,0,0,1,3.306.264,5.864,5.864,0,0,0,.965.018.538.538,0,0,1,.513.289,1.069,1.069,0,0,1,0,1.374,4.022,4.022,0,0,1-1.127-.04c-.777-.089-1.553-.208-2.333-.273q-1.41-.119-2.826-.167c-.968-.032-1.938-.027-2.907-.033-1.2-.007-2.4-.026-3.6-.008-.737.011-1.473.088-2.21.126-.369.019-.739.008-1.107.024q-1.693.072-3.386.157c-.034,0-.066.051-.162.127.424,0,.787-.009,1.15,0,.459.014.918.044,1.377.068a.819.819,0,0,0,.138.007c1.037-.129,2.067.106,3.1.051a20.225,20.225,0,0,1,2.2.117c.388.022.777.025,1.167.035a4.835,4.835,0,0,1,.622.014,18.135,18.135,0,0,0,2.068.12c.483.021.964.1,1.448.128.8.049,1.61.07,2.414.119a14.845,14.845,0,0,1,2.2.189c.836.178,1.686.153,2.522.3a10.316,10.316,0,0,0,1.708.013,1.119,1.119,0,0,1,.476.037,3.064,3.064,0,0,0,1.352.2c.389.017.772.133,1.162.174.479.05.963.059,1.443.1a3.714,3.714,0,0,1,1.206.239,5.781,5.781,0,0,0,1.189.309.941.941,0,0,1,.635.371c-.025.213-.193.255-.347.269-.251.023-.507,0-.76.016-.321.015-.377.074-.375.429a1.442,1.442,0,0,1-.4,1.108c-.776-.106-1.571-.219-2.367-.323-.594-.078-1.188-.163-1.784-.215-1.4-.122-2.809-.194-4.208-.348-1.082-.12-2.165-.056-3.245-.124-.138-.009-.278.017-.414,0-1.354-.183-2.717-.07-4.075-.126q-1.244-.051-2.487-.068c-.991-.014-1.982-.025-2.973-.009-.737.012-1.473.091-2.209.1a18,18,0,0,0-2.484.141,1.4,1.4,0,0,1-.684-.012.986.986,0,0,0-.4,0c-.342.037-.683.082-1.024.13-.913.13-1.835.1-2.752.15-.755.044-1.513.1-2.271.113a7.775,7.775,0,0,0-1.37.156,10.367,10.367,0,0,1-1.573.17,6.325,6.325,0,0,0-1.568.21.419.419,0,0,1-.135.029c-1.024-.047-1.98.4-3,.419a2.581,2.581,0,0,0-.389.076c.1.084.155.158.2.153a9.433,9.433,0,0,0,1.57-.2,1,1,0,0,1,.341-.039,12.272,12.272,0,0,0,1.986-.191c.664-.071,1.328-.143,1.993-.209.16-.016.321-.014.482-.015a14.486,14.486,0,0,0,2.479-.188,1.679,1.679,0,0,1,.345-.017c.989.028,1.974-.13,2.964-.078a2.528,2.528,0,0,0,.55-.047,15.482,15.482,0,0,1,2.2-.112c.781-.02,1.561-.085,2.341-.115a5.916,5.916,0,0,1,1.032.029,3.622,3.622,0,0,0,.892-.006,1.821,1.821,0,0,1,.415-.018,17.924,17.924,0,0,0,2.695-.037,1.736,1.736,0,0,1,.275-.007,21.283,21.283,0,0,0,3.51.084,1.543,1.543,0,0,1,.48.034,2,2,0,0,0,1.023.04,1.214,1.214,0,0,1,.34.02,29.681,29.681,0,0,0,3.034.1c.161,0,.323,0,.484.011.506.029,1.013.061,1.519.091a2.471,2.471,0,0,0,.414.023c.28-.032.432.332.77.2a1.963,1.963,0,0,1,.739,0c.275.009.551.017.827.035a4.835,4.835,0,0,0,.819.063,7.49,7.49,0,0,1,1.555.189,27.235,27.235,0,0,1,3.209.4c.291.062.632-.044.938.042a5.914,5.914,0,0,0,1.226.185c.964.065,1.907.276,2.869.41a1.27,1.27,0,0,1,.335.811.691.691,0,0,1-.728.753,3.133,3.133,0,0,1-.895-.061c-1.357-.274-2.73-.446-4.1-.619-.845-.107-1.689-.22-2.534-.33a.3.3,0,0,0-.069-.008,16.328,16.328,0,0,1-2.677-.25c-.529-.033-1.059-.043-1.588-.069-.736-.035-1.471-.078-2.206-.113-.529-.025-1.059-.038-1.587-.068-.413-.023-.826-.057-1.239-.095a9.954,9.954,0,0,0-1.1-.054,4.5,4.5,0,0,1-1.514-.057,1.084,1.084,0,0,0-.48.012,11.06,11.06,0,0,1-2.485.02c-.16-.01-.322,0-.483,0-.25,0-.5,0-.75-.025a2.634,2.634,0,0,0-1.161,0,1.408,1.408,0,0,1-.48.017c-.8-.038-1.607-.01-2.411-.039-.435-.016-.872.061-1.309.08-.46.02-.922.012-1.384.03-.714.026-1.427.063-2.141.1-.323.015-.645.029-.967.052-.9.065-1.792.135-2.688.2-.3.023-.6.06-.9.067a11.178,11.178,0,0,0-1.857.154,9.306,9.306,0,0,1-1.375.071c-.138.006-.277,0-.414.013q-1.893.194-3.785.395-1.338.141-2.661.394c-.385.073-.777.1-1.165.164-.98.155-1.958.312-2.937.478-1.274.216-2.548.429-3.818.665-1.155.214-2.305.459-3.458.682-.293.057-.594.071-.888.12-.521.088-1.045.171-1.562.286a13.094,13.094,0,0,1-3.017.345,1.922,1.922,0,0,1-1.158-.384.928.928,0,0,1-.428-1.13,1.966,1.966,0,0,1,.08-.264.549.549,0,0,1,.092-.117,9.662,9.662,0,0,0,3.289-.44,2.285,2.285,0,0,1,.107-1.706,7.766,7.766,0,0,0,2.018-.239c1.082-.224,2.167-.437,3.24-.693a8.735,8.735,0,0,1,1.279-.219,8.066,8.066,0,0,0,1.277-.279c.379-.1.752-.218,1.128-.328a1.089,1.089,0,0,1,.33-.095,20.72,20.72,0,0,0,2.85-.411,5.451,5.451,0,0,0,.737-.182c.211-.049.426-.088.654-.134-.059-.064-.087-.121-.116-.122a12.584,12.584,0,0,0-1.656-.012c-.869.1-1.728.273-2.59.419-.522.089-1.045.179-1.566.279-.9.173-1.806.353-2.709.53-.859.168-1.724.313-2.577.511-1.258.291-2.523.537-3.793.768-.746.135-1.471.378-2.207.569a2.47,2.47,0,0,1-.406.073.6.6,0,0,1-.668-.74c.021-.2.058-.407.094-.652a10.923,10.923,0,0,0,2.714-.645c.2-.061.411-.069.606-.132.258-.081.557-.1.707-.382.207.135.4.028.6-.028.176-.05.346-.124.523-.172s.365-.063.488-.282A6.964,6.964,0,0,0,7181.863,3641.227Zm20.322-1.422a.859.859,0,0,0,.59.051c-.018-.037-.028-.074-.037-.074-.184.006-.367.017-.55.027a7.854,7.854,0,0,0-1.159.173,2.949,2.949,0,0,0,.328.037,3.142,3.142,0,0,0,.542-.041C7202,3639.957,7202.086,3639.862,7202.186,3639.806Zm-3.558.553c-.205-.022-.41-.054-.616-.061-.074,0-.2.015-.121.173l.734-.111c.178-.015.357-.025.534-.046.16-.019.35.041.479-.148a1.251,1.251,0,0,0-.907.03C7198.682,3640.223,7198.663,3640.3,7198.627,3640.359Zm-14.313.275c-.113-.059-.225-.113-.412.1l.4-.112,2.577-.521c.293-.059.588-.114.882-.174.789-.162,1.577-.333,2.368-.485.428-.082.867-.114,1.293-.2.541-.114,1.068-.3,1.61-.39a6.643,6.643,0,0,1,2.045-.272.65.65,0,0,0,.333-.069,3.524,3.524,0,0,1,1.619-.286,1.257,1.257,0,0,0,.61-.071,1.674,1.674,0,0,1,1.071-.15.356.356,0,0,0,.2-.021c.143-.073.272-.17.415-.244s.321.019.431-.18a3.291,3.291,0,0,0-1.192.016c-.568.078-1.132.179-1.7.258-.547.075-1.1.118-1.643.2-1.664.255-3.318.557-4.959.93-.336.076-.682.112-1.016.192-.83.2-1.659.4-2.482.617-.646.172-1.286.367-1.924.566C7184.649,3640.4,7184.428,3640.427,7184.314,3640.634Zm15.967-3.179c.252.225.252.225.619.206a1.246,1.246,0,0,0,.973-.425A8.766,8.766,0,0,0,7200.281,3637.454Zm10.074,1.829c-.31-.138-.532-.235-.784-.122-.1.044-.217.078-.178.255A1.26,1.26,0,0,0,7210.355,3639.283Zm-12.982,1.182c-.286.073-.623-.146-.922.179A1.159,1.159,0,0,0,7197.373,3640.466Zm9.167-.9c-.382-.169-.382-.169-.819.087Zm-4.359-2.346c.223.194.223.194.451.055C7202.5,3637.064,7202.351,3637.153,7202.181,3637.221Zm1.819-.182.01.1.559-.1-.055-.032Zm3.678,2.413h.438C7207.915,3639.24,7207.915,3639.24,7207.678,3639.452Zm6.007-.342.01.088.307-.02,0-.068Zm-8.335-2.183c-.017.008-.042.012-.048.025s.006.035.011.053l.077-.043Zm-8.961,5.794-.071.074a.385.385,0,0,0,.042.036.789.789,0,0,0,.073-.076Zm12.244-3.371-.1.057a.329.329,0,0,0,.114.046c.032,0,.064-.035.1-.055Zm-8.348.716-.049.02c.013.01.025.029.04.03s.032-.011.048-.019Zm-2.577,2.554-.052-.008.013.048Zm13.91-3.414c.012.012.025.033.038.033s.033-.018.049-.028l-.063-.058Zm-.157-1.659-.052.036a.448.448,0,0,0,.088.054c.011,0,.034-.021.051-.033Zm-.325,1.684,0,.039.044-.015Zm3.354-.1-.037-.025-.007.038Z" transform="translate(-3.373)" fill="#1d1d1d"/>
    <path id="Path_25" data-name="Path 25" d="M7228.988,3757.143a1.956,1.956,0,0,0-1.488-.468c-.315.017-.634,0-.95-.008a.39.39,0,0,0-.335.2h0a1.46,1.46,0,0,0-1.3-.5l-.293.326a.459.459,0,0,1-.146,0,5.663,5.663,0,0,0-.827-.326,3.053,3.053,0,0,0-.949-.062,2.878,2.878,0,0,1-1.148-.114,1.127,1.127,0,0,0-.666-.015c-.26.073-.536.087-.8.141a.355.355,0,0,0-.229.126c-.12.231-.321.235-.53.229-.413-.01-.825-.015-1.235-.046-.1-.007-.184-.107-.275-.164l-.006,0c-.05-.068-.086-.175-.151-.2a.75.75,0,0,0-.882.167c-.036.041-.126.034-.206.053l-.088-.3c-.055.008-.114,0-.137.022-.215.229-.386.523-.763.5-.175-.214.1-.327.1-.514-.062-.012-.141-.054-.184-.03-.112.063-.268.136-.3.239-.089.291-.315.317-.537.313-.272-.005-.543-.071-.816-.1a.807.807,0,0,1-.6-.363l-.136.2c-.108-.095-.208-.241-.338-.279a1.421,1.421,0,0,0-.463.039,1.076,1.076,0,0,1-.2-.018c0-.042-.006-.082-.01-.123l.007.128-.583-.1c-.105.24-.213.485-.338.771a.566.566,0,0,1-.546.064.925.925,0,0,0-.781-.116.321.321,0,0,1-.254-.074,4.078,4.078,0,0,1-.473-.5c-.042-.054-.006-.168-.006-.278l1.373-.08c.057-.167-.036-.169-.13-.193-.2-.051-.393-.117-.618-.186a2.343,2.343,0,0,1-.54.172c-.727.061-1.457.094-2.185.135a.427.427,0,0,1-.2-.021,2.869,2.869,0,0,0-1.629-.082,3.566,3.566,0,0,1-.824-.008,4.074,4.074,0,0,0-.613-.01c-.227,0-.458.077-.673-.063-.037-.023-.1-.046-.131-.03-.425.225-.9.024-1.342.171a1.845,1.845,0,0,1-.544.054c-.547.011-1.1,0-1.641.021-.622.025-1.242.072-1.863.117-.3.022-.6.066-.894.094-.274.027-.548.046-.822.069-.573.048-1.146.09-1.718.146-.711.069-1.421.143-2.13.228-.663.08-1.323.18-1.985.267q-.512.068-1.025.123-1.822.2-3.645.391a37.776,37.776,0,0,1-4.7.179,2.011,2.011,0,0,1-1.232-.379.925.925,0,0,1-.419-.888,3.5,3.5,0,0,0,.013-.824.625.625,0,0,1,.289-.652c.3-.2.624-.382.96-.584-.06-.242-.132-.481-.175-.726-.076-.437.056-.669.479-.771.692-.166,1.392-.3,2.088-.444,1.171-.242,2.343-.479,3.514-.723.834-.174,1.666-.365,2.5-.531a4.962,4.962,0,0,1,.889-.092c.6-.01,1.171-.2,1.769-.2a.591.591,0,0,0,.264-.06,1.888,1.888,0,0,1,1.141-.188.869.869,0,0,0,.338-.022c.888-.252,1.822-.2,2.714-.428a5.228,5.228,0,0,1,.821-.062c.962-.091,1.923-.186,2.886-.28a.678.678,0,0,1,.138-.013,6.36,6.36,0,0,0,1.784-.152,1.909,1.909,0,0,1,.752-.031.882.882,0,0,0,.474-.042c.3-.108.59.03.882,0a2.593,2.593,0,0,1,.815-.078,2.348,2.348,0,0,0,1-.065,11.153,11.153,0,0,1,1.306-.055c.161-.006.319-.034.479-.041.5-.021,1.01-.038,1.514-.048a.3.3,0,0,1,.191.066.547.547,0,0,0,.584.06,4.627,4.627,0,0,1,1.766-.175,5.753,5.753,0,0,0,1.509-.055,1.8,1.8,0,0,1,.947.068,3.684,3.684,0,0,0,.942.1.146.146,0,0,0,.113-.056c.161-.242.4-.2.626-.165.387.051.771.119,1.158.169a1.71,1.71,0,0,0,.472.014,4.722,4.722,0,0,1,.525-.146c.758-.018,1.516-.015,2.275-.007a2.278,2.278,0,0,1,.4.1,1.786,1.786,0,0,0,.537.08,6.94,6.94,0,0,1,1.507.031,3.061,3.061,0,0,0,.824-.028,2.693,2.693,0,0,1,1.158.051,7.166,7.166,0,0,0,.743.123.3.3,0,0,0,.2-.034,1.811,1.811,0,0,1,1.379-.1c.022,0,.044.026.063.023a1.657,1.657,0,0,1,1.071,0,3.7,3.7,0,0,0,1.017.128,5.744,5.744,0,0,1,1.428.209.693.693,0,0,0,.648-.162h0a.76.76,0,0,0,.928.238.839.839,0,0,1,.336.011,1.554,1.554,0,0,0,.676-.067.712.712,0,0,1,.886.147.356.356,0,0,0,.25.079c.271,0,.542-.026.884-.045.109.165.347.2.613.191.221-.006.456-.087.667.074a.242.242,0,0,0,.2.026,1.7,1.7,0,0,1,1.144.126.578.578,0,0,0,.582-.063.41.41,0,0,1,.46-.012,1.135,1.135,0,0,0,1.033.122,2.931,2.931,0,0,1,1.262.146.592.592,0,0,0,.383.07,6.357,6.357,0,0,1,1.293.118,7.3,7.3,0,0,0,1.96.316.359.359,0,0,1,.2.018c.394.233.855.083,1.266.231a1.193,1.193,0,0,0,.407,0,1.113,1.113,0,0,1,.907.235c.029.03.089.068.115.057.517-.229.943.342,1.452.161a1.527,1.527,0,0,0,.864.178c.464.234,1.008,0,1.472.253.066.036.177-.019.269-.021a1.647,1.647,0,0,1,.481.008,12.072,12.072,0,0,0,1.356.2c.629.105,1.254.234,1.88.361a4.325,4.325,0,0,1,.458.145c.087.028.182.1.259.08.572-.123,1.071.237,1.623.231.39,0,.78-.029,1.17-.035a1.214,1.214,0,0,1,.655.188.658.658,0,0,1,.375.728,3.863,3.863,0,0,1-.471,1.28c-.391.211-.747-.165-1.1.031.464,1.13.452,1.265-.187,2.107a5.368,5.368,0,0,1-1.431-.054c-.773-.131-1.55-.231-2.326-.344a1.467,1.467,0,0,1-.206-.026c-1-.3-2.043-.336-3.042-.615-.176-.049-.365-.049-.545-.083a1.389,1.389,0,0,1-.462-.118,1.838,1.838,0,0,0-.927-.241,23.124,23.124,0,0,1-2.381-.36,2.237,2.237,0,0,0-.406-.078c-.4.025-.515-.219-.564-.543a.82.82,0,0,0,.19-.023c.028-.01.039-.066.057-.1-.05-.012-.126-.05-.146-.03a.539.539,0,0,0-.083.172l-.278.35-.2-.308a1.65,1.65,0,0,0-.929.087.384.384,0,0,1-.314.019c-.069-.045-.065-.194-.107-.293-.015-.036-.068-.056-.139-.111l-.253.328c-.839-.143-1.763.027-2.559-.541a1.2,1.2,0,0,1-.948.11c-.2-.043-.4-.091-.6-.138l.316-.14c.042,0,.081.011.12.014.008,0,.018-.018.027-.028l-.162.025a.777.777,0,0,0-.184-.164c-.109-.047-.165.029-.133.165.009.042.019.083.028.125a1.527,1.527,0,0,1-.34.03c-.138-.018-.254-.056-.189-.268.031-.1-.061-.252-.123-.366-.083-.151-.188-.114-.341.147-.341-.049-.7-.1-1.06-.154-.043-.007-.108-.02-.124-.051-.193-.375-.507-.245-.823-.25a5.31,5.31,0,0,1-1.089-.26l-.4.2a4.113,4.113,0,0,1-.558-.21,1.75,1.75,0,0,0-1.58-.095.306.306,0,0,1-.375-.082c-.127-.144-.276.171-.417-.031a1.488,1.488,0,0,0-.349-.263.93.93,0,0,1-.685.263c-.02,0-.042.153-.063.234l.018-.019-.377.27v-.624l-.426-.035c-.113-.01-.265.02-.333-.041-.363-.325-.729-.171-1.092-.033-.14.053-.28.1-.393,0a1.2,1.2,0,0,0-.714-.207,1.447,1.447,0,0,1-.718-.216c-.109-.074-.293-.036-.491-.052l.062.431c-.141.086-.276.09-.348-.07a.319.319,0,0,0-.324-.208c-.433.012-.827-.318-1.278-.143-.342-.275-.679-.07-1.033-.025a2.961,2.961,0,0,1-.68-.111,8.553,8.553,0,0,0-1.492-.071,2.674,2.674,0,0,1-1.412-.1.238.238,0,0,0-.132-.035,10.412,10.412,0,0,1-2.246-.124,1.436,1.436,0,0,0-1.121.209.214.214,0,0,1-.2.03c-.267-.184-.6-.052-.887-.226a1.66,1.66,0,0,0-.727-.159c-.25-.019-.505.028-.759.032a4.712,4.712,0,0,1-.752-.021c-.586-.086-1.181-.009-1.765-.1a19.161,19.161,0,0,1-2.822.1c-.592.055-1.2-.021-1.793-.013a5.614,5.614,0,0,0-1.574.068.492.492,0,0,1-.205.027,10.039,10.039,0,0,0-2,.105,2.156,2.156,0,0,1-.548,0,5.227,5.227,0,0,0-2.049.136c-.316.053-.637.079-.955.119-.182.023-.363.051-.545.075a2.071,2.071,0,0,1-.408.047,1.322,1.322,0,0,0-.8.114.752.752,0,0,1-.339.051,30.733,30.733,0,0,0-3.3.32c-1.232.172-2.464.359-3.7.547-.273.042-.542.114-.812.169a6.409,6.409,0,0,1-1.157.156,7.011,7.011,0,0,0-1.353.267c-.832.188-1.664.376-2.493.576-.334.081-.658.2-.99.29-.444.12-.893.222-1.337.345-.167.047-.325.129-.612.246a1.7,1.7,0,0,0,.854.042c1.111-.187,2.224-.361,3.334-.548a.851.851,0,0,1,.719.107c.46-.321.924-.613,1.513-.193.4-.6,1.005-.547,1.66-.5l.3.51.021-.008a2.086,2.086,0,0,0-.2.335c-.023.061.023.149.039.224a.876.876,0,0,0,.222-.1c.045-.036.056-.114.082-.173l-.018.02.368.144.022-.378c.185-.242.541-.4.681-.756a.314.314,0,0,1,.223-.14c.6-.077,1.206-.141,1.933-.223-.139.114-.176.171-.22.176-.25.028-.505.024-.751.069-.3.053-.575.155-.617.529a.933.933,0,0,1-.115.244c-.123.27-.013.41.285.435s.518-.17.787-.217l-.024,0h.261l-.023,0a1.5,1.5,0,0,1,.41-.023,3.6,3.6,0,0,0,1.3-.073c.591-.082,1.185-.158,1.781-.2a7.02,7.02,0,0,0,1.369-.162,1.644,1.644,0,0,1,.411-.007,1.986,1.986,0,0,0,.55-.006,14.518,14.518,0,0,1,2.126-.145,16.682,16.682,0,0,1,2.138-.091c.64-.014,1.281-.044,1.92-.069.046,0,.1-.024.136-.012a5.86,5.86,0,0,0,1.643.031,1.116,1.116,0,0,1,.275.013.927.927,0,0,0,.854-.052.2.2,0,0,1,.135-.021c.585.1,1.186-.038,1.769.11a.424.424,0,0,0,.265,0,2.445,2.445,0,0,1,.882-.1,8.2,8.2,0,0,0,1.02.039c.322-.072.64.091.947.087.528-.006,1.05.069,1.575.052.41-.013.818-.044,1.228-.071.166-.011.346-.019.442.13a.4.4,0,0,0,.488.134,8.077,8.077,0,0,1,2.523-.039,10.77,10.77,0,0,0,1.375.051,7.13,7.13,0,0,1,1.49.146c.289.047.591.014.88.059s.569.154.857.213a.514.514,0,0,0,.256-.072.218.218,0,0,1,.3.069c.083.115.189.093.3.025a.82.82,0,0,1,.3-.139,6.628,6.628,0,0,1,2.061.424l-.115-.036.109.038c.043-.049.085-.14.13-.142a1.676,1.676,0,0,1,.61.026,12.393,12.393,0,0,0,1.954.333c.588-.181,1.17.193,1.761.023a.255.255,0,0,1,.2.027.513.513,0,0,0,.591.037c.193.145.044.24.038.347.032.01.082.04.095.028a.97.97,0,0,1,.9-.2,4.275,4.275,0,0,1,1.328.267.252.252,0,0,0,.189-.008c.317-.128.622.074.934.029.191.2.434.081.651.1.273.02.554-.048.786.171a.223.223,0,0,0,.192.043c.336-.142.629.057.942.1.429.062.861.1,1.292.148a.811.811,0,0,1,.324.06.566.566,0,0,0,.454.091,1.559,1.559,0,0,1,.275-.022c.31-.013.512.307.884.221a1.539,1.539,0,0,1,.933.149,5.349,5.349,0,0,0,1.658.3,3.055,3.055,0,0,1,.878.155,12.377,12.377,0,0,0,1.588.406.383.383,0,0,0,.136.024,6.435,6.435,0,0,1,2.048.471,2.737,2.737,0,0,0,.54.044l.093.308a2.662,2.662,0,0,1,.992-.115,4.094,4.094,0,0,0,.943.186,6.356,6.356,0,0,1,1.894.46,12.281,12.281,0,0,0,2.957.577.96.96,0,0,1,.774,1.465,4.149,4.149,0,0,1-.293.43.93.93,0,0,1-.7-.026,11.168,11.168,0,0,0-2.345-.57c-.727-.1-1.443-.288-2.165-.434-1.106-.224-2.216-.432-3.318-.675-.764-.168-1.518-.383-2.276-.576-.086-.022-.2-.084-.257-.052-.331.185-.621.025-.923-.075a.868.868,0,0,0-.336-.07,1.9,1.9,0,0,1-.856-.21c-.274-.1-.565-.156-.932-.254-.311.169-.723.037-1.13.022l-.545-.468-.31.309a.59.59,0,0,1-.176-.069c-.148-.121-.287-.237-.492-.108a.2.2,0,0,1-.3-.063c-.149-.278-.358-.252-.583-.132a1.373,1.373,0,0,1-.808.094c-.244-.021-.393-.112-.4-.3a5.413,5.413,0,0,1-.757-.26c-.289-.15-.278-.166-.861-.149a.564.564,0,0,1-.314-.1,1.55,1.55,0,0,0-1.081-.255l.127.393c-.191.067-.381.1-.435-.146a.341.341,0,0,0-.4-.289,1.242,1.242,0,0,1-.668-.1.43.43,0,0,0-.594.153c-.034.049-.113.068-.2.116a2.371,2.371,0,0,0-.3-.256c-.217-.132-.322-.1-.612.15-.078-.1-.133-.236-.234-.29a1.118,1.118,0,0,0-.4-.069,2.087,2.087,0,0,1-.545-.052,1.056,1.056,0,0,0-1.085.228Zm6.231-5.26.124.021-.121-.027a.75.75,0,0,0,0,.133c0,.024.031.045.047.067a.426.426,0,0,0-.008-.066C7235.249,3751.967,7235.233,3751.926,7235.219,3751.883Zm-47.881,2.908-.073.237c.146.059.269.126.343-.071l-.273-.168a1.639,1.639,0,0,0-.2-.007c-.066,0-.149-.085-.213.044Zm23,1.691a4.053,4.053,0,0,0-.43-.151c-.036-.009-.091.068-.138.1.042.045.088.13.126.127a3.921,3.921,0,0,0,.442-.084l.579-.19C7210.489,3756.118,7210.473,3756.124,7210.336,3756.483Zm-22.138-1.206a1.38,1.38,0,0,0,.844-.012l.075-.564c-.152-.026-.322,0-.411-.079-.269-.227-.44-.07-.643.121.175.1.471-.095.538.218C7188.545,3755.164,7188.22,3754.983,7188.2,3755.277Zm41.207-3.792c-.03.229.088.407.221.4a1.924,1.924,0,0,1,.7.039c.017,0,.074-.06.078-.1a.284.284,0,0,0-.032-.186.273.273,0,0,0-.174-.079C7229.932,3751.528,7229.669,3751.508,7229.4,3751.485Zm3.227-.826c.275.016.549.271.816-.033C7233.169,3750.663,7232.911,3750.335,7232.631,3750.659Zm8.55,3.364c-.021.419.216.466.525.5l-.06-.422Zm-30.414.847c.042.2.08.351.291.314a.5.5,0,0,0,.421-.314Zm25.784,1.871c.027.1.026.158.052.181.048.042.127.1.168.089.19-.07.426.006.626-.149C7237.124,3756.634,7236.858,3756.737,7236.552,3756.741Zm-28.762-2.059c-.016.094-.058.185-.032.216a.384.384,0,0,0,.54.023c.024-.022-.007-.159-.031-.165C7208.116,3754.719,7207.96,3754.7,7207.79,3754.682Zm7.774.467a.687.687,0,0,0-.444-.253c-.031,0-.1.042-.1.058.007.062.029.168.06.173C7215.228,3755.15,7215.367,3755.288,7215.564,3755.149Zm8.335.373c.274.217.3.229.442.14a.137.137,0,0,0,.045-.117C7224.355,3755.386,7224.23,3755.381,7223.9,3755.521Zm5.935.384c.155.224.257.365.477.263a.066.066,0,0,0,.018-.062C7230.246,3755.875,7230.063,3755.947,7229.834,3755.906Zm-15.461.379c.1.062.154.119.2.116.109-.005.232-.033.234-.175,0-.1-.072-.175-.172-.137A1.327,1.327,0,0,0,7214.373,3756.285Zm17.644-4.495a1.692,1.692,0,0,0-.257.241c-.023.032.018.124.051.175a.126.126,0,0,0,.12.021,1.141,1.141,0,0,0,.2-.258C7232.146,3751.946,7232.073,3751.875,7232.017,3751.79Zm1.258,4.788c.226,0,.292.008.357,0,.1-.014.189-.074.141-.175a.247.247,0,0,0-.217-.089C7233.488,3756.325,7233.436,3756.418,7233.274,3756.578Zm13.789-4.175c.237.147.358.125.452-.047.01-.019.016-.056.006-.065-.032-.028-.082-.073-.105-.064C7247.3,3752.272,7247.2,3752.334,7247.063,3752.4Zm-8.109,4.67c-.1.079-.188.116-.221.181s.122.22.215.185a.257.257,0,0,0,.145-.174C7239.1,3757.215,7239.015,3757.151,7238.954,3757.073Zm-11.6-5.589c.341.114.341.114.488-.01A.743.743,0,0,0,7227.358,3751.484Zm-22.487,3.625c.016-.015.039-.027.045-.045.033-.094.033-.184-.075-.227-.033-.013-.081.011-.122.019a.818.818,0,0,0,.044.186C7204.78,3755.074,7204.835,3755.088,7204.871,3755.109Zm15.359.115c0,.026,0,.052.01.067a.225.225,0,0,0,.294.073c.015-.007.025-.057.025-.057-.094-.042-.19-.083-.288-.118C7220.263,3755.185,7220.242,3755.213,7220.23,3755.224Zm20.407,2.054c-.072-.011-.125-.036-.155-.02a.448.448,0,0,0-.12.12c-.005.007.017.052.026.052a.23.23,0,0,0,.117-.022A.936.936,0,0,0,7240.637,3757.279Zm-7.482-5.389a1.185,1.185,0,0,0-.134.161c-.006.01.052.082.072.078a.911.911,0,0,0,.182-.071Zm2.124,4.7c-.021,0-.051-.018-.06-.01-.06.055-.115.114-.172.172a.921.921,0,0,0,.086.074,1.942,1.942,0,0,0,.168-.182C7235.308,3756.638,7235.287,3756.608,7235.279,3756.589Zm8.362-3.148a1.215,1.215,0,0,0-.173.059c-.009,0,.01.065.015.1a1.41,1.41,0,0,0,.176-.045A.615.615,0,0,0,7243.641,3753.442Zm5.811-.69c-.033-.021-.067-.061-.1-.057s-.054.05-.081.078l.13.087Zm-13.2-1.878-.01.039a.479.479,0,0,0,.117.048c.03,0,.063-.019.095-.03Zm-20.381,4.187c.174.04.233.056.293.064.018,0,.039-.019.058-.03-.021-.028-.04-.078-.062-.079A1.883,1.883,0,0,0,7215.872,3755.06Zm-25.092-.106-.01-.056-.226.027.012.074Zm35.37.652c-.033.016-.084.025-.095.051s.017.07.027.106l.136-.069Zm-39.71-.5c-.042,0-.092,0-.124.016s-.011.069-.016.105c.042,0,.093.007.124-.014S7186.436,3755.149,7186.439,3755.111Zm32.94-.034h-.1v.053a.848.848,0,0,0,.1,0A.232.232,0,0,0,7219.379,3755.077Zm18.256,2.021h.06l-.035-.092c-.016.011-.042.02-.045.034S7237.627,3757.078,7237.635,3757.1Zm-19.185-.831-.113.015c.021.022.042.061.063.062s.064-.026.1-.041Zm-.995-1.217-.053.029a.407.407,0,0,0,.083.087c.01.006.048-.034.073-.053Zm14.792,1.3.087-.081c-.017-.013-.036-.038-.049-.035a.742.742,0,0,0-.112.047Zm-11.089-6.476-.049-.09a.637.637,0,0,0-.056.1c0,.012.015.034.022.051Zm22.643,2-.175-.049c0,.037-.026.086-.01.108a.15.15,0,0,0,.11.054C7243.746,3751.994,7243.766,3751.937,7243.8,3751.881Zm1.78.261-.065-.01a.4.4,0,0,0,.025.1c.007.013.041.011.062.016C7245.594,3752.211,7245.587,3752.177,7245.58,3752.142Zm-38.8,2.785.051,0-.025-.075c-.013.01-.034.018-.039.031S7206.774,3754.911,7206.779,3754.927Zm11.579-3.9c-.033-.022-.065-.059-.1-.06s-.069.032-.1.05a.509.509,0,0,0,.125.081C7218.3,3751.105,7218.331,3751.054,7218.358,3751.029Zm19.43,2.57.043.038.033-.081c-.019,0-.042-.015-.054-.008S7237.794,3753.581,7237.788,3753.6Zm-3.721-1.571c-.015.006-.038.007-.044.019s.007.03.012.045c.015-.006.037-.008.044-.019S7234.071,3752.042,7234.066,3752.027Zm7.011,6.361,0,.053a.984.984,0,0,0,.1-.013.21.21,0,0,0,0-.05Zm-8.055-2.061c-.017-.007-.036-.021-.05-.017s-.019.028-.027.043l.083.026Zm-19.277-.13c-.018.008-.046.011-.051.024s.008.038.014.058l.075-.038Zm28.529-2.039h-.052l.033.078c.015-.01.04-.017.042-.029S7242.283,3754.176,7242.274,3754.159Zm-.106-2.359c.007-.017.024-.039.019-.051s-.032-.016-.049-.023c-.007.016-.024.039-.018.048S7242.151,3751.792,7242.168,3751.8Zm-18.29-.37c-.006-.012-.009-.036-.021-.041s-.034.007-.051.011l.037.069Zm32.805,3.508.056,0-.027-.081c-.015.011-.037.02-.042.034S7256.678,3754.92,7256.683,3754.938Zm-3.594-.855c.009.012.017.031.029.036a.155.155,0,0,0,.056,0,.258.258,0,0,0-.038-.059S7253.105,3754.074,7253.089,3754.082Zm-16.037-3.019.028-.054-.044-.009Zm6.151.644,0,.041.045-.018Zm-3.523,2.111-.047-.026,0,.044Zm1.3-.683.044-.02-.042-.021Zm-11.757,2.9c-.008-.015-.013-.038-.025-.043s-.034,0-.051.006l.036.07Zm3.087-5.438-.053.025.053.027Zm-1.324,5.279c0,.015,0,.037.01.043a.137.137,0,0,0,.052.012l-.015-.075Zm-8.256-4.691-.047-.03-.009.046Zm14.866,6.815-.019.047c.014.005.036.019.042.014a.066.066,0,0,0,.017-.045C7237.633,3758.009,7237.607,3758,7237.594,3758Z" transform="translate(-4.268 -81.017)" fill="#1d1d1d"/>
    <path id="Path_4415" data-name="Path 4415" d="M7228.988,3757.143a1.956,1.956,0,0,0-1.488-.468c-.315.017-.634,0-.95-.008a.39.39,0,0,0-.335.2h0a1.46,1.46,0,0,0-1.3-.5l-.293.326a.459.459,0,0,1-.146,0,5.663,5.663,0,0,0-.827-.326,3.053,3.053,0,0,0-.949-.062,2.878,2.878,0,0,1-1.148-.114,1.127,1.127,0,0,0-.666-.015c-.26.073-.536.087-.8.141a.355.355,0,0,0-.229.126c-.12.231-.321.235-.53.229-.413-.01-.825-.015-1.235-.046-.1-.007-.184-.107-.275-.164l-.006,0c-.05-.068-.086-.175-.151-.2a.75.75,0,0,0-.882.167c-.036.041-.126.034-.206.053l-.088-.3c-.055.008-.114,0-.137.022-.215.229-.386.523-.763.5-.175-.214.1-.327.1-.514-.062-.012-.141-.054-.184-.03-.112.063-.268.136-.3.239-.089.291-.315.317-.537.313-.272-.005-.543-.071-.816-.1a.807.807,0,0,1-.6-.363l-.136.2c-.108-.095-.208-.241-.338-.279a1.421,1.421,0,0,0-.463.039,1.076,1.076,0,0,1-.2-.018c0-.042-.006-.082-.01-.123l.007.128-.583-.1c-.105.24-.213.485-.338.771a.566.566,0,0,1-.546.064.925.925,0,0,0-.781-.116.321.321,0,0,1-.254-.074,4.078,4.078,0,0,1-.473-.5c-.042-.054-.006-.168-.006-.278l1.373-.08c.057-.167-.036-.169-.13-.193-.2-.051-.393-.117-.618-.186a2.343,2.343,0,0,1-.54.172c-.727.061-1.457.094-2.185.135a.427.427,0,0,1-.2-.021,2.869,2.869,0,0,0-1.629-.082,3.566,3.566,0,0,1-.824-.008,4.074,4.074,0,0,0-.613-.01c-.227,0-.458.077-.673-.063-.037-.023-.1-.046-.131-.03-.425.225-.9.024-1.342.171a1.845,1.845,0,0,1-.544.054c-.547.011-1.1,0-1.641.021-.622.025-1.242.072-1.863.117-.3.022-.6.066-.894.094-.274.027-.548.046-.822.069-.573.048-1.146.09-1.718.146-.711.069-1.421.143-2.13.228-.663.08-1.323.18-1.985.267q-.512.068-1.025.123-1.822.2-3.645.391a37.776,37.776,0,0,1-4.7.179,2.011,2.011,0,0,1-1.232-.379.925.925,0,0,1-.419-.888,3.5,3.5,0,0,0,.013-.824.625.625,0,0,1,.289-.652c.3-.2.624-.382.96-.584-.06-.242-.132-.481-.175-.726-.076-.437.056-.669.479-.771.692-.166,1.392-.3,2.088-.444,1.171-.242,2.343-.479,3.514-.723.834-.174,1.666-.365,2.5-.531a4.962,4.962,0,0,1,.889-.092c.6-.01,1.171-.2,1.769-.2a.591.591,0,0,0,.264-.06,1.888,1.888,0,0,1,1.141-.188.869.869,0,0,0,.338-.022c.888-.252,1.822-.2,2.714-.428a5.228,5.228,0,0,1,.821-.062c.962-.091,1.923-.186,2.886-.28a.678.678,0,0,1,.138-.013,6.36,6.36,0,0,0,1.784-.152,1.909,1.909,0,0,1,.752-.031.882.882,0,0,0,.474-.042c.3-.108.59.03.882,0a2.593,2.593,0,0,1,.815-.078,2.348,2.348,0,0,0,1-.065,11.153,11.153,0,0,1,1.306-.055c.161-.006.319-.034.479-.041.5-.021,1.01-.038,1.514-.048a.3.3,0,0,1,.191.066.547.547,0,0,0,.584.06,4.627,4.627,0,0,1,1.766-.175,5.753,5.753,0,0,0,1.509-.055,1.8,1.8,0,0,1,.947.068,3.684,3.684,0,0,0,.942.1.146.146,0,0,0,.113-.056c.161-.242.4-.2.626-.165.387.051.771.119,1.158.169a1.71,1.71,0,0,0,.472.014,4.722,4.722,0,0,1,.525-.146c.758-.018,1.516-.015,2.275-.007a2.278,2.278,0,0,1,.4.1,1.786,1.786,0,0,0,.537.08,6.94,6.94,0,0,1,1.507.031,3.061,3.061,0,0,0,.824-.028,2.693,2.693,0,0,1,1.158.051,7.166,7.166,0,0,0,.743.123.3.3,0,0,0,.2-.034,1.811,1.811,0,0,1,1.379-.1c.022,0,.044.026.063.023a1.657,1.657,0,0,1,1.071,0,3.7,3.7,0,0,0,1.017.128,5.744,5.744,0,0,1,1.428.209.693.693,0,0,0,.648-.162h0a.76.76,0,0,0,.928.238.839.839,0,0,1,.336.011,1.554,1.554,0,0,0,.676-.067.712.712,0,0,1,.886.147.356.356,0,0,0,.25.079c.271,0,.542-.026.884-.045.109.165.347.2.613.191.221-.006.456-.087.667.074a.242.242,0,0,0,.2.026,1.7,1.7,0,0,1,1.144.126.578.578,0,0,0,.582-.063.41.41,0,0,1,.46-.012,1.135,1.135,0,0,0,1.033.122,2.931,2.931,0,0,1,1.262.146.592.592,0,0,0,.383.07,6.357,6.357,0,0,1,1.293.118,7.3,7.3,0,0,0,1.96.316.359.359,0,0,1,.2.018c.394.233.855.083,1.266.231a1.193,1.193,0,0,0,.407,0,1.113,1.113,0,0,1,.907.235c.029.03.089.068.115.057.517-.229.943.342,1.452.161a1.527,1.527,0,0,0,.864.178c.464.234,1.008,0,1.472.253.066.036.177-.019.269-.021a1.647,1.647,0,0,1,.481.008,12.072,12.072,0,0,0,1.356.2c.629.105,1.254.234,1.88.361a4.325,4.325,0,0,1,.458.145c.087.028.182.1.259.08.572-.123,1.071.237,1.623.231.39,0,.78-.029,1.17-.035a1.214,1.214,0,0,1,.655.188.658.658,0,0,1,.375.728,3.863,3.863,0,0,1-.471,1.28c-.391.211-.747-.165-1.1.031.464,1.13.452,1.265-.187,2.107a5.368,5.368,0,0,1-1.431-.054c-.773-.131-1.55-.231-2.326-.344a1.467,1.467,0,0,1-.206-.026c-1-.3-2.043-.336-3.042-.615-.176-.049-.365-.049-.545-.083a1.389,1.389,0,0,1-.462-.118,1.838,1.838,0,0,0-.927-.241,23.124,23.124,0,0,1-2.381-.36,2.237,2.237,0,0,0-.406-.078c-.4.025-.515-.219-.564-.543a.82.82,0,0,0,.19-.023c.028-.01.039-.066.057-.1-.05-.012-.126-.05-.146-.03a.539.539,0,0,0-.083.172l-.278.35-.2-.308a1.65,1.65,0,0,0-.929.087.384.384,0,0,1-.314.019c-.069-.045-.065-.194-.107-.293-.015-.036-.068-.056-.139-.111l-.253.328c-.839-.143-1.763.027-2.559-.541a1.2,1.2,0,0,1-.948.11c-.2-.043-.4-.091-.6-.138l.316-.14c.042,0,.081.011.12.014.008,0,.018-.018.027-.028l-.162.025a.777.777,0,0,0-.184-.164c-.109-.047-.165.029-.133.165.009.042.019.083.028.125a1.527,1.527,0,0,1-.34.03c-.138-.018-.254-.056-.189-.268.031-.1-.061-.252-.123-.366-.083-.151-.188-.114-.341.147-.341-.049-.7-.1-1.06-.154-.043-.007-.108-.02-.124-.051-.193-.375-.507-.245-.823-.25a5.31,5.31,0,0,1-1.089-.26l-.4.2a4.113,4.113,0,0,1-.558-.21,1.75,1.75,0,0,0-1.58-.095.306.306,0,0,1-.375-.082c-.127-.144-.276.171-.417-.031a1.488,1.488,0,0,0-.349-.263.93.93,0,0,1-.685.263c-.02,0-.042.153-.063.234l.018-.019-.377.27v-.624l-.426-.035c-.113-.01-.265.02-.333-.041-.363-.325-.729-.171-1.092-.033-.14.053-.28.1-.393,0a1.2,1.2,0,0,0-.714-.207,1.447,1.447,0,0,1-.718-.216c-.109-.074-.293-.036-.491-.052l.062.431c-.141.086-.276.09-.348-.07a.319.319,0,0,0-.324-.208c-.433.012-.827-.318-1.278-.143-.342-.275-.679-.07-1.033-.025a2.961,2.961,0,0,1-.68-.111,8.553,8.553,0,0,0-1.492-.071,2.674,2.674,0,0,1-1.412-.1.238.238,0,0,0-.132-.035,10.412,10.412,0,0,1-2.246-.124,1.436,1.436,0,0,0-1.121.209.214.214,0,0,1-.2.03c-.267-.184-.6-.052-.887-.226a1.66,1.66,0,0,0-.727-.159c-.25-.019-.505.028-.759.032a4.712,4.712,0,0,1-.752-.021c-.586-.086-1.181-.009-1.765-.1a19.161,19.161,0,0,1-2.822.1c-.592.055-1.2-.021-1.793-.013a5.614,5.614,0,0,0-1.574.068.492.492,0,0,1-.205.027,10.039,10.039,0,0,0-2,.105,2.156,2.156,0,0,1-.548,0,5.227,5.227,0,0,0-2.049.136c-.316.053-.637.079-.955.119-.182.023-.363.051-.545.075a2.071,2.071,0,0,1-.408.047,1.322,1.322,0,0,0-.8.114.752.752,0,0,1-.339.051,30.733,30.733,0,0,0-3.3.32c-1.232.172-2.464.359-3.7.547-.273.042-.542.114-.812.169a6.409,6.409,0,0,1-1.157.156,7.011,7.011,0,0,0-1.353.267c-.832.188-1.664.376-2.493.576-.334.081-.658.2-.99.29-.444.12-.893.222-1.337.345-.167.047-.325.129-.612.246a1.7,1.7,0,0,0,.854.042c1.111-.187,2.224-.361,3.334-.548a.851.851,0,0,1,.719.107c.46-.321.924-.613,1.513-.193.4-.6,1.005-.547,1.66-.5l.3.51.021-.008a2.086,2.086,0,0,0-.2.335c-.023.061.023.149.039.224a.876.876,0,0,0,.222-.1c.045-.036.056-.114.082-.173l-.018.02.368.144.022-.378c.185-.242.541-.4.681-.756a.314.314,0,0,1,.223-.14c.6-.077,1.206-.141,1.933-.223-.139.114-.176.171-.22.176-.25.028-.505.024-.751.069-.3.053-.575.155-.617.529a.933.933,0,0,1-.115.244c-.123.27-.013.41.285.435s.518-.17.787-.217l-.024,0h.261l-.023,0a1.5,1.5,0,0,1,.41-.023,3.6,3.6,0,0,0,1.3-.073c.591-.082,1.185-.158,1.781-.2a7.02,7.02,0,0,0,1.369-.162,1.644,1.644,0,0,1,.411-.007,1.986,1.986,0,0,0,.55-.006,14.518,14.518,0,0,1,2.126-.145,16.682,16.682,0,0,1,2.138-.091c.64-.014,1.281-.044,1.92-.069.046,0,.1-.024.136-.012a5.86,5.86,0,0,0,1.643.031,1.116,1.116,0,0,1,.275.013.927.927,0,0,0,.854-.052.2.2,0,0,1,.135-.021c.585.1,1.186-.038,1.769.11a.424.424,0,0,0,.265,0,2.445,2.445,0,0,1,.882-.1,8.2,8.2,0,0,0,1.02.039c.322-.072.64.091.947.087.528-.006,1.05.069,1.575.052.41-.013.818-.044,1.228-.071.166-.011.346-.019.442.13a.4.4,0,0,0,.488.134,8.077,8.077,0,0,1,2.523-.039,10.77,10.77,0,0,0,1.375.051,7.13,7.13,0,0,1,1.49.146c.289.047.591.014.88.059s.569.154.857.213a.514.514,0,0,0,.256-.072.218.218,0,0,1,.3.069c.083.115.189.093.3.025a.82.82,0,0,1,.3-.139,6.628,6.628,0,0,1,2.061.424l-.115-.036.109.038c.043-.049.085-.14.13-.142a1.676,1.676,0,0,1,.61.026,12.393,12.393,0,0,0,1.954.333c.588-.181,1.17.193,1.761.023a.255.255,0,0,1,.2.027.513.513,0,0,0,.591.037c.193.145.044.24.038.347.032.01.082.04.095.028a.97.97,0,0,1,.9-.2,4.275,4.275,0,0,1,1.328.267.252.252,0,0,0,.189-.008c.317-.128.622.074.934.029.191.2.434.081.651.1.273.02.554-.048.786.171a.223.223,0,0,0,.192.043c.336-.142.629.057.942.1.429.062.861.1,1.292.148a.811.811,0,0,1,.324.06.566.566,0,0,0,.454.091,1.559,1.559,0,0,1,.275-.022c.31-.013.512.307.884.221a1.539,1.539,0,0,1,.933.149,5.349,5.349,0,0,0,1.658.3,3.055,3.055,0,0,1,.878.155,12.377,12.377,0,0,0,1.588.406.383.383,0,0,0,.136.024,6.435,6.435,0,0,1,2.048.471,2.737,2.737,0,0,0,.54.044l.093.308a2.662,2.662,0,0,1,.992-.115,4.094,4.094,0,0,0,.943.186,6.356,6.356,0,0,1,1.894.46,12.281,12.281,0,0,0,2.957.577.96.96,0,0,1,.774,1.465,4.149,4.149,0,0,1-.293.43.93.93,0,0,1-.7-.026,11.168,11.168,0,0,0-2.345-.57c-.727-.1-1.443-.288-2.165-.434-1.106-.224-2.216-.432-3.318-.675-.764-.168-1.518-.383-2.276-.576-.086-.022-.2-.084-.257-.052-.331.185-.621.025-.923-.075a.868.868,0,0,0-.336-.07,1.9,1.9,0,0,1-.856-.21c-.274-.1-.565-.156-.932-.254-.311.169-.723.037-1.13.022l-.545-.468-.31.309a.59.59,0,0,1-.176-.069c-.148-.121-.287-.237-.492-.108a.2.2,0,0,1-.3-.063c-.149-.278-.358-.252-.583-.132a1.373,1.373,0,0,1-.808.094c-.244-.021-.393-.112-.4-.3a5.413,5.413,0,0,1-.757-.26c-.289-.15-.278-.166-.861-.149a.564.564,0,0,1-.314-.1,1.55,1.55,0,0,0-1.081-.255l.127.393c-.191.067-.381.1-.435-.146a.341.341,0,0,0-.4-.289,1.242,1.242,0,0,1-.668-.1.43.43,0,0,0-.594.153c-.034.049-.113.068-.2.116a2.371,2.371,0,0,0-.3-.256c-.217-.132-.322-.1-.612.15-.078-.1-.133-.236-.234-.29a1.118,1.118,0,0,0-.4-.069,2.087,2.087,0,0,1-.545-.052,1.056,1.056,0,0,0-1.085.228Zm6.231-5.26.124.021-.121-.027a.75.75,0,0,0,0,.133c0,.024.031.045.047.067a.426.426,0,0,0-.008-.066C7235.249,3751.967,7235.233,3751.926,7235.219,3751.883Zm-47.881,2.908-.073.237c.146.059.269.126.343-.071l-.273-.168a1.639,1.639,0,0,0-.2-.007c-.066,0-.149-.085-.213.044Zm23,1.691a4.053,4.053,0,0,0-.43-.151c-.036-.009-.091.068-.138.1.042.045.088.13.126.127a3.921,3.921,0,0,0,.442-.084l.579-.19C7210.489,3756.118,7210.473,3756.124,7210.336,3756.483Zm-22.138-1.206a1.38,1.38,0,0,0,.844-.012l.075-.564c-.152-.026-.322,0-.411-.079-.269-.227-.44-.07-.643.121.175.1.471-.095.538.218C7188.545,3755.164,7188.22,3754.983,7188.2,3755.277Zm41.207-3.792c-.03.229.088.407.221.4a1.924,1.924,0,0,1,.7.039c.017,0,.074-.06.078-.1a.284.284,0,0,0-.032-.186.273.273,0,0,0-.174-.079C7229.932,3751.528,7229.669,3751.508,7229.4,3751.485Zm3.227-.826c.275.016.549.271.816-.033C7233.169,3750.663,7232.911,3750.335,7232.631,3750.659Zm8.55,3.364c-.021.419.216.466.525.5l-.06-.422Zm-30.414.847c.042.2.08.351.291.314a.5.5,0,0,0,.421-.314Zm25.784,1.871c.027.1.026.158.052.181.048.042.127.1.168.089.19-.07.426.006.626-.149C7237.124,3756.634,7236.858,3756.737,7236.552,3756.741Zm-28.762-2.059c-.016.094-.058.185-.032.216a.384.384,0,0,0,.54.023c.024-.022-.007-.159-.031-.165C7208.116,3754.719,7207.96,3754.7,7207.79,3754.682Zm7.774.467a.687.687,0,0,0-.444-.253c-.031,0-.1.042-.1.058.007.062.029.168.06.173C7215.228,3755.15,7215.367,3755.288,7215.564,3755.149Zm8.335.373c.274.217.3.229.442.14a.137.137,0,0,0,.045-.117C7224.355,3755.386,7224.23,3755.381,7223.9,3755.521Zm5.935.384c.155.224.257.365.477.263a.066.066,0,0,0,.018-.062C7230.246,3755.875,7230.063,3755.947,7229.834,3755.906Zm-15.461.379c.1.062.154.119.2.116.109-.005.232-.033.234-.175,0-.1-.072-.175-.172-.137A1.327,1.327,0,0,0,7214.373,3756.285Zm17.644-4.495a1.692,1.692,0,0,0-.257.241c-.023.032.018.124.051.175a.126.126,0,0,0,.12.021,1.141,1.141,0,0,0,.2-.258C7232.146,3751.946,7232.073,3751.875,7232.017,3751.79Zm1.258,4.788c.226,0,.292.008.357,0,.1-.014.189-.074.141-.175a.247.247,0,0,0-.217-.089C7233.488,3756.325,7233.436,3756.418,7233.274,3756.578Zm13.789-4.175c.237.147.358.125.452-.047.01-.019.016-.056.006-.065-.032-.028-.082-.073-.105-.064C7247.3,3752.272,7247.2,3752.334,7247.063,3752.4Zm-8.109,4.67c-.1.079-.188.116-.221.181s.122.22.215.185a.257.257,0,0,0,.145-.174C7239.1,3757.215,7239.015,3757.151,7238.954,3757.073Zm-11.6-5.589c.341.114.341.114.488-.01A.743.743,0,0,0,7227.358,3751.484Zm-22.487,3.625c.016-.015.039-.027.045-.045.033-.094.033-.184-.075-.227-.033-.013-.081.011-.122.019a.818.818,0,0,0,.044.186C7204.78,3755.074,7204.835,3755.088,7204.871,3755.109Zm15.359.115c0,.026,0,.052.01.067a.225.225,0,0,0,.294.073c.015-.007.025-.057.025-.057-.094-.042-.19-.083-.288-.118C7220.263,3755.185,7220.242,3755.213,7220.23,3755.224Zm20.407,2.054c-.072-.011-.125-.036-.155-.02a.448.448,0,0,0-.12.12c-.005.007.017.052.026.052a.23.23,0,0,0,.117-.022A.936.936,0,0,0,7240.637,3757.279Zm-7.482-5.389a1.185,1.185,0,0,0-.134.161c-.006.01.052.082.072.078a.911.911,0,0,0,.182-.071Zm2.124,4.7c-.021,0-.051-.018-.06-.01-.06.055-.115.114-.172.172a.921.921,0,0,0,.086.074,1.942,1.942,0,0,0,.168-.182C7235.308,3756.638,7235.287,3756.608,7235.279,3756.589Zm8.362-3.148a1.215,1.215,0,0,0-.173.059c-.009,0,.01.065.015.1a1.41,1.41,0,0,0,.176-.045A.615.615,0,0,0,7243.641,3753.442Zm5.811-.69c-.033-.021-.067-.061-.1-.057s-.054.05-.081.078l.13.087Zm-13.2-1.878-.01.039a.479.479,0,0,0,.117.048c.03,0,.063-.019.095-.03Zm-20.381,4.187c.174.04.233.056.293.064.018,0,.039-.019.058-.03-.021-.028-.04-.078-.062-.079A1.883,1.883,0,0,0,7215.872,3755.06Zm-25.092-.106-.01-.056-.226.027.012.074Zm35.37.652c-.033.016-.084.025-.095.051s.017.07.027.106l.136-.069Zm-39.71-.5c-.042,0-.092,0-.124.016s-.011.069-.016.105c.042,0,.093.007.124-.014S7186.436,3755.149,7186.439,3755.111Zm32.94-.034h-.1v.053a.848.848,0,0,0,.1,0A.232.232,0,0,0,7219.379,3755.077Zm18.256,2.021h.06l-.035-.092c-.016.011-.042.02-.045.034S7237.627,3757.078,7237.635,3757.1Zm-19.185-.831-.113.015c.021.022.042.061.063.062s.064-.026.1-.041Zm-.995-1.217-.053.029a.407.407,0,0,0,.083.087c.01.006.048-.034.073-.053Zm14.792,1.3.087-.081c-.017-.013-.036-.038-.049-.035a.742.742,0,0,0-.112.047Zm-11.089-6.476-.049-.09a.637.637,0,0,0-.056.1c0,.012.015.034.022.051Zm22.643,2-.175-.049c0,.037-.026.086-.01.108a.15.15,0,0,0,.11.054C7243.746,3751.994,7243.766,3751.937,7243.8,3751.881Zm1.78.261-.065-.01a.4.4,0,0,0,.025.1c.007.013.041.011.062.016C7245.594,3752.211,7245.587,3752.177,7245.58,3752.142Zm-38.8,2.785.051,0-.025-.075c-.013.01-.034.018-.039.031S7206.774,3754.911,7206.779,3754.927Zm11.579-3.9c-.033-.022-.065-.059-.1-.06s-.069.032-.1.05a.509.509,0,0,0,.125.081C7218.3,3751.105,7218.331,3751.054,7218.358,3751.029Zm19.43,2.57.043.038.033-.081c-.019,0-.042-.015-.054-.008S7237.794,3753.581,7237.788,3753.6Zm-3.721-1.571c-.015.006-.038.007-.044.019s.007.03.012.045c.015-.006.037-.008.044-.019S7234.071,3752.042,7234.066,3752.027Zm7.011,6.361,0,.053a.984.984,0,0,0,.1-.013.21.21,0,0,0,0-.05Zm-8.055-2.061c-.017-.007-.036-.021-.05-.017s-.019.028-.027.043l.083.026Zm-19.277-.13c-.018.008-.046.011-.051.024s.008.038.014.058l.075-.038Zm28.529-2.039h-.052l.033.078c.015-.01.04-.017.042-.029S7242.283,3754.176,7242.274,3754.159Zm-.106-2.359c.007-.017.024-.039.019-.051s-.032-.016-.049-.023c-.007.016-.024.039-.018.048S7242.151,3751.792,7242.168,3751.8Zm-18.29-.37c-.006-.012-.009-.036-.021-.041s-.034.007-.051.011l.037.069Zm32.805,3.508.056,0-.027-.081c-.015.011-.037.02-.042.034S7256.678,3754.92,7256.683,3754.938Zm-3.594-.855c.009.012.017.031.029.036a.155.155,0,0,0,.056,0,.258.258,0,0,0-.038-.059S7253.105,3754.074,7253.089,3754.082Zm-16.037-3.019.028-.054-.044-.009Zm6.151.644,0,.041.045-.018Zm-3.523,2.111-.047-.026,0,.044Zm1.3-.683.044-.02-.042-.021Zm-11.757,2.9c-.008-.015-.013-.038-.025-.043s-.034,0-.051.006l.036.07Zm3.087-5.438-.053.025.053.027Zm-1.324,5.279c0,.015,0,.037.01.043a.137.137,0,0,0,.052.012l-.015-.075Zm-8.256-4.691-.047-.03-.009.046Zm14.866,6.815-.019.047c.014.005.036.019.042.014a.066.066,0,0,0,.017-.045C7237.633,3758.009,7237.607,3758,7237.594,3758Z" transform="translate(-4.268 -81.017)" fill="#1d1d1d"/>
    <path id="Path_26" data-name="Path 26" d="M7181.484,3675.259a8.385,8.385,0,0,0-1.923.129c-.772.132-1.55.237-2.326.343a1.317,1.317,0,0,1-1.027-.162,3.626,3.626,0,0,1-.118-1.736.559.559,0,0,1,.372-.462c.852-.29,1.63-.761,2.51-.979.354-.087.669-.288,1.04-.353a7.154,7.154,0,0,0,1.515-.437c.357-.147.767-.171,1.121-.324.68-.292,1.441-.285,2.105-.613,1.324-.187,2.592-.641,3.925-.793a17.186,17.186,0,0,0,1.893-.378c1.1-.253,2.219-.379,3.332-.549.7-.107,1.4-.247,2.106-.359.317-.051.64-.067.959-.106.868-.107,1.734-.261,2.606-.316q1.891-.119,3.763-.377c.384-.053.78,0,1.171-.016.273-.011.547-.057.819-.087a2.6,2.6,0,0,1,.34-.035,4.587,4.587,0,0,0,1.019-.126,9.495,9.495,0,0,1,1.581-.081c.113,0,.228.045.34.037.643-.047,1.283-.106,1.925-.156.113-.009.228.014.342.015a2.548,2.548,0,0,0,.81-.076c.24-.073.554.107.8.043a4.094,4.094,0,0,1,1.57-.063,1.825,1.825,0,0,0,.343-.028,3.618,3.618,0,0,1,1.5-.025,4.825,4.825,0,0,1,1.228-.093,18.737,18.737,0,0,1,2.405.03c1.1.06,2.2.042,3.3.085.944.038,1.888.04,2.828.03a19.229,19.229,0,0,0,2.33.038,1.3,1.3,0,0,1,.271.044,3.719,3.719,0,0,0,1.222.078.989.989,0,0,1,.344.017c.452.064.9.135,1.354.2a.829.829,0,0,0,.205.011,17.639,17.639,0,0,1,3.435.145c.48.046.964.073,1.445.106a1.108,1.108,0,0,1,.342.014,2.774,2.774,0,0,0,.807.078,3.893,3.893,0,0,0,.818.029,1.942,1.942,0,0,1,.752.065,8.033,8.033,0,0,0,1.634.167c.16.021.317.052.478.067.18.016.362.019.543.026.16.007.321,0,.479.019.753.1,1.5.208,2.257.3.433.054.868.083,1.3.133a1.813,1.813,0,0,1,.47.1.924.924,0,0,1,.633.9,6.256,6.256,0,0,1-.136.882,9.635,9.635,0,0,1-.88.456,1.523,1.523,0,0,1-.543.049c-.575,0-1.151-.012-1.727,0-.229,0-.457.065-.687.076a1.4,1.4,0,0,1-1.092-.333,2,2,0,0,0-.241-.166c-.085.035-.19.047-.246.106a.528.528,0,0,1-.5.177c-.824-.122-1.656-.024-2.482-.085-.573-.042-1.147-.087-1.722-.1-.968-.017-1.937,0-2.9-.012a9.323,9.323,0,0,1-.961-.078,8.484,8.484,0,0,0-1.826-.128c-.363.036-.736-.046-1.1-.032-.552.021-1.1.042-1.654.016-.436-.021-.874.026-1.312.036a4.072,4.072,0,0,1-.481-.021,2.306,2.306,0,0,0-1.157.016.5.5,0,0,1-.206,0c-.526-.037-1.053-.085-1.579-.109a2.462,2.462,0,0,0-.537.065,6.2,6.2,0,0,1-.669.136c-.688.045-1.38.071-2.069.1a.99.99,0,0,1-.409-.036,1.624,1.624,0,0,0-1.077-.016,6.93,6.93,0,0,0-1.22.186c-.137.061-.35-.065-.53-.083-.157-.014-.267.059-.256.267a.648.648,0,0,0,.563.134,5.1,5.1,0,0,1,1.982.133.423.423,0,0,0,.2-.02,13.14,13.14,0,0,1,3.229-.129,5.835,5.835,0,0,0,.69.02,19.365,19.365,0,0,1,2.4.019,18.458,18.458,0,0,0,2.137-.005,4.673,4.673,0,0,1,1.3.076,2.854,2.854,0,0,1,.735.154c.271.15.414-.178.646-.1a1.131,1.131,0,0,0,.341.046c.345.01.688.013,1.032.019.183,0,.365,0,.548.012.091,0,.188.052.272.031a3.741,3.741,0,0,1,1.026.022,9.278,9.278,0,0,0,1.438.029,7.025,7.025,0,0,1,1.506.155c.3.028.6.015.894.028.182.008.361.029.542.048a1.7,1.7,0,0,0,.2.036c.5-.011,1.01-.028,1.515-.041a6.767,6.767,0,0,1,1.574.169,1.451,1.451,0,0,0,.816-.008,1.662,1.662,0,0,1,.822,0c.386.058.776.089,1.164.142.639.086,1.277.176,1.915.273a.681.681,0,0,1,.592.726.841.841,0,0,1-.96.911c-.759-.042-1.517-.111-2.274-.177-.712-.062-1.423-.134-2.134-.2-.344-.033-.687-.077-1.032-.1a2.992,2.992,0,0,0-1.293-.029c-.061.022-.139-.007-.206,0-.5.074-.972-.19-1.491-.111a4.691,4.691,0,0,1-1.515-.009c-.761-.137-1.519.039-2.272-.067-.273-.039-.549-.075-.823-.1a1.5,1.5,0,0,0-.814.054.97.97,0,0,1-.542.034,9.513,9.513,0,0,0-2.2-.023,4.285,4.285,0,0,1-1.846-.158.65.65,0,0,0-.34-.043,6.937,6.937,0,0,1-1.854-.024c-.409-.036-.829.123-1.23-.064a.181.181,0,0,0-.136.011,2.5,2.5,0,0,1-1.49.113,1.882,1.882,0,0,0-.409.064,1.6,1.6,0,0,1-.548.028,6.1,6.1,0,0,0-1.646-.035c-.391,0-.782-.008-1.174-.012a4.03,4.03,0,0,0-1.165.07,2.114,2.114,0,0,1-.546.047c-.437,0-.877-.04-1.311,0a18.408,18.408,0,0,1-2.268.077c-.271-.009-.544.072-.817.088-.62.034-1.241.027-1.86.106a4.183,4.183,0,0,1-1.448-.013,1.391,1.391,0,0,0-.413-.013c-1.445.128-2.895.223-4.332.4a31.557,31.557,0,0,1-3.238.254,5.063,5.063,0,0,1-1.307.029.781.781,0,0,0-.4.092,2.777,2.777,0,0,1-.948.169,5.862,5.862,0,0,0-.688.065c-1.483.2-2.979.3-4.466.489-.982.125-1.968.209-2.952.32s-1.962.288-2.943.425c-.3.041-.6.043-.9.071a26.234,26.234,0,0,0-3.48.543c-.988.229-1.99.394-2.987.586a1.6,1.6,0,0,1-.205.03,6.348,6.348,0,0,0-2.086.45c-.313.131-.479.082-.611-.116a.6.6,0,0,1,.041-.818,1.164,1.164,0,0,1,.637-.392,3.674,3.674,0,0,0,1.468-.338.357.357,0,0,1,.2-.009,4.166,4.166,0,0,0,1.873-.367c.072-.027.12-.125.18-.187a1.3,1.3,0,0,0,.877-.03c.491-.112.984-.226,1.481-.308a4.164,4.164,0,0,0,.953-.3,1.588,1.588,0,0,0-.773.027,3.832,3.832,0,0,1-.6.129A6.106,6.106,0,0,0,7181.484,3675.259Zm20.87-5.306.269.069.011-.052-.278-.019a.78.78,0,0,0-.088.082.424.424,0,0,0-.035.083c.031-.016.073-.023.089-.048A.519.519,0,0,0,7202.354,3669.953Zm7.825,1.344a1.1,1.1,0,0,0,.053.108c.01.016.031.023.047.035a.2.2,0,0,1-.048-.039c-.021-.032-.036-.068-.055-.1a1.126,1.126,0,0,1-.176.051c-.171.022-.191.126-.155.266-.447-.335-.452-.335-.886-.017a1.162,1.162,0,0,0,.867,0Zm2.372-.142-.062.138a.833.833,0,0,0,.274.114q.889.015,1.781,0a3.783,3.783,0,0,0,.474-.074c.164-.024.329-.044.528-.07a.4.4,0,0,0-.427-.242c-.521.04-1.043.072-1.559.142A1.872,1.872,0,0,1,7212.552,3671.155Zm-15.079-.723c-.388.021-.631.032-.875.047a.972.972,0,0,0-.722.251c.5.222.927-.013,1.354-.038C7197.287,3670.69,7197.339,3670.581,7197.473,3670.433Zm-4.314.579c.394.27.776.035,1.169.033.033,0,.1-.105.088-.151s-.1-.12-.136-.113C7193.9,3670.85,7193.531,3670.933,7193.158,3671.012Zm18.349.423a.555.555,0,0,0-.634,0Zm-20.077-.03c-.174-.013-.4-.143-.42.165Zm14.506.513c.073,0,.1.009.117,0,.084-.059.239-.046.219-.21a.073.073,0,0,0-.046-.046c-.138-.047-.21.037-.267.142A.633.633,0,0,0,7205.936,3671.918Zm-20.165.539a.981.981,0,0,0,.194.017c.014,0,.021-.067.032-.1a.355.355,0,0,0-.129-.017C7185.837,3672.362,7185.815,3672.406,7185.771,3672.457Zm34.175-2.314c.025.033.045.084.077.094s.067-.033.1-.052c-.024-.032-.044-.083-.073-.09S7219.981,3670.124,7219.945,3670.142Zm-21.152.2c-.03-.027-.058-.07-.091-.076s-.052.048-.078.076c.029.024.058.065.09.068S7198.767,3670.363,7198.793,3670.338Zm-10.646,1.573a1.556,1.556,0,0,0-.17.063c-.006,0,.011.081.022.083a.169.169,0,0,0,.118-.018C7188.139,3672.023,7188.135,3671.972,7188.146,3671.912Zm-2.928,2.489-.081.089c.017.013.043.04.046.037.029-.027.056-.058.083-.087Zm14.329-4.044-.065.016.1.015Zm-5.985,2.733a.412.412,0,0,0,.01.056c.038,0,.076-.009.114-.014l-.018-.1Zm22.4-1.859.029-.038h-.058Zm-1.834.421.058.016.008-.08c-.02,0-.045,0-.059.012S7214.129,3671.634,7214.128,3671.652Zm7.877-1.626h-.058a.615.615,0,0,0,.02.1s.036,0,.056,0Zm-37.181,2.563h-.054l.047.042Zm34.781-3.187.034.023.006-.036Zm-6.189,1,0-.038-.043.015Zm-15.611.041-.018.05.062-.036Zm9.507,1.333.04-.019-.039-.019Zm31.295-1.3-.041.025.077.007Z" transform="translate(-2.171 -22.811)" fill="#1d1d1d"/>
    <path id="Path_27" data-name="Path 27" d="M7235.67,3691.864a2.326,2.326,0,0,1,1.485-.139c.547.062,1.092.151,1.639.222a.787.787,0,0,0,.273-.013.622.622,0,0,1,.592.1c.179.161.486-.059.606.228l.209-.189a3.163,3.163,0,0,1,.275.171.332.332,0,0,0,.386.054,2.142,2.142,0,0,1,1.408-.077,2.778,2.778,0,0,0,.4.042,3.169,3.169,0,0,1,1.1.078,1.194,1.194,0,0,0,.341,0,9.492,9.492,0,0,1,2.172.362.265.265,0,0,1,.2.319c-.024.181-.061.361-.1.566a1.188,1.188,0,0,1-.319.1,11.552,11.552,0,0,1-1.992-.126c-.439-.075-.873-.036-1.309-.067-.325-.024-.692.118-.96-.205a.139.139,0,0,0-.128-.014,5.337,5.337,0,0,1-1.881.122.736.736,0,0,1-.39-.115,1.058,1.058,0,0,0-.867-.087,1.337,1.337,0,0,1-.8,0,3.2,3.2,0,0,0-1.018.057c-.3.024-.595.055-.893.069a.731.731,0,0,1-.667-.291,1.708,1.708,0,0,1-.544.268,2.036,2.036,0,0,1-.811-.1,1.528,1.528,0,0,0-.664-.072c-.757.064-1.517.117-2.275.121a14.381,14.381,0,0,1-1.442-.144,2.642,2.642,0,0,0-.551-.021,2.294,2.294,0,0,1-1.291-.093.627.627,0,0,0-.338.009c-.228.039-.451.1-.677.14a1.17,1.17,0,0,1-1.107-.19,3.287,3.287,0,0,1-1.721.216c-.8-.029-1.594-.015-2.388-.085a2.78,2.78,0,0,1-1.227,0,1.161,1.161,0,0,0-.342,0,19.181,19.181,0,0,1-2.2.1c-.522-.307-1.074-.051-1.612-.081a3.194,3.194,0,0,0-1.162.061,2.173,2.173,0,0,1-.688.034,24.385,24.385,0,0,0-3.383.07,15.62,15.62,0,0,1-1.865.027c-1.4-.01-2.8.09-4.2.116-.664.012-1.328.06-1.986.1-1.309.086-2.627-.013-3.928.2-.977-.076-1.917.268-2.889.243-.9.232-1.835.121-2.738.267a18.639,18.639,0,0,0-1.912.265,12.608,12.608,0,0,1-1.57.191c-1.142.155-2.283.311-3.422.488-.865.135-1.72.36-2.589.443-1.13.108-2.215.435-3.333.583-.64.085-1.279.176-1.916.277-1.459.231-2.9.547-4.33.908a.76.76,0,0,1-.469.038.787.787,0,0,1-.5-.761.579.579,0,0,1,.4-.59,2.011,2.011,0,0,1,.6-.168c1.119-.154,2.216-.417,3.319-.655.968-.209,1.919-.494,2.889-.673,1.155-.214,2.283-.538,3.438-.735.5-.085,1-.153,1.5-.24.227-.039.448-.1.673-.158a.97.97,0,0,1,.264-.073c.935.065,1.807-.342,2.729-.359a15.534,15.534,0,0,1,2.168-.337c.691-.155,1.416-.162,2.123-.256.453-.061.9-.162,1.352-.246a2.019,2.019,0,0,1,1.02-.063,1.854,1.854,0,0,0,.612-.044,6.626,6.626,0,0,0,1.632-.165,1.829,1.829,0,0,1,.686-.04,3.873,3.873,0,0,0,1.362-.162,1.6,1.6,0,0,1,1.017-.078.268.268,0,0,0,.2-.005c.308-.181.631-.072.949-.073a9.092,9.092,0,0,0,1.232-.019c1.027-.142,2.061.019,3.086-.095.251-.028.5-.062.751-.107a1.518,1.518,0,0,1,.753.021,1.552,1.552,0,0,0,.94-.033,2.566,2.566,0,0,1,1.218-.1,1.319,1.319,0,0,0,.549.01,6.6,6.6,0,0,1,1.848-.057c.291,0,.564.143.877.028.242-.09.53.04.8-.089a1,1,0,0,1,.543.03,6.294,6.294,0,0,0,1.311.051,8.175,8.175,0,0,1,.818.057c.066.005.146.05.2.027.6-.28,1.226.018,1.832-.088a4.079,4.079,0,0,0,.411-.01,9.4,9.4,0,0,1,2.271-.025c.227-.01.4.157.659.138a4.543,4.543,0,0,0,.913-.091,1.474,1.474,0,0,1,.618-.028,12.357,12.357,0,0,0,2.416.061,2.809,2.809,0,0,1,.66.108,4.359,4.359,0,0,0,1.165,0,3.394,3.394,0,0,1,1.1.054,2.886,2.886,0,0,0,.481.028,1.886,1.886,0,0,1,.548.057,1.548,1.548,0,0,0,1.144.007,1.2,1.2,0,0,1,.479-.045c.687.052,1.372.118,2.082.18l-.033.236a.434.434,0,0,0,.508-.02.892.892,0,0,1,1.2.056l-.153-.025c.009.012.019.034.026.034A1.128,1.128,0,0,0,7235.67,3691.864Zm-4.308.952c-.213-.364-.213-.364-.508-.251C7231,3692.7,7231.108,3692.889,7231.362,3692.816Zm-2.041-1.191v-.059h-.367v.059Zm7.068,1.215-.1.162c.035.016.079.053.1.042a.16.16,0,0,0,.077-.1C7236.471,3692.92,7236.425,3692.886,7236.39,3692.841Zm-11.288-.238c-.02,0-.044-.019-.058-.012s-.022.035-.032.053l.086.019Zm9.8-.748a.2.2,0,0,0-.062,0c-.006,0,0,.032-.006.05a.224.224,0,0,0,.063,0S7234.9,3691.872,7234.9,3691.855Zm3.393,1.2a.567.567,0,0,0,.078.059c.007,0,.043-.03.042-.041a.507.507,0,0,0-.041-.095Zm-1.362-1.106.035-.048-.051-.01Z" transform="translate(-0.277 -39.876)" fill="#1d1d1d"/>
    <path id="Path_28" data-name="Path 28" d="M7204.925,3773.782a2.976,2.976,0,0,0,.413-.011,2.124,2.124,0,0,0,.38-.155l-.329.415.6.084-.064.391a.4.4,0,0,1-.119.05,9.029,9.029,0,0,1-1.235.05,4.993,4.993,0,0,0-1.146.183c-.136.024-.273.046-.411.056-.756.055-1.516.068-2.266.166-1.024.134-2.061.144-3.078.354-.65.135-1.321.161-1.98.258-.794.117-1.585.258-2.377.389a3.575,3.575,0,0,1-.546.087,3.407,3.407,0,0,0-1.729.392.244.244,0,0,1-.128.05c-.587-.084-1.2.159-1.769-.125.171-.1.351-.2.513-.315.057-.041.074-.138.142-.278-.291.036-.514-.024-.728.149l.094.462a.621.621,0,0,1-.164.126,7.177,7.177,0,0,1-1.633.494c-.342.025-.678.125-1.017.184a5.752,5.752,0,0,1-.885.128,3.34,3.34,0,0,0-.948.161,8.056,8.056,0,0,1-1.461.372,6.932,6.932,0,0,0-1.055.319,6.715,6.715,0,0,1-1.826.323,2.02,2.02,0,0,0-.86.2,8.6,8.6,0,0,1-1.866.479,9.2,9.2,0,0,0-1.267.321,1.066,1.066,0,0,1-1.307-.213c-.02-.382-.352-.779-.188-1.264a.858.858,0,0,1,.637-.193,3.857,3.857,0,0,0,1.489-.217,1.681,1.681,0,0,1,.4-.064,3.971,3.971,0,0,0,.473-.042,3.319,3.319,0,0,1,.886-.1,2.276,2.276,0,0,0,.876-.156,3.824,3.824,0,0,1,1.594-.332.513.513,0,0,0,.2-.057,2.231,2.231,0,0,1,1.26-.276c.507-.335,1.12-.172,1.671-.352a5.264,5.264,0,0,1,1.3-.093c.024-.006.046-.006.067-.011a.149.149,0,0,0,.039-.024l-.12.045a2.522,2.522,0,0,1,.34-.225c.316-.144.49-.062.632.282a2.141,2.141,0,0,1,.069.24c.618.159,1.066-.243,1.568-.355.066-.142-.169-.273.019-.372a2.191,2.191,0,0,1,.439-.157c.085-.023.183,0,.269-.026.235-.059.468-.13.7-.2l-.013-.006a.318.318,0,0,0,.416.132c.164-.081.319-.177.479-.264.059-.032.137-.095.18-.078.386.154.709-.106,1.065-.142a1.153,1.153,0,0,1,.537-.008c.185.082.344-.012.582-.014a2.393,2.393,0,0,1-.134.267,3.124,3.124,0,0,0-.2.25c-.037.064.105.2.17.166.194-.1.376-.233.574-.33s.418-.173.627-.258l-.015.012,1.24.179c.222-.116.083-.588.5-.621l-.04.309a1.356,1.356,0,0,1,.906.205c-.064-.015-.135-.054-.191-.039a.61.61,0,0,0-.2.129c-.005,0,.036.1.057.1a.475.475,0,0,0,.238-.032c.045-.025.055-.114.081-.175a1.274,1.274,0,0,0,.256-.194.179.179,0,0,0-.045-.283l0,0,.33-.1c.254.229.4.229.539-.045l-.556.064.025-.307a1.344,1.344,0,0,1,1.3.01l-.131.358a.2.2,0,0,0,.308-.071,1.283,1.283,0,0,1,.489-.476.59.59,0,0,1,.38-.134,2.87,2.87,0,0,0,1.09-.091,4.466,4.466,0,0,1,.455,0l.239.532c.334-.073.62-.173.952-.274-.3-.262-.527.063-.763-.037.227-.267.225-.277.449-.316.34-.059.684-.1,1.026-.152.248-.036.495-.085.745-.1s.5,0,.751,0c-.013.272.1.374.326.371l-.014-.021a.468.468,0,0,0,.031.057c.081.115.187.2.329.136.167-.07.085-.216.076-.337Zm-5.128.819-.047-.244c-.23-.012-.428-.022-.626-.033-.089-.005-.18-.018-.2.113l.6.377.286-.23a.322.322,0,0,0,.029.12c.018.024.066.025.1.036-.009-.032-.009-.076-.03-.094A.381.381,0,0,0,7199.8,3774.6Zm2.87-.416.063.13c.375-.043.751-.081,1.125-.135.035-.005.067-.1.078-.16,0-.02-.059-.078-.089-.077-.337.016-.674.032-1.009.07C7202.774,3774.02,7202.723,3774.125,7202.667,3774.184Zm-11.032,1.235a.5.5,0,0,0-.162.025.85.85,0,0,0-.138.126c.043.044.083.12.133.127a1.184,1.184,0,0,0,.337-.011c.025,0,.059-.071.06-.11a.14.14,0,0,0-.059-.109A.752.752,0,0,0,7191.635,3775.419Zm-.962.146a.423.423,0,0,0-.15.012.757.757,0,0,0-.132.118c.044.041.085.112.133.117a1.391,1.391,0,0,0,.316-.027c.013,0,.031-.035.03-.052,0-.04-.005-.1-.03-.114A.688.688,0,0,0,7190.673,3775.565Zm-5.779,1.484.467-.433C7184.838,3776.644,7184.834,3776.648,7184.895,3777.049Zm17.242-2.354c.151-.058.333.154.463-.07a.06.06,0,0,0-.011-.057C7202.4,3774.448,7202.272,3774.584,7202.136,3774.7Zm-1.884-.3c.019.006.046.023.053.017a.259.259,0,0,0,.043-.067.183.183,0,0,0-.058.01C7200.275,3774.359,7200.265,3774.377,7200.252,3774.391Z" transform="translate(-1.177 -98.553)" fill="#1d1d1d"/>
    <path id="Path_29" data-name="Path 29" d="M7264.511,3760.985c.232-.175.448-.34.668-.5.033-.023.09-.015.136-.019a.2.2,0,0,1,.068.006.365.365,0,0,1,.063.027l.013.256.27.057c.014.025.034.045.034.064a1.566,1.566,0,0,1-.453.442c-.2.022-.407.037-.635.057Zm.5.105c0-.016,0-.045,0-.047a.125.125,0,0,0-.064,0,.2.2,0,0,0-.054.032Z" transform="translate(-65.103 -89.246)" fill="#1d1d1d"/>
    <path id="Path_30" data-name="Path 30" d="M7287.182,3759.587a1.6,1.6,0,0,1,.192-.045c.491-.028.488-.027.6.515.013.06.078.109.12.166-.074.155-.234.111-.352.128-.23.033-.317-.059-.34-.309-.008-.09.027-.192,0-.27S7287.282,3759.667,7287.182,3759.587Z" transform="translate(-81.229 -88.581)" fill="#1d1d1d"/>
    <path id="Path_31" data-name="Path 31" d="M7250.94,3762.246c.107-.034.221-.16.44-.057.187.089.19.232.273.357a1.53,1.53,0,0,0,.223.224c-.336.2-.351.2-.526-.04C7251.221,3762.556,7251.07,3762.4,7250.94,3762.246Z" transform="translate(-55.451 -90.442)" fill="#1d1d1d"/>
    <path id="Path_32" data-name="Path 32" d="M7217.371,3781.6l-.962.225c-.027-.246.158-.342.23-.486C7217.295,3781.406,7217.295,3781.406,7217.371,3781.6Z" transform="translate(-30.887 -104.093)" fill="#1d1d1d"/>
    <path id="Path_33" data-name="Path 33" d="M7278.589,3760.191l.686.282a.2.2,0,0,1-.269.2c-.155-.034-.3-.107-.459-.142a2.834,2.834,0,0,0-.413-.029l.459-.319Z" transform="translate(-74.793 -89.046)" fill="#1d1d1d"/>
    <path id="Path_34" data-name="Path 34" d="M7377.333,3766.216a5.2,5.2,0,0,1-1.231-.074.81.81,0,0,1,.065-.141C7376.556,3766.083,7376.984,3765.938,7377.333,3766.216Z" transform="translate(-144.476 -93.182)" fill="#1d1d1d"/>
    <path id="Path_35" data-name="Path 35" d="M7256.44,3763.055c.2.089.212.213.149.343a.188.188,0,0,1-.166.064c-.043-.01-.109-.094-.1-.133A1.361,1.361,0,0,1,7256.44,3763.055Z" transform="translate(-59.279 -91.087)" fill="#1d1d1d"/>
    <path id="Path_36" data-name="Path 36" d="M7238.9,3778.387a1.117,1.117,0,0,1-.811-.05c.146-.153.326-.129.482-.172.1.078.205.158.312.236Z" transform="translate(-46.312 -101.835)" fill="#1d1d1d"/>
    <path id="Path_37" data-name="Path 37" d="M7362.735,3764.617l-.708-.167A1.017,1.017,0,0,1,7362.735,3764.617Z" transform="translate(-134.465 -92.065)" fill="#1d1d1d"/>
    <path id="Path_38" data-name="Path 38" d="M7234.6,3766.421a.657.657,0,0,1,.643-.209C7235.039,3766.393,7235.039,3766.393,7234.6,3766.421Z" transform="translate(-43.826 -93.321)" fill="#1d1d1d"/>
    <path id="Path_39" data-name="Path 39" d="M7244.353,3763.4c-.161-.015-.408.157-.449-.127-.031-.214.16-.295.4-.293l-.209.266c.024.148.132.161.253.154Z" transform="translate(-50.443 -91.03)" fill="#1d1d1d"/>
    <path id="Path_40" data-name="Path 40" d="M7299.339,3759.65c-.014.258-.212.253-.437.281l-.158-.26c.222-.073.417.178.6-.021Z" transform="translate(-89.454 -88.665)" fill="#1d1d1d"/>
    <path id="Path_41" data-name="Path 41" d="M7242.043,3777.544c.06.065.129.108.138.161s-.051.117-.1.139a.414.414,0,0,1-.2.017.153.153,0,0,1-.113-.057.13.13,0,0,1,.038-.118A2.075,2.075,0,0,1,7242.043,3777.544Z" transform="translate(-48.923 -101.393)" fill="#1d1d1d"/>
    <path id="Path_42" data-name="Path 42" d="M7225.874,3768.335l.023,0a1.285,1.285,0,0,1-.034-.27c.011-.158.02-.158.313-.267C7226.121,3768.063,7226.121,3768.063,7225.874,3768.335Z" transform="translate(-37.613 -94.464)" fill="#1d1d1d"/>
    <path id="Path_43" data-name="Path 43" d="M7351.686,3762.9l.313.269C7351.618,3763.249,7351.618,3763.249,7351.686,3762.9Z" transform="translate(-127.085 -90.979)" fill="#1d1d1d"/>
    <path id="Path_44" data-name="Path 44" d="M7224.244,3768.616l.024,0-.364-.286c.113-.219.245-.128.31-.028C7224.264,3768.377,7224.236,3768.508,7224.244,3768.616Z" transform="translate(-36.22 -94.741)" fill="#1d1d1d"/>
    <path id="Path_45" data-name="Path 45" d="M7313.462,3761.993h.568C7313.806,3762.1,7313.806,3762.1,7313.462,3761.993Z" transform="translate(-99.922 -90.332)" fill="#1d1d1d"/>
    <path id="Path_46" data-name="Path 46" d="M7311.854,3759.686c.019.232.019.232-.228.35A.336.336,0,0,1,7311.854,3759.686Z" transform="translate(-98.616 -88.691)" fill="#1d1d1d"/>
    <path id="Path_47" data-name="Path 47" d="M7367.931,3765.146l.38.047,0,.047h-.4Z" transform="translate(-138.649 -92.574)" fill="#1d1d1d"/>
    <path id="Path_48" data-name="Path 48" d="M7302.534,3761.839l-.439.063C7302.208,3761.823,7302.313,3761.712,7302.534,3761.839Z" transform="translate(-91.836 -90.181)" fill="#1d1d1d"/>
    <path id="Path_49" data-name="Path 49" d="M7405.679,3770.013a1.32,1.32,0,0,1-.288.135.455.455,0,0,1-.169-.057c.042-.042.079-.107.129-.121A1.226,1.226,0,0,1,7405.679,3770.013Z" transform="translate(-165.189 -96.002)" fill="#1d1d1d"/>
    <path id="Path_50" data-name="Path 50" d="M7300.807,3759.649a1.591,1.591,0,0,1,.332.018.242.242,0,0,1,.14.186l-.474-.2Z" transform="translate(-90.919 -88.665)" fill="#1d1d1d"/>
    <path id="Path_51" data-name="Path 51" d="M7357.748,3763.728l.484.187c-.285.072-.427.025-.466-.206Z" transform="translate(-131.422 -91.552)" fill="#1d1d1d"/>
    <path id="Path_52" data-name="Path 52" d="M7382.7,3766.788a2.04,2.04,0,0,1-.247.04c-.038,0-.077-.033-.115-.051a.475.475,0,0,1,.142-.093.7.7,0,0,1,.2.011Z" transform="translate(-148.91 -93.664)" fill="#1d1d1d"/>
    <path id="Path_53" data-name="Path 53" d="M7244.389,3764.431c-.125.343-.125.343-.434.286l.436-.286Z" transform="translate(-50.482 -92.066)" fill="#1d1d1d"/>
    <path id="Path_54" data-name="Path 54" d="M7278.087,3774.132a.7.7,0,0,1,.039-.125c.115-.221.143-.222.372-.021l.01-.019-.436.145Z" transform="translate(-74.75 -98.757)" fill="#1d1d1d"/>
    <path id="Path_55" data-name="Path 55" d="M7347.985,3763.407l-.316-.015-.008-.052.3-.046Z" transform="translate(-124.247 -91.257)" fill="#1d1d1d"/>
    <path id="Path_56" data-name="Path 56" d="M7274.648,3762.084c.02.047.047.081.042.111a.15.15,0,0,1-.062.1c-.014.009-.059-.032-.089-.051Z" transform="translate(-72.236 -90.396)" fill="#1d1d1d"/>
    <path id="Path_57" data-name="Path 57" d="M7324.909,3761.914l.09.142c-.038.019-.089.063-.111.052a.553.553,0,0,1-.122-.123Z" transform="translate(-107.962 -90.275)" fill="#1d1d1d"/>
    <path id="Path_58" data-name="Path 58" d="M7339.338,3762.821c-.037.017-.071.047-.1.045s-.069-.032-.1-.05c.033-.021.066-.061.1-.06S7339.3,3762.8,7339.338,3762.821Z" transform="translate(-118.179 -90.875)" fill="#1d1d1d"/>
    <path id="Path_59" data-name="Path 59" d="M7216.567,3766.615c-.069-.013-.139-.023-.206-.042a.6.6,0,0,1,.013-.1l.213.063Z" transform="translate(-30.855 -93.518)" fill="#1d1d1d"/>
    <path id="Path_60" data-name="Path 60" d="M7315.259,3760.11l.039.1a.742.742,0,0,1-.111.011c-.008,0-.025-.049-.019-.054A.682.682,0,0,1,7315.259,3760.11Z" transform="translate(-101.134 -88.993)" fill="#1d1d1d"/>
    <path id="Path_61" data-name="Path 61" d="M7272.011,3760.459l.087-.065.054.08c-.017.01-.037.03-.051.027A.491.491,0,0,1,7272.011,3760.459Z" transform="translate(-70.438 -89.194)" fill="#1d1d1d"/>
    <path id="Path_62" data-name="Path 62" d="M7423.118,3731.711c.034.042.069.085.1.13a.217.217,0,0,1-.042.036c-.046-.036-.089-.077-.133-.116Z" transform="translate(-177.867 -68.792)" fill="#1d1d1d"/>
    <path id="Path_63" data-name="Path 63" d="M7246.348,3765.069c.016.008.04.012.044.023s-.012.031-.019.046c-.016-.007-.041-.012-.044-.023S7246.341,3765.084,7246.348,3765.069Z" transform="translate(-52.17 -92.519)" fill="#1d1d1d"/>
    <path id="Path_64" data-name="Path 64" d="M7231.13,3766.953c.03.022.074.039.084.068s-.036.077-.058.078-.061-.035-.091-.055Z" transform="translate(-41.314 -93.86)" fill="#1d1d1d"/>
    <path id="Path_65" data-name="Path 65" d="M7230.839,3765.118l.032-.045a.788.788,0,0,1,.073.066s-.02.028-.031.043Z" transform="translate(-41.153 -92.522)" fill="#1d1d1d"/>
    <path id="Path_66" data-name="Path 66" d="M7322.281,3775.456h-.113l.01-.039Z" transform="translate(-106.114 -99.88)" fill="#1d1d1d"/>
    <path id="Path_67" data-name="Path 67" d="M7312.568,3775.012l-.373.037v-.067l.363.029Z" transform="translate(-99.021 -99.57)" fill="#1d1d1d"/>
    <path id="Path_68" data-name="Path 68" d="M7390.223,3728.862c.027-.025.054-.067.083-.07s.077.026.117.041a.687.687,0,0,1-.113.107C7390.3,3728.946,7390.253,3728.89,7390.223,3728.862Z" transform="translate(-154.52 -66.716)" fill="#1d1d1d"/>
    <path id="Path_69" data-name="Path 69" d="M7352.174,3777.3l.371-.064.006.065h-.376Z" transform="translate(-127.457 -101.17)" fill="#1d1d1d"/>
    <path id="Path_70" data-name="Path 70" d="M7342.581,3776.32l.377-.067.006.066h-.383Z" transform="translate(-120.634 -100.475)" fill="#1d1d1d"/>
    <path id="Path_71" data-name="Path 71" d="M7374.349,3765.761l.108.044c-.028.023-.062.068-.083.064s-.056-.05-.082-.078Z" transform="translate(-143.189 -93.012)" fill="#1d1d1d"/>
    <path id="Path_72" data-name="Path 72" d="M7407.627,3730.327c-.04,0-.08.007-.12.007,0,0-.008-.028-.013-.043.04,0,.081-.009.121-.01A.2.2,0,0,1,7407.627,3730.327Z" transform="translate(-166.806 -67.775)" fill="#1d1d1d"/>
    <path id="Path_73" data-name="Path 73" d="M7296.458,3759.96c-.017-.008-.042-.012-.048-.025a.15.15,0,0,1,0-.061c.018.007.044.01.05.023S7296.459,3759.938,7296.458,3759.96Z" transform="translate(-87.79 -88.824)" fill="#1d1d1d"/>
    <path id="Path_74" data-name="Path 74" d="M7259.28,3761.346l.037.036-.043.01Z" transform="translate(-61.379 -89.871)" fill="#1d1d1d"/>
    <path id="Path_75" data-name="Path 75" d="M7400.75,3728.19l-.035,0,.018.12C7400.739,3728.268,7400.745,3728.229,7400.75,3728.19Z" transform="translate(-161.984 -66.286)" fill="#1d1d1d"/>
    <path id="Path_76" data-name="Path 76" d="M7226.044,3779.849l.238-.029v.049c-.082-.008-.164-.016-.248-.025Z" transform="translate(-37.735 -103.012)" fill="#1d1d1d"/>
    <path id="Path_77" data-name="Path 77" d="M7372.912,3764.566l.047.029-.053.063c-.008-.017-.022-.034-.021-.051S7372.9,3764.58,7372.912,3764.566Z" transform="translate(-142.188 -92.162)" fill="#1d1d1d"/>
    <path id="Path_78" data-name="Path 78" d="M7236.385,3764.23v.044l-.037-.019Z" transform="translate(-45.071 -91.923)" fill="#1d1d1d"/>
    <path id="Path_79" data-name="Path 79" d="M7294.859,3759.662l-.042-.026.046-.019Z" transform="translate(-86.66 -88.642)" fill="#1d1d1d"/>
    <path id="Path_80" data-name="Path 80" d="M7298.317,3719.372l-.117.012.112-.015Z" transform="translate(-89.066 -60.014)" fill="#1d1d1d"/>
    <path id="Path_81" data-name="Path 81" d="M7248.05,3762.682l-.018-.055.051.009Z" transform="translate(-53.383 -90.782)" fill="#1d1d1d"/>
    <path id="Path_82" data-name="Path 82" d="M7250.563,3777.309l.013-.08s0,.044-.009.085Z" transform="translate(-55.182 -101.169)" fill="#1d1d1d"/>
    <path id="Path_83" data-name="Path 83" d="M7218.54,3766.749l.049.021-.06.058-.035-.044Z" transform="translate(-32.373 -89.095)" fill="#1d1d1d"/>
    <path id="Path_84" data-name="Path 84" d="M7215.664,3768.993c.05.1.1.2.147.3l.018-.02c-.136-.052-.134-.174-.144-.289Z" transform="translate(-30.359 -95.305)" fill="#1d1d1d"/>
    <path id="Path_85" data-name="Path 85" d="M7283.615,3759.941l-.023.034-.014-.039Z" transform="translate(-78.666 -88.868)" fill="#1d1d1d"/>
    <path id="Path_86" data-name="Path 86" d="M7279.715,3760.186l.077.017-.081-.011Z" transform="translate(-75.916 -89.046)" fill="#1d1d1d"/>
    <path id="Path_87" data-name="Path 87" d="M7276.351,3762.655l.028-.043.017.049Z" transform="translate(-73.525 -90.772)" fill="#1d1d1d"/>
    <path id="Path_88" data-name="Path 88" d="M7357.811,3750.559l-.12.021.114-.022Z" transform="translate(-131.381 -82.198)" fill="#1d1d1d"/>
  </g>
</svg>
