<svg xmlns="http://www.w3.org/2000/svg" width="72.521" height="67.219" viewBox="0 0 72.521 67.219">
  <g id="Lines_in_Purple_2" data-name="Lines in Purple_2" transform="translate(-8261.636 -3602.067)" opacity="0.701">
    <path id="Path_332" data-name="Path 332" d="M8334.033,3613.522a.38.38,0,0,0-.182-.251,3.859,3.859,0,0,0-1.451-.556,1.2,1.2,0,0,0-1.385.856c-.022.072-.039.146-.069.261a6.039,6.039,0,0,1-.187-1.119,4.01,4.01,0,0,0-.527-1.842c-.263-.149-.475-.277-.694-.391a1.418,1.418,0,0,0-.977-.111.766.766,0,0,0-.66.635,5.05,5.05,0,0,1-.134.782,39.66,39.66,0,0,1-1.348,4.322,2.915,2.915,0,0,0-.194.689c-.1.514-.184,1.032-.285,1.546a3.766,3.766,0,0,1-.19.49,10.488,10.488,0,0,1-.308-2.7c.027-.736-.021-1.477.02-2.215a1.49,1.49,0,0,0,0-.238.961.961,0,0,0-.527-.76,2.253,2.253,0,0,0-1.534-.223c-.4.063-.519.191-.584.569s-.123.781-.206,1.312a7.436,7.436,0,0,1-.383-1.318c-.111-.652-.2-1.311-.369-1.95a1.69,1.69,0,0,0-2.232-1.094.775.775,0,0,0-.353.313,1.155,1.155,0,0,0-.126.455,40.552,40.552,0,0,1-.642,4.356c-.093.386-.124.784-.2,1.173-.028.141-.051.318-.326.313-.08-.209-.148-.434-.252-.644a8.578,8.578,0,0,1-.763-2.17,4.73,4.73,0,0,0-.3-.792,7.288,7.288,0,0,1-.748-.275,2.3,2.3,0,0,0-1.232-.116.822.822,0,0,0-.822.84c-.084,1.424-.333,2.836-.349,4.265,0,.342.065.686.044,1.025-.05.763-.135,1.523-.211,2.284a2.415,2.415,0,0,1-.117.385c-.105-.348-.193-.571-.237-.8-.153-.8-.261-1.618-.438-2.418a46.1,46.1,0,0,1-.816-5.17,10.9,10.9,0,0,0-.469-2.559,1.316,1.316,0,0,0-1.021-1,3,3,0,0,0-1.557-.028c-.439.118-.6.328-.528.763a13.678,13.678,0,0,1,.1,1.968c.027,1.456-.187,2.9-.18,4.353a.811.811,0,0,1-.247.684,1.847,1.847,0,0,1-.465.023,2.38,2.38,0,0,0-.987.116.551.551,0,0,0-.518.616c0,.079.008.158.011.238.019.713.06,1.427.051,2.14-.024,1.9-.067,3.806-.108,5.708-.022,1.031-.1,2.063-.074,3.093.021,1.053-.156,2.1-.041,3.154a.975.975,0,0,1-.016.158,23.545,23.545,0,0,0-.105,2.91,2.578,2.578,0,0,1-.031.395c-.045.6-.1,1.207-.133,1.812a3.69,3.69,0,0,0,.306,1.857,1.5,1.5,0,0,1,.068.266.945.945,0,0,0-.388.965,4.053,4.053,0,0,0,.008.476,5.1,5.1,0,0,1,0,1.5c-.059.5.138.981.034,1.493a1.015,1.015,0,0,0,.205,1.048.316.316,0,0,1,.012.292c-.127.256.124.463.08.689-.049.255-.177.5-.233.752a1.449,1.449,0,0,0,.048.39,4.663,4.663,0,0,1,.022,1.567,1,1,0,0,0,0,.471,6.74,6.74,0,0,1,.084,1.554,5.4,5.4,0,0,0,.132,1.413c.1.343.026.694.135,1a2.518,2.518,0,0,1,.063,1.013,1.614,1.614,0,0,0,.023.236,5.273,5.273,0,0,0,.287,1.551c.02.046-.05.125-.084.2l-.334-.167c-.015-.193.032-.4-.051-.471s-.209-.111-.236-.27c-.057-.338-.156-.669-.223-1.006a3.593,3.593,0,0,1-.162-1.09,4.092,4.092,0,0,0-.391-2.155.627.627,0,0,1-.075-.3,5.433,5.433,0,0,0-.143-1.325,2.839,2.839,0,0,1-.093-1.172c.032-.107-.068-.248-.1-.375a3.6,3.6,0,0,1-.094-.462c-.075-.757-.144-1.514-.211-2.272a2.307,2.307,0,0,1-.013-.394,6.712,6.712,0,0,0-.2-2.123,6.354,6.354,0,0,1-.172-1.963,9.1,9.1,0,0,0-.076-2.354,2.758,2.758,0,0,1-.028-.939,6.539,6.539,0,0,0-.052-2.106.427.427,0,0,0-.255-.376c-.265-.115-.146-.374-.2-.566a.366.366,0,0,1,.1-.42c.246-.006.092.262.316.226a4.786,4.786,0,0,0,.111-1.494,12.847,12.847,0,0,0,.142-2.592,1.026,1.026,0,0,1,.056-.311,25.052,25.052,0,0,1,.3-2.669c.021-.07-.023-.156-.023-.234,0-.342-.008-.684.017-1.024.03-.422.123-.842.133-1.263.032-1.355.463-2.654.6-3.993.008-.078.041-.154.057-.232.139-.672.279-1.344.41-2.018.105-.544.189-1.093.3-1.636.058-.284.17-.558.23-.842.168-.8.309-1.609.483-2.41.276-1.266.575-2.528.853-3.793a2.324,2.324,0,0,0,.006-.506,2.032,2.032,0,0,0-1.777-.606.619.619,0,0,1-.374-.13c-.139-.086-.242-.222-.379-.311a.943.943,0,0,0-1.47.452c-.107.3-.176.612-.262.919a2.139,2.139,0,0,1-.363.862,9.468,9.468,0,0,0-.986-.154.929.929,0,0,1-.724-.333,1.2,1.2,0,0,0-1.21-.352c-.406.057-.811.139-1.264.218,0-.314,0-.6,0-.891,0-.211,0-.423.013-.634a1.221,1.221,0,0,0-1.018-1.1.919.919,0,0,0-1.084.531,2.649,2.649,0,0,0-.091.3c-.124.379-.251.757-.374,1.136a8.648,8.648,0,0,0-.5,1.755,4.3,4.3,0,0,1-.325.978c-.014.039-.078.061-.131.1-.225-.206-.1-.446-.064-.667q.281-1.925.58-3.847a1.2,1.2,0,0,0-.6-1.359c-.753-.454-1.448-.3-1.729.5a6.737,6.737,0,0,1-.528,1.072c-.526.936-.888,1.938-1.315,2.915a4.686,4.686,0,0,0-.158.533c-.179.609-.354,1.219-.54,1.826-.085.277-.187.55-.291.822s-.216.53-.32.8c-.368.942-.732,1.885-1.105,2.825-.026.064-.1.11-.159.163a1.387,1.387,0,0,1-.158-.8c.14-1.313.24-2.63.354-3.945.137-1.579.275-3.159.4-4.739a1.058,1.058,0,0,0-.092-.536,1.479,1.479,0,0,0-1.439-.752c-.3.027-.464.136-.518.426-.077.417-.116.839-.178,1.258-.064.443-.127.887-.206,1.328-.1.546-.207,1.09-.319,1.633a10.483,10.483,0,0,1-.66,2.614.752.752,0,0,0-.1.3,18.111,18.111,0,0,1-.524,2.875c-.021.112-.007.275-.253.32.037-.33.068-.642.111-.952.1-.732.247-1.461.3-2.2a23.518,23.518,0,0,1,.553-3.6.9.9,0,0,0-.187-.816.967.967,0,0,0-1.717.2c-.086.194-.139.4-.207.6a21.375,21.375,0,0,0-.848,4.442c-.091.76-.118,1.528-.208,2.289-.117,1-.285,1.986-.4,2.981-.091.787-.07,1.589-.215,2.365s-.131,1.568-.229,2.349a29.073,29.073,0,0,0-.3,3.626c0,.157-.071.316-.056.469.043.435-.288.805-.242,1.223a3.462,3.462,0,0,1-.245,1.388c-.028.094-.052.188-.074.271l.246.134a2.627,2.627,0,0,0-.212,2.3,9.19,9.19,0,0,0-.455,1.357c-.113.674-.146,1.361-.192,2.044a7.56,7.56,0,0,1-.42,1.674c0,.012-.047.014-.094.026,0-.23-.007-.455,0-.68a13.67,13.67,0,0,1,.08-1.577,10.024,10.024,0,0,0,.15-2.281,16.584,16.584,0,0,1,.1-1.866,8.769,8.769,0,0,0-.043-1.714,3.071,3.071,0,0,1,.04-.691c.334.013.221-.241.232-.386a10.031,10.031,0,0,0,.088-2.449c.237-1,.233-2.032.479-3.031a2.048,2.048,0,0,0,.048-1.1,1.679,1.679,0,0,1,.06-.935,9.663,9.663,0,0,0,.249-1.078c.227-1.571.431-3.145.654-4.716.089-.627.177-1.258.325-1.875.3-1.234.637-2.458.957-3.687a1.019,1.019,0,0,0-.584-1.246,2.349,2.349,0,0,1-.259-.218,1.232,1.232,0,0,0-.44-1.216.516.516,0,0,1-.15-.584,3.3,3.3,0,0,1,.21-.6c.324-.643.641-1.292,1.01-1.912a.8.8,0,0,0-.509-1.212,2.714,2.714,0,0,0-.7-.07,4.322,4.322,0,0,0-1.515,2.113,4.519,4.519,0,0,1-.227.511c-.275.607-.568,1.209-.818,1.825-.159.392-.213.826-.391,1.208a18.994,18.994,0,0,0-1.03,3.092c-.083.306-.214.6-.317.9a12.745,12.745,0,0,0-.54,1.659,7.141,7.141,0,0,1-.39,1.443,3.183,3.183,0,0,0-.227,1.079,1.772,1.772,0,0,1-.123.616c-.144.323-.1.71-.273.983-.216.351-.132.712-.22,1.059a2.7,2.7,0,0,1-.286.976,1.223,1.223,0,0,0-.115.459,10.256,10.256,0,0,1-.439,2.005,3.232,3.232,0,0,0-.2.916,5.539,5.539,0,0,1-.412,1.608,1.329,1.329,0,0,0-.1,1.078.5.5,0,0,1,0,.3c-.184.744-.385,1.484-.561,2.229a2.525,2.525,0,0,0-.016.551c0,.157.012.315,0,.472-.046.5-.075,1-.166,1.5a1.12,1.12,0,0,0,.163.768c-.178.135-.4.223-.4.478a31.01,31.01,0,0,1-.264,3.533c-.011.095.112.2.172.3-.125.087-.3.145-.335.245a2.156,2.156,0,0,0-.14,1.236,3.762,3.762,0,0,1,.045,1.168c-.02.611-.461,1.208-.076,1.833.011.018,0,.052-.007.078a7.529,7.529,0,0,0-.077,1.815,1.4,1.4,0,0,1-.084.691c-.163.3.134.676-.151.971-.007.007.075.073.091.12a.878.878,0,0,1,.094.36c-.047.364-.127.725-.2,1.087.341.3-.063.706.15,1.027-.115.4.1.84-.181,1.222a.7.7,0,0,0-.066.307c-.228,1.49-.444,2.981-.686,4.468a2.517,2.517,0,0,1-.242.89c-.217-.043-.231-.187-.246-.313-.044-.394-.087-.789-.107-1.184a54.372,54.372,0,0,1-.12-5.782c.068-1.239,0-2.484.044-3.725.043-1.212.126-2.425.233-3.634.121-1.342.265-2.683.444-4.019.19-1.415.421-2.826.66-4.234.275-1.619.563-3.236.878-4.848.2-1.035.465-2.06.7-3.09.307-1.366.584-2.74.922-4.1.448-1.8.938-3.589,1.419-5.381.1-.358.218-.71.343-1.06a9.31,9.31,0,0,0,.781-2.822.72.72,0,0,1,.031-.156c.221-.792.432-1.587.665-2.376a38.992,38.992,0,0,1,1.4-3.979,3.77,3.77,0,0,0,.18-.527.762.762,0,0,0-.566-.927c-.543-.184-.74-.112-1,.364-.053.094-.111.184-.158.279a33.327,33.327,0,0,0-1.744,4.5.372.372,0,0,1-.408.284,7.756,7.756,0,0,0,.594-1.847.626.626,0,0,0-.08-.527,1.293,1.293,0,0,0-1.145-.526.952.952,0,0,0-.859.651c-.116.295-.227.592-.334.89a12.265,12.265,0,0,0-.67,2.117,5.7,5.7,0,0,1-.18.69c-.562,1.848-1.121,3.7-1.7,5.542-.274.884-.58,1.759-.868,2.639a.289.289,0,0,1-.284.228c.215-1.087.432-2.17.654-3.282l-.194-.211a13,13,0,0,0,.475-1.418,17.558,17.558,0,0,1,.755-2.263c.295-.8.641-1.581.915-2.385.282-.827.7-1.6,1.021-2.411.469-1.184,1.1-2.311,1.67-3.457a3.1,3.1,0,0,0,.395-1.1.847.847,0,0,0-.109-.146,1.977,1.977,0,0,0-.207-.134.968.968,0,0,0-1.5.381,3.42,3.42,0,0,1-.2.349,16.1,16.1,0,0,0-1.411,2.6q-.945,2.073-1.8,4.181a57.562,57.562,0,0,0-2.432,6.827c-.082.3-.075.68-.266.9-.475.549-.329,1.257-.633,1.848-.146.283-.1.649-.294.964a5.922,5.922,0,0,0-.316.961c-.144.364-.11.782-.392,1.107-.052.06,0,.2.009.307q.012.189.026.378c-.316.022-.412-.047-.371-.249.228-1.115.434-2.235.694-3.342.431-1.829.9-3.652,1.353-5.475.115-.462.234-.926.393-1.376.456-1.3.732-2.654,1.3-3.924.391-.872.687-1.782,1.057-2.662.308-.733.665-1.447,1-2.171.15-.329.108-.5-.193-.676a6.249,6.249,0,0,0-.81-.408.608.608,0,0,0-.893.289c-.11.211-.225.42-.332.632a15.746,15.746,0,0,0-.783,1.575,39.252,39.252,0,0,0-1.939,5.895c-.307,1.528-.73,3.035-1.094,4.553-.16.669-.312,1.34-.443,2.014-.219,1.143-.423,2.288-.626,3.434q-.526,2.97-1.043,5.94a3.246,3.246,0,0,1-.237,1.6c-.085.414-.123.836-.185,1.255-.2,1.36-.413,2.718-.6,4.079-.141,1.048-.227,2.1-.37,3.15a30.4,30.4,0,0,0-.353,3.868c0,.132-.026.264-.034.4-.061.976-.13,1.952-.175,2.929a.729.729,0,0,0,.484.76,4.4,4.4,0,0,0,1.068.433c.333.047.448.207.379.505-.1.432.112.885-.121,1.3a.342.342,0,0,0,.011.234c.188.639.35,1.3,1.118,1.564a.908.908,0,0,1,.141.085,1.073,1.073,0,0,1,.576,1.133,2.99,2.99,0,0,1-.215.922,1.773,1.773,0,0,0-.107,1.005,4.652,4.652,0,0,0,.108.465c.053.254.161.492.221.747a1.473,1.473,0,0,0,2.259.728,2.5,2.5,0,0,0,.6-.65,10.114,10.114,0,0,0,.557-1.151c.1-.219.17-.447.251-.673.073-.2.144-.41.214-.61.332.654.018,1.376.381,2a.094.094,0,0,1,.006.078,3.922,3.922,0,0,0-.1,1.246,3.687,3.687,0,0,0,.107,1.248,2.517,2.517,0,0,1,.09.7,27.328,27.328,0,0,0,.026,2.926c.048.769.073.788.812,1.122a.834.834,0,0,0,.789,0,2.6,2.6,0,0,0,1.113-1.042,2.436,2.436,0,0,0,.393-.95c.006-.056.16-.1.246-.146.031.069.108.162.085.2a1.386,1.386,0,0,0-.026.925,3.807,3.807,0,0,1,.016,1.176c-.192.918,0,1.837-.135,2.742a5.448,5.448,0,0,0,.522.332c.194.1.405.158.592.228.137-.068.233-.118.333-.165.761-.361.836-.5.664-1.306-.022-.1-.062-.2-.078-.308a8.1,8.1,0,0,1-.19-1.33,17.118,17.118,0,0,1-.071-2.609,1.474,1.474,0,0,0-.045-.391,2.839,2.839,0,0,1-.042-.47c.041-.633.093-1.266.149-1.9a1.874,1.874,0,0,1,.116-.352c.128.123.237.18.261.259.043.149,0,.321.057.466a2.312,2.312,0,0,1,.068,1.405c-.021.083.037.186.066.281l-.013,0a.9.9,0,0,0,.01.9.605.605,0,0,1,.111.363,4.088,4.088,0,0,0-.007,1.482,8.227,8.227,0,0,0,.064,1.7,5.9,5.9,0,0,0,.146,2.115,3.157,3.157,0,0,1,.021.544c.832-.086,1.656-.228,2.479-.377a.649.649,0,0,1,.257-.326c.289-.2.605-.357.822-.481.389-.905.091-1.776.334-2.593a8.4,8.4,0,0,1,.13-2.355c.074-.814.129-1.63.2-2.443.047-.5.088-1,.184-1.489a6.654,6.654,0,0,0,.175-1.479,8.335,8.335,0,0,1,.146-1.5,1.779,1.779,0,0,1,.246-.487c-.071-.1-.2-.209-.2-.31a2.844,2.844,0,0,1,.131-.858,4.329,4.329,0,0,0,.186-1.406,3.924,3.924,0,0,1,.553-2.335.8.8,0,0,0,.025-.69l-.213.159c0-.347-.063-.674.16-.947.048-.058.217-.049.236-.1a.9.9,0,0,0,.037-.389,3.434,3.434,0,0,1,.146-1.458,14.1,14.1,0,0,0,.424-2.25c.178-1.176.328-2.356.5-3.532.234-1.595.479-3.188.721-4.782a4.464,4.464,0,0,0,.066-1.021,4.2,4.2,0,0,1,.075-.866c.067-.524.148-1.047.219-1.571.072-.55.137-1.1.205-1.652.046-.366.117-.731.131-1.1a4.464,4.464,0,0,1,.2-1.16,5.028,5.028,0,0,0,.306-1.3,9.358,9.358,0,0,1,.214-1.488,3.982,3.982,0,0,0,.121-.7,3.4,3.4,0,0,1,.209-1.005c.118-.377.21-.763.3-1.147.168-.7.341-1.39.485-2.09.046-.223.226-.269.374-.368a1.51,1.51,0,0,1,.266-1.571,4.42,4.42,0,0,1,.157.883c-.032,1.053-.1,2.106-.158,3.158-.019.343-.042.685-.062,1.027s-.045.683-.053,1.025a3.273,3.273,0,0,0,.024,1.1c.128.374-.075.663-.106.985a13.3,13.3,0,0,1-.174,2.6.553.553,0,0,0,.023.312,1.5,1.5,0,0,1-.13,1.161,3.449,3.449,0,0,0-.295,1.544,11.758,11.758,0,0,1-.27,2.116,18.422,18.422,0,0,0-.426,2.881,3.823,3.823,0,0,1-.176.765c-.057.23-.136.457-.175.69a18.414,18.414,0,0,1-.373,2.5,1.259,1.259,0,0,0-.053.313,4.539,4.539,0,0,1-.312,1.63,2.445,2.445,0,0,0-.09.776,6.223,6.223,0,0,1-.023.7c-.088.494-.213.983-.314,1.475-.054.258-.092.519-.135.779s-.088.518-.121.778a8.527,8.527,0,0,0-.322,1.55,2.236,2.236,0,0,1-.2,1.162,1.281,1.281,0,0,0-.048.619,15.524,15.524,0,0,1-.261,2.186,2.646,2.646,0,0,1-.246.811c-.141.32-.01.623-.009.934a2.909,2.909,0,0,1-.108.62,7.194,7.194,0,0,0-.289,1.316,14.269,14.269,0,0,1-.209,1.722c-.076.5-.125.993-.173,1.492a48.182,48.182,0,0,0,.012,5.443c.086.067.152.115.214.168a1.107,1.107,0,0,0,1.364.135,1.284,1.284,0,0,0,.717-1c.146-.754.243-1.516.349-2.276.091-.654.163-1.311.246-1.966.023-.184.073-.365.078-.549a15.226,15.226,0,0,1,.307-2.745,20.17,20.17,0,0,0,.265-2.2c.063-.6.088-1.213.161-1.816.161-1.336.342-2.67.516-4a6.95,6.95,0,0,0,.108-.782,26.869,26.869,0,0,1,.4-3.456,1.416,1.416,0,0,0,.067-.466,3.079,3.079,0,0,1,.1-1.256,8.91,8.91,0,0,0,.159-1.414,10.2,10.2,0,0,1,.2-1.492,4.819,4.819,0,0,0,.13-1.568.852.852,0,0,1,.036-.39,8.712,8.712,0,0,0,.294-2.276c.012-.185.017-.37.035-.554q.308-3.078.622-6.157c.026-.261.092-.519.132-.779a11.088,11.088,0,0,0,.183-1.332,3.208,3.208,0,0,1,.3-1.533.885.885,0,0,0,.048-.533,1.555,1.555,0,0,1,.041-.78,7.615,7.615,0,0,0,.241-.836.642.642,0,0,1,.328-.516.6.6,0,0,0,.3-.344c.076-.4.339-.766.1-1.216-.126-.236.233-.078.382-.246.136-.692.651-1.374.513-2.188a1.475,1.475,0,0,0,.683-1.07,21.9,21.9,0,0,1,1.216-3.119c.1-.246.217-.487.342-.723.056-.107.116-.243.295-.191.013.027.035.053.033.076-.109,1-.2,2-.338,3a17.076,17.076,0,0,1-.353,2.985,1.634,1.634,0,0,0-.026.393,9.9,9.9,0,0,1-.082,1.344,16.4,16.4,0,0,0-.236,2.046c-.062.974-.151,1.946-.251,2.917a6.693,6.693,0,0,0-.2,1.711,3.453,3.453,0,0,0-.105,1.815c-.209.71-.671,1.239-.375,1.917.019.043.033.115.009.144-.257.311-.123.669-.118,1,0,.355-.272.694-.056,1.057.018.03-.022.1-.055.144-.365.484-.093,1.153-.523,1.619a.183.183,0,0,0-.021.154,1.91,1.91,0,0,1-.157,1.231,1.423,1.423,0,0,0-.012.388,2.745,2.745,0,0,1-.033.539,16.57,16.57,0,0,0-.419,2.25c-.081.782-.289,1.552-.415,2.33a10.567,10.567,0,0,0-.213,1.877,2.431,2.431,0,0,1-.144,1,2.225,2.225,0,0,0-.141.454q-.321,2.037-.629,4.076c-.013.078-.033.156-.039.235-.02.3-.01.308.46.7a3.657,3.657,0,0,1,.315.339l-.154.106,0,0c-.411.07-.365.459-.537.618.095.2.251.375.207.463a2.646,2.646,0,0,0-.118,1.13l.56.008c-.006-.048-.028-.1-.014-.141s.068-.049.1-.073a.538.538,0,0,1,.041.168c0,.019-.087.032-.134.047l-.545-.008a5.953,5.953,0,0,1-.43,2.046c-.09.008-.171.022-.252.022s-.207-.11-.276.038c.031.344.437.519.5.932l-.564-.184a2.3,2.3,0,0,0-.339,1.174,5.377,5.377,0,0,1-.135,1.1,3.287,3.287,0,0,0-.13,1.092,4.5,4.5,0,0,1-.214,1.4,9.314,9.314,0,0,0-.262,1.477.948.948,0,0,0,.468.955.907.907,0,0,0,1-.1c.219-.121.457-.2.543-.453.16-.475.326-.948.477-1.426a6.721,6.721,0,0,1,.5-1.643.568.568,0,0,0,.029-.535.752.752,0,0,1-.06-.381,21.879,21.879,0,0,1,.3-2.736,2.574,2.574,0,0,0,.021-.622c.015-.312.047-.625.051-.937a15.27,15.27,0,0,0,.3-2.336,1.014,1.014,0,0,1,.063-.611,1.855,1.855,0,0,0,.146-1.079c-.02-.679.221-1.337.137-2.019-.018-.138.111-.291.166-.439.035-.1.1-.212.074-.292-.153-.42.039-.831.016-1.248a5.411,5.411,0,0,1,.078-1.4,7.181,7.181,0,0,0,.218-1.641c0-.051.127-.1.208-.157.01.067.019.134.027.2.063-.033.175-.057.182-.1.064-.39.105-.783.163-1.173.09-.6.192-1.193.28-1.79.068-.467.1-.94.193-1.4a1.048,1.048,0,0,0-.17-1.037c-.144-.158-.066-.354.117-.48.088-.061.188-.107.275-.156.161-1.023.322-2.035.479-3.048a1.424,1.424,0,0,0,.036-.469,1.939,1.939,0,0,0-.185-.433c.093-.191.159-.33.227-.469l-.006-.007a4.257,4.257,0,0,0,.184-.4,8.6,8.6,0,0,0,.149-1.49c.169-1.014.4-2.02.583-3.033.074-.415.091-.839.131-1.26a5.169,5.169,0,0,1,.049-.552c.393-1.843.335-3.735.675-5.584a16.375,16.375,0,0,1,.35-2.746,4.9,4.9,0,0,1,.245-.831h0c.107-.1.22-.207.318-.32s0-.333.3-.352a2.168,2.168,0,0,1,.028.368q-.1,1.106-.21,2.211c-.2,1.947-.4,3.893-.595,5.84-.088.895-.145,1.792-.219,2.688-.088,1.047-.223,2.094-.249,3.143a3.715,3.715,0,0,1-.2,1.311,1.8,1.8,0,0,0-.019,1.094.367.367,0,0,0,.344.3c.139.014.278.011.418.015l-.009-.157.012.152c0,.2-.112.249-.317.267-.351.031-.4.085-.418.365-.02.365,0,.73,0,1.123.1.145.4.159.41.423l-.022.284-.045-.008c.021-.093.044-.186.066-.28-.107,0-.215.011-.322.017l0,.019c-.024-.009-.049-.018-.064-.011a.644.644,0,0,0-.417.694c.011.126.05.286-.012.377a1.105,1.105,0,0,0-.145.907,2.206,2.206,0,0,1-.031.628,11.9,11.9,0,0,0-.252,1.538c-.219.26.09.426.136.671-.071.059-.21.116-.228.2-.074.353-.113.712-.164,1.069-.018.126.014.283-.056.374a.769.769,0,0,0-.087.754,1.3,1.3,0,0,1-.154,1.141,1.529,1.529,0,0,0-.234,1.059,3.269,3.269,0,0,1-.089,1.022,21.628,21.628,0,0,1-.461,2.326,5.572,5.572,0,0,0-.142,1.1c-.021.183-.033.368-.061.551-.154,1.017-.309,2.034-.471,3.05-.059.363-.14.723-.209,1.085-.019.1-.033.207-.047.311-.1.728-.208,1.455-.3,2.184-.1.809-.188,1.618-.28,2.428,0,.026,0,.053,0,.079q-.05,1.541-.1,3.081a1.747,1.747,0,0,0-.021.395,6.717,6.717,0,0,1-.086,1.963,5.206,5.206,0,0,0,.055,1.181.72.72,0,0,0,.654.636,3.885,3.885,0,0,1,1.166.407,1.2,1.2,0,0,0,.969.1,2.814,2.814,0,0,0,1.012-.54,2.274,2.274,0,0,1,.316-.256.253.253,0,0,1,.343.122,4.169,4.169,0,0,1,.112.625q.051.791.069,1.584a2.262,2.262,0,0,0,.286,1.253l.635.272.874-.511c.008-.115.016-.218.021-.322.033-.737.034-1.478.111-2.211a1.823,1.823,0,0,0-.148-1.229.45.45,0,0,1,.016-.589.292.292,0,0,0,.081-.358,1.068,1.068,0,0,1,0-.774c.046-.253.2-.5,0-.756-.038-.049-.017-.157.009-.228a3.7,3.7,0,0,1,.172-.358c.063-.132-.056-.33.161-.408.348.35.344.351.351.649a4.289,4.289,0,0,0,.039.461c.032.233.085.463.109.7.063.6.085,1.214.181,1.814a1.5,1.5,0,0,0,.664,1.219,2.533,2.533,0,0,1,.493.532c.313.338.623.677.944,1.007a1.8,1.8,0,0,0,.939.488.425.425,0,0,0,.316-.034c.344-.319.927-.417,1.013-.976l-.431-.52a1.448,1.448,0,0,1-.2.241.759.759,0,0,1-1.205-.171,1.7,1.7,0,0,1-.1-.217,3.289,3.289,0,0,1-.4-1.834,3.516,3.516,0,0,0-.027-.553c-.025-.553-.074-1.106-.072-1.659q.006-2.1.052-4.2c.016-.683-.089-1.359-.027-2.046.065-.734-.017-1.481.058-2.214a12.61,12.61,0,0,0-.032-2.367,3.419,3.419,0,0,1,.035-.622c.028-.308.174-.618-.024-.919a1.811,1.811,0,0,0,.119-.6,12.384,12.384,0,0,1,0-2.762,10.244,10.244,0,0,1,.073-1.8,1.561,1.561,0,0,0,.012-.395c-.014-.816-.032-1.633-.041-2.45-.01-.947-.012-1.895-.016-2.842a.87.87,0,0,1,.029-.387,2.881,2.881,0,0,0,.234-1.314,7.285,7.285,0,0,1,.2-1.325c.072-.336.116-.677.173-1.016.044-.26.1-.517.131-.778a6.353,6.353,0,0,1,.463-1.837.451.451,0,0,0,.038-.231,14.632,14.632,0,0,1,.249-2.2.958.958,0,0,1,.434-.751,1.31,1.31,0,0,1,.146,1.025,1.723,1.723,0,0,0-.074.7,1.872,1.872,0,0,1-.083,1.076,1.117,1.117,0,0,0-.06.39,7.518,7.518,0,0,1-.079,1.72.3.3,0,0,0,0,.157,1.76,1.76,0,0,1-.09,1.382c0,.735-.014,1.471.029,2.2a1.844,1.844,0,0,1-.029.612,9.879,9.879,0,0,0-.143,2.2.223.223,0,0,0,.051.148.859.859,0,0,1,.121.826,7.59,7.59,0,0,0-.087.787,3.345,3.345,0,0,1-.085,1.168.861.861,0,0,0,.056.688,3.419,3.419,0,0,1,.26,1.433c.018.127-.021.293.052.374a.845.845,0,0,1,.088.9,1.01,1.01,0,0,0-.01.7,4.32,4.32,0,0,1,.247,1.386l-.018.084s.006-.046.013-.089c-.146.085-.286.181-.248.37s.084.36.137.537a.971.971,0,0,1-.082.841,1.059,1.059,0,0,0,.035,1.262.37.37,0,0,1,.051.442c-.034.053-.047.181-.016.2a.48.48,0,0,1,.184.738.253.253,0,0,0,.037.223,1.014,1.014,0,0,1,.09.836c-.057.293-.021.385.163.8.045-.487.112-.927.118-1.369a3.355,3.355,0,0,1,.074-1.324,1.5,1.5,0,0,0,.656,1.217c.058-.054.108-.128.178-.15s.2.023.2.047a.733.733,0,0,1-.042.292c0,.017-.1,0-.152.015-.375.092-.477.217-.434.535.011.078.036.155.052.233.078.387.151.775.232,1.162a5.1,5.1,0,0,0,.415,1.445,1.1,1.1,0,0,1,.149.683,2.2,2.2,0,0,0,.327,1.5,1.036,1.036,0,0,1,.185.437,4.738,4.738,0,0,0,.461,1.673,6.445,6.445,0,0,0,1.105,1.848,1.315,1.315,0,0,0,1.05.546,2.231,2.231,0,0,0,1.139-.188c.645-.311,1.286-.629,1.928-.945a.8.8,0,0,0,.47-.62,2.713,2.713,0,0,0,.051-.708c-.055-.5-.15-.994-.227-1.491-.041-.259-.086-.519-.112-.78-.045-.446-.081-.894-.114-1.341-.084-1.159-.172-2.318-.244-3.477-.031-.5.023-1.009-.053-1.5a9.615,9.615,0,0,1-.039-2.132,8.985,8.985,0,0,0-.038-1.5,1.9,1.9,0,0,1,0-.7,1.765,1.765,0,0,0,.033-.472c-.019-1.427-.043-2.855-.059-4.282-.015-1.321-.028-2.642-.026-3.963,0-.9.021-1.8.051-2.695.021-.607.088-1.213.109-1.821.076-2.272.135-4.545.217-6.817.043-1.161.119-2.321.188-3.481,0-.059.073-.115.164-.25a2.419,2.419,0,0,1,.139.426c.066.655.246,1.293.275,1.957.029.685.145,1.366.224,2.049a2.091,2.091,0,0,1,.063.628c-.081.37.14.59.405.814a.465.465,0,0,0-.281.634,3.283,3.283,0,0,1,.179,1.7,1.459,1.459,0,0,0,.392,1.451l-.17.232c.1.141.2.289.3.426-.256.4-.271.409-.179.672a1.016,1.016,0,0,1,.028.619,1.463,1.463,0,0,0-.034.549c.065.492-.12,1,.1,1.482.039.086-.014.208-.018.314-.026.6-.049,1.208-.075,1.812-.04.923-.063,1.847-.128,2.769-.056.789-.164,1.574-.238,2.362-.056.579-.09,1.16-.142,1.74-.069.763-.153,1.525-.219,2.289-.054.6-.057,1.213-.139,1.813a31.043,31.043,0,0,0-.169,4.354,2.926,2.926,0,0,0,.059.552.564.564,0,0,0,.415.459,1.132,1.132,0,0,0,.1-.214,15.669,15.669,0,0,0,.395-2.981,6.966,6.966,0,0,1,.03-.949,23.457,23.457,0,0,0,.406-3.3,3.1,3.1,0,0,1,.649-1.875c.074.4.148.753.193,1.1a1.414,1.414,0,0,1-.072.4l-.424-.229c.02.429.038.833.057,1.237.026.607.071,1.214.074,1.821,0,.553-.038,1.106-.066,1.659-.009.183-.039.365-.057.548-.041.447-.091.893-.116,1.341-.04.685-.1,1.373-.08,2.057a10.368,10.368,0,0,0-.081,2.442c.038.143-.1.34-.187.5-.04.071-.155.1-.233.153-.363-.47-.167-1.065-.6-1.643-.1.565.054.982-.017,1.385s-.171.81-.267,1.256a4.731,4.731,0,0,0,.855.361.744.744,0,0,1,.607.668,1.832,1.832,0,0,1,.02.395c0,.291-.006.582,0,.873a.7.7,0,0,0,.471.687c.128.05.249.114.35.16a3.977,3.977,0,0,0,.605-.094,1.727,1.727,0,0,0,1.224-.872,16.208,16.208,0,0,0,.9-2.375c.065-.257.111-.522-.187-.7.124.022.251.042.387.064a2.461,2.461,0,0,1,.083.413c.012.9.039,1.8.011,2.695a19.323,19.323,0,0,0,.2,3.873c.121.7.245,1.406.384,2.106a.555.555,0,0,0,.21.33,1.466,1.466,0,0,0,1.007.323,3.111,3.111,0,0,0,2.4-1.4c.345-.573.693-1.145,1.01-1.732a1.778,1.778,0,0,0,.325-.971c0-.051,0-.13.028-.151.366-.24.287-.661.455-.979a3.213,3.213,0,0,1,.379-.607,3.268,3.268,0,0,1,1.248-1.017c.123-.675.243-1.325.357-1.976.055-.312.095-.626.147-.939.153-.913.353-1.821.449-2.74a17.289,17.289,0,0,1,.431-2.415,3.636,3.636,0,0,0,.141-.618,23.936,23.936,0,0,1,.7-3.977,1.469,1.469,0,0,0,.015-.468,2.323,2.323,0,0,1,.136-.93,3.941,3.941,0,0,0,.07-.929c0-.024.022-.048.032-.072a6.432,6.432,0,0,0,.394-1.843,20.726,20.726,0,0,0,.4-2.332.547.547,0,0,1,.051-.151c.2-.68.412-1.36.609-2.042a.667.667,0,0,0,.023-.384c-.154-.419.041-.827.024-1.242a1.784,1.784,0,0,1,.265-.735c.047-.1.1-.268.326-.182a1.994,1.994,0,0,1,.072.368c.01,1.055.021,2.11.006,3.166a4.981,4.981,0,0,1-.162.773,3.786,3.786,0,0,0-.017.4c-.065.868.044,1.739-.061,2.609a12.13,12.13,0,0,0-.127,1.9,18.582,18.582,0,0,1-.12,2.769c-.182,1.629-.348,3.26-.566,4.884-.166,1.231-.412,2.453-.605,3.681-.135.862-.233,1.73-.36,2.594a.871.871,0,0,0,.428.957l.315.193c.233-.032.428-.043.611-.088.517-.127,1.021-.275,1.177-.858.04-.152.135-.291.18-.442.286-.967.6-1.927.835-2.906a5.9,5.9,0,0,0,.416-2.092,1.22,1.22,0,0,1,.174-.521,5.4,5.4,0,0,0,.455-1.6,6.033,6.033,0,0,1,.276-1.388,9.241,9.241,0,0,0,.372-1.7c.1-.757.115-1.523.188-2.283a2.939,2.939,0,0,1,.233-1.237,1.14,1.14,0,0,0,.076-.466,31.981,31.981,0,0,1,.447-4.239c.106-1.185.194-2.371.271-3.557.028-.419.053-.84.07-1.255.025-.591.339-1.187.031-1.788-.038-.073.018-.209.066-.3a.721.721,0,0,0,.066-.533,1.535,1.535,0,0,1,.01-.462,3.422,3.422,0,0,0,.064-.784,9.775,9.775,0,0,1,.018-1.494c0-.314.113-.628.118-.942.017-1.136.081-2.272.089-3.405.008-1.27.065-2.533.159-3.8.023-.315,0-.634.021-.949.076-1.081.2-2.159.24-3.241.076-1.9.119-3.806.155-5.71A7.173,7.173,0,0,0,8334.033,3613.522Zm-67.66,20.534c.006-.005.06.019.063.036a.214.214,0,0,1,.007.143,2.168,2.168,0,0,1-.174.226.875.875,0,0,1-.033-.257C8266.242,3634.15,8266.322,3634.1,8266.373,3634.057Zm.1,2.286a2.691,2.691,0,0,0-.133.447c-.027.465-.481.822-.287,1.365.148.416-.239.856-.129,1.312a.846.846,0,0,0-.056.737c.026.11-.071.248-.114.372a1.784,1.784,0,0,0-.143,1.007.549.549,0,0,1-.037.307c-.047.122-.117.248-.3.219a.253.253,0,0,1-.243-.27c.021-.527.044-1.054.08-1.581.02-.289.092-.576.1-.864a16.082,16.082,0,0,1,.586-3.752c.076-.306.163-.612.267-.91.028-.082.119-.145.19-.214.018.366.031.729.046,1.091l0-.006A.737.737,0,0,1,8266.477,3636.343Zm.1-3.015c-.021.008-.07-.045-.106-.071.031-.038.057-.088.1-.106.019-.009.068.047.1.073C8266.636,3633.261,8266.611,3633.313,8266.572,3633.328Zm9.025-23.636a4.153,4.153,0,0,0,.067-.433c.165.567.159.578-.125.921C8275.382,3609.99,8275.562,3609.849,8275.6,3609.692Zm-5.378,9.666-.063.007c0-.088,0-.176,0-.268C8270.176,3619.185,8270.2,3619.271,8270.22,3619.358Zm-1.459,6.082a.782.782,0,0,1,.065.1s-.041.043-.054.039a.7.7,0,0,1-.112-.062Zm-1.269,4.052c.053-.1.152-.171.267-.1.053.034.1.155.079.2a1.064,1.064,0,0,0-.22.723c.011.076-.181.178-.309.3A1.525,1.525,0,0,1,8267.492,3629.492Zm-.5,1.959c.039-.054.087-.1.188-.218a1.308,1.308,0,0,1-.053.275c-.008.019-.088.009-.135.012C8266.989,3631.5,8266.979,3631.466,8266.99,3631.451Zm-.212.742a1.864,1.864,0,0,1,.073-.2c.055.053.112.083.111.113a.182.182,0,0,1-.072.125C8266.872,3632.243,8266.777,3632.2,8266.778,3632.193Zm3.241,3.79a1.953,1.953,0,0,1-.123.618c-.2.9-.46,1.8-.571,2.711-.121.994-.33,1.972-.461,2.964-.106.807-.309,1.6-.458,2.4a11.131,11.131,0,0,1-.207,1.243c-.133.429-.225.862-.316,1.3a1.792,1.792,0,0,0-.081.467,9.457,9.457,0,0,1-.641,2.676l-.165-.006a2.457,2.457,0,0,1-.094-.522c.059-1.5-.035-3.013.127-4.516.136-1.262.215-2.53.353-3.791.142-1.287.339-2.569.485-3.855.16-1.392.5-2.755.717-4.137.135-.859.4-1.7.614-2.548.142-.564.294-1.126.435-1.69.3-1.181.553-2.373.893-3.543.412-1.426.9-2.832,1.34-4.25.457-1.468.865-2.951,1.359-4.408.365-1.079.666-2.175,1.023-3.255.291-.879.57-1.764.878-2.638a2.578,2.578,0,0,1,.176-.336c.226.02.29.144.2.272a2.289,2.289,0,0,0-.341,1.047,2.947,2.947,0,0,1-.166.53,2.377,2.377,0,0,0-.144.453,1.369,1.369,0,0,1-.351,1.012,10.564,10.564,0,0,0-.29,1.468,4.088,4.088,0,0,1-.148,1.013c-.232.731-.5,1.453-.723,2.185a2.636,2.636,0,0,0-.083.7c-.009.289.034.574-.234.805a.586.586,0,0,0-.122.368c-.088,1.022-.461,2-.566,3.014-.008.077,0,.177-.045.227-.341.372-.282.834-.367,1.272a23.366,23.366,0,0,1-.53,2.8.986.986,0,0,0-.052.7.383.383,0,0,1-.016.3,3.979,3.979,0,0,0-.408,1.525c-.191,1.194-.377,2.388-.685,3.562C8270.285,3634.75,8269.933,3635.339,8270.02,3635.982Zm4.5,13.289c-.027-.2-.041-.276-.045-.348,0-.022.02-.045.03-.068.031.027.089.054.088.08A2.082,2.082,0,0,1,8274.518,3649.271Zm.916,8.3a.861.861,0,0,1,.078-.043c.009,0,.029.018.045.028Zm.41-5.421c-.02-.04-.055-.08-.053-.119s.047-.064.072-.1c.021.04.058.081.055.12S8275.871,3652.119,8275.844,3652.151Zm.087-4.079c-.029.007-.073-.048-.11-.075l.084-.112.116.084C8275.991,3648.006,8275.967,3648.063,8275.931,3648.072Zm-.021-.644a.315.315,0,0,1-.275.036c-.137-.1.021-.159.08-.219a2.9,2.9,0,0,1,.381-.228C8275.988,3647.268,8275.976,3647.381,8275.91,3647.428Zm2.271-15.317.066.09c-.023.029-.049.057-.072.085a.806.806,0,0,1-.032-.124C8278.142,3632.146,8278.168,3632.127,8278.182,3632.11Zm-1.428,20.015c0,.069-.064.135-.168.336a6.831,6.831,0,0,1,.056-2.866c.154-.028.192.07.2.178s-.059.219-.029.313A5.37,5.37,0,0,1,8276.754,3652.125Zm1.5-18.22c-.111.782-.093,1.571-.165,2.354-.01.1,0,.239-.059.3-.277.266-.209.584-.2.9a4.3,4.3,0,0,1,.011.943c-.05.27.136.372.259.532a2.941,2.941,0,0,0-.271.3.408.408,0,0,0-.041.517.612.612,0,0,1,0,.744,2.311,2.311,0,0,0-.272,1.369,3.044,3.044,0,0,1-.1.938,2.823,2.823,0,0,0-.078.929c.053.814.1,1.629.137,2.443a1.111,1.111,0,0,1-.074.454,2.075,2.075,0,0,0-.107,1.7c-.183.243-.355.477-.533.708-.011.014-.051.009-.138.023a1.8,1.8,0,0,1-.147-.956,4.848,4.848,0,0,0,.013-.944,10.082,10.082,0,0,1,.053-1.027,9.759,9.759,0,0,0,.067-1.024c-.011-.309.268-.585.085-.917-.031-.055.116-.218.205-.311.341-.355.316-.528-.146-.858.014-.57-.014-1.15.047-1.722a39.082,39.082,0,0,1,.443-4.329,9.188,9.188,0,0,0,.078-1.105,3.326,3.326,0,0,1,.123-.776,5.436,5.436,0,0,0,.375-1.845.4.4,0,0,1,.081-.216.19.19,0,0,1,.145-.053c.048,0,.129.041.134.069A3.387,3.387,0,0,1,8278.251,3633.906Zm.183-4.483-.1-.142a1.091,1.091,0,0,1,.194-.091c.013,0,.082.1.071.113A.841.841,0,0,1,8278.434,3629.422Zm5.971,22.077a.881.881,0,0,1-.078-.172c0-.012.077-.042.119-.063l.059.132Zm4.059-32.488a.86.86,0,0,1-.108,0c.009-.069.018-.138.029-.207a.621.621,0,0,1,.083,0A2.016,2.016,0,0,1,8288.463,3619.011Zm.049-1.055c-.028,0-.083-.061-.078-.087a.154.154,0,0,1,.092-.092.351.351,0,0,1,.128-.009.279.279,0,0,1-.026.12A.163.163,0,0,1,8288.512,3617.956Zm1.272-.453c-.014-.055-.027-.109-.042-.164l0,0,.053.164Zm-.03-.176c.1-.1.114-.281.308-.269A.357.357,0,0,1,8289.754,3617.326Zm-1.062,31.612a1.439,1.439,0,0,1-.012-.284l.419.318C8288.846,3649.131,8288.735,3649.118,8288.691,3648.938Zm.566-.9c-.055-.033-.142-.057-.154-.1s.031-.122.055-.191c.063.039.133.061.134.086A.844.844,0,0,1,8289.258,3648.04Zm.187-3.5a.287.287,0,0,1-.062-.007c.01-.045.019-.092.032-.136a.441.441,0,0,1,.066.009A1.257,1.257,0,0,1,8289.444,3644.539Zm.228-1.933a.183.183,0,0,1-.114-.1.377.377,0,0,1,.1-.43c.035-.03.1-.027.205-.052a.98.98,0,0,1,.149.313A.3.3,0,0,1,8289.672,3642.606Zm1.215-1.813c-.009-.033-.016-.065-.023-.1C8290.994,3640.719,8290.918,3640.758,8290.887,3640.793Zm1.407-10.53c-.014-.018.034-.077.054-.116.043.021.116.036.121.062a1.541,1.541,0,0,1,.014.261A1.92,1.92,0,0,1,8292.294,3630.264Zm2.374-16.019c.19.058.158.205.169.334C8294.7,3614.509,8294.6,3614.425,8294.668,3614.245Zm1.521,14.01c.008-.01.044,0,.068,0a.744.744,0,0,1-.022.194c-.011.027-.078.036-.122.047a.489.489,0,0,1-.041-.077C8296.106,3628.37,8296.144,3628.31,8296.189,3628.255Zm-.418,1.2c.026.007.069.006.076.021.042.087.074.177.11.267-.024.008-.066.028-.069.023a2.509,2.509,0,0,1-.148-.24C8295.732,3629.515,8295.76,3629.483,8295.771,3629.459Zm-1.772,4.1.017,0-.045.045C8293.979,3633.583,8293.985,3633.563,8294,3633.556Zm-.3,3.865.126.146c-.042.015-.1.053-.124.04a.765.765,0,0,1-.152-.129Zm-1.643,17.443c0-.064.01-.127.024-.3a1.288,1.288,0,0,1,.058.256c0,.039-.036.077-.056.115A.224.224,0,0,1,8292.057,3654.863Zm3.214-15.133c-.015.421-.067.841-.081,1.262-.025.787-.139,1.566-.206,2.349-.105,1.209-.171,2.423-.313,3.628-.1.866-.05,1.739-.212,2.6a5.528,5.528,0,0,0-.029,1.735,2.961,2.961,0,0,1-.016.849,10.684,10.684,0,0,0-.061,1.57,11.4,11.4,0,0,1-.048,2.365c-.045.218.11.472.075.7-.136.866-.02,1.736-.092,2.6a2.956,2.956,0,0,0,.04.781,1.122,1.122,0,0,1-.281,1.1,1.98,1.98,0,0,0-.307.551c-.172.329-.323.67-.519.986a.389.389,0,0,1-.72,0,2.6,2.6,0,0,1-.367-1.284c.016-.37.026-.741.07-1.109a3.571,3.571,0,0,0,.016-1.256,1.154,1.154,0,0,1,.008-.473,18.256,18.256,0,0,0,.3-3.857,9.178,9.178,0,0,1,.242-1.476,8.26,8.26,0,0,0,.1-1.651,4.016,4.016,0,0,1,.213-1.624,1.072,1.072,0,0,0,.075-.463c-.06-.606.141-1.193.112-1.8a4.611,4.611,0,0,1,.271-1.387,4.5,4.5,0,0,0,.123-1.013,5.914,5.914,0,0,1,.48-2.452,1.235,1.235,0,0,0,.145-.764c-.022-.155-.076-.348-.006-.466a8.814,8.814,0,0,0,.533-2.3c.064-.229.121-.461.191-.688a2.291,2.291,0,0,1,.226-.344A4.364,4.364,0,0,1,8295.271,3639.73Zm.061-6.518c-.045.017-.134.015-.151-.01a.246.246,0,0,1-.055-.194,1.293,1.293,0,0,1,.2-.26c.079.071.157.109.18.167C8295.564,3633.066,8295.469,3633.16,8295.331,3633.212Zm.124-1.054c-.073-.076-.135-.113-.129-.14.039-.217.092-.431.141-.646A1.088,1.088,0,0,1,8295.455,3632.158Zm.012-.83a1.494,1.494,0,0,1-.023-.283c0-.032.072-.081.112-.083s.087.055.095.093A.215.215,0,0,1,8295.467,3631.328Zm.262,20.83a.618.618,0,0,1,.084-.1l.082.109a.919.919,0,0,1-.128.052C8295.76,3652.22,8295.723,3652.17,8295.729,3652.158Zm.671,6.866c-.052.647-.1,1.3-.165,2.085a1.4,1.4,0,0,1-.344-1.553,1.187,1.187,0,0,0,.055-.679,4.192,4.192,0,0,1-.008-.682c.217-.1.295.027.348.144a2.214,2.214,0,0,1,.143.45A.859.859,0,0,1,8296.4,3659.025Zm.634.148c-.008,0-.04-.044-.034-.052a.67.67,0,0,1,.084-.091c.021.035.041.069.061.1A.61.61,0,0,1,8297.033,3659.173Zm.28-39.271c-.034-.03-.086-.055-.092-.087s.027-.084.043-.127c.034.026.093.048.1.078S8297.333,3619.853,8297.313,3619.9Zm.351-2.43-.084-.007.029-.356.087.007Zm.145-.931a1.7,1.7,0,0,1,.107-1.323C8297.885,3615.611,8297.853,3616,8297.809,3616.541Zm.089-1.846s-.039-.022-.06-.034l.068-.138.086.064C8297.961,3614.623,8297.932,3614.662,8297.9,3614.695Zm.418-3.094-.035,0v-.412l.063,0Zm2.25,14.042c-.036-.029-.1-.055-.1-.088a2.135,2.135,0,0,1,0-.3l.083-.027c.021.1.05.19.063.288C8300.609,3625.56,8300.579,3625.6,8300.565,3625.644Zm1.329-7.6a6.8,6.8,0,0,0-.285,1.94,3.65,3.65,0,0,1-.239,1.073,1.813,1.813,0,0,0-.112.851,4.636,4.636,0,0,1-.2,1.638c-.041.188-.158.339-.464.236a3.635,3.635,0,0,1-.012-.442c.072-.89.146-1.78.232-2.669.035-.366.106-.729.153-1.094a4.264,4.264,0,0,0,.061-.7,2.314,2.314,0,0,1,.514-1.467.39.39,0,0,1,.283-.092c.041,0,.116.117.116.181A1.863,1.863,0,0,1,8301.895,3618.043Zm1.287,17.564a.23.23,0,0,1,.078.023c.115.087.19.2.119.335-.02.039-.129.035-.2.05-.02-.119-.042-.238-.058-.357C8303.121,3635.644,8303.161,3635.625,8303.182,3635.608Zm.117,2.2a1.4,1.4,0,0,1-.119-.184.376.376,0,0,1,0-.133C8303.426,3637.523,8303.286,3637.692,8303.3,3637.807Zm-.879.63.023-.126a.251.251,0,0,1,.059,0c.007.042.008.086.011.129Zm.26,5.606-.132-.134c.035-.027.079-.081.1-.074s.063.063.092.1C8302.722,3643.97,8302.7,3644.007,8302.68,3644.043Zm.229,3.385c.013-.222.022-.389.031-.555C8303.023,3647.042,8303.16,3647.22,8302.908,3647.427Zm.426-9.032v.627C8302.962,3638.713,8302.962,3638.713,8303.334,3638.4Zm.05,3.54c-.2-.735-.515-1.381-.145-2.083A3.2,3.2,0,0,1,8303.384,3641.935Zm.23,2.642.042,0v.253l-.066,0Zm.063,1.935c.03-.013.084.022.127.036-.022.041-.037.1-.073.116s-.08-.024-.121-.039C8303.632,3646.585,8303.644,3646.526,8303.678,3646.512Zm-.065,1.55c.1-.068.169-.143.229-.14s.111.085.166.133c-.059.044-.113.116-.176.124S8303.712,3648.118,8303.612,3648.062Zm.166,5.912c-.039-.057-.107-.113-.108-.17s.063-.121.1-.182l.2.137Zm.214-4.289c0-.018.079-.029.124-.035.007,0,.035.048.028.064-.029.067-.068.13-.141.261A1.551,1.551,0,0,1,8303.992,3649.685Zm.468,2.364c-.416-.489-.416-.489-.192-.883C8304.6,3651.812,8304.6,3651.812,8304.46,3652.049Zm.5,2.857c-.024.021-.108.006-.147-.019-.137-.085-.119-.208-.063-.331.009-.02.036-.032.056-.047a.4.4,0,0,1,.117.073C8304.994,3654.682,8305.1,3654.789,8304.958,3654.906Zm2.22-11.623c.015.019.04.037.041.056,0,.066-.007.132-.019.323a1.59,1.59,0,0,1-.095-.29C8307.1,3643.344,8307.152,3643.313,8307.178,3643.283Zm-.078,1.851c.049.048.106.081.1.106a.934.934,0,0,1-.068.2c-.042-.029-.121-.062-.119-.087A.871.871,0,0,1,8307.1,3645.135Zm-.322.126c-.021.057-.089.1-.135.145-.029-.061-.085-.124-.079-.181s.069-.125.106-.186l.112.015A.609.609,0,0,1,8306.777,3645.26Zm.156,1.6c.03-.034.072-.1.088-.1a.883.883,0,0,1,.179.1c-.026.035-.052.069-.087.118Zm.313,3.426c-.007.005-.062-.02-.062-.034a.588.588,0,0,1,.012-.13l.122.074A.592.592,0,0,1,8307.247,3650.284Zm6.9-15.66a3.773,3.773,0,0,0,.057-1.722,9.13,9.13,0,0,1-.093-1.575,9.564,9.564,0,0,1,.189-1.965,15.686,15.686,0,0,0,.2-2.128,6.968,6.968,0,0,1,.076-.7c.135-.7.29-1.4.421-2.1a2.426,2.426,0,0,0-.023-.473,1.446,1.446,0,0,1,.184-.9l-.322-.03a1.84,1.84,0,0,0,.4-1.766,2.408,2.408,0,0,1,.326-1.579,1.618,1.618,0,0,1,.148.284,9.477,9.477,0,0,1,.416,1.612c.082.867.318,1.708.407,2.571.051.5.143.992.19,1.49a1.6,1.6,0,0,1-.051.621,3.48,3.48,0,0,0-.244,1.936c.031.128-.133.292-.127.436a1.242,1.242,0,0,1-.264,1.017c-.1.571-.211,1.142-.312,1.714a.426.426,0,0,0,.012.235,2.768,2.768,0,0,1-.039,1.62c-.03.216.06.494-.244.631-.037.017-.055.15-.028.205a1.9,1.9,0,0,1,0,1.169c-.146.937-.317,1.869-.37,2.817-.008.14-.075.251-.255.239-.04-.035-.1-.065-.113-.1a9.2,9.2,0,0,1-.186-1.008,4.159,4.159,0,0,0-.342-1.62A1.191,1.191,0,0,1,8314.143,3634.624Zm.012,22.138a.765.765,0,0,1-.071.123l-.088-.1a.863.863,0,0,1,.107-.076C8314.109,3656.71,8314.158,3656.752,8314.154,3656.762Zm-.252-16.086a.6.6,0,0,1-.079.866C8313.682,3641.161,8313.677,3641.16,8313.9,3640.677Zm-.2-1.356.069.1c-.021.04-.039.079-.06.119-.024-.032-.068-.064-.068-.095S8313.68,3639.361,8313.7,3639.321Zm.466,21.07.047-.445c.021.147.042.294.063.44Zm.429-.92c-.043.22-.125.395-.388.43l0,.018c-.129.014-.255.033-.436.061a1.288,1.288,0,0,1-.1-.409c.042-.517.108-1.032.175-1.547a.387.387,0,0,1,.3-.337c.17-.045.33-.04.4.157l0-.006.326.206c-.022.18-.036.356-.072.528C8314.74,3658.874,8314.656,3659.17,8314.6,3659.471Zm.279-1.427-.051-.27.039-.006.013.266Zm.958,1.415c.035-.264-.044-.557.261-.8A.854.854,0,0,1,8315.833,3659.458Zm1.913-24.464a3.291,3.291,0,0,0-.3,1.684c-.027.865-.093,1.729-.14,2.594-.013.236-.013.473-.021.709-.011.362-.023.724-.036,1.125.124.212.271.462.427.726a1.325,1.325,0,0,1-.213.352,1.3,1.3,0,0,0-.285,1.534,1.469,1.469,0,0,1-.213,1.473,1.11,1.11,0,0,0-.148,1.263c.217.416.221.752-.273.993l.291.254a4.465,4.465,0,0,0-.032,2.521,1.659,1.659,0,0,0-.384.417,1.888,1.888,0,0,0-.167.769,5.5,5.5,0,0,1-.426,1.765l.021-.018c-.018.125-.039.252-.059.379-.028.175-.259-.1-.283.118a1.943,1.943,0,0,1-.111.365l0,0,.235.065c.21.471-.165.712-.506,1.024.14.032.2.045.265.06s.1.029.2.057l-.476,1.633c-.429.029-.565-.282-.785-.46a.372.372,0,0,1-.083-.295,3.825,3.825,0,0,1,.157-1.014c.1-.244.257-.439.046-.684.256-.3-.054-.395-.2-.5.02-.482.053-.919.049-1.355,0-.286.185-.421.449-.555l-.615-.7.262-.417-.019-.282h.041l-.021.288c.113-.1.229-.212.37-.343l-.309-.586.267-.458-.207-.375a.64.64,0,0,1,.053-.213,1.643,1.643,0,0,0,.222-.985c-.014-.816.053-1.633.065-2.451a6.8,6.8,0,0,0-.021-1.387,1.768,1.768,0,0,1,.371-1.638,11.5,11.5,0,0,1,.008-2.033.807.807,0,0,1,.489-.844l0,0a.393.393,0,0,1,.172-.424c-.261-.144-.439-.32-.316-.641a1.479,1.479,0,0,0,.12-1.076.462.462,0,0,1,.081-.376c.222-.289.04-.745.462-.957.053-.027.02-.25-.01-.375a.934.934,0,0,1,.177-1.032c.055-.051.031-.2.018-.294a1.23,1.23,0,0,1,.013-.6l.123.215.2-.523a1.158,1.158,0,0,1-.2-.115c-.073-.065-.176-.139-.187-.22-.019-.131.1-.162.228-.156a.588.588,0,0,0,.163-.043c.109-.371.219-.746.321-1.095.211-.05.251.062.259.159.013.183-.01.369,0,.553.009.308.025.329.4.658-.362.354-.272.82-.361,1.276l.4.183C8317.763,3634.79,8317.795,3634.914,8317.746,3634.994Zm1.065-14.15c.082-.439.237-.866.331-1.3.138-.645.248-1.3.371-1.945.063-.338.131-.676.188-1.015a.75.75,0,0,1,.264-.552,2.4,2.4,0,0,1,.5,1.115c.254,1.458.525,2.915.756,4.376a19.051,19.051,0,0,1,.23,2.281,5.343,5.343,0,0,1-.184,1.329,12.166,12.166,0,0,0-.164,3.624c.011.126,0,.253,0,.408.422-.355.3-.865.443-1.289s.263-.846.4-1.281c.131-.02.164.084.174.191.028.316.033.634.074.948a5.639,5.639,0,0,1-.114,1.725,23.625,23.625,0,0,1-.905,3.364c-.291.882-.58,1.762-.811,2.66-.1.406-.222.809-.333,1.214a16.8,16.8,0,0,0,.01-2.032c-.024-.181-.049-.362-.078-.543-.021-.13-.1-.274-.065-.385a2.908,2.908,0,0,0-.043-1.4c-.041-.283.006-.576-.014-.863-.06-.841-.1-1.685-.21-2.52-.071-.523-.02-1.043-.056-1.556a12.723,12.723,0,0,0-.221-2.991,5.957,5.957,0,0,1-.157-1.092,5.618,5.618,0,0,0-.37-1.685A1.392,1.392,0,0,1,8318.812,3620.844Zm.485,16.4c-.053.062-.076.117-.107.12a.223.223,0,0,1-.19-.265.166.166,0,0,1,.124-.058A1.822,1.822,0,0,1,8319.3,3637.247Zm1.117,28.163h0v.061A.319.319,0,0,1,8320.414,3665.41Zm1.842-6.893q-.378,1.619-.762,3.237c-.054.228-.123.453-.184.675.263.139.377.295.3.578a2.5,2.5,0,0,1-.7,1.236.472.472,0,0,1,.047.5c-.142.232-.188.548-.547.606v.022a1.245,1.245,0,0,0-.414.542c-.285.6-.591,1.184-.875,1.749a.528.528,0,0,1-.641-.444,12.907,12.907,0,0,1-.348-1.549c-.088-.627-.117-1.262-.152-1.9a2.124,2.124,0,0,1,.182-1.081,1.918,1.918,0,0,0,.048-1.171,2.115,2.115,0,0,1,.028-.857,6.581,6.581,0,0,0,.131-2.362,1.909,1.909,0,0,1,.115-1.085,2.343,2.343,0,0,0,.072-1.252,2.016,2.016,0,0,1,.143-.919,2.824,2.824,0,0,0,.176-1.856,3.581,3.581,0,0,1-.074-.7c.3.034.1.272.28.392a.984.984,0,0,0,.009-.367,1.509,1.509,0,0,1,.154-1.4,5.186,5.186,0,0,0,.453-1.761,23.4,23.4,0,0,1,.587-2.7c.284-.964.459-1.957.676-2.938.137-.619.232-1.246.4-1.856a34.928,34.928,0,0,1,1.123-4.383,1.5,1.5,0,0,1,.135-.279.167.167,0,0,1,.148-.045c.068.025.172.084.172.13,0,.155-.054.31-.055.465s-.023.356.066.45a.986.986,0,0,1,.18.823c-.015.441-.031.883-.05,1.4a1.117,1.117,0,0,0-.286.26.284.284,0,0,0,.133.459.914.914,0,0,0-.253.726,6.578,6.578,0,0,1-.036,1.65c-.023.136.083.295.134.442.08.233.144.5-.034.68-.211.215-.091.375.035.564a2.746,2.746,0,0,0-.247.238c-.239.3-.213.4.177.65-.081.407-.155.821-.245,1.231a3.326,3.326,0,0,0-.025.7,4.807,4.807,0,0,1-.219,1.7,2.177,2.177,0,0,0-.161,1.082,1.057,1.057,0,0,1,0,.314c-.19,1.01-.376,2.021-.587,3.027a5.518,5.518,0,0,1-.309.816c-.025.066-.17.9-.171.958,0,.131,0,.28-.155.333-.365.12-.328.375-.264.646v.007c-.2.618-.413,1.238-.591,1.868a1.628,1.628,0,0,1-.82,1.125c-.448.237-.458.634-.112.99.33.341.477.327.948.228a2.69,2.69,0,0,0,1.474-1.076.794.794,0,0,0,.179-.59c-.011-.313.032-.628.046-.943a.877.877,0,0,1,.257-.533c.261-.006.326.129.336.3A.877.877,0,0,1,8322.256,3658.517Zm.828-7.043c.017.018.045.035.047.055,0,.073,0,.147,0,.22l-.073.019a1.122,1.122,0,0,1-.062-.212C8322.994,3651.531,8323.054,3651.5,8323.084,3651.474Zm-.152-10.324c-.012.063-.025.127-.037.191l-.018,0,.053-.188Zm-2.444,16.164.083-.393C8320.559,3657.054,8320.66,3657.2,8320.487,3657.313Zm1.673.1a1.647,1.647,0,0,1-.365-.1c.167-.139.246-.246.354-.284.136-.049.179.071.188.179A.171.171,0,0,1,8322.16,3657.409Zm.223-.978a4.066,4.066,0,0,1-.1-.663,3.78,3.78,0,0,1,.107-.53c.032-.171.056-.343.1-.64A1.808,1.808,0,0,1,8322.383,3656.431Zm.606-3.117c-.08.289-.189.57-.324.969a3.65,3.65,0,0,1-.105-.444,7.422,7.422,0,0,1,.325-1.5c.016-.031.093-.035.2-.071A1.519,1.519,0,0,1,8322.989,3653.313Zm.242-2.59c-.038-.031-.091-.054-.116-.092a.169.169,0,0,1-.018-.14c.01-.025.079-.028.123-.042a.491.491,0,0,1,.041.138A.483.483,0,0,1,8323.231,3650.724Zm4.919-34.669c-.016.122-.027.211-.043.341C8327.978,3616.246,8328.012,3616.159,8328.15,3616.055Zm-1.59,4.711a1.452,1.452,0,0,1-.43,1.3C8326.26,3621.661,8326.395,3621.258,8326.561,3620.766Zm-.451,1.368a.6.6,0,0,1-.228.713C8325.958,3622.609,8326.033,3622.371,8326.109,3622.134Zm2.219-3.134a18.9,18.9,0,0,0-.086,2.532,1.475,1.475,0,0,1-.043.389c-.014.077-.074.152-.071.226.023.872-.142,1.732-.173,2.6a6.948,6.948,0,0,1-.166,2.194.946.946,0,0,0,.031.382c.01.076.059.164.035.227a17.683,17.683,0,0,0-.5,2.713c-.248,1.164-.442,2.338-.738,3.492-.039.149-.092.295-.132.424-.2.025-.231-.073-.243-.179-.031-.263-.072-.525-.084-.789q-.123-2.772-.236-5.545c-.021-.474-.062-.948-.061-1.422a5.619,5.619,0,0,1,.1-1.022c.105-.545.249-1.084.376-1.626a.625.625,0,0,1,.043-.153c.607-1.168.813-2.467,1.334-3.663a.788.788,0,0,0,.048-.613c-.15-.418.1-.688.562-1.04C8328.33,3618.531,8328.339,3618.766,8328.328,3619Zm2.432,12.006a10.331,10.331,0,0,0-.125,1.655.661.661,0,0,0-.006.158,14.86,14.86,0,0,1,0,2.6c0,.182-.042.365-.03.545.015.227.065.451.114.761a1.147,1.147,0,0,0-.287.914,14.181,14.181,0,0,1-.163,2.756c-.091.752-.132,1.509-.2,2.264-.241.007-.24-.163-.239-.271,0-.261.054-.522.068-.784.064-1.155.121-2.311.184-3.466.046-.87.106-1.739.138-2.609.016-.446-.018-.894-.033-1.341a23.851,23.851,0,0,1,.04-4.967c.1-.568.255-1.127.386-1.691l.152.032c0,.417.015.833.012,1.25,0,.184-.028.368-.041.552A9.744,9.744,0,0,1,8330.76,3631.005Z" transform="translate(0 0)" fill="#a545f5"/>
    <path id="Path_333" data-name="Path 333" d="M8381.525,3752.437c-.023-.178-.047-.356-.017-.131-.054-.2,0,0,.051.189a.854.854,0,0,0-.2.023.46.46,0,0,0-.122.094A1.325,1.325,0,0,0,8381.525,3752.437Z" transform="translate(-77.982 -100.661)" fill="#a545f5"/>
    <path id="Path_334" data-name="Path 334" d="M8303.872,3682.942l-.054-.191a2.162,2.162,0,0,0-.211.3c-.02.038.037.114.06.172C8303.736,3683.128,8303.8,3683.035,8303.872,3682.942Z" transform="translate(-27.356 -54.112)" fill="#a545f5"/>
    <path id="Path_335" data-name="Path 335" d="M8280.836,3676.2l-.053.386a.622.622,0,0,0,.162-.121.284.284,0,0,0,.053-.2C8280.992,3676.234,8280.893,3676.22,8280.836,3676.2Z" transform="translate(0 -49.696)" fill="#a545f5"/>
    <path id="Path_336" data-name="Path 336" d="M8382.717,3743.359l-.225.275a1.073,1.073,0,0,0,.156.116,3.037,3.037,0,0,0,.233-.269Z" transform="translate(-78.825 -94.724)" fill="#a545f5"/>
    <path id="Path_337" data-name="Path 337" d="M8380.507,3741.848c-.014.137-.032.273-.034.41a.659.659,0,0,0,.156.04c.016-.138.036-.275.041-.414A.93.93,0,0,0,8380.507,3741.848Z" transform="translate(-77.436 -93.738)" fill="#a545f5"/>
    <path id="Path_338" data-name="Path 338" d="M8411.187,3709.427c-.055-.026-.119-.082-.161-.068s-.055.1-.08.155c.055.026.121.082.161.068S8411.161,3709.482,8411.187,3709.427Z" transform="translate(-97.313 -71.87)" fill="#a545f5"/>
    <path id="Path_339" data-name="Path 339" d="M8386.415,3764.112c-.052,0-.141-.012-.146,0a.457.457,0,0,0-.022.219.659.659,0,0,0,.109.18Z" transform="translate(-81.185 -108.641)" fill="#a545f5"/>
    <path id="Path_340" data-name="Path 340" d="M8457.146,3769.58l-.148.166.321.1.06-.213Z" transform="translate(-135.272 -135.931)" fill="#a545f5"/>
    <path id="Path_341" data-name="Path 341" d="M8359.182,3749.875c-.03.052-.095.112-.084.154s.085.095.133.142l.132-.216Z" transform="translate(-63.528 -99.045)" fill="#a545f5"/>
    <path id="Path_342" data-name="Path 342" d="M8302.435,3751.142v-.218l-.266.135c.038.058.065.135.119.168C8302.311,3751.242,8302.389,3751.17,8302.435,3751.142Z" transform="translate(0 -99.753)" fill="#a545f5"/>
    <path id="Path_343" data-name="Path 343" d="M8301.829,3693.029l-.1.2.251.11a.652.652,0,0,0,0-.23C8301.973,3693.069,8301.884,3693.055,8301.829,3693.029Z" transform="translate(0 -60.958)" fill="#a545f5"/>
    <path id="Path_344" data-name="Path 344" d="M8421.915,3692.636l.148.021-.037-.135Z" transform="translate(-104.416 -60.565)" fill="#a545f5"/>
    <path id="Path_345" data-name="Path 345" d="M8437.03,3743.776l.149-.119-.154-.063Z" transform="translate(-135.272 -94.783)" fill="#a545f5"/>
    <path id="Path_346" data-name="Path 346" d="M8415.628,3772.781l.091-.152-.176,0Z" transform="translate(-100.278 -135.931)" fill="#a545f5"/>
    <path id="Path_347" data-name="Path 347" d="M8313.333,3725.181l.126-.036-.069-.16Z" transform="translate(-33.675 -82.326)" fill="#a545f5"/>
    <path id="Path_348" data-name="Path 348" d="M8365.748,3636.463a3.292,3.292,0,0,0-.1.4c0,.02.1.056.158.084a3.474,3.474,0,0,0,.1-.394C8365.913,3636.529,8365.8,3636.492,8365.748,3636.463Z" transform="translate(-67.798)" fill="#a545f5"/>
    <path id="Path_349" data-name="Path 349" d="M8366.163,3633.469l.089-.028-.047-.131Z" transform="translate(-68.076)" fill="#a545f5"/>
    <path id="Path_350" data-name="Path 350" d="M8342.073,3726.726l.148.075.093-.189-.241-.106Z" transform="translate(-52.425 -83.386)" fill="#a545f5"/>
    <path id="Path_351" data-name="Path 351" d="M8373.468,3670.113h.174l-.086-.258c-.047.033-.122.057-.136.1S8373.451,3670.065,8373.468,3670.113Z" transform="translate(-72.848 -45.416)" fill="#a545f5"/>
    <path id="Path_352" data-name="Path 352" d="M8359.374,3757.155l.082-.152c-.049-.022-.115-.074-.146-.058s-.058.095-.085.145Z" transform="translate(-63.601 -103.739)" fill="#a545f5"/>
    <path id="Path_353" data-name="Path 353" d="M8359.631,3686.976l.011.209.332-.126c-.045-.055-.083-.146-.136-.156S8359.7,3686.949,8359.631,3686.976Z" transform="translate(-63.9 -56.844)" fill="#a545f5"/>
    <path id="Path_354" data-name="Path 354" d="M8360.359,3684.151a.71.71,0,0,0-.014.186c0,.013.093.013.142.019a.739.739,0,0,0,.006-.185C8360.49,3684.156,8360.406,3684.157,8360.359,3684.151Z" transform="translate(-64.306 -54.979)" fill="#a545f5"/>
    <path id="Path_355" data-name="Path 355" d="M8392.459,3749.593a2.711,2.711,0,0,0,.212-.306c.008-.015-.088-.087-.135-.133-.08.1-.163.2-.232.312A1.5,1.5,0,0,0,8392.459,3749.593Z" transform="translate(-85.215 -98.632)" fill="#a545f5"/>
    <path id="Path_356" data-name="Path 356" d="M8392.086,3716.243a3.023,3.023,0,0,0-.1.337.932.932,0,0,0,.166.064,3.516,3.516,0,0,0,.1-.337A1.093,1.093,0,0,0,8392.086,3716.243Z" transform="translate(-84.967 -76.548)" fill="#a545f5"/>
    <path id="Path_357" data-name="Path 357" d="M8324.84,3768.361l.177.272c.054-.042.156-.108.149-.121a2.131,2.131,0,0,0-.176-.275Z" transform="translate(-41.21 -135.931)" fill="#a545f5"/>
    <path id="Path_358" data-name="Path 358" d="M8401.316,3665.06l-.116.027.064.139Z" transform="translate(-90.907 -42.184)" fill="#a545f5"/>
    <path id="Path_359" data-name="Path 359" d="M8324.8,3770.656l.075.162.174-.217c-.047-.032-.109-.1-.138-.086C8324.863,3770.535,8324.836,3770.606,8324.8,3770.656Z" transform="translate(-41.169 -135.931)" fill="#a545f5"/>
    <path id="Path_360" data-name="Path 360" d="M8408.057,3733.378l.01-.191-.161.171Z" transform="translate(-95.295 -87.817)" fill="#a545f5"/>
    <path id="Path_361" data-name="Path 361" d="M8378.623,3717.272l.044.2.075-.153Z" transform="translate(-76.202 -77.161)" fill="#a545f5"/>
    <path id="Path_362" data-name="Path 362" d="M8380.952,3705.827l-.219.02.1.3c.06-.043.146-.075.173-.133S8380.972,3705.892,8380.952,3705.827Z" transform="translate(-77.635 -69.539)" fill="#a545f5"/>
    <path id="Path_363" data-name="Path 363" d="M8381.232,3745.808l-.2-.291c-.041.054-.129.126-.116.159a1.641,1.641,0,0,0,.185.295Z" transform="translate(-77.77 -96.2)" fill="#a545f5"/>
    <path id="Path_364" data-name="Path 364" d="M8381.2,3723.741l.262.245c.039-.053.12-.14.109-.154a2.373,2.373,0,0,0-.248-.242Z" transform="translate(-77.976 -81.472)" fill="#a545f5"/>
    <path id="Path_365" data-name="Path 365" d="M8335.177,3761.147l-.146.116.154.063Z" transform="translate(-47.815 -106.537)" fill="#a545f5"/>
    <path id="Path_366" data-name="Path 366" d="M8265.276,3694.968c.052.026.134.086.149.072a.62.62,0,0,0,.1-.176l-.255-.108C8265.275,3694.826,8265.275,3694.9,8265.276,3694.968Z" transform="translate(0 -62.107)" fill="#a545f5"/>
    <path id="Path_367" data-name="Path 367" d="M8300.2,3760.927c.067,0,.159.026.2-.007s.04-.13.058-.2l-.336.009Z" transform="translate(0 -106.271)" fill="#a545f5"/>
    <path id="Path_368" data-name="Path 368" d="M8294.076,3727.723l-.133.093.131.063Z" transform="translate(0 -84.144)" fill="#a545f5"/>
    <path id="Path_369" data-name="Path 369" d="M8392.518,3751.926l-.07.164.262.042c-.011-.061,0-.134-.037-.177S8392.571,3751.934,8392.518,3751.926Z" transform="translate(-85.265 -100.375)" fill="#a545f5"/>
    <path id="Path_370" data-name="Path 370" d="M8392.115,3729.6l-.089.126.128.029Z" transform="translate(-84.936 -85.399)" fill="#a545f5"/>
    <path id="Path_371" data-name="Path 371" d="M8392.141,3720.233l-.046.287c.042-.042.111-.079.119-.126S8392.169,3720.287,8392.141,3720.233Z" transform="translate(-84.977 -79.179)" fill="#a545f5"/>
    <path id="Path_372" data-name="Path 372" d="M8426.133,3712.118l-.073.179.161.065a.488.488,0,0,0,.063-.178C8426.281,3712.159,8426.186,3712.14,8426.133,3712.118Z" transform="translate(-107.155 -73.726)" fill="#a545f5"/>
    <path id="Path_373" data-name="Path 373" d="M8455.206,3777.868l.116.085.024-.125Z" transform="translate(-135.272 -135.931)" fill="#a545f5"/>
    <path id="Path_374" data-name="Path 374" d="M8273.557,3669.7l.112-.172-.16-.033Z" transform="translate(0 -45.161)" fill="#a545f5"/>
    <path id="Path_375" data-name="Path 375" d="M8328.851,3732.07l-.169-.021.063.2Z" transform="translate(-43.682 -87.06)" fill="#a545f5"/>
    <path id="Path_376" data-name="Path 376" d="M8271.555,3733.985l.13.015-.05-.145Z" transform="translate(0 -88.245)" fill="#a545f5"/>
    <path id="Path_377" data-name="Path 377" d="M8324.031,3757.714l.136.083.017-.137Z" transform="translate(-40.649 -104.181)" fill="#a545f5"/>
    <path id="Path_378" data-name="Path 378" d="M8267.243,3682.186l.07.144.056-.149Z" transform="translate(0 -53.645)" fill="#a545f5"/>
    <path id="Path_379" data-name="Path 379" d="M8335.854,3763.752l.156.016-.062-.174Z" transform="translate(-48.352 -108.173)" fill="#a545f5"/>
    <path id="Path_380" data-name="Path 380" d="M8309.272,3687.63c.049.04.1.109.147.113s.106-.06.159-.094c-.048-.04-.095-.11-.146-.113S8309.326,3687.6,8309.272,3687.63Z" transform="translate(-31.057 -57.247)" fill="#a545f5"/>
    <path id="Path_381" data-name="Path 381" d="M8302.93,3733.871l-.081-.149-.02.282Z" transform="translate(0 -88.215)" fill="#a545f5"/>
    <path id="Path_382" data-name="Path 382" d="M8302.88,3732.009c-.043.015-.121.028-.122.045a.566.566,0,0,0,.039.163c.043-.015.122-.029.123-.046A.586.586,0,0,0,8302.88,3732.009Z" transform="translate(0 -87.036)" fill="#a545f5"/>
    <path id="Path_383" data-name="Path 383" d="M8309.626,3690.234l-.161-.015.064.185Z" transform="translate(-31.161 -59.038)" fill="#a545f5"/>
    <path id="Path_384" data-name="Path 384" d="M8356.077,3692.335l.105-.162-.162-.024Z" transform="translate(-61.492 -60.331)" fill="#a545f5"/>
    <path id="Path_385" data-name="Path 385" d="M8356.55,3634.034l-.062.178.214-.122Z" transform="translate(-61.812)" fill="#a545f5"/>
    <path id="Path_386" data-name="Path 386" d="M8362.408,3667.527c-.051.013-.128.01-.149.042a.568.568,0,0,0-.043.2l.257-.051Z" transform="translate(-65.558 -43.852)" fill="#a545f5"/>
    <path id="Path_387" data-name="Path 387" d="M8341.193,3735.364l-.06.18.21-.126Z" transform="translate(-51.805 -89.271)" fill="#a545f5"/>
    <path id="Path_388" data-name="Path 388" d="M8355.076,3699.021l.141.01-.06-.148Z" transform="translate(-60.871 -64.829)" fill="#a545f5"/>
    <path id="Path_389" data-name="Path 389" d="M8379.2,3773.437c-.907.067-1.537-.255-1.685-1.226-.093-.616-.169-1.236-.263-1.927l1.522-.992a3.218,3.218,0,0,1,.35,2.564,1.9,1.9,0,0,0,.072,1.589Z" transform="translate(-75.998 -135.931)" fill="#a545f5"/>
    <path id="Path_390" data-name="Path 390" d="M8379.194,3773.445c.053,2.274.356,4.558-.212,6.849-.687-.345-.517-.972-.549-1.474a10.547,10.547,0,0,1,.764-5.381Z" transform="translate(-76.349 -135.931)" fill="#a545f5"/>
    <path id="Path_391" data-name="Path 391" d="M8378.068,3787.679l.424-.372c.045.118.143.249.119.353-.027.12-.16.217-.248.323Z" transform="translate(-75.997 -135.931)" fill="#a545f5"/>
    <path id="Path_392" data-name="Path 392" d="M8316.252,3750.431V3752h-.093c.03-.526.06-1.051.089-1.58Z" transform="translate(-35.51 -100.046)" fill="#a545f5"/>
    <path id="Path_393" data-name="Path 393" d="M8315.64,3756.192l.081-.2a1.527,1.527,0,0,1,.159.3c.015.051-.049.125-.078.188Z" transform="translate(-35.197 -103.241)" fill="#a545f5"/>
    <path id="Path_394" data-name="Path 394" d="M8317.238,3742.789a1.741,1.741,0,0,1,.076.439c0,.045-.183.077-.281.115a3.83,3.83,0,0,1,.04-.463C8317.081,3742.84,8317.181,3742.819,8317.238,3742.789Z" transform="translate(-36.113 -94.417)" fill="#a545f5"/>
    <path id="Path_395" data-name="Path 395" d="M8379.113,3762.44a2.653,2.653,0,0,1-.177.33c-.008.012-.18-.043-.188-.086a1.888,1.888,0,0,1-.012-.394Z" transform="translate(-76.369 -107.463)" fill="#a545f5"/>
    <path id="Path_396" data-name="Path 396" d="M8378.733,3760.688l-.336.208c-.061-.1-.192-.25-.163-.3.062-.1.209-.149.32-.219Z" transform="translate(-76.087 -106.2)" fill="#a545f5"/>
    <path id="Path_397" data-name="Path 397" d="M8315.295,3760.462l.049.2-.139-.026Z" transform="translate(-34.897 -106.087)" fill="#a545f5"/>
    <path id="Path_398" data-name="Path 398" d="M8370.787,3742.337v.047l.4-.059Z" transform="translate(-71.194 -93.877)" fill="#a545f5"/>
    <path id="Path_399" data-name="Path 399" d="M8362.928,3782.205l-.151.134c-.038-.059-.11-.121-.1-.176s.087-.1.135-.153Z" transform="translate(-65.855 -135.931)" fill="#a545f5"/>
    <path id="Path_400" data-name="Path 400" d="M8378.755,3785.569l-.116.1,0-.2Z" transform="translate(-76.211 -135.931)" fill="#a545f5"/>
    <path id="Path_401" data-name="Path 401" d="M8378.555,3782.17l.117-.174.159.112-.193.252Z" transform="translate(-76.215 -135.931)" fill="#a545f5"/>
    <path id="Path_402" data-name="Path 402" d="M8381.085,3754.346l-.4-.04c.141.012.28.024.429.041C8381.118,3754.351,8381.085,3754.346,8381.085,3754.346Z" transform="translate(-77.66 -101.887)" fill="#a545f5"/>
    <path id="Path_403" data-name="Path 403" d="M8431.48,3789.966l.075-.822.1.021c-.059.27-.116.539-.174.811Z" transform="translate(-135.272 -135.931)" fill="#a545f5"/>
    <path id="Path_404" data-name="Path 404" d="M8418.442,3742.728v-.9C8418.974,3742.17,8418.6,3742.448,8418.442,3742.728Z" transform="translate(-102.215 -93.932)" fill="#a545f5"/>
    <path id="Path_405" data-name="Path 405" d="M8415.965,3755.231l1.089-1.714,0-.009c-.421.537-.267,1.442-1.1,1.717Z" transform="translate(-100.999 -102.199)" fill="#a545f5"/>
    <path id="Path_406" data-name="Path 406" d="M8415.592,3721.677a2.013,2.013,0,0,1,.167.351c.017.059-.04.138-.063.208-.095-.057-.271-.123-.267-.168A1.445,1.445,0,0,1,8415.592,3721.677Z" transform="translate(-100.279 -80.254)" fill="#a545f5"/>
    <path id="Path_407" data-name="Path 407" d="M8417.064,3714.152l-.179-1.162.181-.022v1.175Z" transform="translate(-101.155 -74.641)" fill="#a545f5"/>
    <path id="Path_408" data-name="Path 408" d="M8420.878,3722.228c.055.011.144.006.158.037a.32.32,0,0,1,.016.209c-.018.06-.08.107-.122.16C8420.912,3722.5,8420.895,3722.363,8420.878,3722.228Z" transform="translate(-103.758 -80.563)" fill="#a545f5"/>
    <path id="Path_409" data-name="Path 409" d="M8414.917,3764.708l-.186.353c-.07-.1-.192-.2-.194-.3s.1-.233.159-.349Z" transform="translate(-99.72 -108.976)" fill="#a545f5"/>
    <path id="Path_410" data-name="Path 410" d="M8415.667,3759.063q.053.434.1.867l-.109.01c0-.288,0-.576,0-.866Z" transform="translate(-100.322 -105.504)" fill="#a545f5"/>
    <path id="Path_411" data-name="Path 411" d="M8415.961,3755.225c.312.433.622.866.937,1.3l.065-.057c-.821-.012-.778-.727-1-1.232Z" transform="translate(-100.952 -103.139)" fill="#a545f5"/>
    <path id="Path_412" data-name="Path 412" d="M8417.054,3753.517l-.12-.9.126-.013v.9Z" transform="translate(-101.16 -101.182)" fill="#a545f5"/>
    <path id="Path_413" data-name="Path 413" d="M8415.136,3724.129l-.036.411c.013-.144.025-.287.043-.439C8415.148,3724.093,8415.136,3724.129,8415.136,3724.129Z" transform="translate(-99.926 -81.832)" fill="#a545f5"/>
    <path id="Path_414" data-name="Path 414" d="M8416.567,3715.43c-.03.133-.061.267-.09.4.027-.137.055-.274.08-.413Z" transform="translate(-100.845 -75.999)" fill="#a545f5"/>
    <path id="Path_415" data-name="Path 415" d="M8431.815,3687.353a.88.88,0,0,1-.837-.952.717.717,0,0,1,.711-.776.609.609,0,0,1,.651.757,2.161,2.161,0,0,1-.2.672C8432.084,3687.177,8431.929,3687.254,8431.815,3687.353Z" transform="translate(-135.272 -56.388)" fill="#a545f5"/>
    <path id="Path_416" data-name="Path 416" d="M8430.907,3689.923c.059.006.144-.01.171.023s.025.123.036.188l-.267-.027Z" transform="translate(-135.272 -58.847)" fill="#a545f5"/>
    <path id="Path_417" data-name="Path 417" d="M8275.018,3703.42l.041.417-.048-.392A.138.138,0,0,1,8275.018,3703.42Z" transform="translate(0 -67.957)" fill="#a545f5"/>
    <path id="Path_418" data-name="Path 418" d="M8413.249,3770.623l.058.411c-.021-.127-.042-.253-.062-.386A.091.091,0,0,1,8413.249,3770.623Z" transform="translate(-98.726 -135.931)" fill="#a545f5"/>
  </g>
</svg>
