<svg id="Lines_in_Purple" data-name="Lines in Purple" xmlns="http://www.w3.org/2000/svg" width="80.904" height="47.088" viewBox="0 0 80.904 47.088">
  <g id="Lines_in_Purple-2" data-name="Lines in Purple" opacity="0.999">
    <path id="Path_516" data-name="Path 516" d="M7517.915,3950.624c.432.277.781,0,1.1-.457l-.014.011c.117.084.228.09.316-.091a.719.719,0,0,1,.827-.479,3.128,3.128,0,0,0,2.1-.647.978.978,0,0,1,.672-.2,8.421,8.421,0,0,0,1.172.014,1.324,1.324,0,0,1-.572.948,17.809,17.809,0,0,1-2.955,1.51c-.549.185-1.071.592-1.618.808a4.017,4.017,0,0,0-1.379.84,2.628,2.628,0,0,1-.931.522c-.478.184-.965.3-1.447.456-.184.06-.361.166-.545.234-.366.138-.636.625-1.016.74a6.4,6.4,0,0,0-1,.484c-.444.229-.881.51-1.332.688a12.935,12.935,0,0,0-1.922,1.134c-.7.434-1.411.84-2.115,1.27-.191.117-.374.275-.555.409.049.272.153.209.237.225.561.1,1.123.18,1.682.316a3.447,3.447,0,0,1,1.871,1.281c.281.352.58.668.869,1a2.878,2.878,0,0,0,1.839,1.071,7.834,7.834,0,0,0,3.021-.116c.836-.219,1.656-.547,2.487-.773,1.325-.36,2.6-1.061,3.913-1.479.254-.081.519-.242.763-.186a1.166,1.166,0,0,0,.85-.283c.11-.065.222-.125.331-.2a.912.912,0,0,1,1.344.106c.164-.274.119-.786.438-.776.252.007.475.012.588.561a4.635,4.635,0,0,1-.574.774,15.724,15.724,0,0,1-1.466,1.114,3.849,3.849,0,0,0-1.085.8,1.975,1.975,0,0,1-.855.5c-.724.324-1.452.62-2.178.934-.68.294-1.362.581-2.039.9a3.862,3.862,0,0,0-1.176.721,1.442,1.442,0,0,1-1.093.337,11.552,11.552,0,0,1-2.664-.3,4.083,4.083,0,0,1-2.332-2.038,3.755,3.755,0,0,0-3.253-2.125,10.728,10.728,0,0,0-3.763.846,3.09,3.09,0,0,1-.551.181,1.073,1.073,0,0,0-.662.342,1.92,1.92,0,0,1-.516.362c-.8.412-1.607.836-2.42,1.2-.273.121-.4.489-.69.682a8.441,8.441,0,0,0,.355.791,3.59,3.59,0,0,1,.35.857,3.3,3.3,0,0,1,.014,1.689c-.232,1.082-.653,1.981-.968,2.981-.282.9-.565,1.791-.841,2.66.117.406.315.4.5.348a12.546,12.546,0,0,0,1.594-.479c1.482-.607,2.956-1.271,4.438-1.882.774-.32,1.559-.574,2.337-.868.343-.129.682-.281,1.023-.423a.181.181,0,0,0,.065-.04c.277-.275.654.383.891-.264a9.029,9.029,0,0,1,.947-.431c.5-.165,1.018-.265,1.523-.42.346-.106.685-.276,1.03-.386.232-.075.487-.172.587.492a1.153,1.153,0,0,1,1.04-.795c.771-.116,1.539-.287,2.31-.413.208-.034.457-.2.587.275.182,0,.347.25.544.076.143-.126.3-.286.45-.291a1.894,1.894,0,0,1,.614.192c.019.359-.18.34-.279.41a1.572,1.572,0,0,1-.55.182,14.827,14.827,0,0,0-1.988.727,24.491,24.491,0,0,1-2.486.824,5.789,5.789,0,0,0-1.906.729c-.421.3-.886.187-1.311.353s-.786.676-1.253.693a5.675,5.675,0,0,0-1.776.644,6.178,6.178,0,0,1-1.911.736c-.047,0-.1-.013-.14.02a7.858,7.858,0,0,1-1.821.842c-.691.355-1.376.73-2.057,1.135a7.59,7.59,0,0,1-1.5.612c-1.359.458-2.423-1.142-2.553-3.428a3.193,3.193,0,0,1,.14-1.011c.308-1.054.638-2.09.97-3.124.154-.482.339-.938.5-1.419a3.662,3.662,0,0,0,.132-.66c.027-.224-.106-.476-.242-.486a.431.431,0,0,0-.21.019c-.681.3-1.363.6-2.037.938a7.658,7.658,0,0,0-.9.637c-.56.4-1.118.806-1.679,1.206-.344.244-.687.493-1.033.717a11.055,11.055,0,0,1-1.175.757,8.4,8.4,0,0,0-1.319,1.043c-.254.2-.517.364-.778.531s-.531.313-.8.475c-.307.189-.619.365-.919.585-.47.345-.93.724-1.395,1.085a2.368,2.368,0,0,1-.322.218,5.937,5.937,0,0,0-1.306.831,1.661,1.661,0,0,1-1.779.426,3.36,3.36,0,0,1-1.561-2.224,8.832,8.832,0,0,1-.4-3.742c.088-.845.1-1.711.142-2.569.024-.516-.107-.747-.4-.723a.943.943,0,0,0-.279.057,10.084,10.084,0,0,0-2.7,1.307c-.29.228-.631.271-.867.7a.559.559,0,0,1-.311.263,7.443,7.443,0,0,0-2.207,1.507,15.122,15.122,0,0,0-1.749,1.469,11.485,11.485,0,0,1-1.48,1.015c-.573.447-1.106,1.04-1.687,1.45a3.632,3.632,0,0,1-2.093.919,1.64,1.64,0,0,1-1.331-.915,9.062,9.062,0,0,1-1.33-3.785c-.041-.337-.124-.66-.185-.967a2.118,2.118,0,0,0-2.562.215c-.765.588-1.534,1.156-2.3,1.744-.146.113-.276.286-.418.42-.389.364-.782.713-1.166,1.087-.241.235-.468.511-.705.756-.218.226-.445.427-.664.652-.64.657-1.276,1.324-1.916,1.981a3.761,3.761,0,0,1-.432.389,2.892,2.892,0,0,1-.371.212,1.97,1.97,0,0,1-.721-1.35c.773-1.139,1.713-1.935,2.62-3.132h-.649l-.49,0c-.5,0-.931-.23-1.159-1.055a2.25,2.25,0,0,1-.023-.393c.117-.036.228-.067.338-.105a15.025,15.025,0,0,0,4.537-2.5c1.354-1.085,2.679-2.263,4.012-3.417a3.224,3.224,0,0,0,.875-1.416c-.135-.227-.208-.076-.287-.013a4.8,4.8,0,0,1-.574.449c-.592.334-.991.082-1.319-.8-.11-.3-.216-.6-.326-.9-.011-.029-.039-.041-.07-.071-.243-.024-.425.222-.625.428-.858.886-1.717,1.77-2.589,2.618a2.587,2.587,0,0,1-1.333.624c-.385-.283-.521-.921-.785-1.353-.1-.162.034-.561.168-.5.438.211.774-.162,1.122-.478.762-.691,1.537-1.347,2.277-2.1,1.1-1.12,2.2-2.272,3.261-3.485a9.962,9.962,0,0,0,1.732-2.88c.339-.841.75-1.6,1.121-2.408.143-.309.271-.638.4-.968a2.353,2.353,0,0,0,.052-.4c-.239-.029-.409.211-.6.312a3.634,3.634,0,0,0-.591.382,17.084,17.084,0,0,0-2.128,1.8c-.593.659-1.257,1.045-1.852,1.669-.953,1-1.921,1.958-2.872,2.962-1.169,1.234-2.33,2.493-3.489,3.752-.253.275-.487.6-.749.921-.381-.038-.614-.43-.776-.974a1.616,1.616,0,0,1,.516-.947c.577-.672,1.164-1.321,1.748-1.978.778-.876,1.551-1.765,2.337-2.622q1.384-1.51,2.79-2.967c.258-.267.555-.422.824-.662a.77.77,0,0,0,.206-.877,3.246,3.246,0,0,1,.126-2.109,4.772,4.772,0,0,0,.117-.509c-.117-.068-.22-.183-.316-.172a2.045,2.045,0,0,1-1.258-.14c-.189-.1-.369.017-.538.174-.882.817-1.765,1.627-2.646,2.446-.962.9-1.918,1.809-2.884,2.693-.782.715-1.574,1.4-2.361,2.1a3.868,3.868,0,0,1-1.251.772.724.724,0,0,1-.75-.165c-.347-.282-.5-.846-.8-1.267.128-.094.18-.165.205-.144a.776.776,0,0,0,1.023.018c.342-.249.693-.471,1.028-.746.567-.468,1.132-.952,1.688-1.458,1.051-.958,2.095-1.938,3.142-2.906.8-.74,1.6-1.474,2.405-2.216.223-.206.439-.431.677-.665-.031-.283-.035-.518-.082-.727a4.371,4.371,0,0,1,.216-2.674c.144-.358.29-.713.423-1.082a5.792,5.792,0,0,0,.139-.629c-.161,0-.275-.046-.368.008a12.275,12.275,0,0,0-1.185.752c-.6.448-1.185.953-1.782,1.407a2.888,2.888,0,0,1-.729.407,2.5,2.5,0,0,0-.9.646c-1,1.036-2,2.057-3,3.084a1.148,1.148,0,0,1-.714.42l.645-1.052-.549-1.7c2-1.986,3.818-4.281,5.686-6.448q1.332-1.545,2.726-2.913c.932-.909,1.853-1.855,2.809-2.684a13.146,13.146,0,0,1,1.862-1.647c.289-.16.569-.366.852-.557a.706.706,0,0,1,1,.205,4.566,4.566,0,0,1,.856,1.537,3,3,0,0,1,.122,1.362,15.723,15.723,0,0,0-.095,2.394c.2.329.412.269.624.246a7.9,7.9,0,0,0,2.224-.611c.774-.324,1.554-.614,2.328-.944,1.456-.622,2.906-1.292,4.367-1.885,1.277-.519,2.564-.986,3.853-1.42a3.287,3.287,0,0,1,1.191-.09.853.853,0,0,1,.534.263,5.58,5.58,0,0,1,1.519,2.688,3.824,3.824,0,0,1,.117,1.374c-.05.462-.084.928-.131,1.391-.072.716-.056.783.312,1.113.021.019.046.025.063.049a1.222,1.222,0,0,0,1.522.484,17.076,17.076,0,0,0,2.6-1.046q3.086-1.456,6.17-2.928c.768-.365,1.529-.774,2.3-1.083a11.288,11.288,0,0,1,2.079-.622,1.548,1.548,0,0,1,1.547.9,13.319,13.319,0,0,1,.639,1.242c.119.24.229.494.357.777a2.05,2.05,0,0,1,1.23.757.583.583,0,0,0,.748.127c.844-.336,1.688-.672,2.524-1.063s1.662-.844,2.489-1.285c.871-.465,1.738-.949,2.606-1.425a.462.462,0,0,1,.066-.038,13.469,13.469,0,0,0,2.422-1.174c.553-.307,1.116-.568,1.667-.886a26.008,26.008,0,0,1,4.721-2.3,9.4,9.4,0,0,1,4.693-.569,6.147,6.147,0,0,1,2.826,1.364c.693.577,1.394,1.134,2.088,1.708a.938.938,0,0,1,.5.807.857.857,0,0,1-1.069.131,18.445,18.445,0,0,1-1.678-.853c-.225-.115-.451-.218-.674-.34a4.262,4.262,0,0,0-1.948-.433,8.622,8.622,0,0,0-3.646.4c-.593.233-1.2.375-1.789.619s-1.173.555-1.756.853q-1.109.564-2.213,1.157c-.312.167-.613.384-.925.552-.558.3-1.12.577-1.679.875-1.206.645-2.405,1.327-3.618,1.937a17.845,17.845,0,0,0-2.248,1.339.653.653,0,0,1-.2.118c-.985.225-1.854,1.087-2.814,1.45a.662.662,0,0,0-.315.415,4.211,4.211,0,0,0-.227,1.517.394.394,0,0,0,.551.217c.9-.254,1.812-.456,2.7-.8,1.164-.443,2.318-.964,3.465-1.516.97-.467,1.952-.853,2.914-1.374a27.419,27.419,0,0,1,3.071-1.266c.754-.3,1.51-.589,2.266-.875a1.261,1.261,0,0,1,.9-.131l-.109.312.217.241a.8.8,0,0,1-.062.2c-.309.406-.718.576-.956,1.162-.056.135-.2.179-.313.238-.582.309-1.165.605-1.747.913-.176.093-.347.207-.508.3-.009.322.116.269.193.257a7.707,7.707,0,0,1,2.462.1,17.165,17.165,0,0,0,3.168.037c.659-.008,1.317-.019,1.976.017a3.023,3.023,0,0,1,.9.225c.22.084.351.452.335.8-.016.362-.18.758-.387.726-.675-.105-1.288.375-1.937.483a6.132,6.132,0,0,1-1.125.146,16.118,16.118,0,0,1-1.752-.158,6.265,6.265,0,0,1-1.67-.375,1.871,1.871,0,0,0-1.047,0,15.535,15.535,0,0,0-1.878.444,12.962,12.962,0,0,0-1.359.585c-.975.432-1.949.858-2.922,1.3-.339.155-.671.354-1,.544-.667.382-1.333.763-2,1.161-.619.372-1.233.762-1.849,1.151-.9.568-1.794,1.154-2.674,1.805-.361.267-.8.3-1.125.637a8.952,8.952,0,0,1-1.061.884c-.488.375-.968.78-1.449,1.181-.034.028-.047.128-.069.193a.633.633,0,0,0-.184,0c-.013,0-.017.1-.023.156.02.007.047.031.058.017.047-.062.09-.134.134-.2.251.088.5-.257.758-.01.049.046.163-.067.236-.135.183-.169.346-.422.538-.52.58-.3,1.17-.54,1.759-.788a3.815,3.815,0,0,1,.555-.149c.518-.133.905.2,1.228.867a2.269,2.269,0,0,1,.053,2.115c-.392.879-.8,1.74-1.192,2.614a1.225,1.225,0,0,0-.19.847.8.8,0,0,0,.882-.062c2.316-1.279,4.636-2.543,6.953-3.817.531-.292,1.059-.61,1.591-.9.169-.092.332-.289.535-.068.053.057.2-.1.3-.194a1.577,1.577,0,0,1,1.3-.551c.036.006.092-.05.111-.1a.743.743,0,0,0,.013-.2c.316-.179.624-.365.937-.525a2.3,2.3,0,0,1,.682-.281c.342-.048.682.052.973-.435.1-.169.358-.114.542-.1s.319-.082.435-.3Zm-29.1-8.488a.776.776,0,0,0-.111-.066c-.012,0-.029.025-.043.04l.146.019c.038-.029.077-.056.115-.087a.164.164,0,0,0,.051-.057.274.274,0,0,0,0-.081c-.035.016-.08.015-.1.052A1.4,1.4,0,0,0,7488.813,3942.136Zm4.957-2.326-.23-.1-.011.1h.236l.069-.154A1.1,1.1,0,0,1,7493.77,3939.81Zm5.832,22.893.306-.256c.046-.012.109,0,.136-.041a2.267,2.267,0,0,1,1.1-.909,4.32,4.32,0,0,0,1.333-.955,1.183,1.183,0,0,0-.021-.168.608.608,0,0,0-.082-.184,4.132,4.132,0,0,1-.8-2.132,2.646,2.646,0,0,1,.062-1.246,5.453,5.453,0,0,1,.266-.687c.252-.565.514-1.117.763-1.685a.509.509,0,0,0,0-.568,11.955,11.955,0,0,0-1.336.468,27.651,27.651,0,0,0-4.223,2.587c-1.094.79-2.2,1.544-3.3,2.306-.82.567-1.657,1.063-2.469,1.667-1.006.749-2.011,1.5-3.03,2.2a10.346,10.346,0,0,0-1.133.921,2.357,2.357,0,0,0-.6,1.1c-.159.519-.343,1.019-.5,1.536-.345,1.109-.687,2.219-1.018,3.341a3.734,3.734,0,0,0-.057.663,1.019,1.019,0,0,0,1.008-.039c.7-.3,1.4-.656,2.09-1.032.646-.352,1.286-.745,1.923-1.144q2.83-1.775,5.657-3.572c.285-.181.561-.4.843-.6.261-.176.524-.339.79-.5.286-.173.572-.452.864-.474.327-.024.515-.475.811-.526a.928.928,0,0,0,.2-.089C7499.318,3963.034,7499.46,3962.861,7499.6,3962.7Zm-13.185-19.606c.091.063.183.2.292-.046l-.284.058a5.764,5.764,0,0,1-2.167.355,3.47,3.47,0,0,0-.566,1.208c.137,0,.231.035.312-.005.671-.334,1.34-.673,2.006-1.03A.56.56,0,0,0,7486.417,3943.1Zm1.6,14.332c.148.078.215.141.28.142a.749.749,0,0,0,.349-.061,9.889,9.889,0,0,0,.935-.519q1.542-1,3.078-2.022c.413-.275.82-.577,1.231-.861.755-.521,1.516-1.023,2.268-1.559.816-.582,1.625-1.2,2.438-1.792.6-.44,1.2-.9,1.807-1.3a2.051,2.051,0,0,0,.711-.814c-.079-.314-.161-.632-.239-.952a6.3,6.3,0,0,1,.02-3.293c.121-.423.249-.841.362-1.27a2.244,2.244,0,0,0,.141-1.076,1.221,1.221,0,0,0-.462.008,18.7,18.7,0,0,0-3.627,1.878c-.956.642-1.9,1.329-2.85,2-.561.4-1.119.8-1.675,1.225a4.7,4.7,0,0,0-.463.473,2.813,2.813,0,0,1-.186,1.6c-.479.857-.944,1.736-1.441,2.561a38.117,38.117,0,0,0-2.494,4.906A5.709,5.709,0,0,0,7488.016,3957.428Zm-4.935-1.258c-.356.111-.708-.021-1.037.239-1.187.935-2.439,1.62-3.614,2.613-.854.721-1.743,1.327-2.617,1.986-.063.048-.125.107-.187.163q-1.238,1.1-2.479,2.208a4.649,4.649,0,0,0-.622.536,3.332,3.332,0,0,1-1.118.959,1.356,1.356,0,0,0-.618.734,22.818,22.818,0,0,0-1.558,4.7.667.667,0,0,0,.058.6,1.812,1.812,0,0,0,.569-.172c.983-.64,1.961-1.3,2.937-1.974.347-.238.68-.53,1.023-.782.451-.333.908-.641,1.358-.977,1.264-.942,2.524-1.9,3.788-2.839.6-.448,1.2-.895,1.807-1.316a1.157,1.157,0,0,0,.458-.678c.322-1.087.674-2.147,1.08-3.156q.293-.727.557-1.488A2.311,2.311,0,0,0,7483.081,3956.17Zm-7.91-17.935c-.934.338-1.868.674-2.8,1.018a1.986,1.986,0,0,0-.26.182,11.493,11.493,0,0,1-3.626,1.423c-.838.167-1.462-.385-1.963-1.431a9.81,9.81,0,0,1-.963-3.958,5.607,5.607,0,0,0-.107-.676,2.011,2.011,0,0,0-.44.219c-.418.355-.836.716-1.242,1.108q-1.982,1.91-3.954,3.847a4.836,4.836,0,0,0-.515.615c-.145.2-.35.3-.455.664a3.978,3.978,0,0,1,.817-.1c.93.091,1.395,1.511.933,2.863-.22.645-.493,1.238-.729,1.869-.114.306-.391.624-.174,1.006.175.309.4-.043.576-.183a19.757,19.757,0,0,1,2.954-1.9,1.023,1.023,0,0,1,1.521.288c.051.071.129.087.22.144a21.028,21.028,0,0,0,2.524-1.7,5.012,5.012,0,0,1,.447-.341c.87-.591,1.744-1.166,2.61-1.77C7472.075,3940.354,7473.595,3939.237,7475.171,3938.235Zm25.14,1.863c-.411-.389-.776-.234-1.139-.13-.624.181-1.242.436-1.869.574a14.6,14.6,0,0,0-3.516,1.181c-1.145.58-2.315,1.018-3.457,1.615-1.545.808-3.072,1.71-4.589,2.656-.724.451-1.48.753-2.222,1.122-.54.268-1.086.51-1.617.819a1.676,1.676,0,0,0-.586.61,35.929,35.929,0,0,0-2.3,5.316,4.963,4.963,0,0,0-.142.645.447.447,0,0,0,.639.085c.617-.374,1.233-.756,1.839-1.177.368-.255.713-.6,1.072-.887.633-.506,1.275-.982,1.9-1.506.313-.262.59-.651.906-.9,1.08-.855,2.165-1.7,3.261-2.5a11.652,11.652,0,0,1,1.784-1.1,9.861,9.861,0,0,1,1.917-.672.729.729,0,0,0,.487-.347,2.38,2.38,0,0,1,.747-.857,7.208,7.208,0,0,0,1.022-.77,24.327,24.327,0,0,1,5.519-3.495A1.6,1.6,0,0,0,7500.311,3940.1Zm-37.581,10.795a1.439,1.439,0,0,0,.874-.39c.488-.381.982-.742,1.468-1.131,1.057-.847,2.117-1.685,3.163-2.57a35.53,35.53,0,0,1,3.683-2.9,1.465,1.465,0,0,1,.819.861,1.549,1.549,0,0,1,.021,1.392c-.169.371-.37.7-.562,1.045a2.139,2.139,0,0,0-.355.933c.129.006.245.057.342.007a5.309,5.309,0,0,0,.79-.492c.915-.706,1.827-1.428,2.738-2.152a4.043,4.043,0,0,0,.359-.374,15.461,15.461,0,0,1,.645-3.588c.1-.357.2-.706.284-1.073a4.085,4.085,0,0,0,.024-.6c-.7.067-1.36-.025-1.943.625a1.176,1.176,0,0,1-.326.216c-1.31.758-2.579,1.679-3.85,2.6-1.724,1.243-3.455,2.453-5.183,3.68-.539.384-1.082.759-1.613,1.173a1.675,1.675,0,0,0-.509.6C7463.3,3949.4,7463.049,3950.1,7462.729,3950.893Zm13.857-3.562a10,10,0,0,0-1.723,1.305,17.919,17.919,0,0,1-2.864,2.236c-.816.463-1.407.024-1.741-1.322-.089-.358-.137-.746-.2-1.12-.038-.215-.074-.43-.115-.666-.625.109-1.031.85-1.547,1.2a3.063,3.063,0,0,0-1.08,1.071,5.5,5.5,0,0,1-.609,2.667,17.554,17.554,0,0,0-.923,2.24c.209-.076.316-.106.421-.155.295-.135.586-.283.88-.417.521-.239.973-.047,1.354.6.129.218.272.411.392.59a1.274,1.274,0,0,0,.742-.51,5.329,5.329,0,0,1,.468-.521c1.435-1.248,2.857-2.534,4.314-3.708a27.136,27.136,0,0,1,2.485-1.633c.426-.275.785-.087,1.074.478.209.409.4.839.624,1.3a5.428,5.428,0,0,0,.84-2.029c-.4.031-.747.065-1.1.085a1.436,1.436,0,0,1-1.312-.93C7476.844,3947.864,7476.731,3947.621,7476.587,3947.331Zm12.583,12.877-.058-.192a7.335,7.335,0,0,1-.763.077c-.45,0-.8-.3-1.074-.932a7.927,7.927,0,0,1-.445-1.452,3.426,3.426,0,0,1,.135-2.018c.272-.682.538-1.38.856-2,.577-1.128,1.192-2.2,1.787-3.305a5.588,5.588,0,0,0,.229-.625c-.347-.049-.569.188-.8.357q-2.314,1.714-4.625,3.442a4.7,4.7,0,0,0-.5.413,3.784,3.784,0,0,0-.327.449c.169.282.3.5.431.719a3.145,3.145,0,0,1,.267,2.667,5.415,5.415,0,0,1-.205.614c-.291.707-.59,1.4-.884,2.108a.975.975,0,0,0-.074.811c.136-.016.295-.023.452-.056q.56-.114,1.115-.248a1.341,1.341,0,0,1,1.621.77c.144.25.318.281.517.141.626-.442,1.258-.86,1.884-1.3A4.737,4.737,0,0,0,7489.17,3960.208Zm-22.792,1.9c.191-.079.345-.133.5-.207.743-.36,1.487-.712,2.227-1.094.7-.363,1.292-.062,1.811.759.167.266.343.519.5.757a2.514,2.514,0,0,0,1.276-1.13,7.245,7.245,0,0,0-.151-.848,2.01,2.01,0,0,1,.1-1.529c.552-1.116,1.078-2.275,1.682-3.31.558-.955,1.038-2.01,1.57-3a1.954,1.954,0,0,0,.087-.366c-.093,0-.166-.032-.223.006a9.976,9.976,0,0,0-.9.648c-1.252,1.065-2.506,2.125-3.745,3.23-.826.737-1.628,1.549-2.442,2.323-.184.175-.375.326-.557.5A8.4,8.4,0,0,0,7466.378,3962.111Zm9.358-24.143c.278-.028.435-.054.591-.058,1.077-.031,1.864,1.366,1.8,3.164a8.683,8.683,0,0,1-.328,1.783,1.561,1.561,0,0,0-.113.925c.587-.146,1.065-.741,1.595-1.108s1.023-.783,1.532-1.184a9.632,9.632,0,0,0,1.558-1.218c-.077-.793-.188-1.518-.207-2.25-.02-.769.049-1.545.077-2.261a.636.636,0,0,0-.709-.332,4.486,4.486,0,0,0-1.8.493,5.835,5.835,0,0,1-.75.32c-.341.143-.683.283-1.022.432-.317.139-.638.265-.948.439A3.451,3.451,0,0,0,7475.736,3937.968Zm9.139,34.753c-.225-.5-.395-.87-.554-1.247a4.824,4.824,0,0,1-.192-3.41c.15-.485.272-.992.4-1.5a.6.6,0,0,0-.027-.531l-1.981.684a7.4,7.4,0,0,1,.07,2.262,28.168,28.168,0,0,0-.116,3.722c0,.562.161.833.475.787A4.289,4.289,0,0,0,7484.875,3972.721Zm-10.758-13.469.094.175a1.265,1.265,0,0,0,.319-.147q1.7-1.391,3.4-2.8a1.573,1.573,0,0,0,.229-.362,7.142,7.142,0,0,1-.212-3.843c-.043,0-.107-.032-.128,0-1.156,2.037-2.364,4-3.414,6.194C7474.29,3958.708,7474.212,3958.991,7474.117,3959.252Zm-8.3,10.208c.325,1.1.231,2.291.559,3.305.63.245,1.161-.114,1.734-.513-.1-.368-.185-.686-.28-.992a3.276,3.276,0,0,1-.029-2.21,1.105,1.105,0,0,0,.023-.919c-.556.346-1.12.694-1.683,1.049A3.815,3.815,0,0,0,7465.817,3969.46Zm3.92-6.6a10.726,10.726,0,0,0-1.133.57c-1.026.68-2.048,1.377-3.062,2.1a7.832,7.832,0,0,0-.982.915.734.734,0,0,0-.159.745c.122.009.267.074.393.021a8.057,8.057,0,0,0,1.554-.748c.908-.639,1.791-1.379,2.682-2.089a1.833,1.833,0,0,0,.638-.892A4.391,4.391,0,0,0,7469.737,3962.857Zm8.016-16.426a5.822,5.822,0,0,0,3.163-.6,1.062,1.062,0,0,0,.409-.43c.418-.738.821-1.5,1.223-2.263a1.757,1.757,0,0,0,.04-.411,3.174,3.174,0,0,0-.56.266c-1.009.737-2.017,1.478-3.017,2.244-.361.277-.7.624-1.054.946A2.453,2.453,0,0,0,7477.753,3946.431Zm-14.888,14.7c.2.288.378.177.538.017.922-.922,1.851-1.825,2.749-2.807a7.344,7.344,0,0,0,.784-1.322.349.349,0,0,0-.063-.423c-.556.4-1.143.781-1.7,1.247a11.8,11.8,0,0,0-1.45,1.417A3.417,3.417,0,0,0,7462.865,3961.136Zm37.06-23.185c-.087-.245-.108-.394-.152-.415a1.04,1.04,0,0,0-.473-.141,7.444,7.444,0,0,0-3.021.92,7.848,7.848,0,0,1-1.014.446,1.2,1.2,0,0,0-.729.64A27.473,27.473,0,0,1,7499.925,3937.951Zm-14.822,25.056-.056-.213c-.467.173-.937.325-1.4.525a5.707,5.707,0,0,1-.994.449c-.114.024-.264.188-.213.521a1.138,1.138,0,0,0,1.019-.15A7.2,7.2,0,0,0,7485.1,3963.008Zm17.882-16.438-.908-1.532a2.844,2.844,0,0,0-.289,1.89A2.37,2.37,0,0,0,7502.984,3946.569Zm-11.2-6.05c-.1-.029-.165-.083-.221-.058s-.1.131-.143.2c.056.028.116.093.165.074S7491.7,3940.618,7491.785,3940.519Zm5.018,14.811,0-.077-.05.033Zm18.795-3.315-.094-.046.016.087Z" transform="translate(-7448.711 -3929.858)" fill="#a545f5"/>
    <path id="Path_517" data-name="Path 517" d="M7684.068,3972.306l-.285.02.267-.039Z" transform="translate(-7642.938 -3951.53)" fill="#a545f5"/>
    <path id="Path_518" data-name="Path 518" d="M7687.809,3971.352l-.293.039c-.014,0,.108,0,.238-.008A.345.345,0,0,1,7687.809,3971.352Z" transform="translate(-7642.938 -3951.052)" fill="#a545f5"/>
    <path id="Path_519" data-name="Path 519" d="M7621.841,3996.458l0,.553-1.518-.02Z" transform="translate(-7570.534 -3964.058)" fill="#a545f5"/>
    <path id="Path_520" data-name="Path 520" d="M7622.833,3996.51l-1.076,0Z" transform="translate(-7571.351 -3963.888)" fill="#a545f5"/>
  </g>
</svg>
