<svg id="Logo" xmlns="http://www.w3.org/2000/svg" width="105.197" height="62.24" viewBox="0 0 105.197 62.24">
  <path id="Sky_Effect" data-name="Sky Effect" d="M1047.948,4556.652c-.756.158-.785.872-1.031,1.4-.549,1.17-1.023,2.375-1.583,3.539a4.813,4.813,0,0,1-.94,1.35,2.085,2.085,0,0,1-1.126.535,2.792,2.792,0,0,1-2.829-2.543,5.733,5.733,0,0,1,.354-2.532,3.864,3.864,0,0,0,.333-1.616,9.127,9.127,0,0,1,1.179-4.027,9.656,9.656,0,0,0,.6-2.314c-.775.051-1,.569-1.237,1.05-.945,1.935-1.854,3.889-2.822,5.813a27.656,27.656,0,0,1-1.659,2.87,3.523,3.523,0,0,1-1.109.926,1.266,1.266,0,0,1-1.546-.095c-.481-.371-1-.7-1.566-1.086l-1.507,2a3.276,3.276,0,0,1-2.432-1.018,1.456,1.456,0,0,1-.49-1.333c.085-1.1.216-2.2.319-3.305.02-.216,0-.435,0-1.022a21.9,21.9,0,0,0-1.328,3.185c-.474,1.2-.882,2.432-1.407,3.61-.829,1.858-1.621,2.03-3.263.828a2.54,2.54,0,0,1-1.158-1.982,24.249,24.249,0,0,1,.207-5.152c.232-1.64.485-3.278.718-4.919.014-.1-.066-.216-.14-.442-.232.451-.46.81-.612,1.2-1,2.58-1.986,5.167-2.98,7.75a6.59,6.59,0,0,1-1.318,2.214c-1.237.254-1.97-.512-2.655-1.3a1.254,1.254,0,0,1-.184-.869c.079-.732.228-1.458.356-2.184.075-.424.182-.843.244-1.269.1-.719.18-1.441.312-2.526a6.291,6.291,0,0,0-.75.92c-.806,1.729-1.572,3.476-2.383,5.2a21.642,21.642,0,0,1-1.371,2.608c-.545.84-.987.854-1.885.458a2.075,2.075,0,0,1-1.335-2.351,44.5,44.5,0,0,1,1.34-7.812,81.035,81.035,0,0,1,4.386-12.723,59.432,59.432,0,0,1,3.728-6.767c1.915-3.033,4.206-5.76,6.395-8.576a4.3,4.3,0,0,0,.733-1.267c.4-1.229.731-2.479,1.053-3.73.17-.66.134-.669-.2-1.756a4.342,4.342,0,0,0-2.413,1.464,58.582,58.582,0,0,0-8.354,11.451c-1.831,3.3-3.192,6.787-4.742,10.2a26.748,26.748,0,0,0-1.121,3.7c-.1.353-.125.731-.245,1.076-.125.36-.359.66-.81.6a.9.9,0,0,1-.818-.844,12.924,12.924,0,0,1,.263-2.185,14.091,14.091,0,0,1,.713-2.094,65.528,65.528,0,0,1,2.934-6.762c.878-1.62,1.548-3.352,2.388-4.994a46.535,46.535,0,0,1,7.074-10.326,20.577,20.577,0,0,1,2.289-2.145,5,5,0,0,1,3.219-1.215,2.351,2.351,0,0,1,2.445,2.609c-.043.664-.178,1.321-.268,1.953.65.568,1.383.137,2.2.427l1.259,1.407a1.2,1.2,0,0,0,.469-.032,2.77,2.77,0,0,1,3.389.515,1.169,1.169,0,0,0,.622.352c.495.042,1.016,0,1.255-.551.53-1.226,1.71-1.747,2.7-2.431a2.735,2.735,0,0,1,3.378.375c.226.2.449.4.715.645a5.079,5.079,0,0,0,.885-.248,4.68,4.68,0,0,1,4.584.121c.919.508,1.127.389,1.893-.41,1.316-1.374,2.7-2.682,3.995-4.076,1.192-1.286,2.651-1.094,4.12-.876a1.338,1.338,0,0,1,1.027.973c.158.46.278.934.409,1.382,1.856.528,1.856.528,3.291,2.568a8.21,8.21,0,0,0,.847-.591c.689-.614,1.329-1.284,2.035-1.877a3.587,3.587,0,0,1,4.716-.447,4.519,4.519,0,0,0,.471.2c3.412-1.5,3.854-.911,5.49.972a2.579,2.579,0,0,0,.594-.389c.877-1.006,2.018-.767,3.106-.645a1.364,1.364,0,0,1,1.112,1.109,5.108,5.108,0,0,1,.116,1.278c0,.544-.042,1.089-.064,1.584a.643.643,0,0,0,.886-.22c.335-.356.667-.716.965-1.036,2.2.052,2.2.052,3.5,1.044.641-.2.976-.843,1.469-1.267a3.883,3.883,0,0,1,2.886-.99,2.24,2.24,0,0,1,1.975,1.145c.239.421.511.824.756,1.216,2.985-.44,3.2-.381,5.193,1.418.805.007,1.144-.634,1.527-1.169a5.073,5.073,0,0,1,2.611-1.955,5.337,5.337,0,0,1,2.907,0,1.793,1.793,0,0,1,.878.613,3.648,3.648,0,0,1,.8,2.4,29.541,29.541,0,0,1-.683,6.414c-1,4.633-2.5,9.129-3.719,13.7-.609,2.273-1.637,4.374-2.35,6.6-.338,1.054-.716,2.1-1.141,3.119-.543,1.3-1.145,2.583-1.738,3.866a1.886,1.886,0,0,1-1.432,1.054.562.562,0,0,1-.712-.61,6.267,6.267,0,0,1,.306-1.437c.375-.975.656-1.971.95-2.972,1.3-4.424,2.687-8.822,4.018-13.236q1.223-4.056,2.376-8.133a38.229,38.229,0,0,0,1.29-8.933,4.445,4.445,0,0,0-.207-.969,6.822,6.822,0,0,0-.913.446,14.038,14.038,0,0,0-4.342,4.957,4.19,4.19,0,0,0-.383,1.579c-.133,1.593-.193,3.191-.307,4.785a60.425,60.425,0,0,1-1.5,9.274,140.046,140.046,0,0,1-4.327,14.116c-.739,2.144-1.749,4.2-2.672,6.273a3.24,3.24,0,0,1-2.069,1.971,2.309,2.309,0,0,1-1.964-.157,16.2,16.2,0,0,1-1.915-1.435,1.578,1.578,0,0,1-.509-1.509,42.236,42.236,0,0,1,1.7-7.917c1.143-3.043,1.942-6.215,3.067-9.266,1.105-3,2.375-5.938,3.679-8.856,1.029-2.3,2.243-4.521,3.328-6.8a8.34,8.34,0,0,0,.529-4.936.632.632,0,0,0-.892.261,22.12,22.12,0,0,0-3.642,6.168q-2.205,6.366-4.484,12.707c-1.035,2.892-2.127,5.764-3.172,8.652q-2.164,5.986-4.292,11.985c-.356,1-.91,1.205-1.8.585a10.052,10.052,0,0,1-.82-.708,1.894,1.894,0,0,1-.049-.584,58.107,58.107,0,0,1,2.827-8.965c.862-1.9,1.45-3.9,2.344-5.779a4.228,4.228,0,0,0,.283-.682c1.159-4.219,2.854-8.252,4.28-12.379,1.225-3.547,2.316-7.141,3.441-10.722a18,18,0,0,0,.473-2.163,3.458,3.458,0,0,0-.074-.806,3.217,3.217,0,0,0-.732.386,22.3,22.3,0,0,0-4.778,7.163c-2.828,6.686-5.171,13.559-7.921,20.275-.862,2.105-1.66,4.238-2.491,6.356a5.166,5.166,0,0,1-.312.669,15.52,15.52,0,0,0-1.983,4.689c-1.03.182-1.545-.422-2.149-1.1.364-1.4.675-2.836,1.116-4.231q1-3.167,2.153-6.283c.491-1.325,1.12-2.6,1.678-3.9.34-.79.669-1.584.993-2.381q1.181-2.9,2.351-5.8c.366-.909.713-1.825,1.077-2.735.408-1.021.785-2.056,1.248-3.051a27.934,27.934,0,0,0,1.554-4.531,1.939,1.939,0,0,0,.006-.5c-.535-.192-.691.211-.9.478a24.133,24.133,0,0,0-3.836,7.5c-1.16,3.5-2.5,6.951-3.656,10.455-1.22,3.686-2.727,7.25-4.232,10.821-.62,1.472-1.089,3.007-1.657,4.5-.258.679-.592,1.33-.87,1.946-1.517-.089-1.9-.4-2.693-2.167-.26.313-.481.589-.711.858-1.5,1.749-3.51,1.454-4.52-.663-.075-.158-.144-.318-.21-.464-.434-.015-.524.3-.663.57-.564,1.093-1.089,2.21-1.711,3.27-.586,1-1.177,1.1-2.14.506-.26-.162-.486-.378-.741-.55a1.344,1.344,0,0,1-.609-1.44,22.617,22.617,0,0,1,1.044-4.479,24.89,24.89,0,0,0,.9-2.994c.149-.575.2-1.174.319-1.907a5.862,5.862,0,0,0-1.535,2.237c-.585,1.289-1.205,2.561-1.842,3.826a7.5,7.5,0,0,1-.808,1.235,1.528,1.528,0,0,1-2.384.416c-.315-.193-.6-.429-.916-.624a2.361,2.361,0,0,1-1.117-2c-.019-.3-.057-.607-.091-.915,0-.088,0-.174,0-.259Zm-4.409-8.016c-.007-.16-.014-.319-.006-.126.016-.191,0-.027-.011.136l-.356.28.047.06C1043.323,4548.872,1043.432,4548.755,1043.539,4548.637Zm-18.015-6.683a2.845,2.845,0,0,0-.421,1.67,1.444,1.444,0,0,0,.377-1.723,1.362,1.362,0,0,0,.627-1.641C1025.821,4541.067,1025.666,4541.5,1025.524,4541.954Zm45.391-12.282c.045.03.107.05.13.092s-.014.09-.024.137l-.069-.251a.869.869,0,0,0,.861-.559c.354-.71.666-1.447,1.083-2.118a12.836,12.836,0,0,0,2.025-7.3,3.653,3.653,0,0,0-.225-.766,4.8,4.8,0,0,0-2.318,3.294c-.247,1.695-.494,3.391-.811,5.073A4.656,4.656,0,0,1,1070.915,4529.672Zm-52.46,22.921.024.349q-.009-.183-.018-.365a3.527,3.527,0,0,0,.63-.616,17.6,17.6,0,0,0,1.484-3.749c1.259-3.78,2.57-7.543,3.865-11.312a4.318,4.318,0,0,0,.2-1.906.82.82,0,0,0-.4.409c-.444.872-.91,1.734-1.318,2.623a66.648,66.648,0,0,0-3.224,9.384C1019.2,4549.113,1018.864,4550.86,1018.455,4552.593Zm8.126-13.678q.023.214.045.429l.04-.007-.084-.453c.577-.112.705-.607.923-1.047a91.928,91.928,0,0,1,5.206-9.722,5.5,5.5,0,0,0,.941-4.653c-.132-.04-.208-.091-.247-.071a6.267,6.267,0,0,0-3.395,3.872c-.5,1.705-1.059,3.394-1.561,5.1C1027.811,4534.536,1027.2,4536.719,1026.582,4538.916Zm36.253-5.524c.015.057.031.114.044.171s.021.1.032.143l-.077-.351c.573-.1.761-.573.947-1.024a52.6,52.6,0,0,1,3.247-6.369c.736-1.27,1.5-2.523,2.212-3.807a4.762,4.762,0,0,0,.639-2.644,2.511,2.511,0,0,0-.306-.744,1.737,1.737,0,0,0-.468.126,17.914,17.914,0,0,0-4.6,4.951,3.333,3.333,0,0,0-.453,1.561A54.713,54.713,0,0,1,1062.835,4533.392Zm33.809,1.063-.326-.065a7.83,7.83,0,0,0-.554.905c-.722,1.625-1.456,3.247-2.124,4.894a103.46,103.46,0,0,0-4.844,14.871,58.721,58.721,0,0,0-.9,6.193c-.049.379-.147.886.574,1.072a11.2,11.2,0,0,0,1.086-1.388,18.533,18.533,0,0,0,1.473-2.952c.814-2.31,1.523-4.656,2.25-7a103.992,103.992,0,0,0,3.356-15.09A9.587,9.587,0,0,0,1096.644,4534.454Zm-74.476-3.987c-1.117.849-2.182,2.215-4.389,6.016a63.127,63.127,0,0,0-7.211,20.634,2.962,2.962,0,0,0,.006,2,1.971,1.971,0,0,0,1.026-1.071,76.92,76.92,0,0,0,4.213-9.43c1.469-3.652,2.762-7.374,4.111-11.073.7-1.906,1.357-3.825,2.008-5.746A9.352,9.352,0,0,0,1022.167,4530.467Zm2,29.533a2.372,2.372,0,0,0,1.038-1.561c1.156-3.437,2.327-6.872,3.413-10.332.994-3.166,1.923-6.354,2.81-9.552.509-1.834.894-3.7,1.292-5.567.058-.272.316-.742-.318-.888-.368.632-.777,1.25-1.1,1.909-.9,1.818-1.791,3.642-2.64,5.484a58.03,58.03,0,0,0-4.672,17.582,17.685,17.685,0,0,0-.075,2.211A2.54,2.54,0,0,0,1024.168,4560Zm19.295-1.061a3.836,3.836,0,0,0,1.113-1.735c.354-.852.694-1.709,1.035-2.566.726-1.827,1.578-3.615,2.145-5.491,1.121-3.708,2.754-7.229,3.889-10.929a1.735,1.735,0,0,1,.06-.175,88.689,88.689,0,0,0,2.98-8.723,3.1,3.1,0,0,0,.007-.735C1049.924,4534.83,1043.6,4551.938,1043.462,4558.939Zm16.862-27.726-.354-.159a8.07,8.07,0,0,0-.717.991c-.709,1.363-1.446,2.716-2.062,4.121a96.448,96.448,0,0,0-5.639,15.764c-.378,1.546-.591,3.135-.841,4.71a4.488,4.488,0,0,0,.135,1.121c.282-.17.483-.223.561-.351a10.3,10.3,0,0,0,.887-1.606c1.066-2.745,2.12-5.494,3.128-8.26a137.166,137.166,0,0,0,4.78-15.467C1060.269,4531.8,1060.285,4531.5,1060.324,4531.214Zm2.841,27.34a3.59,3.59,0,0,0,1.441-1.65c.659-1.184.94-2.542,1.612-3.7a22.244,22.244,0,0,0,1.522-3.936c.9-2.551,1.778-5.112,2.659-7.671,1.081-3.137,1.937-6.34,2.762-9.552.117-.455.4-.908.016-1.434a3.482,3.482,0,0,0-.985,1.526q-1.25,2.672-2.441,5.37a122.106,122.106,0,0,0-6.3,18.292A5.841,5.841,0,0,0,1063.165,4558.554Zm-27.191-1.5.352.188a10.09,10.09,0,0,0,1.7-2.77c.886-1.956,1.746-3.924,2.625-5.883a103.141,103.141,0,0,0,4.336-10.954c.7-2.219,1.29-4.476,1.915-6.72a9.315,9.315,0,0,0,.167-1.087c-.81.086-.958.7-1.2,1.147a80.885,80.885,0,0,0-4.746,9.98c-1.714,4.539-3.3,9.122-4.585,13.8C1036.328,4555.518,1036.16,4556.288,1035.974,4557.054Zm32.36-28.652c-.715.438-.715.438-.826.682-1.594,3.522-3.274,7.006-4.651,10.623-.763,2-1.546,4-2.318,6a3.053,3.053,0,0,0-.108.353c-.732,2.917-1.5,5.826-2.166,8.759a4.252,4.252,0,0,0-.214,2.536,17.288,17.288,0,0,0,1.017-1.833c1.13-2.787,2.226-5.588,3.319-8.389.469-1.2.882-2.423,1.354-3.623a116.413,116.413,0,0,0,3.866-11.518A11.181,11.181,0,0,0,1068.334,4528.4Zm-18.171,2.253c1.068-.672,1.08-.667,1.3-1.124a43.821,43.821,0,0,1,4.153-6.507,17.6,17.6,0,0,0,1.666-3.063,5.523,5.523,0,0,0,.4-2.817,3.931,3.931,0,0,0-.9.357,31.349,31.349,0,0,0-5.581,5.6,2.561,2.561,0,0,0-.5,1.357c-.183,1.583-.415,3.161-.6,4.745A10.534,10.534,0,0,0,1050.163,4530.655Zm-18.181,24.119c2.274-4.854,3.6-9.636,5.274-14.281,1.162-3.227,1.9-6.606,2.814-9.92.018-.064-.114-.169-.249-.358a7.844,7.844,0,0,0-.589.935c-.527,1.178-1.019,2.373-1.535,3.556a93.5,93.5,0,0,0-5.566,17.365A6.924,6.924,0,0,0,1031.983,4554.774Zm2.254-17.437.243.062c.162-.457.306-.922.49-1.37.7-1.7,1.306-3.438,2.141-5.063a54.049,54.049,0,0,1,3.277-5.734,9.127,9.127,0,0,0,.966-2.167,1.619,1.619,0,0,0-.416-1.792,11.461,11.461,0,0,0-1.308.987c-.823.823-1.585,1.706-2.39,2.548a4.7,4.7,0,0,0-1.214,2.806,64.177,64.177,0,0,1-1.546,8.674C1034.388,4536.633,1034.318,4536.986,1034.237,4537.336Zm8.333-4.137c.16-.251.328-.5.477-.756.946-1.644,1.879-3.3,2.836-4.932.463-.792.965-1.561,1.46-2.333a4.55,4.55,0,0,0,.609-2.641.963.963,0,0,0-.665-1.025,2.589,2.589,0,0,0-.491.129,4.7,4.7,0,0,0-3.009,4.213A47.227,47.227,0,0,1,1042.57,4533.2Zm33.448-1.057c.219-.064.4-.07.415-.129a65.912,65.912,0,0,0,3.171-11.506c.01-.066-.138-.157-.295-.325a5.821,5.821,0,0,0-1.947,3.6c-.269,2.007-.645,4-.972,6C1076.265,4530.55,1076.147,4531.324,1076.019,4532.143Zm-14.883-12.171c-.322.126-.477.138-.535.219a3.373,3.373,0,0,0-.453.784,64.4,64.4,0,0,0-2.16,8.313,15.474,15.474,0,0,0,2.889-4.353A7.713,7.713,0,0,0,1061.136,4519.972Zm-32.809,3.6c-.468.025-.7-.034-.789.054a10.839,10.839,0,0,0-1.456,1.626,23.294,23.294,0,0,0-2.2,5.2c-.046.135.052.319.117.65a34.464,34.464,0,0,0,3.542-5.241A14.388,14.388,0,0,0,1028.326,4523.576Zm-4.624,8.694a2.6,2.6,0,0,0,.18-.28c.007-.015-.1-.11-.11-.1a.544.544,0,0,0-.22.181C1023.536,4532.1,1023.647,4532.2,1023.7,4532.27Zm26.587-.875-.106-.014.038.124Z" transform="translate(-1003.699 -4515.14)"/>
  <g id="Sea_Effect" data-name="Sea Effect">
    <path id="Path_4384" data-name="Path 4384" d="M1089.351,4702.706c.219-.089.462-.286.652-.245a9.126,9.126,0,0,1,1.308.486c1.7-.592,3.473-.293,5.232-.209,1.561.076,3.116.277,4.674.412a75.878,75.878,0,0,1,11.861,1.667,4.45,4.45,0,0,1,2.157.874,3.62,3.62,0,0,1-2.743,1.38c-1.967-.048-3.935.119-5.907-.064-2.213-.206-4.437-.3-6.653-.476-3.578-.287-7.161-.437-10.747-.58a23.9,23.9,0,0,0-2.867-.02,2.267,2.267,0,0,1-.606-.007,25.226,25.226,0,0,0-4.979-.133c-3.891.012-7.785-.249-11.676.087-.851.073-1.715-.019-2.573,0-3.135.074-6.271.264-9.4.218-3.094-.045-6.166.29-9.252.292a75.9,75.9,0,0,0-10.731.9c-3.154.453-6.286,1.068-9.447,1.455a24.547,24.547,0,0,0-3.848.667,2.524,2.524,0,0,1-2.162-.426,1.918,1.918,0,0,1-.357-.49,2.67,2.67,0,0,1,1.563-1.181,15.88,15.88,0,0,1,3.893-1.227,2.006,2.006,0,0,0,.438-.123,61.873,61.873,0,0,1,9.627-2.019c1.346-.212,2.709-.329,4.069-.432,3.58-.27,7.162-.546,10.746-.749,2.829-.159,5.664-.205,8.5-.315.86-.033,1.717-.131,2.577-.161.807-.028,1.617-.007,2.425,0a2.722,2.722,0,0,0,.6.049,13.445,13.445,0,0,1,3.924.062,6.983,6.983,0,0,0,2.4-.119,4.252,4.252,0,0,1,1.491-.009c.452.036.9.2,1.347.208a8.837,8.837,0,0,0,1.379-.2l-.509.626c.207.467.582.347.887.208.214-.1.359-.341.541-.513a1.512,1.512,0,0,1,1.1-.427c.755,0,1.51-.032,2.264-.049a1.718,1.718,0,0,1,.6,0,8.321,8.321,0,0,0,3.077.072,5.69,5.69,0,0,0,.758-.038c.666-.091,1.227.389,1.914.3a10.635,10.635,0,0,1,1.959.008c.181.011.354.171.526.261-.253.057-.615-.1-.692.406Zm-6.908.437.241-.017a.36.36,0,0,0-.1-.063.247.247,0,0,0-.123.009C1082.451,4703.075,1082.449,4703.118,1082.443,4703.143Zm16.954.533a.31.31,0,0,0-.039.115c0,.016.063.027.1.041a.3.3,0,0,0,.037-.114C1099.49,4703.7,1099.43,4703.69,1099.4,4703.676Zm-20.438-.633-.1.066.075.09.126-.114Z" transform="translate(-1013.893 -4647.26)"/>
    <path id="Path_4385" data-name="Path 4385" d="M1050.556,4646.01a2.513,2.513,0,0,1,1.781-.7q1.209,0,2.418-.061c1.1-.056,2.206-.167,3.31-.2a6.628,6.628,0,0,1,2.4.071,2.387,2.387,0,0,0,1.027-.116,1.594,1.594,0,0,1,1.536.368,3.318,3.318,0,0,0,1.034.471c.287-.325.46-.668.731-.788a1.269,1.269,0,0,1,1.016-.042c.469.3.83.084,1.259.013a7.159,7.159,0,0,1,1.341,0c-.073.243-.153.479-.239.732.549-.1.553-.105.386-.5a1.37,1.37,0,0,0-.172-.245,1.969,1.969,0,0,0,.733.084,8.046,8.046,0,0,1,3.539.091l-.633.694a4.423,4.423,0,0,0,.8-.172c.108-.052.168-.2.25-.308l-.459-.183a2.854,2.854,0,0,1,.852-.266c1.511.025,3.022.093,4.533.152,1.11.043,2.221.089,3.331.146.453.023.9.08,1.356.121.8.074,1.608.149,2.412.221a1.767,1.767,0,0,1,.453.025c1.4.542,2.891.271,4.328.492,1.4.215,2.813.331,4.222.48.888.094,1.158.305,1.381,1.129a2.661,2.661,0,0,1-.054,1.514,10.4,10.4,0,0,1-2.675-.066c-2.452-.368-4.909-.714-7.374-.985-1.755-.193-3.523-.289-5.289-.358-1.453-.057-2.911.039-4.364-.021-2.262-.093-4.525.023-6.789-.149a34.1,34.1,0,0,0-3.932.123,13.657,13.657,0,0,1-1.963.072,20.7,20.7,0,0,0-4.67.162,23.288,23.288,0,0,1-2.574.092c-2.936.022-5.859.236-8.778.533a4.95,4.95,0,0,1-.6.055,81.045,81.045,0,0,0-9.073.709c-3.121.29-6.234.664-9.35,1-.05.005-.1.006-.151.015-2.239.381-4.486.726-6.716,1.155q-3.426.66-6.824,1.458a88.592,88.592,0,0,0-9.793,2.661c-1.093.394-2.234.648-3.342,1a14.163,14.163,0,0,1-3.77.235,1.382,1.382,0,0,1-.808-.357,3.214,3.214,0,0,1-.509-.684,4.069,4.069,0,0,1,2.165-1.455,22.089,22.089,0,0,1,5.005-1.728,3.2,3.2,0,0,0,.581-.174,47.628,47.628,0,0,1,9.229-2.4c1.139-.2,2.25-.583,3.393-.748,1.55-.224,3.062-.641,4.6-.866,1.744-.254,3.451-.692,5.19-.946,1.195-.175,2.406-.232,3.61-.353q3.543-.354,7.085-.723c1.3-.137,2.6-.307,3.9-.437a2.96,2.96,0,0,1,.744.115c.072.6.441.685,1.183.517l-1.222-.476a11.178,11.178,0,0,1,1.46-.316c1.643-.14,3.289-.236,4.934-.346.634-.042,1.249.274,1.912.04.17-.06.481.275.721.425-.206-.022-.428-.212-.635.092Zm1.879-.09-.1.088c.04.019.1.063.115.052a.892.892,0,0,0,.123-.156Zm6.981-.243c.017.031.035.089.052.089a2.248,2.248,0,0,0,.254-.025c-.015-.035-.031-.1-.044-.1A2.408,2.408,0,0,0,1059.415,4645.677Zm-11.988.5-.068.121c.041.021.088.064.12.055a.129.129,0,0,0,.057-.113C1047.532,4646.217,1047.466,4646.2,1047.428,4646.181Zm23.625-.526.076.056.016-.083Z" transform="translate(-996.085 -4606.857)"/>
    <path id="Path_4386" data-name="Path 4386" d="M1087.5,4685.069c.051.362.012.655.114.717.479.292.533-.279.781-.472a11.652,11.652,0,0,1,3.46.15,34.419,34.419,0,0,0,3.776.31,62.158,62.158,0,0,1,8.26,1.1c.3.065.593.131.887.205a1.428,1.428,0,0,1,1.167,1.243c.055.35.136.7.18,1.047.079.636-.335.977-.921.768a12.957,12.957,0,0,0-1.565-.559c-1.281-.281-2.568-.558-3.867-.73q-5.418-.719-10.848-1.34c-1.807-.205-3.632-.127-5.448-.187-1.916-.063-3.835.1-5.75-.128a25.593,25.593,0,0,0-3.472-.255c-2.07.035-4.139.187-6.208.294a4.5,4.5,0,0,1-.755.069c-2.525-.312-5.04.241-7.577.039a38.781,38.781,0,0,0-5.146.241c-1.211.066-2.423.126-3.634.2-1.314.078-2.626.179-3.941.243-.858.042-1.719.033-2.578.05a11.647,11.647,0,0,0-1.212.042c-3.863.485-7.746.79-11.6,1.3-1.954.257-3.885.687-5.827,1.032-2.243.4-4.482.826-6.734,1.17a23.9,23.9,0,0,1-3.175.2,1.667,1.667,0,0,1-.974-.341c-.2-.157-.256-.509-.423-.882a3.573,3.573,0,0,1,.516-.363,37.032,37.032,0,0,1,4.148-1.853c1.631-.521,3.349-.766,5.027-1.139a69.318,69.318,0,0,1,7.054-1.075c1.509-.176,3.014-.375,4.521-.564.251-.031.5-.074.754-.1,2.669-.246,5.335-.522,8.008-.72,2.068-.153,4.144-.2,6.216-.3,2.424-.118,4.853-.175,7.269-.382a41.407,41.407,0,0,1,5.455.02,2.792,2.792,0,0,0,.6.048,6.415,6.415,0,0,1,3.142.125,1.169,1.169,0,0,0,.581-.065,8.938,8.938,0,0,1,3.4-.1c1.044.137,2.1.2,3.141.337a29.49,29.49,0,0,0,3.477-.06,22.9,22.9,0,0,1,4.374.315,1.931,1.931,0,0,0,.453.041,14.293,14.293,0,0,1,3.622.3A6.092,6.092,0,0,0,1087.5,4685.069Zm-13.649-.082-.067-.26a7,7,0,0,0-.71.1c-.054.013-.124.17-.1.233s.157.183.214.168A6.1,6.1,0,0,0,1073.856,4684.987Zm-3.851-.077c-.158-.12-.195-.171-.239-.177-.266-.039-.537-.362-.8,0a.175.175,0,0,0-.011.143c.147.365.465.313.756.284C1069.791,4685.156,1069.857,4685.043,1070,4684.91Zm-7.456-.1-.249.105c.029.035.057.1.088.1a1.69,1.69,0,0,0,.274-.03Zm13.988.177-.131-.042a1.521,1.521,0,0,0-.023.232c0,.013.082.023.126.034C1076.518,4685.132,1076.528,4685.058,1076.537,4684.983Zm-8.356-.084c-.077-.049-.155-.138-.231-.136s-.151.092-.226.145c.078.049.156.136.235.136S1068.107,4684.952,1068.181,4684.9Zm3.678.238.084-.059-.1-.048Zm10.614-.058a1.167,1.167,0,0,0-.133.205c-.011.027.044.08.068.121l.217-.134Zm7.919,1.1-.053-.108-.051.108Zm-1.117-.193-.117.057.118.052Z" transform="translate(-1009.078 -4634.485)"/>
    <path id="Path_4387" data-name="Path 4387" d="M1011.854,4672.831c-.168-.092-.485-.246-.777-.437-.116-.076-.177-.238-.262-.359.125-.531.591-.687.973-.894a20.855,20.855,0,0,1,4.83-1.79c1.909-.485,3.841-.882,5.771-1.284,1.529-.318,3.069-.583,4.6-.875.5-.094.989-.2,1.483-.3a52.147,52.147,0,0,1,5.839-.876c1.407-.127,2.8-.357,4.206-.544.1-.013.207-.095.291-.072a6.7,6.7,0,0,0,2.522-.232c2.565-.249,5.131-.5,7.7-.663,1.866-.117,3.74-.081,5.611-.131.7-.019,1.41-.068,2.112-.139a12.507,12.507,0,0,1,3.464-.046,5.318,5.318,0,0,0,1.941-.051,9.6,9.6,0,0,1,2.835-.109,25.418,25.418,0,0,0,4.93.078,24.739,24.739,0,0,1,4.033-.1,21.224,21.224,0,0,0,3.474-.16,6.977,6.977,0,0,1,2.407.042,6.234,6.234,0,0,0,1.751.03,74.674,74.674,0,0,1,7.886.016c2.215.2,4.445.234,6.667.354.6.032,1.205.119,1.81.16a6.47,6.47,0,0,0,1.052.006,3.429,3.429,0,0,1,2.068.286,3.482,3.482,0,0,1,.457,2.2,9.329,9.329,0,0,1-2.227.27c-1.873-.02-3.746.051-5.619.04-.959-.006-1.916-.137-2.876-.167-.7-.022-1.409.047-2.113.041-1.059-.009-2.117-.043-3.175-.076-1.516-.045-3.032-.136-4.549-.142-2.477-.009-4.962.158-7.431.022s-4.94.179-7.415.105c-2.268-.067-4.545.06-6.815.166-1.967.091-3.929.284-5.894.408-1.01.064-2.023.111-3.035.106-2.43-.011-4.842.228-7.257.444-1.407.126-2.825.124-4.234.229-1.51.113-3.018.262-4.521.435-3.977.459-7.86,1.415-11.768,2.236-1.535.323-3.074.63-4.62.891-1.045.176-2.107.243-3.158.389C1013.93,4672.467,1013.041,4672.633,1011.854,4672.831Zm56.655-8.112-.045.089.106.054.062-.143C1068.591,4664.72,1068.55,4664.72,1068.509,4664.719Z" transform="translate(-1006.495 -4620.174)"/>
    <path id="Path_4388" data-name="Path 4388" d="M1108.082,4631.961a3.916,3.916,0,0,1,.492,2.623,11.457,11.457,0,0,0-3.19-.838c-1.2-.14-2.385-.391-3.584-.518-1.6-.168-3.209-.289-4.818-.375-.651-.035-1.31.1-1.966.117-.808.016-1.616-.011-2.424-.033a5.825,5.825,0,0,0-1.058-.065,31.252,31.252,0,0,1-4.964-.028c-.152,0-.357-.072-.446,0-.7.572-1.405.267-2.148.128a3.674,3.674,0,0,0-1.5.11,9.529,9.529,0,0,1-3.32.151,16.506,16.506,0,0,0-2.559.016c-1.564.069-3.126.175-4.69.257-1.363.071-2.727.14-4.091.187-.6.021-1.212-.018-1.818-.027a2.856,2.856,0,0,0-.757.012c-1.434.384-2.922.142-4.365.4a2.3,2.3,0,0,1-.606.041,30.134,30.134,0,0,0-5.114.464c-1.664.127-3.324.323-4.985.491a2.629,2.629,0,0,1-.45.06,26.781,26.781,0,0,0-4.961.533c-1.354.147-2.717.216-4.066.4q-2.327.317-4.633.78c-2.526.506-5.036,1.093-7.563,1.6a55.934,55.934,0,0,1-6.4,1.2,8.923,8.923,0,0,1-2.532.258,1.509,1.509,0,0,1-1.315-1.093.565.565,0,0,1,.191-.673,3.079,3.079,0,0,1,.927-.5,47.4,47.4,0,0,1,5.864-1.495c1.549-.192,3.07-.6,4.613-.856,1.242-.208,2.5-.343,3.746-.494s2.523-.187,3.752-.441a50.048,50.048,0,0,1,5.269-.6,9.343,9.343,0,0,0,1.2-.172,13.8,13.8,0,0,1,3.291-.438,26.787,26.787,0,0,0,3.165-.3c1.755-.193,3.506-.429,5.265-.583,1.255-.11,2.519-.116,3.779-.169.1,0,.2.005.3-.006a40.791,40.791,0,0,1,4.654-.313c1.516,0,3.032-.122,4.549-.184q4.157-.17,8.316-.327a1.784,1.784,0,0,1,.881.108.776.776,0,0,0,.822-.011,2.439,2.439,0,0,1,1.033-.155c2.377.045,4.751-.036,7.126-.094,1.009-.024,2.023.12,3.032.089a38.311,38.311,0,0,1,6.056.216c.695.089,1.416-.056,2.122-.022,2.273.108,4.544.248,6.815.379C1106.023,4631.822,1107.027,4631.893,1108.082,4631.961Zm-40.287.362c-.008-.036,0-.091-.026-.1s-.08-.008-.122-.009l.037.159Z" transform="translate(-1011.727 -4597.089)"/>
  </g>
</svg>
