<svg id="Main_Logo_Animation" data-name="Main Logo Animation" xmlns="http://www.w3.org/2000/svg" width="194" height="199" viewBox="0 0 194 199">
  <g id="Main_Logo_Animation-2" data-name="Main Logo Animation" transform="translate(4)" opacity="0.998">
    <g id="Main_Logo_Animation-3" data-name="Main Logo Animation">
      <rect id="Rectangle_14" data-name="Rectangle 14" width="193" height="193" transform="translate(-3)" fill="#eee" opacity="0"/>
      <rect id="Rectangle_17" data-name="Rectangle 17" width="194" height="194" transform="translate(-4 5)" fill="#eee" opacity="0"/>
      <rect id="Rectangle_15" data-name="Rectangle 15" width="194" height="193" transform="translate(-4 5)" fill="#eee" opacity="0"/>
      <rect id="Rectangle_18" data-name="Rectangle 18" width="194" height="193" transform="translate(-4)" fill="#eee" opacity="0"/>
      <text id="this_is" data-name="this is" transform="translate(92 70)" fill="#1d1d1d" font-size="25" font-family="Poppins-Bold, Poppins" font-weight="700" opacity="0.703"><tspan x="0" y="0">this is</tspan></text>
      <text id="THIS_IS-2" data-name="THIS IS" transform="translate(11 140)" fill="#1d1d1d" font-size="25" font-family="Poppins-Bold, Poppins" font-weight="700" opacity="0.703"><tspan x="0" y="0">THIS IS</tspan></text>
      <text id="SKY" transform="translate(0 79)" fill="#1d1d1d" font-size="87" font-family="Arial-BoldMT, Arial" font-weight="700"><tspan x="0" y="0">SKY</tspan></text>
      <text id="Sea" transform="translate(8 169)" fill="#1d1d1d" font-size="87" font-family="Arial-BoldMT, Arial" font-weight="700"><tspan x="0" y="0">Sea</tspan></text>
      <g id="Sea_Lines" data-name="Sea Lines" transform="translate(-3.505 7.719)">
        <path id="Path_4942" data-name="Path 4942" d="M3312.381,3098.965c-2.078.8-3.611,1.348-5.132,1.975-3.852,1.589-7.775,1.991-11.551.041-3.588-1.854-5.681.129-7.421,5.167a67.452,67.452,0,0,1-4.2,8.992,12.765,12.765,0,0,1-5.381,5.632c-5.68,3.084-9.826-4.078-9.877-11.592-.026-4,.25-8.017.492-12.01.255-4.228.632-8.436.941-12.655a5.594,5.594,0,0,0-.276-1.1,12.182,12.182,0,0,0-1.738,1.318c-.967,1.019-1.818,2.375-2.83,3.232-3.267,2.767-6.085,1.827-8.335-3.095-.978-2.138-2.075-3.529-3.586-3.1-2.2.626-3.771-2.211-5.822-2.361-1.4,1.047-1.9,4-3.735,4.389-.73.154-1.413,2.228-1.921,3.62-1.472,4.034-3.447,6.846-6.261,8.153a10.5,10.5,0,0,0-4.321,4.483c-2.106,3.6-6.214,5.5-9.166,4.142a10.989,10.989,0,0,0-7.666-.642,19.1,19.1,0,0,1-5.618.163c-5.064-.223-9.17-3.657-12.354-10.108-.9-1.813-1.848-3.553-2.908-5.583-.852,1.153-1.528,1.961-2.128,2.9-1.868,2.936-3.667,5.993-5.571,8.863a5.937,5.937,0,0,1-4.369,2.739c-3.888.557-6.852-3.14-7.226-9.478a77.062,77.062,0,0,1,.282-8.44c.109-2.075.317-4.138.472-6.09l-3.809-5.585c-.9,1.149-1.689,2.119-2.452,3.137a12.141,12.141,0,0,1-5.873,4.326c-3.253,1.149-6.228-1.793-6.831-7.15a84.545,84.545,0,0,1-.409-11.262c.36-15.76,2.929-30.8,5.981-45.607,1.751-8.5,3.859-16.8,5.8-25.19a16.557,16.557,0,0,0,.655-3.348,23.976,23.976,0,0,1,2.229-9.091,101.442,101.442,0,0,0,3.379-9.837c1.263-4.133,3.281-7.02,5.961-8.393,1.163,1.835.409,3.477.072,4.785-1.569,6.089-3.323,12.05-4.941,18.108-5.264,19.714-10.192,39.609-12.5,60.962a239.948,239.948,0,0,0-1.086,24.009c-.017,2.322-.022,4.752.979,6.712,4.634-2.7,8.234-9.361,8.494-16.218a200.465,200.465,0,0,1,4.874-35.137c2.462-11.347,4.981-22.686,7.866-33.754,2.085-8,3.932-16.273,7.034-23.47,1.074-2.495,2.292-4.838,3.531-7.123.811-1.493,1.872-2.207,3.123-1.427,1.35.842,2.159,2.391,2.089,4.819-.066,2.353-.205,4.71-.4,7.045a34.314,34.314,0,0,0-.2,7.156c.969-3.077,1.984-6.116,2.9-9.238,2.742-9.393,5.543-18.736,9.439-27.036a40.031,40.031,0,0,1,3.5-6.219c1.631-2.278,3.614-3,5.664-1.52,2.072,1.5,3.01,4.3,2.928,7.956-.062,2.814-.172,5.636-.39,8.426-.143,1.841-.708,3.627.041,5.684,1.319,0,2.714-.028,4.107.008a7.778,7.778,0,0,1,4.989,2.048c2.1,1.8,3.273,4.5,3.421,8.41.162,4.244.288,8.5.568,12.725.168,2.533.6,5.019.887,7.331,1.289.364,1.455-.765,1.723-1.9q1.477-6.265,3.05-12.468c.633-2.484,1.456-4.6,3.44-4.53.412.014,1.027-.885,1.222-1.6.537-1.986,1.524-2.244,2.509-1.731a58.2,58.2,0,0,1,4.974,3.26c.21,2.353.438,4.632.61,6.92.155,2.05.247,4.114.434,7.339.541-1.682.787-2.407,1.01-3.151,1.645-5.5,3.212-11.065,4.953-16.482,1.065-3.317,2.112-6.8,4.346-8.551,5.007,1.373,5.007,1.373,6.975,5.957.6-1.054,1.165-2.052,1.738-3.031.894-1.526,1.764-3.093,2.7-4.544,1.48-2.3,3.207-3.051,5.192-2a10.079,10.079,0,0,0,1.687.631c2.094.677,3.789,2.182,4.624,5.66a22.486,22.486,0,0,0,1.113,2.791c.538-1.9,1.008-3.3,1.34-4.785a70.552,70.552,0,0,1,4.917-14.871c1.249-2.641,2.627-3.467,4.507-2.572.415.2.851.284,1.264.491,1.828.916,2.534,2.122,2.281,5.106-.354,4.19-.963,8.332-1.563,12.456-.365,2.511-.985,4.921-1.375,7.425-3.421,21.979-7.408,43.64-12.889,64.527-2.275,8.67-4.794,17.251-6.13,26.478-1.129,7.8-1.918,15.746-2.762,23.656-.7,6.519-1.331,13.062-1.846,19.626a77.68,77.68,0,0,0,.5,16.795c.663-.367,1.171-.395,1.418-.826,2.962-5.161,5.927-10.325,7.993-16.646a7.69,7.69,0,0,0,.161-4.744c-2.019-6.685-1.981-13.662-1.194-20.8.948-8.59,1.7-17.244,2.767-25.791s2.389-17,3.668-25.468c1.348-8.923,3.438-17.508,4.905-26.333,2.586-15.528,7.464-29.1,12.268-42.808,2.292-6.538,4.594-7.9,9.544-6.052,4.084,1.527,7.914,4.662,11.4,8.416a43.272,43.272,0,0,1,8.85,15.315,172.371,172.371,0,0,1,6.279,21.754c1.447,7.007,1.9,14.3,2.571,21.532a235.6,235.6,0,0,1,.265,36.06,273.2,273.2,0,0,1-5.907,40.573,134.056,134.056,0,0,1-6.875,23.594c-1.143,2.723-2.241,5.535-3.578,7.989-3.973,7.3-10.66,6.95-14.317-.834a56.987,56.987,0,0,1-2.865-8.651C3313.856,3105.779,3313.237,3102.651,3312.381,3098.965Zm8.733-135.83c-1.619,3.711-1.722,7.107-2.073,10.269-.93,8.383-2.178,16.608-3.793,24.708-1.115,5.593-2.291,11.215-2.94,16.974a90.616,90.616,0,0,0-.271,16.93c1.1,14.547,2.789,28.917,4.8,43.189.151,1.07.2,2.406,1.125,2.588.3-.18.639-.216.808-.515,5.208-9.25,9.245-19.826,12.9-30.823a25.261,25.261,0,0,0,.983-4.678,93.548,93.548,0,0,0,.852-16.189,142.055,142.055,0,0,0-2.363-21.561c-1.767-8.725-3.5-17.48-5.512-26.054C3324.505,2973.184,3322.842,2968.737,3321.114,2963.135Zm-39.973-7.916c-.817,1.057-1.418,1.479-1.67,2.219-1.608,4.731-3.395,9.363-4.633,14.354-1.566,6.316-2.674,12.941-3.965,19.439-1.068,5.379-2.49,10.658-3.093,16.177-1.136,10.4-3.953,20.21-4.039,30.963a9.457,9.457,0,0,1-.221,1.368,87.57,87.57,0,0,0-1.106,12.592c-.044,3.294-.4,6.575-.535,9.87-.065,1.531.045,3.081.085,5.132,2.389-1.351,3.522-4.05,4.7-6.68,7.093-15.877,11.7-33.551,14.367-52.685a224.4,224.4,0,0,0,2.383-39.378C3283.25,2964.134,3282.968,2959.677,3281.141,2955.219Zm47.327,8.457c.538,4.843.609,9.2,1.533,13,1.612,6.627,2.346,13.6,3.54,20.378a259.69,259.69,0,0,1,3.024,28.509,107.023,107.023,0,0,1-2.647,31.176,97.9,97.9,0,0,1-9.562,25.063c-1.159,2.1-2.333,4.19-3.57,6.168-1.538,2.46-1.75,5.2-1.037,8.419.933,4.21,1.74,8.5,2.643,12.725.462,2.17.892,4.427,2.428,5.843a19.886,19.886,0,0,0,1.841-3.01,109.625,109.625,0,0,0,5.4-15.284c1.239-5.033,2.824-9.86,3.869-14.989,2.006-9.833,4.172-19.667,5.468-29.777a166.5,166.5,0,0,0,.743-34.518c-.36-4.43-1.093-8.775-1.516-13.2a119.667,119.667,0,0,0-7.858-32.692C3331.712,2968.81,3330.71,2965.857,3328.468,2963.676ZM3182.4,3065.994c.373.121.546.277.651.2,4.373-3.456,7.37-8.672,8.193-16.824.494-4.877.929-9.818,1.785-14.538,1.349-7.443,3.039-14.721,4.568-22.079.6-2.889.832-6.145,1.806-8.63,1.721-4.382,2.859-9.207,4.418-13.684,3.432-9.857,7.1-19.446,12.306-27.166a13.892,13.892,0,0,0,2.219-5.95c.385-2.752.822-5.485,1.219-8.233a34.26,34.26,0,0,0-.047-10.515c-.432-2.626-2.088-3.43-3.386-1.633a14.189,14.189,0,0,0-1.478,2.573c-2.182,4.971-4.521,9.792-6.443,15.025-3.264,8.89-5.973,18.244-8.555,27.754-3.507,12.915-6.977,25.812-9.591,39.3-1,5.171-1.75,10.545-3.133,15.433-2.272,8.03-3.125,16.648-4.5,25.051A25.186,25.186,0,0,0,3182.4,3065.994Zm50.475-78.394c-.915,2.539-1.375,3.673-1.751,4.88-2.943,9.459-5.225,19.469-8.921,28.3-1.627,3.887-3.075,7.972-4.65,11.919a28.093,28.093,0,0,0-1.786,10.033c-.288,14.561,1.428,28.692,3.251,42.8a48.875,48.875,0,0,0,1.212,5.15c5.085-3.592,5.3-3.9,5.114-11.99a204,204,0,0,1,1.225-28.235c1.319-11.355,3.082-22.573,4.683-33.839a43.368,43.368,0,0,1,1.317-7.465C3234.812,3002.572,3234.227,2996.017,3232.874,2987.6Zm59.3,86.078c.973.279,1.244-.719,1.517-1.447,5.012-13.391,8.013-28.187,11.042-42.945a36.789,36.789,0,0,0,.513-6.993q.121-21.619.111-43.24a15.514,15.514,0,0,0-.673-2.89,33.674,33.674,0,0,0-3.139,9.866c-1.272,6.52-2.133,13.21-3.195,19.809-1.613,10.028-2.692,20.225-4.13,30.3-.522,3.662-.762,7.437-1.06,11.176-.466,5.854-.97,11.708-1.261,17.588A33.676,33.676,0,0,0,3292.171,3073.678Zm-48.5-92.992c-.494,1.775-.939,3.011-1.191,4.343-1.151,6.083-2.363,12.143-3.333,18.3a84.334,84.334,0,0,0-.779,19.65,126.511,126.511,0,0,1,.083,14.113c-.257,7.058-.671,14.11-1.183,21.133a79.88,79.88,0,0,1-1.372,10.312c-.829,4-2.033,7.794-3.033,11.7-.359,1.406-1.082,2.861-.148,4.41.159-.095.345-.111.421-.269.35-.73.7-1.468,1-2.262,5.033-13.574,7.639-28.378,8.511-44.139.883-15.943,1.939-31.862,2.92-47.791.336,7.508.427,15,.532,22.486.013.939.1,1.878.167,2.813a1.239,1.239,0,0,0,.18.622c.066.071.24-.125.529-.3.205-1.675.538-3.484.634-5.325q.64-12.341,1.15-24.7a57.822,57.822,0,0,0-.133-6.333c-.078-1.11-.372-2.309-1.648-2.339-.442,1.6-.935,3.377-1.424,5.16Zm-28.2,115.71a92.743,92.743,0,0,1-3.619-19.895c-.172-2.335-.133-4.751-.483-7.008a55.376,55.376,0,0,1-.513-13.972c.125-1.295.21-2.857-1.06-3.65-4.126,7.083-7.293,15.494-10.849,23.407a10.846,10.846,0,0,0-.5,6.743A42.478,42.478,0,0,0,3203,3094.7C3206.46,3100.557,3210.326,3101.16,3215.466,3096.4Zm90.694-49.636c-.52,1.523-.909,2.438-1.163,3.443-2.247,8.918-4.446,17.869-6.708,26.775-.994,3.914-2.151,7.719-3.147,11.634-.93,3.65.255,7.173,2.62,8.065a3.3,3.3,0,0,0,.854.2c3.708.348,7.149-1.008,10.262-4.384,1.577-1.711,2.236-3.812,1.865-7.179-1.125-10.2-2.014-20.472-3.007-30.713A32.8,32.8,0,0,0,3306.16,3046.76Zm-89.612-25.925c2.127-.9,2.689-2.926,3.28-4.686q4.675-13.933,9.213-27.989a70,70,0,0,0,1.757-7.22c1.4-6.8-.237-13.942-4.338-18.493a15,15,0,0,0-2.049,3.252,84.544,84.544,0,0,0-2.831,9.478c-2.5,11.125-3.639,22.777-4.629,34.456C3216.657,3013.085,3216.689,3016.61,3216.547,3020.836Zm-19.907,46.02a52.68,52.68,0,0,0,7.088-11.947c1.494-3.475,2.994-6.969,4.68-10.187a32,32,0,0,0,3.294-13.541c.347-7.064.88-14.1,1.3-21.16a20.141,20.141,0,0,0-.261-2.821c-.617.5-1.165.634-1.319,1.113-1.479,4.575-3.254,9.011-4.231,13.873-1.246,6.2-3.456,11.36-5.458,16.792-1.486,4.034-2.969,8.07-4.411,12.147C3195.643,3055.86,3195.466,3060.788,3196.641,3066.855Zm-18.963-21.7a15.754,15.754,0,0,0,1.723-2.742,473.1,473.1,0,0,0,15.56-71.665,20.328,20.328,0,0,0-.107-3.33c-.522.375-.916.446-1,.748-2.029,7.27-4.257,14.419-5.982,21.881-3.763,16.289-7.385,32.679-9.608,49.779C3178.091,3041.14,3177.971,3042.466,3177.677,3045.16Zm73.68,3.906c2.438-3.257,3.565-7.791,4.357-12.54,1.175-7.037,2.237-14.125,3.287-21.218,1.49-10.065,2.883-20.169,3.632-30.472.074-1.025.344-2.356-.882-3.038a29.213,29.213,0,0,0-1.631,4.651c-1.331,7.211-2.556,14.476-3.756,21.749-.977,5.917-1.557,12.06-2.867,17.762a107.97,107.97,0,0,0-2.444,22.694C3251.052,3048.778,3251.237,3048.909,3251.357,3049.066ZM3190.3,3066.63c-.433.045-.616-.029-.7.088-2.576,3.35-5.182,6.646-7.683,10.142a9.373,9.373,0,0,0-1.216,3.563,50.531,50.531,0,0,0-.129,13.994,9.338,9.338,0,0,0,.844,2.257,5.4,5.4,0,0,0,1.4-.462c2.51-1.7,3.961-5.248,5.589-8.545a28.507,28.507,0,0,0,2.275-20.281A4.623,4.623,0,0,0,3190.3,3066.63Zm7.683-30.329c4.656-6.219,15.508-45.083,16.515-58.2-.413.392-.841.571-1.036,1.022-1.577,3.629-3.42,7.062-4.6,11.023-2.948,9.936-5.653,20.071-8.324,30.22A89.3,89.3,0,0,0,3197.987,3036.3Zm118.032-82.058c-1.584-.466-1.877.792-2.12,1.788-2.14,8.761-3.393,25.812-2.439,33.22.373-.408.926-.676.988-1.13C3313.986,2976.991,3316.664,2966.153,3316.019,2954.243Zm-80.888,78.409c-2.5,10.469-3.615,26.408-2.432,32.28C3235.345,3059.1,3236.862,3040.963,3235.131,3032.652Zm20.465,22.5c-1.586,3.94-2.853,6.682-3.841,9.671a10.817,10.817,0,0,0-.04,6.745c.734,2.238,1.829,3.366,3.613,3.469C3255.9,3068.769,3255.647,3062.638,3255.6,3055.153Zm-31.9,43.68c.546.245,1.021.728,1.242.512a21.1,21.1,0,0,0,3.059-3.492,1.715,1.715,0,0,0-.692-2.619C3226.162,3094.889,3224.648,3096.113,3223.7,3098.833Zm16.649-22.536c1.622-.506,1.424-2.34,1.221-4.1-.035-.3-.353-.521-.6-.865C3239.952,3072.624,3239.9,3074.226,3240.347,3076.3Zm-63.129-14.483c1.488-3.651,1.488-3.651,1.183-6.8A12.564,12.564,0,0,0,3177.218,3061.814Zm113.425-80.025.117.439.1-.451Z" transform="translate(-3155.776 -2932.202)"/>
      </g>
      <g id="Sky_Lines" data-name="Sky Lines" transform="translate(-3.505)">
        <path id="Path_4946" data-name="Path 4946" d="M2919.664,3201.983l-.012-.01-.032.012Z" transform="translate(-2919.619 -3194.917)"/>
        <path id="Path_4947" data-name="Path 4947" d="M2791.564,3384.086c-.043-.031-.1-.062-.143-.093-.013.033-.029.063-.044.1Z" transform="translate(-2684.136 -3261.932)"/>
        <path id="Path_4948" data-name="Path 4948" d="M2801.542,3382.063l-.272-.027c-.011.069-.029.147-.041.216C2801.257,3382.239,2801.542,3382.063,2801.542,3382.063Z" transform="translate(-2690.259 -3265.982)"/>
        <path id="Path_4949" data-name="Path 4949" d="M2718.878,3370.377c-.083.012-.168.018-.251.029.064.1.161.159.228.25.033,0,.058,0,.09,0C2718.924,3370.565,2718.9,3370.471,2718.878,3370.377Z" transform="translate(-2639.397 -3290.392)"/>
        <path id="Path_4950" data-name="Path 4950" d="M2562.346,3291.464a1.628,1.628,0,0,0,.434-.048c-.37-.09-.743-.184-1.117-.274A2.249,2.249,0,0,0,2562.346,3291.464Z" transform="translate(-2385.062 -3205.342)"/>
        <path id="Path_4951" data-name="Path 4951" d="M2634.687,3236.964l.16.054c.019-.031.031-.064.05-.095-.032.012-.067.02-.1.031Z" transform="translate(-2587.688 -3117.491)"/>
        <path id="Path_4952" data-name="Path 4952" d="M2632.616,3286.524c-.1.035-.193.072-.292.107.062,0,.125,0,.189,0,.037-.031.071-.066.108-.1Z" transform="translate(-2586.251 -3204.945)"/>
        <path id="Path_4953" data-name="Path 4953" d="M2779.59,3378.83h-2.257l-.034.033c.05-.005.09.006.141,0Z" transform="translate(-2676.361 -3272.761)"/>
        <path id="Path_4954" data-name="Path 4954" d="M2781.088,3325.155c-.073.083-.146.17-.22.255.155-.058.309-.122.464-.184l-.218-.048Z" transform="translate(-2677.785 -3207.894)"/>
        <path id="Path_4955" data-name="Path 4955" d="M2683.241,3332.748c-1.556-.607-3.155-.861-4.644-2.182-1.119-.99-2.51-.76-3.754-1.491-1.728-1.014-3.552-1.488-5.277-2.511a29.334,29.334,0,0,0-7.694-3.516c-.515-.126-.99-.7-1.5-.955a4.168,4.168,0,0,0-2.217-.491c-.62.047-1.179-1.378-1.979-1.658-2.458-.861-4.883-2.032-7.339-2.945-2.216-.827-4.45-1.508-6.683-2.179a3.862,3.862,0,0,0-1.809-.08c-.539.1-1.041.4-1.409-.652a.352.352,0,0,0-.419-.212c-1.881,1.048-3.633-1-5.478-.724a4.9,4.9,0,0,0-3.205-1.828c-.9-.232-1.811-.338-2.714-.542-2.787-.627-5.565-1.4-8.359-1.864-1.5-.249-3.016.032-4.537-.194a44.936,44.936,0,0,0-10.208-.619,19.09,19.09,0,0,1-4.539-.666c-2.119-.351-4.236-.732-6.32.495a.865.865,0,0,1-.673.113c-2.728-.823-5.452-.257-8.178-.007a8.283,8.283,0,0,1-1.141-.059,61.708,61.708,0,0,0-8.163-.026c-1.432.124-2.841-.472-4.309-.215a16.125,16.125,0,0,1-4.468.573c-1.494-.16-3.014.551-4.525.817-2.039.36-4.08.717-6.125.944a6.375,6.375,0,0,1-2-.417c-.028-.268-.055-.536-.084-.8a9.446,9.446,0,0,1,1.61-1.216c1.986-.892,3.978-1.739,5.982-2.488,1.11-.414,2.248-.573,3.37-.892,2.627-.749,5.254-1.494,7.874-2.31.593-.185,1.137-.615,1.781-.307.31.147.7-.254,1.057-.437.8-.411,1.581-.9,2.386-1.233a.8.8,0,0,1,.849.285,2,2,0,0,0,2.655.425c2.5-1.239,5.06-1.066,7.606-1.277a9.178,9.178,0,0,0,1.549-.35c.3-.078.612-.38.882-.277,1.973.745,3.924-.346,5.9-.151s3.952.041,5.93.044a32.821,32.821,0,0,0,5.931-.05c2.643-.478,5.3.223,7.931-.625,1.431-.462,2.854.039,4.288.4a39.66,39.66,0,0,0,8.83.918c2.042.054,4.082.744,6.137-.023.545-.2,1.167.276,1.755.433a12.954,12.954,0,0,0,6.329.559c.5-.114,1.031.451,1.556.534,1.352.216,2.644,1.026,4.046.89,1.018-.1,2.013.916,3.087,1.049.963.12,1.9,1.073,2.861-.048a.334.334,0,0,1,.44.013c1.088.844,2.227.476,3.35.634a25.792,25.792,0,0,1,4.908,1.654c.293.106.574.414.866.439,4.491.386,8.88,1.97,13.248,3.767,1.775.73,3.549,1.469,5.317,2.252a4.281,4.281,0,0,1,1.27.9,3.229,3.229,0,0,1,.813,2.328,26.059,26.059,0,0,1-.058,2.881c-.059.543-.087,1.084-.133,1.626,1.341-6.1,2.837-12.156,3.882-18.311a17.612,17.612,0,0,0-5.539-3.093c-1.571-.49-3.134-1.074-4.694-1.66-1.635-.613-3.251-1.406-4.9-1.893a71.725,71.725,0,0,0-7.223-1.775c-3.1-.573-6.147-2-9.293-1.823a9.822,9.822,0,0,1-4.018-.831,16.8,16.8,0,0,0-3.618-.688,7.309,7.309,0,0,1-1.818-.129c-3.287-1.36-6.654-.822-9.973-1.407-1.557-.274-3.166.43-4.89.713-.649-1.035-1.412-2.219-2.522-1.023-.192.205-.56-.082-.84-.191a6.247,6.247,0,0,0-1.317-.555c-.909-.1-1.83.042-2.734-.125a6.907,6.907,0,0,0-2.93-.178c-.864.205-1.769-.265-2.657-.306-1.9-.088-3.8-.009-5.7-.148-2.043-.148-4.1.361-6.133-.357a2.061,2.061,0,0,0-2.179.254c-.757.573-1.764.083-2.66.041a6.1,6.1,0,0,0-2.031-.1,6.792,6.792,0,0,1-3.841.3c-.5-.139-1.042.288-1.568.395a10.929,10.929,0,0,1-1.316.121c-.448.038-.9.076-1.344.1-.905.054-1.809.165-2.713.134-1.887-.062-3.789-.535-5.656-.236-3.024.481-6.032,1.3-9.082,1.127a1.571,1.571,0,0,0-1.11.334,2.091,2.091,0,0,1-2,.383,3.513,3.513,0,0,0-1.589.054c-2.181.491-4.353,1.122-6.539,1.531-3.252.61-6.514,1.015-9.765,1.63-1.657.313-3.284,1.2-4.979.517a1.06,1.06,0,0,0-.894.242,14.154,14.154,0,0,1-5.766,2.075,1.778,1.778,0,0,0-.224.077c-1.42.411-2.833.929-4.262,1.194-1.131.21-2.367.614-3.4.026-1.472-.838-2.81.5-4.2.075-1.367,1.421-2.815.675-4.237.464-.234-.034-.452-.464-.89-.944a10.436,10.436,0,0,1,1.717-1.855c2.451-1.389,4.922-2.663,7.392-3.949a5.011,5.011,0,0,1,1.78-.7c1.121-.087,1.883-.823,2.2-2.881.168-1.088.529-2.066,1.181-2.333,1.325-.542,2.611-1.522,4.011-1.294.122.02.234.249.352.382-.091.612-.18,1.224-.258,1.761,1.135,1.624,2.26.946,3.362.5,2.659-1.085,5.278-2.539,8.028-2.8a2.95,2.95,0,0,0,1.538-.721,5,5,0,0,0,.759-1.351h-.038c.02-.016.039-.034.059-.05-.456-1.381-.367-2.207.3-2.314a16.39,16.39,0,0,1,2.356-.023l-2.655,2.338v0l-.021.046a4.547,4.547,0,0,1,1.758.162c1.917.916,3.76.042,5.613-.577.16-.054.357-.57.381-.907a1.73,1.73,0,0,0-.261-1,6.774,6.774,0,0,0-1.264-.839c.833-.414,1.474-.758,2.122-1.03.116-.048.269.2.462.356-.059.844-.121,1.721-.193,2.759.529.238.976.69,1.377.582,1.65-.448,3.274-1.224,4.928-1.577,1.551-.331,3.062-1.5,4.683-.77.414.188.9-.047,1.346-.177,1.42-.414,2.876.289,4.292-.49a.736.736,0,0,1,.864.326c.7,1.034,1.459.51,2.194.375.6-.111,1.185-.489,1.782-.553,2.4-.252,4.821.719,7.222-.25a.666.666,0,0,1,.665.188c.811.762,1.576.354,2.42.1s1.8-1.076,2.658-.048a2,2,0,0,0,2.418.532c1.346-.364,2.693-.708,4.032.221a2.337,2.337,0,0,0,1.332.427c.92,0,1.945.781,2.679-1.018.094-.229.5-.359.6-.2.576.855,1.112,1.307,1.825.4.151-.192.6.071.8.368a1.035,1.035,0,0,0,1.493.434,5.038,5.038,0,0,1,1.792-.408,23.545,23.545,0,0,0,4.061-.345c1.172-.248,2.391.372,3.595-.2.249-.121.629.1.85.409.761,1.051,1.594.69,2.418.557a8.649,8.649,0,0,1,1.582-.3c.685.022,1.3.623,1.938,1s1.54-.454,2.18-.035c.962.633,1.8.3,2.741.167a14.568,14.568,0,0,1,4.761.446c3.534.694,7.022,2.118,10.617,1.96.771-.034,1.456.289,2.1-.77.446-.733,1.2-.749,1.445.022.44,1.391,1.434.829,1.864,2.253.287.949.741.74,1.148-.431.32-.92.7-1.431,1.291-1.333.663.11.8.939.893,2.007.1,1.105.584,1.323.854.4.335-1.16.919-1.823,1.429-1.482,1.091.732,2.384.954,3.152,3.424.307-2.1.887-2.823,1.91-2.206a19.773,19.773,0,0,0,2.212.964c1.4.638,2.791,1.39,4.2,1.925a4.888,4.888,0,0,0,5.654-1.222c.121-1.034.239-1.828.3-2.638.141-1.816-.043-2.444-.969-3.265-.614-.547-1.258-.982-1.866-1.547a5.236,5.236,0,0,1-.615-1.051c.272-.23.4-.42.539-.443.743-.118,1.486.75,2.235-.024.892-.921.628-2.695.909-4.053.544-2.638.409-3.291-.846-4.719a30.1,30.1,0,0,0-9.879-7.344c-2.417-1.163-4.865-2.133-7.313-3.068-3.792-1.448-7.575-3.031-11.4-4.125a104.984,104.984,0,0,0-15.862-3.159c-1.362-.171-2.714-.817-4.074-.856-3.111-.09-6.218-.126-9.289-1.22a3.58,3.58,0,0,0-1.139-.034c-1.367-.029-2.732-.065-4.1-.09-1.6-.03-3.191-.045-4.787-.083a2.8,2.8,0,0,1-1.127-.14,6.012,6.012,0,0,0-5.6.218,1.28,1.28,0,0,1-1.542-.214,4.262,4.262,0,0,0-3.114-.84,70.719,70.719,0,0,1-12.272-.368c-1.507-.184-3.078-.649-4.522-.12-1.849.677-3.61.258-5.413,0a6.4,6.4,0,0,0-2.5-.066,8.267,8.267,0,0,1-4.991.223c-.358-.127-.751.093-1.128.112-1.137.057-2.276.08-3.412.143-1.749.1-3.547-.219-5.234.413-3.122,1.167-6.33.39-9.426,1.727-.2.087-.434-.076-.652-.109a9.2,9.2,0,0,0-1.783-.237c-3.493.179-6.985.438-10.477.588a4.7,4.7,0,0,1-2-.527c-.214-.094-.364-.668-.653-1.239a4.784,4.784,0,0,0,.991-.7c1.189-1.433,2.428-2.089,3.882-1.479a2.815,2.815,0,0,0,2.037-.065c1.225-.444,2.612-.292,3.37-2.767a1.3,1.3,0,0,1,1.417-1.044c1.431.068,2.85.181,4.122-1.417.277-.348.736-.233,1.112-.309a4.343,4.343,0,0,0,1.582-.325,5.769,5.769,0,0,1,4.065-.542,11.69,11.69,0,0,1,4.724,1.158c.714.414,1.546.732,2.142-.4.649-1.23,1.365-1.077,2.092-.649.607.359,1.133.62,1.724-.119.177-.222.549.066.831.123.363.075.763.368,1.083.192,1.916-1.052,3.922-.368,5.853-1.1.874-.329,1.839-.944,2.639-.569.905.426,1-.693,1.514-1.538,1.364,1.353,2.813,1.158,4.284.008.368-.286.873-.015,1.314.041.828.105,1.734.684,2.464.258a4.33,4.33,0,0,1,3.355-.323,4.7,4.7,0,0,0,2.261-.173,20.191,20.191,0,0,1,6.127-.395c2.655.055,5.306.786,7.965-.2a5.581,5.581,0,0,1,3.6.177,5.78,5.78,0,0,0,2.495.336c2.044-.309,4.112.079,6.14-.824.563-.251,1.2.057,1.806.1,2.1.163,4.2,1.284,6.322.253.266-.128.587.124.882.191.744.167,1.485.356,2.232.483a7.217,7.217,0,0,1,2.034.272c2.39,1.137,4.824.911,7.255,1.068a39.485,39.485,0,0,1,5.652.953c1.426.305,2.837.813,4.259,1.172a8.6,8.6,0,0,0,3.154.564,7.831,7.831,0,0,1,3.624.419,9.456,9.456,0,0,0,2.714.663c3.408.05,6.6,1.881,9.788,3.724.506.292,1,.671,1.514.911,1.343.624,2.021.035,2.488-2.273.307-1.515.516-3.1.76-4.6.321-.153.551-.4.752-.336,1.409.421,2.041-.994,2.585-3.085a29.167,29.167,0,0,0,.617-6.846c.054-2.934-.3-4.128-1.788-5.026a19.215,19.215,0,0,0-4.848-2.237,67.044,67.044,0,0,0-12.494-2.227c-1.738-.124-3.469-.509-5.2-.806-1.054-.181-2.106-.472-3.162-.619-.523-.073-1.072.25-1.579.085a46.822,46.822,0,0,0-10.177-2.026c-4.1-.386-8.193-.929-12.29-1.33-1.21-.117-2.429.049-3.645.022-1.432-.033-2.866-.392-4.293.255a1.324,1.324,0,0,1-1.107-.125,7.253,7.253,0,0,0-5.2-.174,15.268,15.268,0,0,1-6.812.08,3.116,3.116,0,0,0-2.031-.017c-1.5.787-3.01.614-4.528.572a2.572,2.572,0,0,0-1.355.094c-1.646.9-3.325.148-4.982.405-.279.043-.589-.52-.939-.858.245-.386.344-.673.472-.723a9.03,9.03,0,0,1,1.792-.556c1.439-.219,2.882-.361,4.323-.528,1.744-.2,3.487-.388,5.231-.606.829-.1,1.656-.272,2.484-.395a61.957,61.957,0,0,1,7-.953,41.859,41.859,0,0,0,6.368-.178,17.256,17.256,0,0,1,4.552.1c1.44.12,2.875.492,4.315.572,2.736.151,5.473.127,8.21.259,3.192.153,6.384.435,9.579.585,2.575.122,5.125,1.078,7.716.661.366-.06.749.213,1.125.313.973.26,1.945.553,2.92.757,1.134.235,2.278.324,3.409.592,4.3,1.017,8.594,2.093,12.892,3.123a28.3,28.3,0,0,1,3.162.644c3.278,1.183,6.608,1.848,9.83,3.583,2.7,1.452,5.439,2.612,8.157,3.928,1.469.712,2.925,1.517,4.4,2.209,1.214.573,1.861-.019,2.382-2.064a24.266,24.266,0,0,0,.272-7.29,2.865,2.865,0,0,0-.651-1.577,21.012,21.012,0,0,0-3.632-3.408c-3.024-1.832-6.105-3.351-9.169-4.971-.582-.308-1.191-.45-1.777-.741a81.371,81.371,0,0,0-17.71-6.021,3.769,3.769,0,0,0-1.822-.062,5.464,5.464,0,0,0-1.438.981l0,0,1.707-.243c0,.084.007.167.013.25-.572,0-1.144,0-1.717,0l0,0h-.009l.006,0a1.161,1.161,0,0,0-1.221-.8c-2.727-.222-5.452-.453-8.177-.753-2.429-.266-4.853-.711-7.283-.928-3.039-.273-6.083-.454-9.127-.566-4.638-.173-9.28-.345-13.92-.339-2.655,0-5.309.359-7.964.542s-5.317.247-7.97.553q-6.372.738-12.736,1.741c-4.391.686-8.78,1.423-13.158,2.312-2.489.5-4.957,1.359-7.435,2.052-5.784,1.621-11.6,2.928-17.29,5.528-3.1,1.415-6.243,2.472-9.345,3.857a12.916,12.916,0,0,0-2.932,2.2,4.96,4.96,0,0,0-1.246,3.262c-.147,1.474-.43,2.9-.607,4.372-.187,1.542-.771,2.546-1.531,2.727-1.235.293-2.541,2.32-3.757-.2-.087-.184-.43-.007-.649.062a3.5,3.5,0,0,0-1.731,1.869c-.467.879-1.022,1.012-1.672.681a5.562,5.562,0,0,0-4.267,0,38.805,38.805,0,0,0-5.955,2.628c-1.6.792-3.3,1.056-4.71,2.882-1.819.039-3.32,1.823-4.933,2.976a8.923,8.923,0,0,0-3.532,5.5,7.445,7.445,0,0,1-1.056,2.067c-.387.637-.822,1.18-1.21,1.728a25.032,25.032,0,0,0,1.019,10.058,12.175,12.175,0,0,1,.3,2.025c-.6.819-1.171,1.489-1.663,2.316a5.012,5.012,0,0,0-.746,1.969,27.155,27.155,0,0,0,.458,8.885c.861,3.6,2.631,4.737,4.646,4.954a25.844,25.844,0,0,0,2.962.189c3.421-.026,6.849.112,10.261-.24a49.986,49.986,0,0,1,5.424-.5c2.8.02,5.6-.38,8.405-.51.78-.036,1.621-.323,2.382.562-.158.38-.226.723-.333.77-2.07.877-4.135,1.8-6.22,2.552-2.741.993-5.5,1.83-8.248,2.791-.24.084-.437.584-.656.891l-.076-.045c-.03.012-.06.031-.087.024-.049-.013-.091-.1-.136-.155l.223.131c.03-.011.062-.016.095-.024-.65-1.127-1.383-.808-2.133-.435-2.77,1.381-5.56,2.658-8.314,4.146a47.93,47.93,0,0,0-4.221,2.894l-.407-.193c.138.06.277.119.42.178-.349-.568-.794-1.191-1.212-.649a32.7,32.7,0,0,0-2.6,3.949,5.064,5.064,0,0,0-.385,2.269,49.236,49.236,0,0,0,.723,7.223c.565,2.85,1.509,3.987,3.005,4.073,1.365.078,2.732-.06,4.1-.055.738,0,1.515-.483,2.344.591a14.034,14.034,0,0,1-.017,2.224,23.326,23.326,0,0,0,.341,8.433,6.223,6.223,0,0,0,1.456,3.493c1.314,1.156,1.455,3.308,1.356,5.589a18.127,18.127,0,0,1-.269,1.994c-.58,3.717-.618,7.276.909,10.448a17.106,17.106,0,0,1,3.125,1.046c1.006.545,2.125-.576,3.052.812a.287.287,0,0,0,.435-.041c.81-1.329,1.71-.18,2.521-.39,1.109-.289,2.068.427,3.1.583a31.784,31.784,0,0,0,3.177.133,1.35,1.35,0,0,1,.9.225c2.081,1.86,4.541.544,6.592,2.6,1.965.392,3.929.77,5.891,1.179.976.2,1.951.416,2.919.708a22.534,22.534,0,0,0,2.686.645,63.352,63.352,0,0,1,6.949,1.9c.222.064.429.294.65.383a2.071,2.071,0,0,0,.9.243c1.919-.156,3.728,1,5.592,1.489.6.158,1.258.669,1.781.377.912-.51,1.616-.161,2.357.7a2.46,2.46,0,0,0,1.042.753c1.343.44,2.7.734,4.039,1.216a14.948,14.948,0,0,1,2.819,1.381c1.426.886,1.417.943,2.914-.53.44.828.824,1.881,1.591,1.75-.013-.044-.032-.073-.045-.121.016-.006.033-.007.05-.014-.061-.612-.144-1.272.394-1.3.152-.008.309.381.464.586-.089.175-.161.435-.271.505a2.059,2.059,0,0,1-.586.206c0,.045.01.09.014.135-.006,0-.012,0-.019,0a2.069,2.069,0,0,0,1.223,1.413c1.461.709,2.9,1.579,4.365,2.238a24.932,24.932,0,0,0,4.841,1.82c.9.192,1.766.149,2.53,1.227.133.188.492-.143.773-.245-.275-1.261-.525-2.233-.684-3.25a1.8,1.8,0,0,1,.357-.924c.084-.123.307-.083.42.03a5.623,5.623,0,0,1,.527.774c.726,1.07.255,2.565.417,3.981a9,9,0,0,0,3.1,2.023c1.4.461,2.855.088,4.207,1.089.833.616,1.71,1.032,2.566,1.551.356.217.709.5,1.061-.426-.3-.61-.615-1.254-1.117-2.276a12.2,12.2,0,0,1,1.342-.095c.875.047,1.422.684,1.459,2.457.008.37.35.717.561,1.074l.483-2.6q1.661.4,3.308.792c.025-.361.055-.733.092-1.2-.689-.662-1.407-1.209-2.162-.877a1.571,1.571,0,0,1-1.75-.572,17.28,17.28,0,0,0-3.14-2.321c-.072-.043-.177-.106-.194-.2a5.14,5.14,0,0,1-.127-1.1c.007-.149.249-.419.357-.382a8.069,8.069,0,0,0,4.05.674c.253-.048.608.272.784.633.45.914.938,1.2,1.617,1.052,1.992-.424,3.976.3,5.85,1.2,2.137,1.033,4.34,1.15,6.462,2.177a19.7,19.7,0,0,0,2.681.979,42.8,42.8,0,0,1,4.472,1.382c2.948,1.3,5.978,1.975,8.867,3.729a.867.867,0,0,0,.219.114c2.736.587,5.322,2.285,7.965,3.551a40.509,40.509,0,0,1,6.112,3.25c1.44,1.012,3.178.932,4.284,3.411a.782.782,0,0,0,.842.452c1.137-.356,2.074.164,2.948,1.542.3.472.849.411,1.276.646,1.814,1,3.691,1.736,5.151,4.176a3.377,3.377,0,0,0,.72.717,14.461,14.461,0,0,0,2.534-4.947c1.124-4.037.477-7.551-1.747-9.578-.2-.187-.409-.372-.617-.542a72.584,72.584,0,0,0-14.823-9.521c-2.269-1.082-4.591-1.709-6.841-3.023a43.728,43.728,0,0,0-6.16-2.836c-2.8-1.106-5.624-2.127-8.428-3.258-.814-.327-1.62-.732-2.428-1.119-2.12-1.016-4.261-1.92-6.355-3.1a17.522,17.522,0,0,0-5.057-2.206,2.359,2.359,0,0,1-1.09-.483c-2.78-2.32-5.851-2.775-8.721-4.513-.634-.384-1.37-1.019-1.947-.751-1.325.616-2.26-1.362-3.462-1.263-.616-1.474-1.685-1.094-2.408-1.859-.854-.9-1.745-.815-2.6-1.257-1.164-.6-2.324-1.241-3.5-1.77-2.483-1.118-4.8-3.613-7.5-3-.136.032-.291-.111-.433-.2a46.973,46.973,0,0,0-7.173-3.911c-1.615-.694-3.211-1.627-4.85-2.232-1.713-.63-3.411-1.4-5.126-2.018-2.605-.935-5.136-2.552-7.823-2.752a1.292,1.292,0,0,1-.876-.378,7.4,7.4,0,0,0-4.822-2.2c-.382-.058-.731-.392-.74-1.448a21.1,21.1,0,0,1,1.461-1.64c.767-.7,1.11,1.146,1.77,1.126.307-.83.593-1.6.918-2.486.725.706,1.294,1.68,2.081,1.606l.024-.032c.5.611.994,1.26,1.519,1.806.135.139.375-.057.55-.093.052-1.365-.811-2.094-.489-3.7.712.494,1.383.957,2,1.383l1.161-.919c.933.709,1.378,1.825,1.576,4.028.288-1.811.464-2.927.682-4.306.757.838,1.383,1.554,2.026,2.216.1.1.28-.032.432-.059.18-.695.361-1.4.578-2.244a5.239,5.239,0,0,0,1.147.563c1.19.233,2.3,1.388,3.579.777.351-.169.884.347,1.22.813a12.92,12.92,0,0,1,.81,1.933c.426.945.941,1.25,1.6.566-.283-.621-.541-1.186-.9-1.972l2.106-1.006c.266,1.359.51,2.611.754,3.865a10.447,10.447,0,0,0,2.56.818c1.052.048,2.117-.465,3.162-.35s2.055.868,3.1,1.063c1.883.351,3.782.431,5.669.748,1.054.178,2.092.649,3.144.909a7.788,7.788,0,0,0,2.49.379,5.207,5.207,0,0,1,2.931.447,2.11,2.11,0,0,0,1.355.239c1.127-.237,2.233-.353,3.148.638,1.206-1.107.617-2.728.58-4.236h3.117c.016-.2.2-2.546.26-3.329.42,2.869.767,5.025.934,7.267,0,.037-.127.106-.195.157l.012.02c.142.295.262.794.428.853,1.169.417,2.327.928,3.5,1.317,1.638.541,3.293.315,4.948.93,2.813,1.044,5.625,2.3,8.55,2.3a11.08,11.08,0,0,1,4.714,1.123c2.41,1.147,4.768,2.507,7.3,2.689.963.069,1.915.834,2.919.515.741,1.687,1.9.533,2.746,1.31,1.01.931,2.085.614,3.121.944a14.089,14.089,0,0,1,3.564,1.123,17.571,17.571,0,0,0,5.33,2.144,13.632,13.632,0,0,1,1.8.446c1.632.638,3.244,1.439,4.882,2a14.171,14.171,0,0,1,2.134,1.032A73.106,73.106,0,0,1,2683.241,3332.748Zm-33.81-42.965c0-.028.154-.1.18-.053a3.521,3.521,0,0,1,.182.511c-.115.051-.229.1-.343.148C2649.44,3290.187,2649.423,3289.983,2649.432,3289.783Zm-55.929-76.09c-.916.868-1.531,1.083-3.375,1.178l-.288-.1.305.083C2591.722,3212.781,2592.1,3212.651,2593.5,3213.693Zm-6.97,1.7c.384-1.144.85-.389,1.229-.545A.922.922,0,0,1,2586.533,3215.389Zm-1.868.413.178-.149,0,.29Zm-24.448,16.812a3.179,3.179,0,0,1-.126.893,2.047,2.047,0,0,1-.589.528c0,.014-.006.03-.009.045l-.032-.026a6.762,6.762,0,0,1-1.074.194c-.071,0-.222-.394-.2-.535.03-.183.225-.452.3-.408a9.174,9.174,0,0,1,.975.749l.023,0a.072.072,0,0,1,.019-.014c.1-.441.175-.93.306-1.359C2559.844,3232.557,2560.076,3232.63,2560.218,3232.614Zm5.057-.877c-.028.2-.082.38-.127.567q-.127-.185-.253-.371a2.845,2.845,0,0,1,.247-.382C2565.158,3231.529,2565.28,3231.694,2565.274,3231.737Zm4.993-.151-.152-.141.166-.094Zm-28.34,6.353c-.118.122-.607-.405-.7-.8-.232-.988-.333-2.073-.521-3.353a4.5,4.5,0,0,1,.563-.695,41.958,41.958,0,0,1,8.578-2.679c.078.85.157,1.73.237,2.612.127.1.257.287.379.272.519-.064,1.048-.365,1.55-.254a7.016,7.016,0,0,0,3.366-.073c.56-.148,1.236-.248,1.589.99-.106.218-.183.537-.3.6-2.108,1.132-4.223,2.162-6.45,1.068a.73.73,0,0,0-.837.064c-1.493,1.512-3.213,1.326-4.8,2.177C2543.729,3238.328,2542.829,3236.985,2541.927,3237.938Zm-5.008,1.729c.023-.082.092-.124.14-.183.038.136.076.275.113.412l-.177.015C2536.967,3239.828,2536.906,3239.713,2536.919,3239.667Zm3,27.734c-1.962.171-3.932-.144-5.9.571-1,.363-2.1-.3-3.155-.357-1.976-.118-3.955-.119-5.933-.206a6.825,6.825,0,0,1-1.268-.3q-.01-.422-.019-.84c1.706-1.112,3.517-1.519,5.266-2.336,2.8-1.308,5.7-1.437,8.516-2.452a21.359,21.359,0,0,0,3.569-1.264,10.187,10.187,0,0,1,4.262-1.018,29.4,29.4,0,0,0,4.748-.981,28.174,28.174,0,0,1,5.446-.472,5.952,5.952,0,0,0,2.242-.29,10.554,10.554,0,0,1,4.057-.744,16.735,16.735,0,0,0,2.72-.346,45.1,45.1,0,0,1,12.014-.825,43.932,43.932,0,0,0,5.187-.4,12.487,12.487,0,0,1,1.819-.243c3.114.177,6.228.341,9.34.647,4.1.4,8.191.853,12.28,1.436,2.337.332,4.661.966,6.99,1.469.073.017.143.113.217.122,5.626.609,11.1,3.118,16.673,4.324,1.361.3,2.556,1.4,3.914,1.641a11.749,11.749,0,0,1,3.673,1.753c-2.5.705-4.989.318-7.479.068a31.8,31.8,0,0,0-3.864-.166,2.336,2.336,0,0,0-1.3.626,2.546,2.546,0,0,1-3.533-.053,2.966,2.966,0,0,0-3.319-.346,1.528,1.528,0,0,1-1.508-.079,1.376,1.376,0,0,0-2.154.486,1.253,1.253,0,0,1-1.952.469c-.771-.628-1.45-.205-2.177-.191a9.608,9.608,0,0,1-2.937-.2c-2.8-.826-5.6-.407-8.4-.181a26.784,26.784,0,0,0-5.442.651c-1.61.466-3.335.68-4.853-.725-.65.69-1.169,1.241-1.789,1.9a2.554,2.554,0,0,1-1.019-.3,3.791,3.791,0,0,0-3.788-.417,2.972,2.972,0,0,1-1.811.172,4.552,4.552,0,0,0-3.611.3,1.066,1.066,0,0,1-.9.09,9.066,9.066,0,0,0-6.529.094,4.68,4.68,0,0,1-2.706-.065c-1.8-.444-3.6-.922-5.431-.276a3.716,3.716,0,0,1-1.579-.086c-1.589-.154-3.177-.338-4.768-.462a1.8,1.8,0,0,0-1.125.225c-.643.407-1.247,1.108-1.933.258-1.8,1.658-3.524.083-5.3-.327A17.425,17.425,0,0,0,2539.914,3267.4Zm14.367,12.086c.631-.253,1.261-.533,1.9-.743.2-.066.419.061.631.1.014.242.026.485.039.727l-2.515.417C2554.316,3279.82,2554.3,3279.655,2554.281,3279.487Zm-4.163,1.362.15.167-.168.11Zm-3.733.624c.061-.062.123-.17.183-.168s.1.138.141.213c-.03.112-.062.222-.092.333Zm-8.837,3.97c.042-.173.1-.336.159-.5.092.12.182.239.272.359a1.719,1.719,0,0,1-.28.313C2537.664,3285.641,2537.543,3285.46,2537.549,3285.443Zm73.54,10.84.177-.146c.022.114.043.228.066.341-.037.1-.076.2-.114.292C2611.174,3296.608,2611.132,3296.445,2611.089,3296.283Zm-84.233,11.647c-.4-.131-.932-.211-.869-1.389,2.822-1.39,3.01-1.4,4-.062C2528.969,3307.51,2528,3308.306,2526.856,3307.93Zm24.382,1.913a2.349,2.349,0,0,1,.419-.143c.029,0,.064.173.1.266a2.01,2.01,0,0,1-.417.129C2551.308,3310.1,2551.271,3309.931,2551.238,3309.842Zm61.942,54.624c.342.52.663,1.037,1.15.867l.007-.016h.45l-.429.016c-.01,0-.018,0-.028,0-.208.616-.5,1.082-.9.787a7.427,7.427,0,0,1-1.045-1.245C2612.654,3364.025,2612.939,3364.1,2613.179,3364.466Zm2.992-4.1-.177.1.024-.279Zm5.368-.361c-.12.061-.265.223-.354.152s-.152-.367-.224-.564c.127-.055.272-.205.375-.138S2621.473,3359.808,2621.54,3360Zm-22.316-.658c-.055.045-.114.135-.165.121s-.074-.142-.109-.222l.265-.213C2599.218,3359.134,2599.221,3359.238,2599.224,3359.343Zm-1.542-.482c0,.018-.106.09-.163.138-.04-.183-.083-.364-.111-.554,0-.014.1-.081.158-.124C2597.607,3358.5,2597.653,3358.677,2597.681,3358.861Zm16.232-1.271c-.029.092-.047.232-.089.264s-.1-.078-.151-.125c.033-.093.067-.184.1-.275Zm-19.767.051c.011.041-.095.248-.117.232a2.049,2.049,0,0,1-.3-.291c.076-.148.153-.291.228-.435A4.146,4.146,0,0,1,2594.146,3357.641Zm-2.294-6.412-.149.079.019-.216Zm-41.38-16.606.147-.078-.025.232Zm67.474,13.148c.078.02.127.435.189.667a1.172,1.172,0,0,1-.09.334c-.419.486-.843.421-1.232-.09a1.754,1.754,0,0,1-.1-.7c0-.092.094-.278.145-.28A4.142,4.142,0,0,1,2617.947,3347.772Zm-38.821-18.025a1.986,1.986,0,0,1,.341.936c-.008.305-.224.8-.385.852-.835.27-1.551-.176-2.369-1.572.848-.186,1.418-.331,1.991-.424A.437.437,0,0,1,2579.126,3329.747Zm-4.6.072-.08-.164.16,0Zm-3.736-1.51c-.682.083-1.245.15-1.928.23C2569.56,3326.677,2569.869,3326.647,2570.791,3328.309Zm-3.253-1.5q-.087.289-.175.574a3.719,3.719,0,0,1-.213-.544,1.087,1.087,0,0,1,.078-.344Zm-1.7.058a1.165,1.165,0,0,1-.361,0c-.057-.015-.1-.152-.154-.233l.277-.271C2565.677,3326.529,2565.756,3326.7,2565.835,3326.864Zm-2.9-.715-.143.208c-.055-.152-.119-.3-.161-.461-.005-.023.085-.13.131-.2C2562.824,3325.848,2562.881,3326,2562.939,3326.149Zm-5.556-2.029-.17-.182.189-.108Zm-9.451-.524a18.689,18.689,0,0,1,3.564,1.3,8.065,8.065,0,0,0,4.242.884c1.183-.124,2.4.555,3.584,1,.189.072.3.8.466,1.263.786-.207,1.567-.839,2.264,1.091.467,1.292,1.473,1.965,2.447.755-.116-.316-.23-.631-.421-1.16a27.7,27.7,0,0,1,3.871.735c2.536.845,5.055,1.873,7.581,2.831a1.712,1.712,0,0,1,.435.249c.555.428,1.089,1.114,1.664,1.255a11.633,11.633,0,0,0,2.723.055c.11-.368.223-.708.317-1.064.476-1.814.69-2.209,1.473-1.492.982.9,1.936.333,2.974.294.347.688.7,1.382,1.135,2.242.585-.053,1.418-.588,1.875-.062.724.836,1.407.554,2.112.776.525.166.973,1.118,1.657,1.968,1.29-.778,2.779-.155,4.179.836a7.91,7.91,0,0,0,3.32,1.331,7.036,7.036,0,0,1,2.152,1.022c2.3,1.331,4.615,2.827,7.1,2.756.3-.008.664-.139.891.11,1.781,1.967,3.925,2.115,5.762,3.771-.232,1.545-.561,1.98-1.133,1.453a5.789,5.789,0,0,1-.514-.807,7.125,7.125,0,0,0-.608-.631c-.345.954-.626,1.725-.928,2.556-.866-.444-1.047-1.434-.8-3.038-.346-.092-.681-.159-1.01-.276-.364-.13-.72-.306-1.139-.488a12.806,12.806,0,0,1-.152,1.691c-.156.642-.765.858-.961.359-.305-.773-.55-1.623-.813-2.418l-3.416-1.814a8.59,8.59,0,0,0-.158.951c-.051,1.764-.239,2.158-.937,1.826-.578-.274-1.148-.606-1.671-.886-.319.65-.564,1.152-.781,1.594-2.372-.87-4.605-2.16-6.952-2.437a8.01,8.01,0,0,1-2.029-.563,9.4,9.4,0,0,0-2.684-.533,17.133,17.133,0,0,1-6.5-1.548,4.931,4.931,0,0,0-2.893-.854,2.911,2.911,0,0,1-2.415-.964c-1.084-1.149-2.2-.836-3.312-.922-.293-.022-.682.4-.868.18-1.061-1.265-2.182-.836-3.317-.66a1.728,1.728,0,0,1-1.34-.327c-1.913-1.509-3.948-1.64-5.976-2.056s-4.066-.435-6.089-1.263c-1.91-.779-3.926-.726-5.9-.934a4.324,4.324,0,0,1-1.77-.415,7.378,7.378,0,0,0-3.344-1.014,34.346,34.346,0,0,1-8.19-1.231,19.75,19.75,0,0,1-3.683-1.923c.338-.577.5-1.07.709-1.169a24.715,24.715,0,0,1,4.417-1.827,18.453,18.453,0,0,0,1.99-.64,6.183,6.183,0,0,1,2.25-.274,4.933,4.933,0,0,0,3.563-1.037A2.3,2.3,0,0,1,2547.931,3323.6Zm18.8-4.423-.1.222-.066-.279Zm68.03-3.154-.177.192c-.073-.167-.145-.335-.216-.5.059-.06.156-.193.172-.167A3.622,3.622,0,0,1,2634.762,3316.019Zm-11.549-2.781c-.415,1-.864.568-1.256.629-.035.007-.108-.177-.115-.283a.657.657,0,0,1,.071-.333C2622.315,3313.23,2622.718,3313.238,2623.213,3313.238Zm-2.716-.508c-1.245.812-1.245.812-2.11-.466C2619.141,3311.773,2619.793,3311.756,2620.5,3312.73Zm-4.795,3.051.044-.121c-.312-.751-.582-1.471-1.177-1.749a8.942,8.942,0,0,1-1.719-1.609c.361-.357.615-.755.692-.662a3.052,3.052,0,0,0,3.331.907c-.44,1.213-.786,2.167-1.127,3.112l0,.011.044.023a2.142,2.142,0,0,1,.511-.417c.107-.046.247.159.373.251-.091.152-.186.439-.271.429a2.049,2.049,0,0,1-.614-.263C2615.763,3315.724,2615.733,3315.754,2615.7,3315.781Zm9.418-1.723a.959.959,0,0,1,.038.279c-.017.08-.085.125-.132.186-.025-.146-.049-.292-.073-.437Zm2.371,1.957c-.35-.459-.677-.979-1.133-1.651.732-.934,1.361-.414,2.27-.094-.277.905-.445,1.458-.6,1.955C2627.772,3316.131,2627.6,3316.154,2627.492,3316.015Zm2.987-1.355c.09-.269.5-.242.767-.242.13,0,.262.244.392.378H2633c-.158.313-.259.631-.314.606a10.773,10.773,0,0,1-1.054-.6c-.063.8-.094,1.78-.746,1.446A1.385,1.385,0,0,1,2630.479,3314.66Zm-8.458,1.623c.063.032.127.062.189.094-.007.1.007.25-.023.284-.051.057-.127.041-.193.056C2622,3316.572,2622.012,3316.427,2622.021,3316.283Zm17.526.77c-.26.337-.444.749-.558.693a16.947,16.947,0,0,1-1.649-1.015C2638.1,3316.106,2638.772,3316.111,2639.547,3317.052Zm-40.127.72q.056-.22.111-.441c.046.071.092.14.136.211-.025.1-.034.243-.076.281S2599.478,3317.793,2599.42,3317.772Zm41.376-.442c.792-.532,1.491.322,2.235,1.233a7.708,7.708,0,0,1-1.688.579C2640.736,3319.2,2640.635,3318.44,2640.8,3317.33Zm4.742,1.475c.066-.057.149-.19.194-.156a2.383,2.383,0,0,1,.323.389c-.124.1-.243.256-.37.283C2645.648,3319.33,2645.588,3318.987,2645.538,3318.8Zm-49.92,3.182a1.41,1.41,0,0,1-.011-.606c.089-.141.274-.219.382-.143.085.059.113.384.216.779A1.832,1.832,0,0,1,2595.618,3321.986Zm10.657,2.106-2.026-1.016c.893-.4,1.322-.776,1.739-.74C2606.448,3322.377,2606.574,3323.043,2606.275,3324.092Zm17.449-1.846c.1.078.143.341.212.521-.117.053-.274.212-.34.131a2.751,2.751,0,0,1-.263-.661C2623.465,3322.233,2623.615,3322.158,2623.724,3322.246Zm-14.115-.233a3.925,3.925,0,0,1-.052.778c-.114-.052-.324-.089-.326-.158-.017-.351.02-.711.041-1.167C2609.434,3321.717,2609.583,3321.835,2609.609,3322.013Zm-6.029-.167a9.478,9.478,0,0,1-.313,1.307.481.481,0,0,1-.413.264c-1.676.115-3.245-.869-4.786-1.312a2.45,2.45,0,0,1,.467-2.29C2600.247,3319.6,2601.768,3320.926,2603.581,3321.846Zm48.015-1.01c0-.042,0-.085,0-.127h.789l.015.016h0c.226.262.448.523.67.783l-.121.228-.549-1.011h0C2652.129,3320.761,2651.862,3320.8,2651.6,3320.836Zm-22.462,1.419.126.143-.138.1Z" transform="translate(-2512.422 -3198.318)"/>
        <path id="Path_4956" data-name="Path 4956" d="M2876.238,3330.63Z" transform="translate(-2736.264 -3208.223)"/>
      </g>
    </g>
  </g>
</svg>
