<svg xmlns="http://www.w3.org/2000/svg" width="99.847" height="199.339" viewBox="0 0 99.847 199.339">
  <g id="Pointer" transform="translate(-279.077 -745.918)">
    <path id="Handwritten_Underline" data-name="Handwritten Underline" d="M7189.393,3639.684c-1.21.06-2.449.094-3.624.186a4.1,4.1,0,0,1-2.687-.4c-.236-.153-.176-.341-.184-.514,0-.062.132-.139.3-.182a8.785,8.785,0,0,1,1.225-.248c1.19-.134,2.423-.242,3.64-.359.428-.041.865-.075,1.289-.118,1.455-.148,2.905-.293,4.479-.343.959-.031,1.881-.136,2.831-.2q2.939-.185,5.893-.354c.374-.021.779,0,1.168-.005a5.493,5.493,0,0,0,1.589-.149,4.666,4.666,0,0,1,.876-.094c1.4-.079,2.8-.151,4.2-.227a23.765,23.765,0,0,1,2.5-.032,7.093,7.093,0,0,0,2.162-.162,3.524,3.524,0,0,1,1.253-.081,18.36,18.36,0,0,0,2.693,0c.965-.04,1.929-.079,2.889-.126,6.01-.291,12.062-.5,18.125-.7,1.148-.036,2.354.026,3.475-.034,2.629-.141,5.3-.127,7.945-.2,1.734-.049,3.493-.06,5.236-.051,1.249.007,2.449-.052,3.669-.093,1.154-.039,2.32-.057,3.479-.086.583-.015,1.162-.04,1.746-.05.841-.013,1.689-.034,2.528-.021,2.181.033,4.357.089,6.545.073.324,0,.656-.023.972-.011,1.174.048,2.265-.206,3.436-.074,1.073.121,2.188.013,3.27.07a10.191,10.191,0,0,0,1.165,0,42.349,42.349,0,0,1,4.437,0c1.216.046,2.449.027,3.689-.011a26.9,26.9,0,0,1,3.464.038,2.4,2.4,0,0,0,.375.022c1.36-.1,2.706.043,4.059.017a14.626,14.626,0,0,1,2.1.067,8.85,8.85,0,0,0,.92-.006c.773,0,1.55-.014,2.32,0,1.943.037,3.883.123,5.825.123,1.765,0,3.475.067,5.2.143.318.014.646.025.966.022,3.138-.031,6.228.076,9.319.2.891.035,1.814.018,2.722.014a3.508,3.508,0,0,1,1.446.217c.7.331,1.177.667,0,1.034-1.005.047-2.095,0-3.178-.03-2.192-.067-4.378-.156-6.575-.206q-3.976-.09-7.967-.125c-2.729-.024-5.463-.02-8.194-.025-3.384-.006-6.767-.02-10.148-.006-2.08.009-4.154.066-6.232.095-1.04.014-2.083.007-3.122.019q-4.773.054-9.545.118a3.411,3.411,0,0,0-.457.1c1.2,0,2.221-.007,3.245,0,1.295.01,2.588.033,3.882.051.13,0,.263.01.389.006,2.922-.1,5.827.079,8.743.038,2.082-.03,4.134.057,6.2.088,1.095.016,2.193.019,3.29.026.585,0,1.181-.013,1.753.011,1.935.082,3.884.067,5.831.09,1.363.016,2.719.075,4.081.1,2.267.037,4.538.052,6.8.09,2.074.034,4.191.027,6.206.143,2.358.134,4.751.115,7.11.224,1.56.072,3.205.009,4.813.01a11.519,11.519,0,0,1,1.344.028,30.993,30.993,0,0,0,3.812.15c1.095.013,2.176.1,3.272.131,1.352.038,2.714.044,4.068.076,1.153.027,2.288.05,3.4.18,1.045.122,2.219.172,3.353.232a6.332,6.332,0,0,1,1.791.279c-.07.16-.546.192-.979.2-.71.017-1.429,0-2.142.012-.9.011-1.064.056-1.059.323,0,.3-.193.583-1.116.834-2.188-.08-4.43-.165-6.673-.243-1.675-.059-3.35-.123-5.029-.162-3.953-.092-7.92-.146-11.861-.262-3.05-.09-6.1-.042-9.149-.094-.389-.006-.785.013-1.167,0-3.817-.138-7.66-.053-11.488-.095q-3.5-.038-7.011-.051c-2.793-.01-5.588-.019-8.381-.007-2.077.009-4.152.069-6.229.075-2.343.006-4.679.013-7,.106a14.6,14.6,0,0,1-1.927-.009,10.307,10.307,0,0,0-1.14,0q-1.447.042-2.888.1c-2.573.1-5.173.072-7.758.113-2.13.033-4.266.072-6.4.085-1.3.008-2.577.048-3.863.117-1.452.078-2.95.11-4.434.128s-2.979.041-4.421.158c-.124.01-.256.023-.381.022-2.889-.035-5.583.3-8.449.315-.3,0-.6.031-1.1.057a3.414,3.414,0,0,0,.55.115c1.475-.052,2.983-.034,4.428-.152.3-.025.644-.034.962-.03,1.895.028,3.733-.091,5.6-.144s3.744-.108,5.618-.157c.45-.012.906-.01,1.36-.011,2.341-.007,4.677-.028,6.988-.142.318-.016.649-.016.973-.013,2.79.021,5.565-.1,8.357-.059.513.007,1.039-.012,1.548-.035,2.057-.093,4.132-.071,6.2-.084,2.2-.015,4.4-.064,6.6-.087.968-.01,1.952-.013,2.908.022.853.031,1.678.02,2.517,0,.387-.011.786-.027,1.167-.014,2.539.083,5.066-.009,7.6-.028.258,0,.522-.014.775-.005,3.291.118,6.593.09,9.9.063.452,0,.93-.008,1.354.026a20.652,20.652,0,0,0,2.884.03c.3-.018.639.008.959.015,2.847.061,5.7.093,8.554.075.455,0,.909,0,1.363.009q2.142.032,4.282.069c.39.006.786.029,1.167.017a17.572,17.572,0,0,0,2.171.147,20.613,20.613,0,0,1,2.081,0c.777.007,1.555.013,2.331.026s1.554.07,2.309.047c1.52-.044,2.921.106,4.384.142,3.029.076,6.059.13,9.05.3.818.047,1.78-.033,2.644.032,1.136.086,2.288.118,3.457.139,2.718.049,5.374.208,8.089.308.5.187.983.365.944.61-.046.287-.418.526-2.052.566-.83.021-1.7,0-2.521-.046-3.828-.206-7.7-.335-11.567-.466q-3.574-.121-7.143-.248c-.066,0-.132-.008-.194-.006-2.562.069-5.024-.146-7.547-.188-1.491-.025-2.986-.032-4.479-.052q-3.11-.04-6.218-.085c-1.49-.019-2.983-.029-4.474-.051-1.166-.017-2.33-.043-3.493-.072-1.03-.025-2.049-.046-3.094-.041-1.414.008-2.851.079-4.268-.042a11.283,11.283,0,0,0-1.354.009c-2.334.1-4.668.055-7.006.015-.453-.008-.908,0-1.362,0-.706,0-1.417,0-2.114-.019a27.524,27.524,0,0,0-3.271,0c-.415.036-.9.018-1.355.012-2.264-.028-4.53-.007-6.8-.029-1.225-.012-2.458.046-3.689.06-1.3.015-2.6.01-3.9.023q-3.019.03-6.038.072c-.908.011-1.817.022-2.724.04q-3.791.074-7.581.153c-.841.017-1.682.045-2.525.05-1.754.011-3.5.027-5.236.116-1.259.064-2.582.039-3.875.053-.389,0-.781,0-1.167.01q-5.336.146-10.668.3-3.773.106-7.5.3c-1.084.055-2.191.077-3.283.123q-4.142.175-8.279.359-5.386.244-10.764.5c-3.258.161-6.5.346-9.751.513-.825.043-1.673.053-2.5.09-1.471.066-2.947.129-4.4.215-2.8.166-5.623.27-8.5.26a17.14,17.14,0,0,1-3.266-.289c-1.229-.242-1.556-.454-1.208-.85a1.219,1.219,0,0,1,.226-.2,1.558,1.558,0,0,1,.26-.088c3.063-.036,6.2,0,9.272-.331-.43-.427-.515-.849.3-1.283,1.892.03,3.791-.075,5.689-.179,3.05-.168,6.107-.329,9.135-.522,1.2-.076,2.376-.136,3.607-.165,1.213-.028,2.408-.128,3.6-.21,1.069-.073,2.121-.164,3.18-.247.312-.024.625-.076.931-.072,2.754.036,5.335-.245,8.034-.309.7-.017,1.382-.094,2.077-.137.6-.037,1.2-.066,1.843-.1a1.57,1.57,0,0,0-.326-.092c-1.557-.009-3.132-.055-4.668-.009-2.448.073-4.872.205-7.3.315q-2.21.1-4.415.21-3.822.194-7.637.4c-2.423.127-4.861.236-7.266.384-3.546.219-7.113.4-10.693.578-2.1.1-4.147.284-6.222.428-.374.026-.761.047-1.146.055-1.146.027-2.026-.176-1.884-.557a4.383,4.383,0,0,1,.264-.49c2.646-.029,5.127-.279,7.65-.485.557-.045,1.157-.052,1.711-.1a6.96,6.96,0,0,0,1.993-.288,6.552,6.552,0,0,0,1.679-.021c.5-.038.977-.093,1.475-.129a4.327,4.327,0,0,0,1.375-.212C7192.313,3639.424,7190.774,3639.483,7189.393,3639.684Zm57.293-1.069a8.713,8.713,0,0,0,1.663.038c-.049-.027-.079-.055-.1-.055-.517,0-1.034.012-1.551.02-.951.069-1.99,0-3.268.13.548.017.736.03.922.028.512-.005,1.035,0,1.53-.031C7246.166,3638.728,7246.406,3638.657,7246.686,3638.615Zm-10.032.417c-.578-.017-1.156-.041-1.734-.046-.208,0-.564.011-.342.13l2.07-.083c.5-.011,1.006-.019,1.507-.034a4.575,4.575,0,0,0,1.35-.111,12.76,12.76,0,0,0-2.559.022A.941.941,0,0,0,7236.654,3639.031Zm-40.354.207a2.355,2.355,0,0,0-1.162.076l1.136-.084,7.264-.393c.828-.044,1.66-.085,2.487-.131,2.226-.122,4.445-.25,6.676-.365,1.208-.062,2.443-.086,3.645-.154,1.523-.086,3.011-.222,4.542-.293,1.907-.089,3.771-.276,5.765-.2a6.42,6.42,0,0,0,.938-.052,35.209,35.209,0,0,1,4.564-.215,12.9,12.9,0,0,0,1.719-.053,16.781,16.781,0,0,1,3.019-.113,3.591,3.591,0,0,0,.561-.016c.4-.054.769-.128,1.169-.184a4.787,4.787,0,0,0,1.214-.135c-1.188-.069-2.278-.028-3.36.012-1.6.059-3.192.135-4.792.194-1.541.057-3.1.089-4.632.152q-7.034.288-13.981.7c-.947.058-1.92.084-2.864.144q-3.508.222-7,.465c-1.82.129-3.624.276-5.422.425A5.282,5.282,0,0,0,7196.3,3639.238Zm45.017-2.392a4.8,4.8,0,0,0,1.745.155,9.765,9.765,0,0,0,2.74-.32C7244.246,3636.762,7242.768,3636.693,7241.317,3636.845Zm28.4,1.376a8.962,8.962,0,0,0-2.21-.092c-.278.033-.613.059-.5.192A12.508,12.508,0,0,0,7269.719,3638.221Zm-36.6.89a12.032,12.032,0,0,0-2.6.135A11.125,11.125,0,0,0,7233.118,3639.111Zm25.845-.676a5.681,5.681,0,0,0-2.311.066Zm-12.29-1.765a2.206,2.206,0,0,0,1.271.041A2.543,2.543,0,0,0,7246.673,3636.67Zm5.129-.137.028.074,1.574-.075-.156-.024Zm10.368,1.815h1.236A1.647,1.647,0,0,0,7262.169,3638.349Zm16.936-.257.029.066.866-.015-.008-.051Zm-23.5-1.643a.775.775,0,0,0-.137.019c-.018.01.018.026.03.04l.219-.032Zm-25.265,4.36-.2.056c.041.009.113.028.118.027.074-.017.138-.038.205-.057Zm34.518-2.536-.271.043a2.724,2.724,0,0,0,.322.034,1.744,1.744,0,0,0,.27-.042Zm-23.534.538-.137.015a.59.59,0,0,0,.112.023.979.979,0,0,0,.135-.014Zm-7.264,1.922-.144-.006.036.036Zm39.214-2.568a.453.453,0,0,0,.107.025.871.871,0,0,0,.137-.021l-.176-.043Zm-.441-1.248-.146.027c.081.014.157.032.247.041a.748.748,0,0,0,.144-.025Zm-.917,1.267-.012.029.124-.012Zm9.458-.076-.1-.019-.022.028Z" transform="translate(3981.847 -6423.064) rotate(90)" fill="#a545f5"/>
    <path id="Handwritten_Underline-2" data-name="Handwritten Underline" d="M7182.244,3640.613c-.469.071-.949.113-1.4.223a.791.791,0,0,1-1.041-.482,1.439,1.439,0,0,1-.071-.616.307.307,0,0,1,.117-.219,1.712,1.712,0,0,1,.474-.3c.461-.161.938-.29,1.41-.431.166-.049.335-.09.5-.142a8.459,8.459,0,0,1,1.735-.411c.371-.037.729-.163,1.1-.234q1.138-.221,2.282-.423a3.76,3.76,0,0,1,.452-.007.8.8,0,0,0,.616-.179.688.688,0,0,1,.339-.112c.542-.1,1.086-.181,1.628-.271a2.992,2.992,0,0,1,.969-.039,1,1,0,0,0,.838-.195.5.5,0,0,1,.485-.1,2.322,2.322,0,0,0,1.043,0c.374-.047.747-.095,1.119-.151,2.328-.348,4.672-.6,7.021-.833.445-.043.912.031,1.346-.041,1.019-.169,2.054-.153,3.078-.242a19.641,19.641,0,0,1,2.028-.061,11.645,11.645,0,0,0,1.422-.111c.447-.047.9-.068,1.348-.1.226-.018.45-.048.676-.059.326-.016.654-.041.979-.026.845.04,1.688.107,2.536.088a2.64,2.64,0,0,1,.376-.013c.455.057.877-.247,1.331-.089a7.151,7.151,0,0,0,1.267.084,1.286,1.286,0,0,0,.451.006,5.339,5.339,0,0,1,1.718,0,6.73,6.73,0,0,0,1.429-.014,3.4,3.4,0,0,1,1.342.045.315.315,0,0,0,.146.026,9.543,9.543,0,0,1,1.572.021,1.87,1.87,0,0,1,.814.081,1.131,1.131,0,0,0,.356-.007c.3,0,.6-.018.9,0,.753.045,1.5.147,2.256.147a14.572,14.572,0,0,1,2.013.171,2.24,2.24,0,0,0,.375.026,23.63,23.63,0,0,1,3.609.238,7.657,7.657,0,0,0,1.054.016.618.618,0,0,1,.56.261c.272.4.456.8,0,1.238a5.323,5.323,0,0,1-1.231-.036c-.849-.081-1.7-.187-2.547-.246q-1.54-.108-3.086-.15c-1.057-.029-2.116-.024-3.174-.03-1.311-.007-2.621-.023-3.931-.007-.805.01-1.609.08-2.414.114-.4.017-.807.008-1.209.022q-1.849.064-3.7.142c-.037,0-.072.045-.177.114.463,0,.86-.008,1.257,0,.5.012,1,.04,1.5.061a1.118,1.118,0,0,0,.15.007c1.132-.117,2.257.1,3.387.045.806-.036,1.6.068,2.4.1.424.02.85.022,1.274.031a6.41,6.41,0,0,1,.679.013c.749.1,1.5.081,2.258.107.528.019,1.053.09,1.581.116.878.044,1.758.063,2.636.107a19.47,19.47,0,0,1,2.4.171c.913.161,1.84.138,2.754.269a13.632,13.632,0,0,0,1.864.012,1.462,1.462,0,0,1,.521.033,3.984,3.984,0,0,0,1.477.18c.424.016.843.121,1.268.157.523.045,1.051.053,1.575.091a4.79,4.79,0,0,1,1.317.215,7.425,7.425,0,0,0,1.3.278,1.086,1.086,0,0,1,.693.334c-.027.192-.211.23-.379.242-.275.021-.554,0-.83.014-.35.013-.412.067-.41.388a1.174,1.174,0,0,1-.432,1c-.848-.1-1.716-.2-2.584-.292-.649-.07-1.3-.147-1.948-.194-1.531-.11-3.067-.174-4.594-.314-1.181-.108-2.364-.051-3.544-.112-.15-.008-.3.015-.452,0-1.479-.165-2.967-.063-4.45-.114q-1.357-.045-2.715-.061c-1.082-.012-2.165-.023-3.247-.008-.8.01-1.608.082-2.412.09a23.6,23.6,0,0,0-2.713.127,1.848,1.848,0,0,1-.746-.011,1.286,1.286,0,0,0-.441,0c-.374.033-.747.073-1.119.117-1,.117-2,.086-3,.135-.825.04-1.652.086-2.479.1a10.186,10.186,0,0,0-1.5.141,13.583,13.583,0,0,1-1.717.153,8.244,8.244,0,0,0-1.712.189.579.579,0,0,1-.148.026c-1.119-.042-2.162.364-3.272.377a3.364,3.364,0,0,0-.425.068c.114.076.169.143.213.138a12.428,12.428,0,0,0,1.715-.182,1.287,1.287,0,0,1,.373-.036,16.141,16.141,0,0,0,2.168-.172c.725-.064,1.45-.129,2.176-.188.174-.015.351-.013.526-.014a19.121,19.121,0,0,0,2.707-.169,2.109,2.109,0,0,1,.377-.016c1.081.025,2.156-.117,3.237-.07a3.3,3.3,0,0,0,.6-.042,20.449,20.449,0,0,1,2.4-.1c.853-.018,1.7-.077,2.556-.1a7.875,7.875,0,0,1,1.126.026,4.778,4.778,0,0,0,.975-.005,2.383,2.383,0,0,1,.452-.017,23.679,23.679,0,0,0,2.943-.034,2.378,2.378,0,0,1,.3-.006,28.137,28.137,0,0,0,3.833.076,2.054,2.054,0,0,1,.524.031,2.62,2.62,0,0,0,1.117.036,1.623,1.623,0,0,1,.371.018c1.1.073,2.207.111,3.313.091.176,0,.353,0,.528.01.553.025,1.106.054,1.658.082a3.212,3.212,0,0,0,.452.021c.306-.028.472.3.841.177a2.6,2.6,0,0,1,.806,0c.3.008.6.015.9.031a6.383,6.383,0,0,0,.894.057,9.834,9.834,0,0,1,1.7.17c1.173.091,2.347.156,3.505.362.317.056.69-.041,1.024.038a7.74,7.74,0,0,0,1.339.167c1.053.058,2.082.249,3.134.369a1.056,1.056,0,0,1,.365.731c-.018.344-.162.63-.794.679a4.123,4.123,0,0,1-.977-.056c-1.482-.247-2.981-.4-4.48-.558-.923-.1-1.845-.2-2.767-.3a.4.4,0,0,0-.075-.007,21.463,21.463,0,0,1-2.923-.225c-.578-.03-1.157-.039-1.735-.062-.8-.032-1.605-.07-2.408-.1-.577-.023-1.156-.035-1.733-.061-.451-.021-.9-.052-1.353-.086-.4-.029-.794-.056-1.2-.049a5.944,5.944,0,0,1-1.653-.051,1.431,1.431,0,0,0-.524.011,14.606,14.606,0,0,1-2.714.018c-.175-.009-.352,0-.528,0-.273,0-.549,0-.819-.023a3.473,3.473,0,0,0-1.267,0,1.843,1.843,0,0,1-.525.015c-.877-.033-1.755-.009-2.632-.035-.475-.014-.953.055-1.429.072-.5.018-1.008.011-1.511.027-.78.023-1.56.056-2.339.086-.352.014-.7.026-1.055.047q-1.469.089-2.936.184c-.326.021-.652.054-.979.06a14.765,14.765,0,0,0-2.028.139,12.338,12.338,0,0,1-1.5.064c-.151.005-.3,0-.452.012q-2.067.175-4.132.355-1.461.127-2.906.356c-.42.066-.849.092-1.271.147q-1.6.209-3.207.431c-1.391.195-2.782.388-4.169.6-1.262.193-2.518.414-3.777.615-.319.051-.648.063-.97.108-.569.079-1.142.155-1.705.258a17.191,17.191,0,0,1-3.294.311,2.416,2.416,0,0,1-1.265-.346c-.476-.29-.6-.544-.468-1.019a1.567,1.567,0,0,1,.087-.238c.016-.036.059-.062.1-.105a12.662,12.662,0,0,0,3.592-.4,1.74,1.74,0,0,1,.117-1.538,10.229,10.229,0,0,0,2.2-.215c1.182-.2,2.366-.394,3.539-.625a11.37,11.37,0,0,1,1.4-.2,10.365,10.365,0,0,0,1.394-.251c.414-.088.821-.2,1.231-.3a1.389,1.389,0,0,1,.36-.085,27.12,27.12,0,0,0,3.112-.371,7.1,7.1,0,0,0,.8-.164c.231-.044.465-.08.714-.121-.064-.058-.095-.109-.127-.11a16.672,16.672,0,0,0-1.808-.011c-.948.087-1.887.246-2.829.378-.57.08-1.142.162-1.71.252-.987.155-1.972.318-2.958.478-.938.152-1.883.283-2.814.46-1.374.262-2.755.484-4.142.692-.814.122-1.606.341-2.41.513a3.291,3.291,0,0,1-.443.066c-.444.032-.785-.211-.73-.667.022-.184.063-.367.1-.588a14.008,14.008,0,0,0,2.963-.582c.215-.054.448-.062.663-.119.281-.074.608-.089.772-.345a.853.853,0,0,0,.65-.025c.193-.045.378-.112.571-.155s.4-.057.533-.254A8.837,8.837,0,0,0,7182.244,3640.613Zm22.192-1.281a1.126,1.126,0,0,0,.644.045c-.019-.033-.03-.066-.04-.066-.2.005-.4.015-.6.024a10.217,10.217,0,0,0-1.266.156c.213.021.285.036.357.033a4.108,4.108,0,0,0,.593-.037A1.387,1.387,0,0,0,7204.436,3639.332Zm-3.886.5c-.224-.02-.448-.049-.671-.055-.081,0-.219.013-.133.156l.8-.1c.194-.014.39-.022.584-.042.175-.017.383.037.522-.133a1.635,1.635,0,0,0-.991.027C7200.61,3639.708,7200.589,3639.781,7200.55,3639.831Zm-15.63.248a.344.344,0,0,0-.45.091l.44-.1,2.813-.47c.32-.053.643-.1.963-.157.862-.146,1.722-.3,2.586-.437.468-.074.946-.1,1.412-.184.59-.1,1.166-.267,1.759-.352a8.715,8.715,0,0,1,2.233-.245.845.845,0,0,0,.363-.062,4.582,4.582,0,0,1,1.768-.258,1.65,1.65,0,0,0,.666-.063,2.171,2.171,0,0,1,1.169-.135.47.47,0,0,0,.218-.019c.155-.065.3-.153.452-.22.14-.06.351.017.471-.162a4.341,4.341,0,0,0-1.3.015c-.62.071-1.236.162-1.856.232-.6.068-1.2.107-1.794.182-1.816.23-3.623.5-5.416.838-.367.069-.744.1-1.109.173-.906.178-1.811.359-2.71.557-.705.155-1.4.331-2.1.51C7185.286,3639.866,7185.044,3639.892,7184.92,3640.079Zm17.437-2.867c.276.2.276.2.676.186a1.5,1.5,0,0,0,1.062-.383A11.521,11.521,0,0,0,7202.356,3637.212Zm11,1.648a1.178,1.178,0,0,0-.855-.109c-.108.04-.238.07-.194.229A1.627,1.627,0,0,0,7213.357,3638.86Zm-14.177,1.066c-.312.066-.681-.132-1.007.162A1.486,1.486,0,0,0,7199.181,3639.927Zm10.011-.81c-.418-.153-.418-.153-.9.079Zm-4.761-2.115c.244.174.244.174.493.049C7204.784,3636.86,7204.616,3636.94,7204.431,3637Zm1.987-.164.011.089.609-.089-.061-.029Zm4.016,2.175h.479C7210.691,3638.822,7210.691,3638.822,7210.434,3639.013Zm6.56-.308.011.08.336-.018,0-.062Zm-9.1-1.968c-.019.007-.046.011-.053.023s.007.032.012.048l.085-.039Zm-9.786,5.224-.077.067a.389.389,0,0,0,.046.032.956.956,0,0,0,.079-.068Zm13.371-3.039-.105.051a.4.4,0,0,0,.125.042c.035,0,.07-.032.1-.05Zm-9.116.645-.053.018c.014.01.028.026.043.027a.144.144,0,0,0,.052-.017Zm-2.813,2.3-.056-.007.014.043Zm15.189-3.078c.013.011.028.03.042.03a.145.145,0,0,0,.053-.026l-.068-.052Zm-.17-1.5-.057.033a.493.493,0,0,0,.1.049c.013,0,.037-.019.056-.03Zm-.355,1.518,0,.035.048-.014Zm3.664-.091-.041-.022-.009.034Z" transform="translate(-662.544 -7237.349) rotate(56)" fill="#a545f5"/>
    <path id="Handwritten_Underline-3" data-name="Handwritten Underline" d="M7183.865,3640.613c-.637.071-1.289.113-1.907.223a1.208,1.208,0,0,1-1.414-.482,1.082,1.082,0,0,1-.1-.616.294.294,0,0,1,.159-.219,2.556,2.556,0,0,1,.644-.3c.627-.161,1.275-.29,1.916-.431.225-.049.455-.09.678-.142a15.034,15.034,0,0,1,2.357-.411c.5-.037.99-.163,1.49-.234q1.545-.221,3.1-.423c.2-.026.409,0,.614-.007a1.369,1.369,0,0,0,.836-.179,1.177,1.177,0,0,1,.461-.112c.736-.1,1.476-.181,2.213-.271a5.5,5.5,0,0,1,1.316-.039,1.74,1.74,0,0,0,1.139-.195.864.864,0,0,1,.659-.1,4.26,4.26,0,0,0,1.417,0c.508-.047,1.015-.095,1.521-.151,3.162-.348,6.347-.6,9.537-.833.6-.043,1.238.031,1.828-.041,1.384-.169,2.79-.153,4.182-.242.912-.059,1.838-.072,2.755-.061.657.008,1.288-.062,1.932-.111.607-.047,1.22-.068,1.83-.1.307-.018.612-.048.919-.059.442-.016.889-.041,1.33-.026,1.147.04,2.294.107,3.445.088a4.848,4.848,0,0,1,.511-.013c.618.057,1.191-.247,1.809-.089a13.144,13.144,0,0,0,1.721.084,2.367,2.367,0,0,0,.613.006,9.821,9.821,0,0,1,2.334,0,12.4,12.4,0,0,0,1.941-.014,6.24,6.24,0,0,1,1.823.045.561.561,0,0,0,.2.026,17.6,17.6,0,0,1,2.136.021,3.407,3.407,0,0,1,1.105.081,2.082,2.082,0,0,0,.484-.007c.407,0,.815-.018,1.221,0,1.022.045,2.044.147,3.065.147a26.775,26.775,0,0,1,2.734.171,4.1,4.1,0,0,0,.509.026,43.456,43.456,0,0,1,4.9.238,14.113,14.113,0,0,0,1.432.016.97.97,0,0,1,.761.261c.37.4.62.8,0,1.238a9.8,9.8,0,0,1-1.672-.036c-1.153-.081-2.3-.187-3.46-.246q-2.092-.108-4.192-.15c-1.437-.029-2.875-.024-4.312-.03-1.78-.007-3.562-.023-5.341-.007-1.094.01-2.186.08-3.279.114-.547.017-1.1.008-1.643.022q-2.512.064-5.023.142c-.051,0-.1.045-.24.114.63,0,1.169-.008,1.707,0,.682.012,1.363.04,2.043.061.068,0,.139.012.205.007,1.537-.117,3.065.1,4.6.045,1.1-.036,2.175.068,3.263.1.575.02,1.154.022,1.73.031.308,0,.621-.016.923.013,1.018.1,2.044.081,3.067.107.718.019,1.432.09,2.147.116,1.192.044,2.389.063,3.581.107,1.092.04,2.206.033,3.267.171,1.24.161,2.5.138,3.741.269a25.135,25.135,0,0,0,2.532.012,2.68,2.68,0,0,1,.707.033,7.252,7.252,0,0,0,2.006.18c.576.016,1.146.121,1.723.157.711.045,1.427.053,2.14.091a8.677,8.677,0,0,1,1.79.215,13.273,13.273,0,0,0,1.764.278,1.724,1.724,0,0,1,.942.334c-.037.192-.286.23-.515.242-.374.021-.752,0-1.128.014-.476.013-.56.067-.557.388a1.06,1.06,0,0,1-.588,1c-1.151-.1-2.331-.2-3.511-.292-.882-.07-1.763-.147-2.646-.194-2.08-.11-4.167-.174-6.241-.314-1.605-.108-3.212-.051-4.815-.112-.2-.008-.413.015-.614,0-2.009-.165-4.03-.063-6.045-.114q-1.844-.045-3.689-.061c-1.47-.012-2.941-.023-4.411-.008-1.093.01-2.185.082-3.277.09-1.233.007-2.462.016-3.686.127a3.389,3.389,0,0,1-1.013-.011,2.366,2.366,0,0,0-.6,0c-.509.033-1.016.073-1.521.117-1.354.117-2.722.086-4.083.135-1.12.04-2.244.086-3.368.1a18.684,18.684,0,0,0-2.033.141c-.764.094-1.553.131-2.333.153a15.062,15.062,0,0,0-2.326.189,1.042,1.042,0,0,1-.2.026c-1.52-.042-2.937.364-4.445.377-.159,0-.316.037-.577.068.155.076.229.143.289.138a22.731,22.731,0,0,0,2.33-.182,2.354,2.354,0,0,1,.506-.036c1,.034,1.965-.109,2.946-.172s1.971-.129,2.957-.188c.235-.015.477-.013.715-.014a35.181,35.181,0,0,0,3.678-.169,3.88,3.88,0,0,1,.512-.016c1.469.025,2.929-.117,4.4-.07a6.061,6.061,0,0,0,.814-.042c1.082-.111,2.174-.084,3.265-.1,1.158-.018,2.315-.077,3.473-.1a14.518,14.518,0,0,1,1.53.026,8.811,8.811,0,0,0,1.324-.005,4.388,4.388,0,0,1,.614-.017c1.336.1,2.666-.011,4-.034.136,0,.274-.017.407-.006a51.894,51.894,0,0,0,5.208.076,3.781,3.781,0,0,1,.713.031,4.805,4.805,0,0,0,1.518.036,2.983,2.983,0,0,1,.5.018c1.5.073,3,.111,4.5.091.239,0,.479,0,.718.01.751.025,1.5.054,2.252.082a5.921,5.921,0,0,0,.614.021c.416-.028.642.3,1.144.177a4.771,4.771,0,0,1,1.095,0c.409.008.818.015,1.227.031a11.753,11.753,0,0,0,1.215.057,17.992,17.992,0,0,1,2.307.17c1.595.091,3.188.156,4.763.362.431.056.938-.041,1.391.038a14.129,14.129,0,0,0,1.819.167c1.43.058,2.828.249,4.257.369.265.224.518.437.5.731-.024.344-.22.63-1.08.679a7.581,7.581,0,0,1-1.327-.056c-2.014-.247-4.05-.4-6.087-.558-1.254-.1-2.506-.2-3.759-.3a.721.721,0,0,0-.1-.007,39.425,39.425,0,0,1-3.971-.225c-.785-.03-1.572-.039-2.357-.062-1.091-.032-2.182-.07-3.271-.1-.784-.023-1.57-.035-2.355-.061-.613-.021-1.226-.052-1.837-.086-.543-.029-1.079-.056-1.628-.049a10.936,10.936,0,0,1-2.246-.051,2.633,2.633,0,0,0-.713.011,26.924,26.924,0,0,1-3.687.018c-.238-.009-.478,0-.718,0-.371,0-.745,0-1.112-.023a6.384,6.384,0,0,0-1.721,0,3.392,3.392,0,0,1-.714.015c-1.191-.033-2.384-.009-3.576-.035-.645-.014-1.294.055-1.941.072-.683.018-1.369.011-2.052.027-1.06.023-2.119.056-3.178.086-.478.014-.957.026-1.434.047q-2,.089-3.988.184c-.443.021-.886.054-1.33.06a27.161,27.161,0,0,0-2.755.139c-.662.077-1.358.047-2.039.064-.205.005-.411,0-.614.012q-2.808.175-5.613.355-1.985.127-3.948.356c-.57.066-1.153.092-1.728.147q-2.18.209-4.357.431c-1.889.195-3.779.388-5.663.6-1.715.193-3.42.414-5.132.615-.434.051-.88.063-1.317.108-.773.079-1.551.155-2.316.258a31.5,31.5,0,0,1-4.475.311,4.209,4.209,0,0,1-1.719-.346c-.647-.29-.818-.544-.636-1.019a1.293,1.293,0,0,1,.119-.238.6.6,0,0,1,.137-.105,23.118,23.118,0,0,0,4.879-.4,1.345,1.345,0,0,1,.159-1.538,18.731,18.731,0,0,0,2.993-.215c1.605-.2,3.214-.394,4.808-.625.631-.091,1.25-.164,1.9-.2a18.7,18.7,0,0,0,1.894-.251c.563-.088,1.116-.2,1.673-.3a2.471,2.471,0,0,1,.49-.085c1.449.042,2.807-.294,4.228-.371.37-.02.728-.112,1.094-.164.314-.044.631-.08.97-.121-.088-.058-.129-.109-.173-.11-.818-.011-1.647-.065-2.456-.011-1.288.087-2.563.246-3.843.378-.775.08-1.551.162-2.323.252-1.341.155-2.68.318-4.019.478-1.275.152-2.558.283-3.823.46-1.866.262-3.743.484-5.627.692-1.106.122-2.183.341-3.274.513a5.967,5.967,0,0,1-.6.066c-.6.032-1.066-.211-.991-.667.03-.184.086-.367.139-.588a25.152,25.152,0,0,0,4.025-.582c.293-.054.609-.062.9-.119.382-.074.827-.089,1.05-.345a1.546,1.546,0,0,0,.883-.025c.262-.045.514-.112.776-.155a1.184,1.184,0,0,0,.724-.254A15.586,15.586,0,0,0,7183.865,3640.613Zm30.148-1.281a2.051,2.051,0,0,0,.875.045c-.025-.033-.041-.066-.055-.066-.271.005-.544.015-.815.024-.5.083-1.047,0-1.72.156.289.021.388.036.485.033a7.561,7.561,0,0,0,.806-.037A2.234,2.234,0,0,0,7214.014,3639.332Zm-5.279.5c-.3-.02-.608-.049-.912-.055-.11,0-.3.013-.181.156l1.09-.1c.264-.014.529-.022.793-.042.237-.017.521.037.71-.133a2.982,2.982,0,0,0-1.347.027C7208.816,3639.708,7208.787,3639.781,7208.734,3639.831Zm-21.234.248a.589.589,0,0,0-.611.091l.6-.1,3.822-.47c.435-.053.872-.1,1.308-.157,1.172-.146,2.34-.3,3.513-.437.636-.074,1.286-.1,1.919-.184.8-.1,1.584-.267,2.39-.352a15.918,15.918,0,0,1,3.034-.245,1.521,1.521,0,0,0,.493-.062,8.3,8.3,0,0,1,2.4-.258,3.008,3.008,0,0,0,.9-.063,3.943,3.943,0,0,1,1.589-.135.859.859,0,0,0,.3-.019c.211-.065.4-.153.614-.22.189-.06.477.017.639-.162a7.99,7.99,0,0,0-1.769.015c-.842.071-1.679.162-2.521.232-.812.068-1.63.107-2.438.182-2.468.23-4.922.5-7.357.838-.5.069-1.01.1-1.507.173-1.23.178-2.46.359-3.682.557-.958.155-1.907.331-2.854.51A1.423,1.423,0,0,0,7187.5,3640.079Zm23.688-2.867a1.212,1.212,0,0,0,.918.186,2.512,2.512,0,0,0,1.442-.383A21.067,21.067,0,0,0,7211.188,3637.212Zm14.945,1.648a2.12,2.12,0,0,0-1.162-.109c-.147.04-.323.07-.264.229A2.945,2.945,0,0,0,7226.134,3638.86Zm-19.26,1.066c-.425.066-.925-.132-1.368.162A2.657,2.657,0,0,0,7206.874,3639.927Zm13.6-.81a1.374,1.374,0,0,0-1.216.079Zm-6.468-2.115c.331.174.331.174.67.049C7214.486,3636.86,7214.258,3636.94,7214.006,3637Zm2.7-.164.015.089.828-.089-.083-.029Zm5.455,2.175h.65C7222.512,3638.822,7222.512,3638.822,7222.161,3639.013Zm8.912-.308.016.08.456-.018,0-.062Zm-12.364-1.968c-.026.007-.063.011-.072.023s.01.032.016.048l.115-.039Zm-13.295,5.224-.1.067a.56.56,0,0,0,.063.032c.038-.021.072-.045.107-.068Zm18.164-3.039-.144.051a.7.7,0,0,0,.17.042.488.488,0,0,0,.143-.05Zm-12.385.645-.072.018a.173.173,0,0,0,.06.027.244.244,0,0,0,.07-.017Zm-3.822,2.3-.075-.007.019.043Zm20.635-3.078c.019.011.038.03.057.03a.23.23,0,0,0,.072-.026l-.093-.052Zm-.231-1.5-.077.033a.8.8,0,0,0,.131.049c.017,0,.049-.019.075-.03Zm-.482,1.518-.007.035.064-.014Zm4.977-.091-.055-.022-.012.034Z" transform="matrix(-0.574, 0.819, -0.819, -0.574, 7440.332, -3041.683)" fill="#a545f5"/>
  </g>
</svg>
