<svg xmlns="http://www.w3.org/2000/svg" width="242.262" height="51.477" viewBox="0 0 242.262 51.477">
  <g id="Sea_Sky_Insription" data-name="Sea&amp;Sky Insription" transform="translate(0 0)">
    <path id="Path_4395" data-name="Path 4395" d="M1246.618,4781.2c-.109.031-.217.068-.328.091-.078.017-.177-.013-.235.025a9.723,9.723,0,0,0-2.213,1.314,39.231,39.231,0,0,0,3.758-1.856l-.057-.15-.454.054c.292-.22.5-.42.869-.276.109.042.308-.091.441-.182a4.219,4.219,0,0,0,.451-.421c.032.521.211.5.543.348,1.361-.628,2.754-1.186,4.127-1.788.551-.242,1.108-.472,1.676-.669,1.217-.424,2.456-.782,3.684-1.175.517-.166,1.025-.354,1.543-.518,1.166-.368,2.336-.726,3.5-1.088.68-.212,1.355-.444,2.042-.63a9.128,9.128,0,0,1,1.1-.155l.026-.262c-.1-.034-.2-.066-.295-.108q-2.32-1.031-4.638-2.067c-1.1-.49-2.189-.988-3.285-1.479a24.479,24.479,0,0,1-4.427-2.739,10.226,10.226,0,0,1-3.157-3.656,3.789,3.789,0,0,1,1.159-4.575c.545-.419,1.188-.707,1.769-1.083a2.7,2.7,0,0,1,1.609-.652c.179.007.387-.188.548-.33.331-.29.614-.653,1.138-.534.031.007.078-.142.14-.173a2.353,2.353,0,0,1,.66-.28c.091-.015.219.193.33.3-.13.116-.277.345-.386.328-.392-.062-.587.183-.862.371a3.056,3.056,0,0,1-2.187.793l-.053.524c-.973-.431-1.092.649-1.71.889l.037.154a2.528,2.528,0,0,0,.557-.129c.757-.361,1.5-.759,2.256-1.113q1.406-.654,2.825-1.278c.513-.226,1.37-.544,1.9-.715,1.292-.417,2.581-.844,3.88-1.238,1.283-.389,2.576-.744,3.864-1.116a1.515,1.515,0,0,0,.285-.125,2.079,2.079,0,0,1,1.295-.36,6.8,6.8,0,0,0,1.657-.232c.734-.132,1.465-.279,2.2-.427.5-.1.984-.253,1.484-.316.551-.07,1.115-.035,1.667-.1.476-.056.963-.1,1.165-.707.114-.342.4-.656.858-.363a.213.213,0,0,0,.134.046c.621-.13,1.241-.267,1.862-.4.083-.017.312-.117.256-.013-.034.066-.1.136-.1.2a.562.562,0,0,0,.118.246c.106.147.225.286.382.482.352-.013.457-.1.315-.4a.189.189,0,0,1,.116-.26,1.862,1.862,0,0,1,1.144-.106,1.578,1.578,0,0,0,1.465-.076c.182-.129.562-.015.842.037,1.432.265,2.886.458,4.281.854a10.589,10.589,0,0,1,2.426,1.082,23.164,23.164,0,0,1,2.071,1.562c.622.471,2.362,2.145,1.7,4.177-.165.552-.7,2.221-3.809,4.118a35.1,35.1,0,0,1-3.2,1.582c-.992.473-1.984.949-2.99,1.392-.416.183-.871.276-1.3.422-1.431.48-2.851.994-4.293,1.437-.442.136-.953.03-1.411.133-.8.182-1.585.465-2.389.651a2.3,2.3,0,0,1-1.048-.006c-.6-.143-1.182-.38-1.777-.56-.09-.027-.209.057-.316.062-.246.012-.493.017-.739,0a3.737,3.737,0,0,1-.634-.081,3.02,3.02,0,0,1-.447-.177c.1-.1.207-.191.308-.29a3.33,3.33,0,0,1,1.912-.678c.349-.064.662-.4,1-.416a4.953,4.953,0,0,0,1.851-.644.755.755,0,0,1,.18-.059c.71-.133,1.431-.226,2.129-.407a18.073,18.073,0,0,0,2.034-.678c1.349-.527,7.209-2.4,10.682-4.665,1.6-1.156,1.875-2.293,1.713-2.932-.331-.964-1.591-1.594-2.214-1.869a13.135,13.135,0,0,0-3.983-.949c-.784-.083-1.578-.146-2.366-.2-.72-.05-1.442-.064-2.164-.056-.97.012-1.946,0-2.917.063-1.032.066-2.064.14-3.092.248-1.316.138-2.629.306-3.942.476-.347.045-.684.178-1.031.216-.419.045-.845.021-1.266.051a5.351,5.351,0,0,0-1.032.134c-1.384.376-2.762.775-4.141,1.173-.935.27-1.883.507-2.8.838-1.4.5-2.779,1.051-4.146,1.629a20.421,20.421,0,0,0-2.016,1.061c-.789.445-1.77.826-2.521,1.33-2.1,1.444-1.3,2.6-.895,3.029a11.217,11.217,0,0,0,2.774,1.937c.784.435,1.544.913,2.341,1.323s1.591.752,2.4,1.109c.872.387,1.76.739,2.627,1.136q1.482.677,2.939,1.41c1.073.538,2.147,1.08,3.194,1.667a2.382,2.382,0,0,0,2.134.387c1.01-.473,2.115-.312,3.13-.711a9.023,9.023,0,0,1,2.213-.365c.306-.036.466-.1.372-.476.078.083.143.194.238.241a.9.9,0,0,0,.464.134c.735-.093,1.464-.233,2.2-.326a29.643,29.643,0,0,1,2.959-.3,2.3,2.3,0,0,0,1.256-.452l-.1.546.744-.293c.242.338.556.333.906.033v-.492a.942.942,0,0,0,1.2.611,3.92,3.92,0,0,0,.821-.426,2.3,2.3,0,0,0,.125.213c.151.23.293.41.541.12a.862.862,0,0,1,1.277-.065c.067.069.135.137.205.2.008.007.03,0,.089-.008l.058-.359c.1.011.211.014.316.036.262.053.52.14.785.167a6.653,6.653,0,0,1,4.592,2.078,4.087,4.087,0,0,1,1.044,1.507,2.57,2.57,0,0,1,.038.98c-.039.332-.441.7-.12.574.769-.314,2-.93,2.785-1.2.439-.15.746-.53,1.126-.66a7.235,7.235,0,0,0,1.258-.776c.134-.076.252-.178.391-.276.012,0,.057-.014.073,0,.522.525,1.069,1.029,1.551,1.588.323.254-.095.768-.442,1.374a4.725,4.725,0,0,0-.813,2.349c.177.9,1.454.147,1.521.12a22.969,22.969,0,0,0,3.154-1.712,11.423,11.423,0,0,0,1.312-.97c.425-.475.612-.58,1-.084a4.984,4.984,0,0,0,.912.755,1.228,1.228,0,0,1,.224,1.83c-.2.252-.5.409-.681.671a.419.419,0,0,0-.01.485c.347.376,1.78.92,6.658-1.85a23.487,23.487,0,0,0,2.6-1.836,7.766,7.766,0,0,0,1.355-1.454c.458-.741.906-.519,1.343.153.2.3.6.469.9.715a1.171,1.171,0,0,1,.363.43,7.724,7.724,0,0,1-.083,4.263c-.2,1.087-.568,2.146-.874,3.213-.08.28-.21.546-.355.916.314-.02.516-.019.714-.046,1.053-.148,2.1-.305,3.158-.454a.7.7,0,0,1,.226.031c.354.075.682.272,1.072,0,.164-.114.485.013.732,0,.878-.056,1.754-.139,2.631-.183a7.205,7.205,0,0,1,.833.1c.339.023.681.017,1.021.034a3.638,3.638,0,0,0,1.328-.2,1.557,1.557,0,0,1,.984.211,2.321,2.321,0,0,0,.528-.009c.139-.033.313-.248.38-.211.511.273,1.13-.241,1.62.235.057.054.341-.127.569-.218l.341.282c.329-.484.737-.123,1.116-.119.2,0,.434.132.6.07a3.679,3.679,0,0,1,1.626-.047c.171.015.328.18.529.3.222-.394.595-.338,1-.272a11.333,11.333,0,0,1,1.675.288,6.954,6.954,0,0,0,2.024.038c.032,0,.074-.02.094-.005.716.505,1.562-.058,2.3.279.042.019.1,0,.142.018a5.115,5.115,0,0,0,2.279.292,2.659,2.659,0,0,1,1.61.322c.159.116.48-.01.757.05a14.153,14.153,0,0,0,2,.165.357.357,0,0,1,.187.034,2.481,2.481,0,0,0,1.821.328c.048,0,.113-.024.142,0,.573.453,1.385.037,1.954.541.082.072.3-.029.45-.011a4.782,4.782,0,0,1,.553.129,2.9,2.9,0,0,0-.25.347,3.031,3.031,0,0,0-.146.439c-.418-.064-.846-.147-1.278-.19-.314-.031-.637.025-.949-.013a8.925,8.925,0,0,1-2.718-.438c-.04-.018-.112-.033-.136-.011-.369.32-.751.084-1.14.06a21.076,21.076,0,0,0-3.018-.078,5.321,5.321,0,0,1-1.941-.24,3.021,3.021,0,0,0-.911-.078,6.174,6.174,0,0,1-.731.07c-.653-.013-1.306-.046-1.959-.078-1.128-.055-2.257-.11-3.385-.175-1.158-.065-2.315-.143-3.472-.214a.47.47,0,0,0-.189.009,5.142,5.142,0,0,1-2,.112c-1.161-.009-2.323.045-3.485.05-.822,0-1.645-.026-2.467-.036-.411,0-.822.013-1.233.036-.886.049-1.774.083-2.658.153-1.494.118-2.987.251-4.48.388a2.034,2.034,0,0,0-2.076,1.562c-.122.475-.534.869-.691,1.341a23.4,23.4,0,0,1-1.554,2.507,8.127,8.127,0,0,1-.982,1.394c-.679.88-1.332,1.785-2.074,2.609a28.193,28.193,0,0,1-2.422,2.3,26.133,26.133,0,0,1-2.226,1.753,12.65,12.65,0,0,1-2.18,1.282,27.451,27.451,0,0,1-3.009.982,6.893,6.893,0,0,1-3.408.105,3.023,3.023,0,0,1-.544-.233l-.227.3a6.162,6.162,0,0,1-2.236-2.636,5.9,5.9,0,0,1-.459-2.456,10.572,10.572,0,0,0-.242-1.8,2.96,2.96,0,0,1,.921-2.227c.258-.2.408-.546.663-.771.28.615-.645.683-.339,1.3.371-.455.714-.874,1.054-1.3a5.383,5.383,0,0,1,1.851-1.643l.013-.007c.844-.613,1.663-1.267,2.542-1.826a22.583,22.583,0,0,1,2.209-1.145c.625-.307,1.254-.609,1.9-.867a10.493,10.493,0,0,1,1.424-.408c.385-.124.769-.249,1.155-.371.554-.175,1.1-.381,1.665-.514.709-.167,1.43-.286,2.149-.4.793-.128,1.589-.242,2.386-.334a.962.962,0,0,0,.761-.322c.044-.058.246-.036.354,0,.445.17.63-.1.756-.439a11.97,11.97,0,0,0,.387-1.206c.131-.512.8-2.694,1.139-4.253-.3.211-.944.665-1.243.879a21.749,21.749,0,0,1-7.535,3.177,3.512,3.512,0,0,1-4.265-2.65c-.063-.316-.214-.552-.468-.466-.878.328-1.728.668-2.728,1a3.979,3.979,0,0,1-2.425-.025c-.89-.312-1.369-1.809-1.235-2.786.064-.468-.162-.623-.577-.44-.783.346-1.531.768-2.311,1.12-1.077.485-2.157.971-3.262,1.386a5.31,5.31,0,0,1-1.506.229.669.669,0,0,1-.455-.285,2.181,2.181,0,0,1-.431-1.815.654.654,0,0,0-.045-.407.863.863,0,0,1,.242-1.236c.5-.484,2.064-1.411,1.8-2.1-.136-.356-.687-.456-1-.535a21.166,21.166,0,0,0-2.817-.5,24.265,24.265,0,0,0-3.334-.1c-1.968.045-3.935.133-5.9.245-.829.047-1.653.192-2.477.31-2.113.3-4.224.617-6.425.939.07.141.092.269.167.326.571.43,1.163.835,1.728,1.272.4.311.781.654,1.157,1,.338.308.649.646.991.951a4.577,4.577,0,0,1,1.683,3.5,3.026,3.026,0,0,1-1.079,2.011,13.207,13.207,0,0,1-2.312,1.606,31.439,31.439,0,0,1-3.553,1.531c-.944.351-1.938.563-2.906.853-.243.073-.479.317-.7.294a6.325,6.325,0,0,0-1.964.465c-1.11.222-2.2.528-3.305.789-.367.087-.739.154-1.111.216-1.252.21-2.5.462-3.748.669-1.979.327-3.951.721-5.942.937-2.468.269-4.949.45-7.43.545a11.3,11.3,0,0,1-5.421-1.026,3.276,3.276,0,0,1-2.108-2.318,4.065,4.065,0,0,1,1.3-2.779,12.264,12.264,0,0,1,2.574-1.927c.97-.539,1.944-1.072,2.936-1.57.684-.344,1.4-.628,2.1-.932a1.391,1.391,0,0,1,.313-.057Zm18.951,4.44c-.058.077-.149.147-.166.232a.929.929,0,0,0,.022.389.313.313,0,0,0,.245,0c.091-.1.2-.246.185-.352s-.191-.177-.3-.264l-.345-.455a2.978,2.978,0,0,0,.543.134,3.282,3.282,0,0,0,.931-.038c.586-.158,1.142-.452,1.734-.557.358-.063.5-.179.5-.417.164.044.315.136.437.107a10.192,10.192,0,0,0,1.142-.35c.077-.027.116-.157.173-.239-.1-.034-.2-.108-.292-.095a1.856,1.856,0,0,0-.408.153,1.331,1.331,0,0,1,.625-.475,1.112,1.112,0,0,1,.765-.04c.436.26.531.036.708-.289a1.18,1.18,0,0,1,.576-.5c.644-.241,1.348-.345,1.742-1.02a.579.579,0,0,1,.355-.23c.61-.12.886-.635,1.273-1.022.279-.278.229-.514,0-.8a10.96,10.96,0,0,0-2.718-2.172c-.9-.581-1.813-1.134-2.751-1.645a2.038,2.038,0,0,0-1.035-.186,6.55,6.55,0,0,0-1.113.271c-.927.22-1.861.411-2.781.656-1.206.321-2.4.678-3.6,1.027-1.109.323-2.224.628-3.32.992-.954.316-1.882.708-2.828,1.052-.6.217-1.218.384-1.813.612-.762.293-1.516.609-2.26.944-.788.354-1.536.809-2.347,1.092a16.2,16.2,0,0,0-2.037.923c-.54.277-1.2.313-1.764.55a20.457,20.457,0,0,0-2.061,1.045c-.585.326-1.148.693-1.712,1.057-.267.172-.75.437-1.262.79-.619.428-1.341,1.088-.984,1.88.645,1.146,6.586.516,9.883.368a2.12,2.12,0,0,1-.8.246c-1.056.109-2.113.2-3.17.3-.046,0-.094-.027-.141-.026-.436.008-.871.021-1.306.032l-.012.182a1.006,1.006,0,0,0,.276.1c1.009.04,2.018.089,3.027.09.292,0,.58-.19.877-.22.7-.071,1.407-.091,2.109-.146.4-.031.788-.089,1.181-.143.6-.082,1.2-.168,1.8-.257.1-.015.234-.1.3-.063.358.218.634-.011.946-.118a7.6,7.6,0,0,1,1.267-.341,3.949,3.949,0,0,0,1.972-.519.965.965,0,0,1,.81-.116c.54.229.65.252.861-.312a.781.781,0,0,1,.919-.558c-.158.173-.3.313-.423.471a1.389,1.389,0,0,0-.136.309c.124-.015.28.014.367-.051.342-.252.661-.534,1.033-.841l.238.4,1.386-.57-.149-.323c.406-.125.789-.214,1.148-.361.419-.172.785-.552,1.293-.192C1265.247,4785.794,1265.437,4785.68,1265.569,4785.645Zm48.273,8.877a2.823,2.823,0,0,0,.387-.05c-.007-.354.3-.451.472-.664.38-.471.652-1.027,1.021-1.508a11.806,11.806,0,0,0,1.831-2.778c.217-.55.585-1.039.857-1.569a9.317,9.317,0,0,0,.365-.955,2.249,2.249,0,0,0-.406-.028c-1.136.176-2.28.316-3.4.551-1.008.21-2,.5-2.988.8-.875.265-1.737.577-2.6.893a14.874,14.874,0,0,0-1.9.786c-.63.338-1.2.785-1.8,1.179a17.533,17.533,0,0,0-4.244,3.539,4.478,4.478,0,0,0-.932,3.8,1.319,1.319,0,0,0,.793,1.169c.49.156,1.068.059,1.449.524a.177.177,0,0,0,.173.005c.412-.318.737-.142,1.066.252v-.508l1.9-.292c.161.241.4.519.54.474.282-.091.709-.347.717-.548.017-.441.223-.547.557-.638.3-.08.587-.182.88-.274l.05.146-1.268.681c.618-.1,1.212.1,1.561-.516.038-.066.166-.085.255-.117a2.635,2.635,0,0,0,1.311-1.06c.311-.458.644-.9.958-1.337l.491.167-.059.446c.338-.306.763-.395.5-.948-.123-.261.163-.357.44-.3l.12.437c.423-.3.451-.381.387-.792a.652.652,0,0,1,.069-.4A5.49,5.49,0,0,1,1313.842,4794.522Zm-30.648-42.785a3.426,3.426,0,0,0,2.4.2C1285.87,4751.663,1282.683,4751.434,1283.194,4751.737Zm-3.132-.066c-.279-.022-.519-.036-.758-.064-.132-.016-.324-.124-.377-.073a1.138,1.138,0,0,0-.176.426C1279.575,4752.173,1279.863,4752.113,1280.062,4751.671Zm25.009,48.632.045.16c.32.07.641.146.761-.408Zm5.723-2.465.137.055a6.764,6.764,0,0,0,.518-.5.386.386,0,0,0,.031-.294c-.007-.032-.207-.068-.225-.042C1311.09,4797.309,1310.945,4797.575,1310.794,4797.838Zm-45.8-11.707-.083-.28-.615.129c.043.106.1.308.128.3A4.03,4.03,0,0,0,1264.993,4786.131Zm16.5-34.184c-.47-.392-.754-.367-1.007,0C1280.325,4752.156,1281.075,4751.948,1281.491,4751.948Z" transform="translate(-1119.086 -4750.917)"/>
    <path id="Path_4396" data-name="Path 4396" d="M664.355,4771.926c.2.312.563.306,1.006.181a8.717,8.717,0,0,1,1.352-.181c1.164-.137,2.327-.35,3.494-.37a3.883,3.883,0,0,0,1.185-.391l-.036.475.664-.262-.014.105.972.077v-.627c.279.311.4.7.965.579.393-.086.792-.037.95-.609.1.2.138.371.243.455s.348.2.441.149c.853-.49.858-.5,1.6.071l.129-.4c.893.174,1.762.352,2.634.511a4,4,0,0,1,2.99,1.979,3.351,3.351,0,0,1,.209,2.118c-.245.9.152,1.254.2,1.281a2.25,2.25,0,0,1,1.251-1.7,2.339,2.339,0,0,1,1.969.031,2.264,2.264,0,0,1,.691,3.08c-.586.908-1.686,1.3-1.605,1.381.791.8,6.474-1.5,6.661-1.58.7-.293,3.041-1.469,3.51-1.707a10.4,10.4,0,0,0,1.5-.873,9.886,9.886,0,0,1,4.42-1.928c.612-.095,1.232-.131,1.844-.224.316-.048.458.092.6.34a3.5,3.5,0,0,0,.547.719,2.363,2.363,0,0,1,.463,2.256,2.283,2.283,0,0,1-.4.488c.434-.077.773-.153.942-.2a17.4,17.4,0,0,1,3.158-.53,2.6,2.6,0,0,1,1.961.631,3.15,3.15,0,0,1,1.1,1.92c.036.244.2.472.22.716.076.743.08,1.5.18,2.234a8.831,8.831,0,0,0,.393,1.5,2.9,2.9,0,0,0,2.425,1.44c2.095.13,2.362-.374,3.3-.326.175.009.578.016.6.081-.2.1-.4.188-.589.306a15.269,15.269,0,0,1-1.548.877,3.977,3.977,0,0,1-1.271.359c-.387.035-.78-.012-1.171-.015a3.006,3.006,0,0,1-1.826-.608,4.719,4.719,0,0,1-1.619-3.629c-.078-.748-.079-1.5-.129-2.256a1.276,1.276,0,0,0-1.678-1.163c-.246.06-.534-.075-.794-.046a18.463,18.463,0,0,0-1.959.3c-.8.181-1.582.463-2.385.636-1.728.371-3.24.62-4.984.9a4.3,4.3,0,0,1-1.715-.127c-.532-.17-.944-1.462-.811-2.384a17.367,17.367,0,0,1-1.935.921,35.4,35.4,0,0,1-3.741,1.4,34.721,34.721,0,0,1-4.337,1.248,4.477,4.477,0,0,1-2.791-.475,1.662,1.662,0,0,1-.7-1.169c-.083-.683.1-.983-.22-1.274a2.69,2.69,0,0,1-.753-3.1,1.044,1.044,0,0,0-.63-1.361,8.416,8.416,0,0,0-2.951-.585q-1.911-.132-3.826-.21a44.536,44.536,0,0,0-7.191.416c-2.055.249-4.1.61-6.144.921-.378.057-1.273.19-1.538.239.474.371.929.734,1.33,1.062.64.521,1.277,1.046,1.9,1.582.3.256.564.551.86.811a4.175,4.175,0,0,1,1.594,3.82,2.38,2.38,0,0,1-.956,1.718,11.716,11.716,0,0,1-2.226,1.561,40.737,40.737,0,0,1-3.954,1.677c-.865.325-1.783.508-2.673.771-.3.089-.593.333-.882.321a11,11,0,0,0-2.29.576c-1.524.258-3.025.65-4.541.963-1.034.213-2.075.4-3.116.569-1.786.3-3.569.635-5.366.853-2.115.256-4.239.473-6.366.58a15.342,15.342,0,0,1-6.544-.8,3.412,3.412,0,0,1-2.154-1.766,2.827,2.827,0,0,1,.145-1.84,2.657,2.657,0,0,1,.844-1.127c1.263-.9,2.54-1.8,3.885-2.567,1.495-.857,3.047-1.623,4.614-2.343,1.771-.813,3.572-1.566,5.385-2.281,1.95-.769,3.923-1.482,5.9-2.182.961-.341,1.953-.59,2.928-.891,1.219-.375,2.43-.774,3.652-1.138.565-.168,1.149-.272,1.723-.412a3.2,3.2,0,0,0,.378-.141l.02-.135c-.5-.257-1-.529-1.512-.768-.9-.418-1.808-.815-2.714-1.22-1.945-.868-3.915-1.684-5.829-2.615a11.982,11.982,0,0,1-4.928-3.87,5.312,5.312,0,0,1-.948-3.019,3.812,3.812,0,0,1,.685-2.176,3.771,3.771,0,0,1,1.873-1.793,8.926,8.926,0,0,0,1.034-.656c.254-.136.56-.168.828-.28.347-.146.681-.324,1.019-.491.025-.012.032-.063.057-.075.532-.266,1.06-.544,1.6-.781.11-.048.288.06.458.1-.1.352-.124.668-.607.482-.126-.048-.356.151-.53.251-.532.308-1.058.628-1.593.931a.652.652,0,0,1-.321.055c-.452-.012-.452-.016-.5.368a3.167,3.167,0,0,0-.931.285,4.978,4.978,0,0,0-.771.891,2.6,2.6,0,0,0,.611-.125c.68-.334,1.341-.707,2.021-1.041.546-.268,1.1-.521,1.666-.741,2.039-.791,4.065-1.626,6.136-2.327,1.6-.54,3.318-.745,4.855-1.4a19.54,19.54,0,0,1,3.18-.636c1.093-.279,2.217-.443,3.334-.62.748-.119,1.512-.136,2.257-.268.4-.071.856-.106,1.014-.68.084-.307.364-.7.845-.385.027.017.063.043.087.036.63-.18,1.351.083,1.922-.4a.672.672,0,0,1,.248-.073c-.025.079-.079.163-.067.235a.983.983,0,0,0,.132.328c.087.145.193.279.314.45.438-.028.466-.078.313-.619.7-.452,1.421-.032,2.134-.067.11-.006.262.063.327.012.619-.487,1.216-.07,1.818.026.461.074.922.155,1.38.246.547.108,1.086.272,1.638.339,1.159.14,4.742,1.259,6.3,4a3.682,3.682,0,0,1,.547,2.326,3.9,3.9,0,0,1-1.282,2.623,8.712,8.712,0,0,1-3.29,2.293c-.763.241-1.466.67-2.225.929-1.238.42-2.493.794-3.755,1.135-.437.118-.928.021-1.371.125-.824.191-1.624.49-2.45.676a2.393,2.393,0,0,1-1.06-.061c-.6-.148-1.179-.373-1.772-.548-.094-.027-.232.082-.323.051a4.817,4.817,0,0,0-1.641-.122c-.046,0-.914.085-.168-.2.654-.241,1.064-.906,1.867-.758.223.041.488-.2.745-.282.328-.1.673-.157,1-.266.444-.148.876-.329,1.315-.493a3.764,3.764,0,0,1,.537-.183,17.055,17.055,0,0,0,1.982-.4c1.745-.566,3.18-.991,5.015-1.658a10.635,10.635,0,0,0,3.73-2.007c1.288-1.1,1.056-2.252.407-2.883-.459-.446-1.181-1.2-5.454-2.045a32.323,32.323,0,0,0-5.774-.221c-.88-.011-1.762.088-2.644.141-1.163.069-2.326.125-3.487.216-.475.038-.944.15-1.415.229-1.118.185-2.234.389-3.356.543-.491.068-1.012-.042-1.493.058-1.089.226-2.168.512-3.24.812-1.2.336-2.4.677-3.574,1.087-1.357.474-2.7.982-4.022,1.555-1.164.507-2.291,1.1-3.414,1.7a9,9,0,0,0-2.739,1.818,1.54,1.54,0,0,0,.242,2.13,11.3,11.3,0,0,0,2.773,1.927c.757.417,1.488.883,2.257,1.276.812.415,1.653.773,2.485,1.148.943.426,1.9.831,2.835,1.263,1.045.48,2.088.965,3.118,1.478.96.478,1.923.957,2.843,1.505a2.638,2.638,0,0,0,2.143.353,50.5,50.5,0,0,1,5.338-1.088C664.111,4772.254,664.2,4772.077,664.355,4771.926Zm-7.444,12.174-.022-.106c.1-.044.192-.09.289-.131.374-.16.733-.714,1.144-.042.017.028.178.016.22-.027.14-.142.247-.316.383-.461.156-.167.3-.4.5-.463a2.928,2.928,0,0,0,1.858-1.081.546.546,0,0,1,.326-.187c.614-.141.9-.665,1.3-1.067a.47.47,0,0,0,0-.716,10.766,10.766,0,0,0-2.744-2.215c-.88-.576-1.793-1.1-2.715-1.611a1.6,1.6,0,0,0-.98-.241c-1.353.282-2.694.625-4.031.978q-1.88.5-3.742,1.057c-1.178.356-2.352.731-3.514,1.139-1.791.627-3.579,1.265-5.351,1.945-1.158.444-2.28.983-3.424,1.465-.792.334-1.57.7-2.337,1.084-.614.309-1.333.4-1.98.655a8.646,8.646,0,0,0-1.1.656c-.823.478-1.654.94-2.476,1.421-.88.514-1.822,1.2-1.934,2.193a.719.719,0,0,0,.158.412,2.227,2.227,0,0,0,1.254.357c1.347.084,2.7.143,4.048.113,1.274-.028,2.546-.182,3.819-.276.162-.012.326,0,.49,0,.651-.043-.121.245-.2.26-.591.108-1.2.151-1.773.316-.649.187-1.3-.392-1.93.063-.036.027-.123-.025-.186-.024-.455.007-.909.019-1.364.028-.407-.009-.317.04-.008.173a1.81,1.81,0,0,0,.386.1c.96.042,1.923.131,2.88.085.6-.029,1.192-.184,1.806-.176a7.919,7.919,0,0,0,1.265-.17c.361-.054.722-.115,1.083-.167.642-.093,1.285-.181,1.927-.272.09-.012.2-.075.265-.041.373.2.654-.013.982-.142a6.43,6.43,0,0,1,1.26-.319,4.474,4.474,0,0,0,1.936-.489c.256-.175.712-.508,1.027.055.022.039.235.036.283-.017a1.8,1.8,0,0,0,.41-.574c.145-.419.414-.521.862-.449.327-.013-.212.164-.609.673-.2.222-.085.161.063.128a1.388,1.388,0,0,0,.421-.133c.273-.2.529-.423.76-.617a.21.21,0,0,1,.236-.022c.671.376.946-.306,1.553-.219.528.009-.356-.229-.106-.342.538-.248,1.058-.512,1.6-.723a1.849,1.849,0,0,1,.633-.012c.166,0,.7.1.539-.033-.167-.181-.676-.375-.312-.372a1.831,1.831,0,0,1,.418.033,1.361,1.361,0,0,0,1.358-.146c.105-.074.273-.056.41-.091a6.289,6.289,0,0,0,.762-.219c.32-.129.639-.444.933-.416.643.063,1.084-.342,1.639-.448l-.016-.132Zm41.658-6.154c.2.391,2.444-.378,3.678-1.158.421-.281.449-.526.418-.649-.046-.106-.227-.1-.315-.1a5.989,5.989,0,0,0-3.376,1.2C698.783,4777.368,698.447,4777.683,698.569,4777.945Zm-13.924.415c.547-.071,1.3-.251,1.494-.773a.731.731,0,0,0-.09-.648.643.643,0,0,0-.707-.125C684.716,4777.038,684.645,4777.721,684.645,4778.36Zm-12.424-26,.22-.155c-.115-.076-.222-.2-.345-.221-.525-.071-1.054-.122-1.583-.153a1.129,1.129,0,0,0-.391.132c.1.082.192.221.3.235C670.966,4752.265,671.515,4752.3,672.22,4752.359Zm-6.565-.071a8.063,8.063,0,0,0,.966-.015c.1-.013.182-.192.271-.295-.12-.021-.24-.046-.361-.062a1.217,1.217,0,0,1-.36-.04C665.795,4751.689,665.675,4751.766,665.655,4752.288Zm-13.837,33.769c-.268.065-.679-.062-.679.166a.383.383,0,0,0,.18.319C651.578,4786.621,652.117,4785.923,651.818,4786.057Zm15.536-34.038v.148h.9v-.148Zm-14.8,33.872c-.164.171-.31.263-.346.386-.02.07.139.193.217.292a1.489,1.489,0,0,0,.307-.324C652.759,4786.189,652.643,4786.061,652.552,4785.89Z" transform="translate(-624.353 -4751.104)"/>
    <path id="Path_4397" data-name="Path 4397" d="M1142.01,4828.819a2.443,2.443,0,0,1-.467-1.411,5.315,5.315,0,0,1,2.839-4.775,33.787,33.787,0,0,1,3.34-1.735,13.228,13.228,0,0,1,1.806-.747c.723-.229,1.474-.373,2.211-.56a3.274,3.274,0,0,0,.76-.231,2.633,2.633,0,0,1,2.583-.137c.333.172.535.581.841.825a1.908,1.908,0,0,1,.641,2.15,2.339,2.339,0,0,1-.609.889c-.729.776-1.485,1.527-2.294,2.354.1.007.252.063.351.016.914-.441,1.818-.9,2.727-1.353.27-.134.764.235.865.623a.918.918,0,0,0,.2.4c.439.46.365.982-.254,1.141-2,.513-3.76,1.615-5.678,2.334a25.075,25.075,0,0,0-2.731,1.392c-.548.287-1.1.57-1.635.88-.774.448-1.55.871-2.313,1.337-.165.1-.647.409-.533.563.069.093.585-.074.783-.161.754-.334,1.5-.721,2.251-1.065,2.019-.929,4.027-1.766,6.055-2.675.641-.287,1.353-.607,1.991-.9.8-.371.967-.8,1.067-.658.155.234.358.547.568.857a3.222,3.222,0,0,0,.255.328c.4.45.328.819-.223,1.05-1.061.445-2.14.851-3.189,1.323-1.208.544-2.393,1.141-3.586,1.717-.671.323-1.365.609-2,.987-1.559.923-3.185,1.587-4.681,2.606a31.3,31.3,0,0,0-3.264,2.326,2.411,2.411,0,0,0-.836,2.522c.026.1.178.308.119.35a.717.717,0,0,1-.382-.144,1.167,1.167,0,0,1-.384-.488,3.549,3.549,0,0,1,.519-3.333,11.189,11.189,0,0,1,2.559-2.182c.293-.2.032-.167-.251-.337a1.825,1.825,0,0,1-.118-2.72c.673-.607,1.418-1.137,2.132-1.7.177-.14.584-.484.763-.622A3.476,3.476,0,0,1,1142.01,4828.819Zm12.589-7.784a19.507,19.507,0,0,0-3.026.635,14.788,14.788,0,0,0-2.5.854,44.135,44.135,0,0,0-4.013,2.03,5.443,5.443,0,0,0-2.334,2.044,1.185,1.185,0,0,0-.031,1,1.639,1.639,0,0,0,1.678.357A14.945,14.945,0,0,0,1148,4826.6a20.92,20.92,0,0,0,4.176-2.714c.284-.242.615-.4.656-.723-.011-.044.2-.182.272-.242.571-.481,1.059-.885,1.625-1.373C1154.948,4821.376,1154.914,4821.01,1154.6,4821.035Z" transform="translate(-1039.809 -4805.835)"/>
    <path id="Path_4398" data-name="Path 4398" d="M735.536,4769.642l.511-.541c.248.112.483.089.7-.256.122-.192.459-.257.711-.348.056-.021.161.09.24.146s.161.175.231.168a.305.305,0,0,0,.221-.192c.037-.376.275-.392.577-.521a2.038,2.038,0,0,1,1.2-.156c.131.021.288-.159.44-.231a2.455,2.455,0,0,1,.821-.265,1.887,1.887,0,0,1-1.467.9,1.6,1.6,0,0,0-.443.173c-.07.032-.151.141-.191.125-.747-.3-1.022.537-1.6.659-.5.1-.97.361-1.466.5C735.892,4769.841,735.71,4769.7,735.536,4769.642Z" transform="translate(-714.109 -4764.259)"/>
    <path id="Path_4399" data-name="Path 4399" d="M1380.376,4761.258c.762-.2,1.42-.385,2.08-.554.1-.025.25-.037.306.019.225.224.371.188.517-.079.026-.048.164-.026.244-.056.105-.039.278-.08.292-.147.056-.268.146-.394.454-.328s.493.19.485.64c-.461-.365-.694.037-1.031.181a4.8,4.8,0,0,1-2.828.557A2.742,2.742,0,0,1,1380.376,4761.258Z" transform="translate(-1234.677 -4758.326)"/>
    <path id="Path_4400" data-name="Path 4400" d="M766.256,4761.577l1.2-.164a1.163,1.163,0,0,1,1.253-.185c.014.006.033.025.041.021.306-.146.778-.221.88-.457.176-.408.394-.286.642-.232.313.068.3.3.279.627-.4-.313-.622-.116-.918.089a3.241,3.241,0,0,1-1.024.323,5.96,5.96,0,0,1-1.357.3C766.95,4761.9,766.516,4762.041,766.256,4761.577Z" transform="translate(-738.909 -4758.653)"/>
    <path id="Path_4401" data-name="Path 4401" d="M1352.737,4772.818a3.792,3.792,0,0,1-1.636.784c-.124.023-.3,0-.362.073-.275.353-.52.132-.789.018l.512-.589c.221.141.451.209.649-.164.083-.156.384-.184.563-.3.272-.184.38-.054.522.172C1352.237,4772.874,1352.475,4772.818,1352.737,4772.818Z" transform="translate(-1210.115 -4768.379)"/>
    <path id="Path_4402" data-name="Path 4402" d="M1366.905,4766.979a4.291,4.291,0,0,1-3.014.961c.038-.147.043-.315.093-.33a6.172,6.172,0,0,1,1.269-.307c.3-.022.556.056.813-.226.168-.184.5-.214.765-.313Z" transform="translate(-1221.369 -4763.711)"/>
    <path id="Path_4403" data-name="Path 4403" d="M814.8,4755.553a2.913,2.913,0,0,1,2.888-.431l.014.142c-.489,0-.982-.029-1.467.02S815.28,4755.46,814.8,4755.553Z" transform="translate(-778.099 -4754.155)"/>
    <path id="Path_4404" data-name="Path 4404" d="M796,4757.848c-.106.386-.77.866-1.006.8-.1-.027-.256-.182-.241-.235.055-.183.142-.456.276-.5A4.234,4.234,0,0,1,796,4757.848Z" transform="translate(-761.914 -4756.512)"/>
    <path id="Path_4405" data-name="Path 4405" d="M1410.346,4757.534c-.129.543-.642.489-.978.658-.194.1-.362-.276-.218-.51C1409.363,4757.335,1409.844,4757.268,1410.346,4757.534Z" transform="translate(-1257.863 -4756.127)"/>
    <path id="Path_4406" data-name="Path 4406" d="M1435.391,4755.005c-.269.041-.538.082-.808.121a2.354,2.354,0,0,1-.4.045.3.3,0,0,1-.232-.091.269.269,0,0,1,.041-.246A1.845,1.845,0,0,1,1435.391,4755.005Z" transform="translate(-1277.913 -4754.023)"/>
    <path id="Path_4407" data-name="Path 4407" d="M1428.823,4755.605l.661-.273a1.385,1.385,0,0,1,.064.277c-.207.092-.425.158-.64.232Z" transform="translate(-1273.787 -4754.481)"/>
    <path id="Path_4408" data-name="Path 4408" d="M808.6,4757.064l.627-.393.141.216-.614.415Z" transform="translate(-773.093 -4755.563)"/>
    <path id="Path_4409" data-name="Path 4409" d="M832.2,4753.833l-.763.526c.012-.2-.015-.372.03-.394a6.632,6.632,0,0,1,.7-.244Z" transform="translate(-791.531 -4753.182)"/>
    <path id="Path_4410" data-name="Path 4410" d="M1423.579,4757.464c0-.543.107-.62.757-.5Z" transform="translate(-1269.554 -4755.759)"/>
    <path id="Path_4411" data-name="Path 4411" d="M1446.528,4753.717l-.672.468c-.009-.178-.048-.36-.015-.375a5.822,5.822,0,0,1,.655-.211Z" transform="translate(-1287.515 -4753.083)"/>
    <path id="Path_4412" data-name="Path 4412" d="M1328.73,4940.588a1.18,1.18,0,0,1-1.013.537,5.387,5.387,0,0,0-1.067.229,1.921,1.921,0,0,1-.518-.054c.134-.1.255-.264.4-.3C1327.264,4940.847,1328,4940.724,1328.73,4940.588Z" transform="translate(-1190.887 -4904.035)"/>
    <path id="Path_4413" data-name="Path 4413" d="M710.979,4942.039c.086-.089.158-.229.26-.256a14.128,14.128,0,0,1,1.536-.35c.141-.021.816.065.468.219a2.3,2.3,0,0,1-.462.224c-.368.086-.744.139-1.117.2-.205.036-.444.071-.649.106C710.752,4942.247,710.894,4942.115,710.979,4942.039Z" transform="translate(-694.191 -4904.714)"/>
  </g>
</svg>
