<svg xmlns="http://www.w3.org/2000/svg" width="89.789" height="25.013" viewBox="0 0 89.789 25.013">
  <g id="Sea_Effect" data-name="Sea Effect" transform="translate(0)" opacity="0.705">
    <path id="Path_4384" data-name="Path 4384" d="M1081.592,4702.636c.194-.079.409-.253.578-.217a8.108,8.108,0,0,1,1.159.431,12.051,12.051,0,0,1,4.635-.186c1.383.067,2.76.245,4.141.365a67.235,67.235,0,0,1,10.509,1.477,3.936,3.936,0,0,1,1.911.774,3.207,3.207,0,0,1-2.43,1.222c-1.743-.042-3.486.105-5.234-.057-1.961-.182-3.931-.265-5.895-.421-3.17-.254-6.345-.387-9.522-.515a21.194,21.194,0,0,0-2.54-.017,2.016,2.016,0,0,1-.537-.006,22.323,22.323,0,0,0-4.411-.119c-3.448.011-6.9-.22-10.345.077-.754.064-1.52-.017-2.28,0-2.777.065-5.556.233-8.332.193-2.741-.039-5.464.257-8.2.259a67.207,67.207,0,0,0-9.508.8c-2.794.4-5.569.946-8.37,1.29a21.707,21.707,0,0,0-3.409.591,2.235,2.235,0,0,1-1.916-.377,1.692,1.692,0,0,1-.316-.435,2.364,2.364,0,0,1,1.385-1.046,14.023,14.023,0,0,1,3.45-1.086,1.806,1.806,0,0,0,.388-.109,54.857,54.857,0,0,1,8.53-1.789c1.192-.188,2.4-.292,3.605-.382,3.172-.239,6.345-.485,9.521-.663,2.506-.141,5.018-.182,7.527-.279.762-.029,1.521-.117,2.283-.143.715-.025,1.432-.007,2.149,0a2.45,2.45,0,0,0,.532.043,11.9,11.9,0,0,1,3.477.054,6.183,6.183,0,0,0,2.13-.1,3.768,3.768,0,0,1,1.321-.009c.4.032.8.178,1.194.185a7.859,7.859,0,0,0,1.222-.179l-.451.555c.184.414.516.307.786.185.19-.087.318-.3.48-.455a1.339,1.339,0,0,1,.974-.378c.669,0,1.338-.028,2.006-.044a1.515,1.515,0,0,1,.535,0,7.357,7.357,0,0,0,2.726.063,4.972,4.972,0,0,0,.672-.033c.59-.081,1.088.345,1.7.265a9.417,9.417,0,0,1,1.736.006c.16.01.314.152.466.232-.224.049-.545-.084-.613.36Zm-6.121.387.214-.015a.31.31,0,0,0-.086-.057.22.22,0,0,0-.109.008C1075.478,4702.962,1075.477,4703,1075.471,4703.023Zm15.021.472a.281.281,0,0,0-.035.1c0,.014.056.024.087.036a.26.26,0,0,0,.033-.1C1090.575,4703.518,1090.522,4703.508,1090.492,4703.5Zm-18.108-.561-.087.059.067.08.112-.1Z" transform="translate(-1014.736 -4683.643)"/>
    <path id="Path_4385" data-name="Path 4385" d="M1044.346,4645.885a2.226,2.226,0,0,1,1.578-.623q1.072,0,2.142-.054c.978-.049,1.955-.148,2.933-.177a5.867,5.867,0,0,1,2.129.063,2.124,2.124,0,0,0,.909-.1,1.413,1.413,0,0,1,1.361.326,2.962,2.962,0,0,0,.917.418c.254-.288.407-.592.647-.7a1.123,1.123,0,0,1,.9-.037c.416.267.735.074,1.115.01a6.361,6.361,0,0,1,1.188,0c-.065.215-.136.424-.211.649.486-.092.49-.094.342-.445a1.215,1.215,0,0,0-.153-.216,1.749,1.749,0,0,0,.649.074,7.124,7.124,0,0,1,3.136.081c-.134.146-.266.292-.561.615a4.066,4.066,0,0,0,.709-.152c.1-.047.149-.18.222-.273l-.407-.163a2.557,2.557,0,0,1,.755-.236c1.339.022,2.677.083,4.016.135.984.039,1.968.079,2.951.129.4.021.8.071,1.2.108.713.065,1.425.132,2.137.2a1.569,1.569,0,0,1,.4.022c1.24.48,2.561.24,3.835.436,1.239.19,2.492.293,3.741.425.787.083,1.027.271,1.224,1a2.358,2.358,0,0,1-.048,1.341,9.242,9.242,0,0,1-2.37-.058c-2.173-.326-4.35-.633-6.533-.873-1.555-.172-3.122-.256-4.686-.317-1.287-.05-2.58.034-3.866-.019-2-.083-4.009.02-6.015-.132a30.052,30.052,0,0,0-3.484.108,12.09,12.09,0,0,1-1.739.063,18.386,18.386,0,0,0-4.138.143,20.5,20.5,0,0,1-2.28.082c-2.6.02-5.192.209-7.778.472a4.213,4.213,0,0,1-.535.049,71.88,71.88,0,0,0-8.039.629c-2.765.257-5.523.588-8.285.886-.044.005-.09.006-.134.013-1.984.338-3.974.644-5.95,1.024q-3.035.584-6.046,1.292a78.543,78.543,0,0,0-8.677,2.357c-.968.349-1.98.575-2.961.889a12.575,12.575,0,0,1-3.34.209,1.228,1.228,0,0,1-.716-.317,2.833,2.833,0,0,1-.451-.606,3.612,3.612,0,0,1,1.918-1.29,19.594,19.594,0,0,1,4.435-1.53,2.856,2.856,0,0,0,.515-.155,42.158,42.158,0,0,1,8.177-2.126c1.009-.18,1.993-.516,3.006-.663,1.374-.2,2.713-.567,4.079-.767,1.545-.225,3.057-.613,4.6-.838,1.059-.156,2.132-.206,3.2-.313q3.139-.313,6.277-.641c1.153-.121,2.3-.271,3.455-.386a2.572,2.572,0,0,1,.659.1c.064.535.391.606,1.048.458l-1.083-.422a10.1,10.1,0,0,1,1.294-.28c1.455-.124,2.914-.209,4.371-.307.561-.038,1.106.243,1.694.036.151-.054.426.244.639.376-.182-.02-.38-.188-.562.082Zm1.665-.08-.092.078c.035.017.09.056.1.045a.774.774,0,0,0,.108-.138Zm6.185-.215c.015.028.031.079.046.079a1.959,1.959,0,0,0,.225-.022c-.013-.031-.027-.089-.039-.088A2.216,2.216,0,0,0,1052.2,4645.59Zm-10.621.447-.061.107c.036.018.078.056.106.049a.115.115,0,0,0,.051-.1C1041.667,4646.069,1041.609,4646.056,1041.575,4646.038Zm20.932-.466.067.05.015-.074Z" transform="translate(-996.085 -4641.329)"/>
    <path id="Path_4386" data-name="Path 4386" d="M1079.179,4684.949c.045.321.011.581.1.635.425.258.472-.247.692-.418a10.348,10.348,0,0,1,3.066.133,30.367,30.367,0,0,0,3.345.274,55.131,55.131,0,0,1,7.319.977c.263.058.525.116.786.182a1.265,1.265,0,0,1,1.034,1.1c.049.31.121.616.16.928.07.563-.3.864-.816.68a11.54,11.54,0,0,0-1.386-.5c-1.135-.249-2.275-.494-3.426-.646q-4.8-.636-9.611-1.187c-1.6-.182-3.218-.113-4.827-.167-1.7-.057-3.4.091-5.094-.114a22.681,22.681,0,0,0-3.077-.225c-1.834.031-3.667.166-5.5.26a3.931,3.931,0,0,1-.669.062c-2.237-.276-4.466.213-6.713.034a34.392,34.392,0,0,0-4.559.213c-1.073.06-2.147.113-3.22.176-1.164.068-2.327.159-3.491.215-.76.037-1.523.029-2.284.045a10.21,10.21,0,0,0-1.074.037c-3.422.43-6.863.7-10.282,1.151-1.731.227-3.442.608-5.163.914-1.987.353-3.971.731-5.966,1.036a21.108,21.108,0,0,1-2.813.181,1.482,1.482,0,0,1-.863-.3c-.18-.139-.227-.451-.375-.781a3.1,3.1,0,0,1,.457-.322,32.944,32.944,0,0,1,3.675-1.642c1.445-.461,2.967-.678,4.454-1.009a61.477,61.477,0,0,1,6.25-.952c1.337-.156,2.671-.333,4.006-.5.223-.027.445-.065.668-.086,2.365-.218,4.727-.462,7.1-.638,1.832-.136,3.671-.179,5.507-.268,2.147-.1,4.3-.155,6.44-.338a36.773,36.773,0,0,1,4.833.017,2.5,2.5,0,0,0,.532.043,5.68,5.68,0,0,1,2.784.111,1.043,1.043,0,0,0,.515-.058,7.936,7.936,0,0,1,3.009-.088c.925.122,1.859.176,2.783.3a26.244,26.244,0,0,0,3.08-.053,20.36,20.36,0,0,1,3.876.279,1.677,1.677,0,0,0,.4.036,12.619,12.619,0,0,1,3.209.264A5.374,5.374,0,0,0,1079.179,4684.949Zm-12.093-.072-.059-.231c-.21.029-.424.044-.629.093-.048.011-.11.15-.091.207s.139.162.19.148A5.48,5.48,0,0,0,1067.086,4684.876Zm-3.412-.068c-.14-.106-.173-.151-.211-.157-.236-.034-.476-.32-.706,0a.156.156,0,0,0-.01.127c.13.324.412.277.67.252C1063.485,4685.025,1063.543,4684.926,1063.674,4684.808Zm-6.606-.092-.221.093c.026.031.051.087.078.089a1.582,1.582,0,0,0,.242-.027Zm12.393.157-.116-.038a1.361,1.361,0,0,0-.021.206c0,.012.072.021.111.03C1069.445,4685,1069.454,4684.938,1069.462,4684.873Zm-7.4-.075c-.068-.043-.137-.123-.2-.121s-.133.082-.2.128c.069.043.139.121.208.121S1061.993,4684.845,1062.058,4684.8Zm3.259.211.074-.052-.085-.042Zm9.4-.051a1.044,1.044,0,0,0-.118.181c-.01.025.039.072.06.107l.192-.119Zm7.016.974-.047-.1-.045.1Zm-.99-.171-.1.05.1.046Z" transform="translate(-1009.693 -4670.264)"/>
    <path id="Path_4387" data-name="Path 4387" d="M1011.736,4671.8c-.149-.081-.429-.218-.688-.387-.1-.067-.156-.211-.232-.318.111-.471.524-.608.862-.792a18.466,18.466,0,0,1,4.28-1.586c1.691-.43,3.4-.782,5.113-1.137,1.355-.282,2.719-.516,4.078-.775.439-.083.876-.178,1.314-.268a46.267,46.267,0,0,1,5.173-.777c1.247-.113,2.485-.316,3.726-.482.088-.012.184-.083.258-.063a5.927,5.927,0,0,0,2.234-.206c2.272-.22,4.546-.445,6.824-.587,1.653-.1,3.314-.071,4.971-.116.624-.017,1.25-.06,1.871-.123a11.081,11.081,0,0,1,3.069-.042,4.706,4.706,0,0,0,1.72-.045,8.547,8.547,0,0,1,2.511-.1,22.538,22.538,0,0,0,4.368.069,22.012,22.012,0,0,1,3.574-.085,18.785,18.785,0,0,0,3.078-.141,6.17,6.17,0,0,1,2.133.038,5.549,5.549,0,0,0,1.552.026,66.05,66.05,0,0,1,6.987.014c1.962.176,3.938.207,5.907.313.535.029,1.068.1,1.6.142a5.606,5.606,0,0,0,.932,0,3.04,3.04,0,0,1,1.832.254,3.082,3.082,0,0,1,.4,1.953,8.267,8.267,0,0,1-1.973.239c-1.659-.018-3.319.046-4.978.036-.85-.006-1.7-.122-2.548-.148-.623-.02-1.248.041-1.872.036-.938-.008-1.876-.039-2.813-.067-1.344-.04-2.687-.121-4.031-.126-2.195-.007-4.4.141-6.584.02s-4.376.158-6.569.094c-2.01-.06-4.027.052-6.038.147-1.743.08-3.481.25-5.222.361-.9.057-1.793.1-2.689.094-2.153-.009-4.29.2-6.43.394-1.246.112-2.5.11-3.751.2-1.337.1-2.674.232-4.006.386-3.523.407-6.964,1.253-10.427,1.98-1.36.287-2.723.559-4.093.789-.926.155-1.867.216-2.8.345C1013.575,4671.475,1012.787,4671.622,1011.736,4671.8Zm50.2-7.187-.04.079.094.048.055-.126C1062,4664.611,1061.969,4664.611,1061.932,4664.609Z" transform="translate(-1006.988 -4655.275)"/>
    <path id="Path_4388" data-name="Path 4388" d="M1097.838,4631.863a3.468,3.468,0,0,1,.436,2.324,10.172,10.172,0,0,0-2.827-.742c-1.062-.125-2.113-.346-3.176-.458-1.419-.149-2.844-.256-4.269-.332-.577-.031-1.16.093-1.741.1-.716.014-1.432-.01-2.148-.03a5.193,5.193,0,0,0-.937-.058,27.605,27.605,0,0,1-4.4-.024c-.134,0-.317-.064-.4,0-.618.506-1.245.236-1.9.114a3.243,3.243,0,0,0-1.326.1,8.454,8.454,0,0,1-2.942.134,14.691,14.691,0,0,0-2.267.014c-1.386.061-2.77.155-4.155.228-1.208.062-2.416.125-3.625.165-.536.019-1.073-.015-1.611-.023a2.518,2.518,0,0,0-.671.011c-1.27.34-2.589.126-3.867.354a2.026,2.026,0,0,1-.537.035,26.7,26.7,0,0,0-4.531.412c-1.475.113-2.945.286-4.417.435a2.366,2.366,0,0,1-.4.053,23.685,23.685,0,0,0-4.4.472c-1.2.13-2.408.192-3.6.354q-2.062.281-4.1.691c-2.238.449-4.462.968-6.7,1.414a49.482,49.482,0,0,1-5.671,1.062,7.937,7.937,0,0,1-2.243.229,1.337,1.337,0,0,1-1.165-.968.5.5,0,0,1,.169-.6,2.721,2.721,0,0,1,.822-.442,42.1,42.1,0,0,1,5.2-1.324c1.372-.17,2.72-.53,4.087-.759,1.1-.183,2.211-.3,3.319-.437s2.236-.166,3.324-.39a44.263,44.263,0,0,1,4.668-.534,8.278,8.278,0,0,0,1.06-.152,12.2,12.2,0,0,1,2.916-.388,23.779,23.779,0,0,0,2.8-.267c1.555-.172,3.107-.38,4.665-.517,1.112-.1,2.232-.1,3.348-.15.09,0,.18,0,.269-.005a36.1,36.1,0,0,1,4.123-.277c1.343,0,2.686-.108,4.03-.163q3.683-.151,7.368-.29a1.583,1.583,0,0,1,.781.1.686.686,0,0,0,.729-.01,2.174,2.174,0,0,1,.916-.137c2.106.04,4.209-.032,6.314-.084.894-.021,1.792.106,2.686.079a33.848,33.848,0,0,1,5.365.192c.615.079,1.255-.05,1.88-.02,2.014.1,4.026.22,6.038.337C1096.013,4631.74,1096.9,4631.8,1097.838,4631.863Zm-35.695.321c-.007-.032,0-.081-.023-.092a.251.251,0,0,0-.108-.008l.033.141Z" transform="translate(-1012.467 -4631.098)"/>
  </g>
</svg>
