<svg xmlns="http://www.w3.org/2000/svg" width="88.827" height="43.079" viewBox="0 0 88.827 43.079">
  <path id="Sky_Effect" data-name="Sky Effect" d="M1042.629,4551.278c-.659.138-.684.759-.9,1.216-.478,1.018-.891,2.067-1.378,3.08a4.2,4.2,0,0,1-.818,1.175,1.813,1.813,0,0,1-.98.466,2.43,2.43,0,0,1-2.463-2.213,4.989,4.989,0,0,1,.309-2.2,3.365,3.365,0,0,0,.29-1.406,7.939,7.939,0,0,1,1.027-3.505,8.424,8.424,0,0,0,.525-2.015c-.675.044-.873.5-1.077.914-.823,1.685-1.614,3.385-2.456,5.061a24.183,24.183,0,0,1-1.444,2.5,3.071,3.071,0,0,1-.966.806,1.1,1.1,0,0,1-1.346-.083c-.419-.323-.869-.606-1.363-.946q-.715.949-1.312,1.74a2.854,2.854,0,0,1-2.117-.887,1.267,1.267,0,0,1-.427-1.16c.074-.961.188-1.918.278-2.877.018-.188,0-.378,0-.89a19.07,19.07,0,0,0-1.156,2.773c-.412,1.046-.767,2.117-1.225,3.142-.722,1.618-1.411,1.767-2.84.721a2.211,2.211,0,0,1-1.008-1.726,21.113,21.113,0,0,1,.18-4.485c.2-1.428.422-2.854.625-4.282.013-.088-.057-.188-.122-.385-.2.393-.4.706-.532,1.045-.872,2.246-1.729,4.5-2.594,6.747a5.741,5.741,0,0,1-1.147,1.928c-1.077.221-1.715-.446-2.311-1.132a1.092,1.092,0,0,1-.16-.756c.068-.638.2-1.269.31-1.9.065-.37.159-.734.212-1.1.089-.626.156-1.254.272-2.2a5.5,5.5,0,0,0-.653.8c-.7,1.5-1.368,3.025-2.074,4.53a18.894,18.894,0,0,1-1.194,2.27c-.475.732-.859.744-1.641.4a1.806,1.806,0,0,1-1.162-2.046,38.732,38.732,0,0,1,1.167-6.8,70.539,70.539,0,0,1,3.818-11.077,51.858,51.858,0,0,1,3.245-5.891c1.667-2.64,3.662-5.014,5.567-7.465a3.738,3.738,0,0,0,.638-1.1c.345-1.07.637-2.158.917-3.248.148-.574.117-.583-.178-1.528a3.782,3.782,0,0,0-2.1,1.275,50.994,50.994,0,0,0-7.272,9.968c-1.594,2.869-2.779,5.909-4.128,8.88a23.325,23.325,0,0,0-.976,3.224c-.089.307-.109.637-.213.937s-.312.574-.705.521a.779.779,0,0,1-.712-.735,11.237,11.237,0,0,1,.229-1.9,12.253,12.253,0,0,1,.621-1.824,57.043,57.043,0,0,1,2.554-5.886c.764-1.411,1.348-2.918,2.079-4.348a40.505,40.505,0,0,1,6.158-8.99,17.915,17.915,0,0,1,1.992-1.867,4.355,4.355,0,0,1,2.8-1.058,2.047,2.047,0,0,1,2.128,2.271c-.037.578-.155,1.15-.233,1.7.566.5,1.2.12,1.918.372l1.1,1.225a1.045,1.045,0,0,0,.408-.027,2.41,2.41,0,0,1,2.95.448,1.013,1.013,0,0,0,.541.306c.431.037.884,0,1.093-.48.461-1.067,1.489-1.521,2.355-2.116a2.382,2.382,0,0,1,2.941.327c.2.175.391.352.623.562a4.482,4.482,0,0,0,.771-.216,4.072,4.072,0,0,1,3.991.1c.8.442.982.339,1.648-.356,1.145-1.2,2.352-2.334,3.478-3.548,1.038-1.119,2.308-.952,3.587-.762a1.164,1.164,0,0,1,.895.846c.138.4.242.813.356,1.2,1.616.46,1.616.46,2.865,2.236a7.167,7.167,0,0,0,.737-.515c.6-.534,1.157-1.118,1.772-1.635a3.123,3.123,0,0,1,4.105-.388,4.1,4.1,0,0,0,.41.174c2.97-1.3,3.355-.793,4.779.846a2.265,2.265,0,0,0,.517-.339c.763-.876,1.757-.667,2.7-.561a1.187,1.187,0,0,1,.969.966,4.457,4.457,0,0,1,.1,1.113c0,.473-.037.947-.056,1.378a.559.559,0,0,0,.771-.191c.292-.31.581-.623.84-.9,1.919.045,1.919.045,3.05.909.558-.176.849-.734,1.279-1.1a3.383,3.383,0,0,1,2.513-.862,1.951,1.951,0,0,1,1.72,1c.208.367.445.717.658,1.058,2.6-.383,2.785-.332,4.521,1.234.7.007,1-.552,1.329-1.018a4.419,4.419,0,0,1,2.273-1.7,4.638,4.638,0,0,1,2.531,0,1.559,1.559,0,0,1,.764.534,3.173,3.173,0,0,1,.693,2.092,25.715,25.715,0,0,1-.595,5.584c-.871,4.033-2.172,7.947-3.237,11.925-.53,1.979-1.425,3.808-2.046,5.745-.294.917-.623,1.826-.994,2.715-.473,1.135-1,2.249-1.513,3.365a1.641,1.641,0,0,1-1.246.917.489.489,0,0,1-.62-.531,5.466,5.466,0,0,1,.266-1.251c.326-.848.571-1.716.827-2.586,1.131-3.851,2.339-7.679,3.5-11.523q1.065-3.531,2.068-7.08a33.282,33.282,0,0,0,1.123-7.777,3.853,3.853,0,0,0-.18-.843,5.943,5.943,0,0,0-.8.389,12.218,12.218,0,0,0-3.78,4.314,3.649,3.649,0,0,0-.334,1.375c-.116,1.386-.168,2.778-.267,4.165a52.631,52.631,0,0,1-1.308,8.074,121.915,121.915,0,0,1-3.767,12.289c-.643,1.865-1.522,3.652-2.327,5.461a2.818,2.818,0,0,1-1.8,1.715,2.012,2.012,0,0,1-1.71-.136,14.066,14.066,0,0,1-1.667-1.25,1.373,1.373,0,0,1-.443-1.313,36.765,36.765,0,0,1,1.482-6.891c1-2.649,1.691-5.411,2.67-8.067.962-2.609,2.068-5.169,3.2-7.709.9-2,1.952-3.935,2.9-5.917a7.262,7.262,0,0,0,.46-4.3.55.55,0,0,0-.777.228,19.262,19.262,0,0,0-3.171,5.369q-1.92,5.542-3.9,11.062c-.9,2.519-1.852,5.018-2.761,7.532q-1.884,5.211-3.736,10.434c-.31.873-.792,1.049-1.567.509a8.684,8.684,0,0,1-.714-.615,1.652,1.652,0,0,1-.042-.508,50.584,50.584,0,0,1,2.461-7.805c.75-1.654,1.262-3.394,2.041-5.03a3.669,3.669,0,0,0,.246-.593c1.009-3.674,2.485-7.185,3.726-10.777,1.067-3.088,2.017-6.216,3-9.333a15.723,15.723,0,0,0,.411-1.882,3.017,3.017,0,0,0-.065-.7,2.8,2.8,0,0,0-.637.336,19.413,19.413,0,0,0-4.159,6.235c-2.462,5.82-4.5,11.8-6.9,17.649-.751,1.833-1.445,3.69-2.168,5.535a4.621,4.621,0,0,1-.272.583,13.49,13.49,0,0,0-1.726,4.083c-.9.158-1.345-.368-1.871-.959.317-1.219.588-2.469.971-3.684q.869-2.756,1.874-5.47c.427-1.154.975-2.262,1.461-3.392.3-.688.582-1.38.865-2.073q1.028-2.524,2.047-5.052c.319-.791.621-1.589.938-2.381.355-.888.683-1.79,1.087-2.656a24.315,24.315,0,0,0,1.353-3.944,1.688,1.688,0,0,0,.005-.439c-.466-.167-.6.184-.784.416a21.01,21.01,0,0,0-3.339,6.525c-1.009,3.051-2.173,6.051-3.183,9.1-1.062,3.208-2.374,6.311-3.684,9.42-.54,1.282-.948,2.618-1.442,3.919-.225.591-.515,1.158-.757,1.694-1.321-.077-1.651-.348-2.344-1.887-.226.273-.419.513-.619.747-1.3,1.522-3.055,1.266-3.935-.577-.066-.138-.125-.277-.183-.4-.378-.013-.456.262-.577.5-.491.952-.948,1.924-1.49,2.847-.51.869-1.025.96-1.863.441-.226-.141-.423-.328-.645-.479a1.17,1.17,0,0,1-.53-1.254,19.665,19.665,0,0,1,.909-3.9,21.664,21.664,0,0,0,.782-2.606c.13-.5.175-1.022.278-1.66a5.094,5.094,0,0,0-1.336,1.948c-.51,1.121-1.049,2.229-1.6,3.33a6.511,6.511,0,0,1-.7,1.075,1.33,1.33,0,0,1-2.076.363c-.274-.168-.525-.374-.8-.542a2.058,2.058,0,0,1-.972-1.745c-.016-.266-.05-.529-.079-.8,0-.077,0-.151,0-.226Zm-3.838-6.978c-.006-.139-.012-.277-.005-.109.014-.167,0-.024-.009.119l-.31.244.041.052Q1038.65,4544.455,1038.791,4544.3Zm-15.683-5.817a2.479,2.479,0,0,0-.366,1.455,1.257,1.257,0,0,0,.328-1.5,1.185,1.185,0,0,0,.546-1.428C1023.366,4537.711,1023.231,4538.09,1023.108,4538.482Zm39.515-10.692c.039.027.093.044.114.081s-.012.079-.021.119l-.06-.219a.755.755,0,0,0,.75-.486c.308-.618.579-1.26.943-1.844a11.173,11.173,0,0,0,1.763-6.358,3.189,3.189,0,0,0-.2-.667,4.178,4.178,0,0,0-2.018,2.868c-.215,1.476-.43,2.952-.706,4.417A4.047,4.047,0,0,1,1062.622,4527.79Zm-45.668,19.955.021.3c-.005-.106-.01-.211-.016-.318a3.059,3.059,0,0,0,.549-.536,15.319,15.319,0,0,0,1.292-3.264c1.1-3.29,2.237-6.566,3.365-9.847a3.755,3.755,0,0,0,.17-1.659.712.712,0,0,0-.347.356c-.387.759-.792,1.51-1.148,2.283a58.008,58.008,0,0,0-2.807,8.169C1017.6,4544.714,1017.31,4546.236,1016.954,4547.745Zm7.074-11.907c.013.124.026.248.039.373l.035-.007-.073-.394c.5-.1.614-.529.8-.911a79.987,79.987,0,0,1,4.532-8.463,4.79,4.79,0,0,0,.82-4.051c-.115-.035-.181-.08-.215-.062a5.454,5.454,0,0,0-2.955,3.371c-.436,1.484-.922,2.954-1.359,4.438C1025.1,4532.025,1024.567,4533.926,1024.028,4535.838Zm31.559-4.809c.013.049.027.1.039.148s.019.083.028.125l-.067-.305c.5-.09.663-.5.824-.892a45.776,45.776,0,0,1,2.827-5.544c.641-1.105,1.307-2.2,1.926-3.313a4.147,4.147,0,0,0,.556-2.3,2.206,2.206,0,0,0-.266-.647,1.52,1.52,0,0,0-.407.11,15.6,15.6,0,0,0-4,4.31,2.9,2.9,0,0,0-.395,1.359A47.625,47.625,0,0,1,1055.588,4531.029Zm29.432.925-.283-.057a6.827,6.827,0,0,0-.482.788c-.628,1.415-1.267,2.827-1.849,4.26a90.065,90.065,0,0,0-4.217,12.945,51.041,51.041,0,0,0-.784,5.391c-.042.33-.128.771.5.933a9.734,9.734,0,0,0,.945-1.208,16.167,16.167,0,0,0,1.282-2.57c.709-2.01,1.326-4.053,1.958-6.089a90.515,90.515,0,0,0,2.921-13.137A8.347,8.347,0,0,0,1085.02,4531.954Zm-64.834-3.471c-.973.74-1.9,1.929-3.821,5.238a54.947,54.947,0,0,0-6.277,17.963,2.577,2.577,0,0,0,.005,1.745,1.716,1.716,0,0,0,.893-.933,66.956,66.956,0,0,0,3.668-8.208c1.279-3.18,2.4-6.419,3.579-9.64.605-1.659,1.181-3.33,1.748-5A8.122,8.122,0,0,0,1020.185,4528.482Zm1.741,25.71a2.065,2.065,0,0,0,.9-1.359c1.007-2.992,2.025-5.981,2.971-8.994.865-2.756,1.674-5.531,2.446-8.315.443-1.6.778-3.225,1.125-4.846.051-.237.275-.646-.277-.773-.321.55-.676,1.088-.96,1.662-.783,1.583-1.559,3.17-2.3,4.774a50.522,50.522,0,0,0-4.067,15.305,15.4,15.4,0,0,0-.065,1.925A2.214,2.214,0,0,0,1021.927,4554.192Zm16.8-.923a3.339,3.339,0,0,0,.969-1.51c.308-.741.6-1.488.9-2.234.632-1.59,1.374-3.147,1.867-4.78.976-3.229,2.4-6.294,3.385-9.514a1.455,1.455,0,0,1,.052-.152,77.193,77.193,0,0,0,2.594-7.594,2.69,2.69,0,0,0,.006-.639C1044.349,4532.281,1038.844,4547.174,1038.724,4553.269Zm14.679-24.136-.308-.138a7.114,7.114,0,0,0-.624.863c-.617,1.187-1.259,2.364-1.8,3.587a83.941,83.941,0,0,0-4.909,13.724c-.329,1.346-.515,2.729-.732,4.1a3.909,3.909,0,0,0,.117.976c.246-.149.42-.194.489-.306a8.942,8.942,0,0,0,.772-1.4c.927-2.389,1.846-4.783,2.723-7.19a119.452,119.452,0,0,0,4.161-13.465C1053.354,4529.64,1053.368,4529.384,1053.4,4529.133Zm2.473,23.8a3.126,3.126,0,0,0,1.254-1.437c.574-1.031.818-2.212,1.4-3.218a19.35,19.35,0,0,0,1.325-3.426c.786-2.221,1.548-4.45,2.315-6.678.941-2.731,1.686-5.519,2.4-8.315.1-.4.347-.79.014-1.249a3.03,3.03,0,0,0-.857,1.329q-1.088,2.325-2.125,4.675a106.274,106.274,0,0,0-5.484,15.923A5.085,5.085,0,0,0,1055.875,4552.934Zm-23.67-1.307q.153.083.307.164a8.791,8.791,0,0,0,1.476-2.411c.771-1.7,1.52-3.416,2.285-5.122a89.792,89.792,0,0,0,3.775-9.536c.613-1.932,1.123-3.9,1.667-5.851a8.047,8.047,0,0,0,.146-.946c-.7.076-.834.611-1.044,1a70.42,70.42,0,0,0-4.131,8.688c-1.492,3.951-2.873,7.941-3.991,12.017C1032.513,4550.291,1032.367,4550.961,1032.2,4551.627Zm28.171-24.942c-.622.38-.623.38-.719.594-1.387,3.066-2.85,6.1-4.049,9.248-.664,1.744-1.346,3.482-2.018,5.223a2.791,2.791,0,0,0-.094.307c-.637,2.541-1.308,5.073-1.885,7.626a3.7,3.7,0,0,0-.186,2.208,15.155,15.155,0,0,0,.885-1.6c.984-2.426,1.938-4.865,2.889-7.3.408-1.045.768-2.109,1.179-3.154a101.37,101.37,0,0,0,3.366-10.026A9.74,9.74,0,0,0,1060.375,4526.685Zm-15.818,1.962c.93-.586.94-.582,1.131-.979A38.13,38.13,0,0,1,1049.3,4522a15.323,15.323,0,0,0,1.45-2.667,4.808,4.808,0,0,0,.352-2.452,3.407,3.407,0,0,0-.785.311,27.314,27.314,0,0,0-4.858,4.875,2.233,2.233,0,0,0-.435,1.182c-.159,1.378-.361,2.751-.519,4.13A9.161,9.161,0,0,0,1044.557,4528.647Zm-15.827,21c1.98-4.226,3.135-8.389,4.591-12.433,1.011-2.809,1.653-5.75,2.449-8.636.016-.055-.1-.147-.217-.311a6.756,6.756,0,0,0-.513.814c-.459,1.025-.887,2.065-1.337,3.1a81.4,81.4,0,0,0-4.846,15.117A6.029,6.029,0,0,0,1028.73,4549.643Zm1.963-15.18.211.054c.141-.4.267-.8.427-1.193.607-1.476,1.137-2.993,1.864-4.408a47.085,47.085,0,0,1,2.853-4.992,7.944,7.944,0,0,0,.841-1.887,1.409,1.409,0,0,0-.362-1.56,9.943,9.943,0,0,0-1.139.859c-.717.715-1.38,1.485-2.08,2.218a4.087,4.087,0,0,0-1.057,2.442,55.834,55.834,0,0,1-1.346,7.551C1030.824,4533.85,1030.763,4534.159,1030.693,4534.463Zm7.254-3.6c.139-.219.286-.434.415-.658.824-1.431,1.635-2.869,2.469-4.293.4-.689.84-1.359,1.271-2.031a3.96,3.96,0,0,0,.531-2.3.838.838,0,0,0-.579-.892,2.242,2.242,0,0,0-.427.112,4.093,4.093,0,0,0-2.62,3.667A41.11,41.11,0,0,1,1037.947,4530.862Zm29.118-.92c.191-.056.344-.061.362-.112a57.367,57.367,0,0,0,2.76-10.017c.009-.058-.12-.138-.256-.283a5.071,5.071,0,0,0-1.695,3.132c-.234,1.747-.561,3.481-.846,5.221C1067.279,4528.555,1067.177,4529.229,1067.065,4529.942Zm-12.956-10.6c-.28.11-.415.121-.465.191a2.911,2.911,0,0,0-.395.682,56.045,56.045,0,0,0-1.88,7.236,13.465,13.465,0,0,0,2.515-3.789A6.715,6.715,0,0,0,1054.109,4519.346Zm-28.562,3.137c-.407.022-.612-.029-.687.047a9.472,9.472,0,0,0-1.268,1.416,20.276,20.276,0,0,0-1.913,4.531c-.04.117.046.277.1.565a29.982,29.982,0,0,0,3.083-4.562A12.531,12.531,0,0,0,1025.547,4522.483Zm-4.025,7.569a2.245,2.245,0,0,0,.157-.245c.006-.013-.083-.1-.1-.089a.472.472,0,0,0-.191.158C1021.377,4529.9,1021.473,4529.99,1021.522,4530.053Zm23.145-.763-.093-.012.034.108Z" transform="translate(-1006.859 -4515.141)" fill="#a545f5" opacity="0.701"/>
</svg>
